<?xml version="1.0" encoding="utf-8"?>
<svg version="1.1" xmlns="http://www.w3.org/2000/svg" xmlns:xlink="http://www.w3.org/1999/xlink" x="0px" y="0px"
	 viewBox="0 0 248.79 90.16" style="enable-background:new 0 0 248.79 90.16;" xml:space="preserve">
<g>
	<path fill="#fff" d="M235.82,84.43l-0.24-0.8l-1.51-4.56h-2.3l2.99,8.3h1.95l1.65-4.68l1.65,4.68h1.95l2.99-8.3h-2.3l-1.5,4.56
		l-0.24,0.8l-0.24-0.8l-1.43-4.56h-1.74l-1.43,4.56L235.82,84.43z M228.44,82.36h-3.39c0.16-0.94,0.85-1.72,1.83-1.72
		C227.9,80.64,228.44,81.56,228.44,82.36 M230.55,83.84v-1.11c0-2.3-1.55-3.93-3.69-3.93c-2.28,0-4.23,1.95-4.23,4.42
		c0,2.75,2.33,4.4,4.63,4.4c2.02,0,2.92-0.59,3.17-0.73v-1.86c-0.35,0.14-1.43,0.71-2.94,0.71c-1.32,0-2.26-0.92-2.51-1.9H230.55z
		 M220.63,87.36v-5.01c0-2.42-1.29-3.55-3.06-3.55c-1.41,0-2.28,0.68-2.59,0.96l-0.12-0.71h-2.26v8.3h2.35v-5.62
		c0.33-0.31,1.15-0.92,1.9-0.92c0.82,0,1.41,0.47,1.41,1.46v5.08H220.63z M207.75,85.25c-0.19,0.17-0.85,0.56-1.46,0.56
		c-0.49,0-1.08-0.35-1.08-0.96c0-0.61,0.54-1.1,1.34-1.2l1.2-0.12V85.25z M210.03,87.36v-8.3h-6.23l-0.35,1.79h4.3v1.2l-1.29,0.09
		c-1.83,0.14-3.5,0.94-3.5,2.82c0,1.48,1.2,2.63,2.75,2.63c1.08,0,1.81-0.45,2.19-0.82l0.12,0.59H210.03z M194.68,82.36h-3.38
		c0.16-0.94,0.85-1.72,1.83-1.72C194.14,80.64,194.68,81.56,194.68,82.36 M196.8,83.84v-1.11c0-2.3-1.55-3.93-3.69-3.93
		c-2.28,0-4.23,1.95-4.23,4.42c0,2.75,2.33,4.4,4.63,4.4c2.02,0,2.92-0.59,3.17-0.73v-1.86c-0.35,0.14-1.43,0.71-2.94,0.71
		c-1.32,0-2.26-0.92-2.51-1.9H196.8z M184.95,82.36h-3.39c0.17-0.94,0.85-1.72,1.83-1.72C184.41,80.64,184.95,81.56,184.95,82.36
		 M187.06,83.84v-1.11c0-2.3-1.55-3.93-3.69-3.93c-2.28,0-4.23,1.95-4.23,4.42c0,2.75,2.33,4.4,4.63,4.4c2.02,0,2.91-0.59,3.17-0.73
		v-1.86c-0.35,0.14-1.43,0.71-2.94,0.71c-1.32,0-2.26-0.92-2.51-1.9H187.06z M177.61,85.01c0-1.72-1.58-2.35-2.94-3.01
		c-0.54-0.26-0.8-0.45-0.8-0.75c0-0.33,0.35-0.56,1.01-0.56c0.99,0,2.07,0.47,2.47,0.66V79.4c-0.35-0.17-1.46-0.59-2.59-0.59
		c-1.65,0-3.06,0.89-3.06,2.59c0,1.62,1.67,2.33,2.87,2.94c0.66,0.33,0.85,0.54,0.85,0.8c0,0.35-0.35,0.59-1.04,0.59
		c-0.94,0-2.23-0.59-2.61-0.75v2.09c0.52,0.19,1.34,0.56,2.66,0.56C176.04,87.62,177.61,86.78,177.61,85.01"/>
</g>
<g>
	<path fill="#fff" d="M3.92,30.32v3.09c3.11-1.94,8.73-3.23,15.15-3.23c6.42,0,12.03,1.29,15.15,3.23v-3.09
		c-3.11-1.95-8.73-3.23-15.15-3.23C12.66,27.08,7.04,28.37,3.92,30.32"/>
	<path fill="#fff" d="M5.47,34.47v2.96c3.25-1.47,8.14-2.41,13.6-2.41c5.46,0,10.35,0.94,13.6,2.41v-2.96
		c-3.25-1.47-8.14-2.41-13.6-2.41C13.61,32.06,8.72,33,5.47,34.47"/>
	<path fill="#fff" d="M24.33,2.68c-0.41-0.52-0.88-0.99-1.39-1.41c-0.04-0.03,0,0.05-0.04,0.01l0,0.01l-0.02,0.02l0.02,0.04
		c0.13,0.29,0.23,0.6,0.28,0.92c1.03,5.82-6.49,5.96-9.14,11.06c-2.86,5.49,0.97,11.67,1.76,12.85c0.06,0.09,0.21,0.05,0.21-0.06
		c0-0.01,0-0.03,0-0.04c-0.79-4.63-0.45-6,1.04-8.29c1.88-2.89,5.91-4.58,5.64-6.22c-0.01-0.06-0.03-0.13-0.05-0.2
		c-0.03-0.08-0.07-0.17-0.07-0.17s0.31,0.22,0.59,0.59c2.75,3.57,1.37,7.09,0.25,9.31c-1.26,2.51-3.79,3.94-4.18,4.2
		c-0.07,0.04-0.12,0.09-0.17,0.13c-0.08,0.07-0.01,0.2,0.09,0.17c0.14-0.04,0.47-0.13,1.04-0.39c1.1-0.5,4.65-1.91,6.35-6.18
		C28.1,15.12,29.05,8.58,24.33,2.68"/>
	<path fill="#fff" d="M41.37,30.24v-0.69c0.78-0.19,1.45-0.71,1.95-1.59c0.57-1.01,1.02-4.94,1.02-4.94s2-14.48,2.22-16.11
		c0.22-1.59-0.79-1.99-1.4-2.23V3.98h5.81l5.82,20.11l5.41-20.11h6.02v0.69c-0.49,0.06-0.86,0.25-1.13,0.59
		c-0.27,0.33-0.4,0.77-0.4,1.32c0,0.21,0.01,0.43,0.03,0.63c0.02,0.21,0.05,0.41,0.08,0.61l2.55,17.89
		c0.17,1.14,0.42,2.04,0.76,2.69c0.34,0.65,0.76,1.03,1.25,1.14v0.69h-7.07v-0.69c0.49-0.04,0.88-0.23,1.17-0.59
		c0.29-0.36,0.44-0.82,0.44-1.39c0-0.13-0.01-0.27-0.02-0.42c-0.01-0.15-0.03-0.31-0.05-0.49L63.15,8.11l-5.96,22.14h-2.23
		l-6.6-22.16L46.1,24.54c0,0-0.4,3.06,0.07,3.93c0.33,0.61,0.93,0.95,1.66,1.08v0.69H41.37z"/>
	<path fill="#fff" d="M74.97,30.24v-0.69c0.59-0.01,1.02-0.27,1.28-0.77s0.39-1.31,0.39-2.44V7.93c0-1.18-0.13-2.01-0.39-2.49
		c-0.26-0.49-0.69-0.74-1.28-0.77V3.98H93.3l0.43,5.11L92.97,9.2c-0.46-1.34-1.32-1.87-2.42-2.36c-1.25-0.56-3.16-0.86-6.28-0.86
		h-1.12c-1.31,0-2.1,0.11-2.37,0.33c-0.27,0.22-0.41,0.85-0.41,1.78v6.34h3.79c2,0,3.21,0.04,4.07-0.21
		c0.86-0.25,1.52-1.03,1.84-1.97h0.6v6.25h-0.64c-0.32-0.93-1.21-1.74-1.92-1.92c-1.03-0.27-1.47-0.19-3.44-0.19h-4.31v9.24
		c0,1.16,0.19,1.88,0.57,2.15c0.38,0.27,1.37,0.4,2.97,0.4c1.92,0,3.29-0.04,4.11-0.12s2.53-0.35,4.13-1.31
		c0.94-0.56,1.77-1.1,2.58-2.23l0.76,0.41l-1.53,5.32H74.97z"/>
	<path fill="#fff" d="M126.67,63.7V63c0.59-0.01,1.02-0.27,1.28-0.77c0.26-0.5,0.39-1.31,0.39-2.44V41.39
		c0-1.17-0.13-2.01-0.39-2.49c-0.26-0.49-0.69-0.74-1.28-0.77v-0.69h18.34l0.43,5.11l-0.76,0.11c-0.46-1.34-1.32-1.86-2.42-2.36
		c-1.25-0.56-3.16-0.86-6.29-0.86h-1.12c-1.31,0-2.1,0.11-2.37,0.33c-0.27,0.22-0.41,0.85-0.41,1.78v6.34h3.79
		c1.99,0,3.21,0.04,4.07-0.21c0.86-0.25,1.52-1.03,1.84-1.97h0.6v6.25h-0.64c-0.32-0.92-1.21-1.74-1.92-1.92
		c-1.03-0.27-1.47-0.19-3.44-0.19h-4.31v9.24c0,1.16,0.19,1.88,0.57,2.15c0.38,0.27,1.37,0.4,2.97,0.4c1.92,0,3.29-0.04,4.11-0.12
		c0.82-0.08,2.53-0.35,4.13-1.31c0.94-0.56,1.77-1.1,2.58-2.23l0.76,0.41l-1.53,5.32H126.67z"/>
	<path fill="#fff" d="M118.53,27.43l1.42-5.06l0.8,0.14c0,0,0.79,6.24,7.13,6.27c6.89,0.04,6.61-6.03,4.75-7.58
		c-1.12-0.93-2.55-1.85-5.19-2.89c-0.21-0.08-0.55-0.21-1-0.39c-2.46-0.95-4.11-1.88-4.97-2.78c-0.63-0.66-1.1-1.39-1.42-2.16
		c-0.32-0.78-0.48-1.6-0.48-2.47c0-2.03,0.75-3.72,2.25-5.07c1.5-1.35,3.39-2.03,5.65-2.03c1.25,0,2.53,0.22,3.86,0.65
		c1.32,0.43,2.67,1.08,4.03,1.93l-1.18,4.52l-0.73-0.14c-0.47-1.84-1.51-4.98-6.34-4.98c-4.83,0-5.4,4.67-3.83,6.37
		c0.76,0.78,2.25,1.63,4.49,2.55c0.24,0.09,0.58,0.24,1.03,0.43c3.07,1.24,5.05,2.29,5.93,3.15c0.67,0.64,1.16,1.38,1.49,2.21
		c0.33,0.83,0.49,1.77,0.49,2.81c0,2.29-0.83,4.18-2.49,5.68c-1.66,1.5-3.79,2.24-6.37,2.24c-1.73,0-3.4-0.29-4.99-0.87
		C121.27,29.38,119.83,28.53,118.53,27.43"/>
	<path fill="#fff" d="M171.67,60.92l1.42-5.06l0.8,0.14c0,0,0.79,6.23,7.13,6.27c6.89,0.04,6.61-6.03,4.75-7.58
		c-1.12-0.93-2.55-1.85-5.19-2.89c-0.21-0.08-0.55-0.21-1-0.39c-2.46-0.95-4.11-1.88-4.97-2.78c-0.63-0.66-1.1-1.38-1.43-2.16
		c-0.32-0.78-0.48-1.6-0.48-2.47c0-2.03,0.75-3.72,2.25-5.07c1.5-1.35,3.38-2.03,5.65-2.03c1.25,0,2.53,0.22,3.85,0.65
		c1.32,0.43,2.67,1.08,4.03,1.93l-1.18,4.52l-0.73-0.14c-0.47-1.84-1.51-4.98-6.34-4.98s-5.4,4.67-3.83,6.37
		c0.76,0.78,2.26,1.63,4.49,2.55c0.24,0.09,0.58,0.24,1.03,0.43c3.07,1.24,5.05,2.28,5.93,3.15c0.67,0.64,1.16,1.38,1.49,2.21
		c0.33,0.83,0.49,1.77,0.49,2.81c0,2.29-0.83,4.19-2.49,5.68c-1.66,1.5-3.79,2.24-6.37,2.24c-1.73,0-3.4-0.29-4.99-0.87
		C174.41,62.87,172.97,62.03,171.67,60.92"/>
	<path fill="#fff" d="M97.79,27.43l1.42-5.06l0.8,0.14c0,0,0.79,6.24,7.13,6.27c6.89,0.04,6.61-6.03,4.75-7.58
		c-1.12-0.93-2.55-1.85-5.19-2.89c-0.21-0.08-0.55-0.21-1-0.39c-2.46-0.95-4.11-1.88-4.97-2.78c-0.63-0.66-1.1-1.39-1.42-2.16
		c-0.32-0.78-0.48-1.6-0.48-2.47c0-2.03,0.75-3.72,2.25-5.07c1.5-1.35,3.39-2.03,5.65-2.03c1.25,0,2.53,0.22,3.86,0.65
		c1.32,0.43,2.67,1.08,4.03,1.93l-1.18,4.52l-0.73-0.14c-0.47-1.84-1.51-4.98-6.34-4.98s-5.4,4.67-3.83,6.37
		c0.76,0.78,2.25,1.63,4.49,2.55c0.24,0.09,0.58,0.24,1.03,0.43c3.07,1.24,5.05,2.29,5.93,3.15c0.67,0.64,1.16,1.38,1.49,2.21
		c0.33,0.83,0.49,1.77,0.49,2.81c0,2.29-0.83,4.18-2.49,5.68c-1.66,1.5-3.79,2.24-6.37,2.24c-1.73,0-3.4-0.29-4.99-0.87
		C100.53,29.38,99.09,28.53,97.79,27.43"/>
	<path fill="#fff" d="M139.89,30.24v-0.68c0.6-0.03,1.03-0.3,1.29-0.79c0.26-0.49,0.38-1.3,0.38-2.43V7.93
		c0-1.15-0.13-1.98-0.39-2.48c-0.26-0.5-0.69-0.76-1.28-0.78V3.98h7.14v0.69c-0.59,0.02-1.02,0.28-1.28,0.77
		c-0.26,0.49-0.39,1.32-0.39,2.49v18.41c0,1.15,0.13,1.97,0.38,2.45c0.25,0.48,0.69,0.73,1.29,0.76v0.69H139.89z"/>
	<path fill="#fff" d="M92.87,63.7v-0.68c0.6-0.03,1.03-0.3,1.29-0.79c0.26-0.49,0.38-1.3,0.38-2.43V41.39
		c0-1.15-0.13-1.98-0.39-2.47c-0.26-0.5-0.69-0.76-1.28-0.78v-0.69h7.14v0.69c-0.59,0.02-1.02,0.28-1.28,0.77
		c-0.26,0.49-0.39,1.32-0.39,2.49V59.8c0,1.15,0.13,1.97,0.38,2.45c0.25,0.48,0.69,0.73,1.29,0.76v0.69H92.87z"/>
	<path fill="#fff" d="M191.68,63.7v-0.68c0.6-0.03,1.03-0.3,1.29-0.79c0.26-0.49,0.38-1.3,0.38-2.43V41.39
		c0-1.15-0.13-1.98-0.39-2.47c-0.26-0.5-0.69-0.76-1.28-0.78v-0.69h7.14v0.69c-0.59,0.02-1.02,0.28-1.28,0.77
		c-0.26,0.49-0.39,1.32-0.39,2.49V59.8c0,1.15,0.13,1.97,0.38,2.45c0.25,0.48,0.68,0.73,1.29,0.76v0.69H191.68z"/>
	<path fill="#fff" d="M231.34,63.7v-0.68c0.59-0.02,1.03-0.29,1.3-0.79c0.27-0.5,0.41-1.31,0.41-2.43l0.01-6.68l-6.1-11.02
		l-0.16-0.28c-1.34-2.39-2.4-3.63-3.19-3.72v-0.66h7.35v0.66c-0.39,0.05-0.68,0.15-0.87,0.32c-0.19,0.17-0.29,0.4-0.29,0.71
		c0,0.24,0.11,0.61,0.33,1.12c0.22,0.51,0.55,1.16,0.99,1.94l4.77,8.66c0,0,4.75-8.5,5.05-9.07c0.54-1.02,0.63-1.38,0.63-1.82
		c0-0.5-0.16-0.93-0.48-1.29c-0.32-0.36-0.72-0.56-1.19-0.58v-0.66h6.5v0.66c-0.6,0.07-1.05,0.12-1.52,0.73
		c-0.45,0.6-0.84,1.25-2.24,3.88l-5.87,10.41l-0.01,6.68c0,1.15,0.13,1.97,0.38,2.45c0.26,0.48,0.69,0.73,1.29,0.76v0.69H231.34z"/>
	<path fill="#fff" d="M197.53,5.46c0.27-0.5,0.71-0.76,1.32-0.78V3.98h-7.12v0.69c0.61,0.02,1.04,0.28,1.32,0.78
		c0.27,0.5,0.41,1.32,0.41,2.48v6.77h-11.93V7.93c0-1.18,0.13-2.01,0.39-2.49c0.26-0.49,0.69-0.74,1.28-0.76V3.98h-7.07v0.69
		c0.59,0.02,1.02,0.28,1.28,0.76c0.26,0.49,0.39,1.32,0.39,2.49v18.41c0,1.13-0.13,1.94-0.39,2.44c-0.26,0.5-0.69,0.75-1.28,0.76
		v0.69h7.07v-0.69c-0.59-0.01-1.02-0.26-1.28-0.75c-0.26-0.49-0.39-1.31-0.39-2.46v-9.68h11.93v9.68c0,1.12-0.13,1.92-0.4,2.42
		c-0.27,0.5-0.7,0.76-1.31,0.78l-0.02,0.69h7.12l-0.02-0.69c-0.28-0.02-0.53-0.09-0.72-0.19c-0.2-0.1-0.35-0.25-0.47-0.44
		c-0.18-0.27-0.31-0.61-0.38-1c-0.08-0.39-0.12-0.92-0.13-1.58V7.93C197.12,6.78,197.26,5.96,197.53,5.46"/>
	<path fill="#fff" d="M165.56,29.55v0.69h7.1l-0.02-0.69c-0.45-0.02-0.88-0.33-1.27-0.93c-0.4-0.59-0.8-1.54-1.22-2.83l-7.08-21.81
		h-2.96l-6.5,19.93c-0.64,2.01-1.27,3.43-1.88,4.28c-0.61,0.85-0.96,1.05-1.86,1.36v0.69h6.41v-0.69c-0.58-0.12-1.09-0.35-1.4-0.76
		c-0.3-0.42-0.49-0.93-0.22-1.74c0.13-0.41,1.66-5.08,1.66-5.08h8.71l1.34,4.43c0.04,0.11,0.08,0.26,0.14,0.44
		c0.2,0.65,0.3,1.1,0.3,1.35c0,0.33-0.12,0.62-0.35,0.86C166.25,29.3,165.94,29.47,165.56,29.55 M160.83,8.12l3.61,11.88h-7.47
		L160.83,8.12z"/>
	<path fill="#fff" d="M114.05,59.55l-5.55-18.27c-0.04-0.11-0.08-0.26-0.14-0.44c-0.2-0.65-0.3-1.1-0.3-1.35
		c0-0.33,0.12-0.62,0.35-0.86c0.23-0.24,0.54-0.41,0.92-0.49v-0.69h-7.1l0.02,0.69c0.45,0.02,0.88,0.33,1.27,0.93
		c0.4,0.59,0.8,1.54,1.22,2.83l7.08,21.81h2.96l6.5-19.93c0.64-2.01,1.27-3.43,1.88-4.28c0.61-0.85,0.96-1.05,1.86-1.35v-0.69h-6.41
		v0.69c0.58,0.12,1.09,0.35,1.39,0.76c0.3,0.42,0.49,0.93,0.22,1.74C120.08,41.05,114.05,59.55,114.05,59.55"/>
	<path fill="#fff" d="M22.91,1.26c-0.02,0-0.04,0.02-0.04,0.04c0,0.02,0.02,0.04,0.04,0.04c0.02,0,0.04-0.02,0.04-0.04
		C22.95,1.28,22.93,1.26,22.91,1.26"/>
	<path fill="#fff" d="M29.78,59.56L29.78,59.56c0,0,0-1,0-1V40.5c0-0.88,1-1.53,1.55-1.77v-0.08c-2.75-0.99-6.34-1.65-10.32-1.81
		l-1.97,3.38l-1.93-3.37c-3.95,0.17-7.5,0.83-10.23,1.81v0.08c0.54,0.23,1.55,0.88,1.55,1.77v19.87c0,1.77-1.24,2.54-2.15,2.99
		c-0.07,0.03-0.14,0.07-0.21,0.1c0,0-0.01,0-0.01,0.01c-0.01,0-0.02,0.01-0.03,0.02c-1.38,0.66-2.84,1.44-4.48,2.33l0.27,0.59
		c0,0,7.61-2.61,17.25-3.2c9.64-0.59,15.16,0.49,15.16,0.49v-4.13C32.64,59.55,31.16,59.55,29.78,59.56 M21.31,42
		c0-0.44,0.14-0.84,0.39-1.18c0.14-0.2,0.31-0.37,0.51-0.5c0.37-0.26,0.84-0.42,1.34-0.42c0.64,0,1.22,0.25,1.62,0.66
		c0.01,0,0.01,0.01,0.02,0.02c0.37,0.38,0.6,0.88,0.6,1.43c0,0.04,0,2.63,0,2.63c0,0.01,0,0.01,0,0.02v14.97
		c-1.63,0.04-3.11,0.1-4.48,0.18V45.79h0C21.31,45.79,21.31,42.03,21.31,42 M12.41,42c0-1.16,1-2.1,2.24-2.1
		c0.51,0,0.98,0.16,1.36,0.43c0.19,0.13,0.35,0.29,0.48,0.48c0.25,0.34,0.39,0.75,0.39,1.19c0,0.02,0,16.4,0,18.22
		c-1.64,0.22-3.1,0.49-4.47,0.85C12.41,58.98,12.41,42.03,12.41,42"/>
	<path fill="#fff" d="M61.59,37.43h-3h-0.01v0.69c0,0,0.01,0,0.01,0c0.87,0.26,1.48,0.82,1.84,1.66c0.18,0.43,0.25,1,0.27,1.7
		c0,0.08,0,12.85,0,12.85c0,2.92,0,7.72-6.92,7.72c-4.97,0-6.37-2.49-6.76-4.97c-0.07-0.47-0.11-0.98-0.14-1.52
		c-0.02-0.44-0.03-14.2-0.03-14.2c0-1.17,0.13-2.01,0.39-2.49s0.69-0.74,1.28-0.77v-0.69H41.4v0.69c0.59,0.02,1.02,0.28,1.28,0.78
		c0.26,0.5,0.39,1.32,0.39,2.48c0,0,0,12.72,0,12.93c0,0.78-0.01,1.86,0.17,3.02c0.05,0.46,0.12,0.85,0.2,1.18
		c0.25,1.03,0.66,1.9,1.23,2.63c0.3,0.38,0.64,0.72,1.02,1.03c1.02,0.89,2.44,1.58,4.42,1.9c0.03,0,0.05,0.01,0.08,0.01
		c0.04,0.01,0.08,0.01,0.12,0.02c0.73,0.12,1.5,0.17,2.32,0.17c0.03,0,0.07,0,0.1,0c0.03,0,0.05,0,0.08,0
		c9.83,0,9.87-6.97,9.87-9.93h0v-13c0.02-0.64,0.09-1.16,0.25-1.56c0.35-0.85,0.95-1.4,1.81-1.67v-0.69H61.59z"/>
	<path fill="#fff" d="M84.4,37.43v0.69c0,0,0.01,0,0.01,0c0.87,0.26,1.48,0.82,1.84,1.66c0.18,0.43,0.25,1,0.27,1.7
		c0,0.05,0,4.92,0,15.83l-14.11-19.9h-5.54v0.69c0.22,0.01,0.43,0.04,0.63,0.11c0.32,0.12,0.56,0.35,0.74,0.68
		c0.26,0.5,0.39,1.32,0.39,2.48l0,18.37c-0.02,0.64-0.09,1.16-0.25,1.56c-0.21,0.5-0.5,0.9-0.89,1.2c-0.2,0.14-0.42,0.27-0.66,0.37
		c-0.08,0.03-0.17,0.07-0.26,0.09V63v0.68v0.01h6.32V63c-0.84-0.17-1.48-0.67-1.91-1.51c-0.06-0.11-0.11-0.23-0.17-0.36
		c-0.13-0.4-0.18-0.91-0.2-1.52c0-0.05,0-5.92,0-18.39l15.92,22.45v0l0,0h1.97V41.35c0.02-0.64,0.09-1.16,0.25-1.56
		c0.35-0.85,0.95-1.4,1.81-1.67v-0.69H84.4z"/>
	<path fill="#fff" d="M221.18,37.43h-19.87l-1.39,5.29l0.8,0.34c0,0,0.8-1.38,2.96-2.66c1.08-0.64,2.63-0.96,4.66-0.96
		c0.42,0,0.68,0.07,0.8,0.2c0.12,0.14,0.18,0.43,0.18,0.86V59.8c0,1.13-0.13,1.94-0.38,2.43c-0.25,0.49-0.68,0.75-1.27,0.77
		l-0.02,0.69h7.19L214.82,63c-0.59-0.02-1.02-0.28-1.27-0.77c-0.26-0.49-0.38-1.3-0.38-2.43V40.51c0-0.44,0.06-0.73,0.18-0.86
		c0.12-0.14,0.39-0.2,0.8-0.2c2.03,0,3.58,0.32,4.66,0.96c2.16,1.28,2.97,2.66,2.97,2.66l0.8-0.34L221.18,37.43z"/>
	<path fill="#fff" d="M167.02,60.48c-2.04-2.39-4.25-5.03-5.68-9.1c1.76-0.31,3.22-0.84,4.38-1.61c2.21-1.45,3.2-2.78,3.2-5.14
		s-1.33-4.22-3.5-5.56c-2.17-1.35-5.19-2.02-9.06-2.02c-0.34,0-0.86,0.01-1.56,0.04c-0.69,0.02-1.46,0.06-2.31,0.11l-4.49,0.25v0.69
		c0.59,0.02,1.02,0.28,1.28,0.77s0.39,1.32,0.39,2.49v18.41c0,1.13-0.13,1.94-0.39,2.44c-0.26,0.5-0.69,0.75-1.28,0.77v0.69h7.07V63
		c-0.59-0.01-1.02-0.26-1.28-0.75c-0.26-0.49-0.39-1.31-0.39-2.46v-8.4c0.64,0.1,1.29,0.17,1.94,0.22c0.46,0.04,0.91,0.06,1.37,0.07
		c1.86,4.15,4.18,7.34,7.08,9.85c2.99,2.59,6.12,4.25,9.37,4.98l0.26-0.91C171.09,64.32,169.2,63.02,167.02,60.48 M154.81,49.72
		c-0.5-0.04-0.97-0.1-1.41-0.19V41.5c0-1.08,0.29-1.79,0.86-2.14c0.58-0.35,1.64-0.53,3.18-0.53c2.39,0,7.69,0.37,7.69,5.72
		c0,5.23-5.87,5.23-8.7,5.23C155.85,49.78,155.31,49.76,154.81,49.72"/>
	<path fill="#fff" d="M241.88,63.71c-0.54,0-1.01-0.2-1.4-0.59c-0.39-0.4-0.59-0.87-0.59-1.42c0-0.55,0.2-1.03,0.59-1.42
		c0.39-0.39,0.87-0.59,1.42-0.59c0.55,0,1.03,0.2,1.42,0.59c0.39,0.39,0.59,0.86,0.59,1.41c0,0.56-0.2,1.04-0.59,1.43
		C242.93,63.51,242.45,63.71,241.88,63.71 M241.88,63.42c0.56,0,1.01-0.21,1.34-0.62c0.27-0.34,0.41-0.7,0.41-1.11
		c0-0.4-0.14-0.77-0.41-1.1c-0.33-0.41-0.77-0.62-1.32-0.62c-0.55,0-0.98,0.2-1.31,0.62c-0.27,0.34-0.41,0.7-0.41,1.1
		c0,0.47,0.17,0.87,0.5,1.21C241.02,63.25,241.42,63.42,241.88,63.42 M241.25,62.79v-2.17h0.68c0.22,0,0.38,0.05,0.49,0.13
		c0.11,0.09,0.16,0.22,0.16,0.4c0,0.13-0.03,0.25-0.1,0.35c-0.06,0.1-0.16,0.2-0.29,0.27l0.66,1.01h-0.41l-0.59-0.9h-0.28v0.9
		H241.25z M241.57,61.62h0.1c0.19,0,0.33-0.04,0.43-0.11c0.09-0.07,0.14-0.18,0.14-0.32c0-0.12-0.04-0.2-0.12-0.26
		c-0.08-0.06-0.2-0.08-0.36-0.08h-0.19V61.62z"/>
</g>
</svg>
