<svg xmlns="http://www.w3.org/2000/svg" version="1.1" xmlns:xlink="http://www.w3.org/1999/xlink" width="512" height="512" x="0" y="0" viewBox="0 0 24 24" style="enable-background:new 0 0 512 512" xml:space="preserve" class=""><g><path d="M16.486 6.033c.321-.194.63-.427.909-.707C19.572 3.15 18.967.028 18.967.028S15.579-.311 13.669 1.6c-.748.748-1.162 1.699-1.389 2.564-.385-2.025-1.174-3.471-1.528-4.12l-.878.479c.419.769 1.493 2.738 1.615 5.466H8.342c-4.6 0-8.342 4.04-8.342 9.006s3.742 9 8.341 9A7.956 7.956 0 0 0 12 23.094a7.956 7.956 0 0 0 3.659.901c4.599 0 8.341-4.038 8.341-9 0-4.665-3.302-8.512-7.514-8.962Zm-2.11-3.726c1.103-1.103 2.815-1.292 3.629-1.316-.024.813-.214 2.526-1.316 3.629s-2.84 1.321-3.673 1.359c.037-.832.253-2.565 1.36-3.672Zm1.284 20.688a6.865 6.865 0 0 1-3.414-.905L12 21.951l-.246.139a6.862 6.862 0 0 1-3.414.905c-4.048 0-7.341-3.589-7.341-8S4.292 6.989 8.34 6.989h7.318c4.048 0 7.341 3.591 7.341 8.006s-3.293 8-7.341 8Z" fill="#4d87a9" opacity="1" data-original="#000000" class=""></path></g></svg>