<svg xmlns="http://www.w3.org/2000/svg" version="1.1" xmlns:xlink="http://www.w3.org/1999/xlink" width="512" height="512" x="0" y="0" viewBox="0 0 24 24" style="enable-background:new 0 0 512 512" xml:space="preserve" class=""><g><path d="M15.989 9.989c0-2.206-1.794-4-4-4s-4 1.794-4 4 1.794 4 4 4 4-1.794 4-4Zm-4 3c-1.654 0-3-1.346-3-3s1.346-3 3-3 3 1.346 3 3-1.346 3-3 3Zm11.438 5.11-3.443-3.333a3.132 3.132 0 0 0-.078-.667c-.12-.527.122-1.088.601-1.397.448-.29.813-.684 1.083-1.172.255-.46.388-.99.386-1.528a3.14 3.14 0 0 0-.386-1.532 3.254 3.254 0 0 0-1.084-1.172c-.479-.309-.72-.87-.601-1.396a3.226 3.226 0 0 0-.054-1.63 3.154 3.154 0 0 0-2.147-2.146 3.24 3.24 0 0 0-1.628-.055c-.523.121-1.087-.121-1.396-.6A3.265 3.265 0 0 0 13.509.388a3.157 3.157 0 0 0-3.037 0 3.251 3.251 0 0 0-1.171 1.084c-.309.479-.872.721-1.396.6a3.24 3.24 0 0 0-1.628.055A3.153 3.153 0 0 0 4.13 4.274a3.245 3.245 0 0 0-.055 1.629c.12.526-.121 1.087-.6 1.396-.449.29-.814.685-1.083 1.171-.255.46-.388.99-.386 1.529a3.135 3.135 0 0 0 .386 1.532c.27.487.634.882 1.084 1.172.479.309.72.87.6 1.396a3.2 3.2 0 0 0-.078.689l-3.42 3.311c-.53.511-.71 1.261-.47 1.957s.844 1.176 1.577 1.252l1.134.117.134.966a1.862 1.862 0 0 0 1.249 1.513 1.865 1.865 0 0 0 1.912-.431l4.128-4.001a3.138 3.138 0 0 0 1.75.53 3.135 3.135 0 0 0 1.764-.54l4.136 4.008a1.863 1.863 0 0 0 1.913.433 1.862 1.862 0 0 0 1.249-1.513l.134-.966 1.134-.117c.733-.076 1.337-.556 1.577-1.252s.06-1.446-.47-1.957ZM5.413 22.756a.854.854 0 0 1-.891.201.855.855 0 0 1-.582-.705l-.188-1.354a.501.501 0 0 0-.444-.429l-1.524-.157a.851.851 0 0 1-.734-.583.853.853 0 0 1 .22-.912l2.94-2.846a3.152 3.152 0 0 0 2.065 1.902 3.241 3.241 0 0 0 1.628.055c.525-.118 1.087.122 1.396.6.061.094.126.184.196.271l-4.083 3.957Zm5.543-4.019a2.24 2.24 0 0 1-.816-.751 2.354 2.354 0 0 0-1.967-1.088c-.164 0-.328.018-.491.055-.366.083-.747.07-1.131-.041a2.174 2.174 0 0 1-1.461-1.46 2.26 2.26 0 0 1-.041-1.132c.212-.935-.203-1.922-1.033-2.458-.31-.2-.562-.475-.751-.817a2.145 2.145 0 0 1-.261-1.047 2.134 2.134 0 0 1 .261-1.044c.189-.342.442-.616.751-.816.831-.536 1.246-1.523 1.033-2.458a2.26 2.26 0 0 1 .041-1.132 2.176 2.176 0 0 1 1.461-1.461 2.269 2.269 0 0 1 1.131-.041c.934.213 1.923-.202 2.458-1.033.199-.309.473-.562.815-.751a2.174 2.174 0 0 1 2.067 0c.342.19.617.443.816.751.535.831 1.522 1.243 2.458 1.033a2.257 2.257 0 0 1 1.131.041c.69.197 1.264.771 1.462 1.46.11.385.124.766.04 1.132-.212.935.204 1.922 1.033 2.458.309.2.562.474.751.817.172.311.262.672.261 1.047a2.13 2.13 0 0 1-.261 1.043 2.252 2.252 0 0 1-.751.817c-.83.535-1.246 1.523-1.033 2.458.083.366.07.747-.041 1.131a2.175 2.175 0 0 1-1.462 1.461c-.384.11-.765.123-1.131.041-.936-.21-1.923.203-2.458 1.033-.2.309-.474.562-.816.751a2.171 2.171 0 0 1-2.067 0Zm11.995.992a.852.852 0 0 1-.734.583l-1.524.157a.501.501 0 0 0-.444.429l-.188 1.354a.857.857 0 0 1-.582.705.857.857 0 0 1-.892-.203l-4.094-3.968c.066-.083.128-.169.186-.258.31-.478.874-.719 1.396-.6.532.12 1.08.103 1.628-.055a3.156 3.156 0 0 0 2.072-1.919l2.957 2.863a.85.85 0 0 1 .219.911Z" fill="#4d87a9" opacity="1" data-original="#000000"></path></g></svg>