<svg xmlns="http://www.w3.org/2000/svg" version="1.1" xmlns:xlink="http://www.w3.org/1999/xlink" width="512" height="512" x="0" y="0" viewBox="0 0 24 24" style="enable-background:new 0 0 512 512" xml:space="preserve" class=""><g><path d="M0 23h24v1H0v-1ZM24 7.546V9h-3v10h2v1H1v-1h2V9H0V7.546c0-1.145.636-2.173 1.659-2.684L10.775.308a2.571 2.571 0 0 1 2.465.008l9.101 4.545A2.984 2.984 0 0 1 24 7.545ZM4 19h4V9H4v10ZM15 9H9v10h6V9Zm5 0h-4v10h4V9Zm3-1.454a1.99 1.99 0 0 0-1.106-1.79l-9.117-4.553a1.59 1.59 0 0 0-1.539-.008L2.106 5.756A1.988 1.988 0 0 0 1 7.546V8h22v-.454Z" fill="#4d87a9" opacity="1" data-original="#000000"></path></g></svg>