<svg xmlns="http://www.w3.org/2000/svg" version="1.1" xmlns:xlink="http://www.w3.org/1999/xlink" width="512" height="512" x="0" y="0" viewBox="0 0 24 24" style="enable-background:new 0 0 512 512" xml:space="preserve" class=""><g><path d="M4.5 5C5.878 5 7 3.879 7 2.5S5.878 0 4.5 0 2 1.121 2 2.5 3.122 5 4.5 5Zm0-4C5.327 1 6 1.673 6 2.5S5.327 4 4.5 4 3 3.327 3 2.5 3.673 1 4.5 1ZM8 7v7H7V7H2.5C1.673 7 1 7.673 1 8.5V14H0V8.5C0 7.121 1.122 6 2.5 6H15v1H8Zm13.5-7H8.24c.206.308.37.644.494 1H21.5c.827 0 1.5.673 1.5 1.5V13h-2v-2h-5v2h-6v1h14V2.5C24 1.121 22.878 0 21.5 0ZM17 12h3v1h-3v-1ZM3.5 19.5c.827 0 1.5-.673 1.5-1.5s-.673-1.5-1.5-1.5S2 17.173 2 18s.673 1.5 1.5 1.5Zm8.5 0c.827 0 1.5-.673 1.5-1.5s-.673-1.5-1.5-1.5-1.5.673-1.5 1.5.673 1.5 1.5 1.5Zm8.5 0c.827 0 1.5-.673 1.5-1.5s-.673-1.5-1.5-1.5-1.5.673-1.5 1.5.673 1.5 1.5 1.5ZM7 23v1H6v-1c0-.552-.449-1-1-1H2c-.551 0-1 .448-1 1v1H0v-1c0-1.103.897-2 2-2h3c1.103 0 2 .897 2 2Zm17 0v1h-1v-1c0-.552-.449-1-1-1h-3c-.551 0-1 .448-1 1v1h-1v-1c0-1.103.897-2 2-2h3c1.103 0 2 .897 2 2Zm-8.5 0v1h-1v-1c0-.552-.449-1-1-1h-3c-.551 0-1 .448-1 1v1h-1v-1c0-1.103.897-2 2-2h3c1.103 0 2 .897 2 2Z" fill="#4389b4" opacity="1" data-original="#000000" class=""></path></g></svg>