<svg xmlns="http://www.w3.org/2000/svg" version="1.1" xmlns:xlink="http://www.w3.org/1999/xlink" width="512" height="512" x="0" y="0" viewBox="0 0 24 24" style="enable-background:new 0 0 512 512" xml:space="preserve" class=""><g><path d="M22 9.05V6.5C22 3.467 19.533 1 16.5 1h-9A5.506 5.506 0 0 0 2 6.5v2.55c-1.14.232-2 1.242-2 2.45v5a4.5 4.5 0 0 0 2 3.74v2.26a.5.5 0 0 0 1 0v-1.757c.469.166.974.257 1.5.257h15c.526 0 1.031-.091 1.5-.257V22.5a.5.5 0 0 0 1 0v-2.26a4.5 4.5 0 0 0 2-3.74v-5c0-1.207-.86-2.217-2-2.45ZM7.5 2h9C18.981 2 21 4.019 21 6.5v2.55c-1.14.232-2 1.242-2 2.45V15H5v-3.5c0-1.207-.86-2.217-2-2.45V6.5C3 4.019 5.019 2 7.5 2ZM23 16.5c0 1.93-1.57 3.5-3.5 3.5h-15C2.57 20 1 18.43 1 16.5v-5c0-.827.673-1.5 1.5-1.5s1.5.673 1.5 1.5v4a.5.5 0 0 0 .5.5h15a.5.5 0 0 0 .5-.5v-4c0-.827.673-1.5 1.5-1.5s1.5.673 1.5 1.5v5Z" fill="#4d87a9" opacity="1" data-original="#000000"></path></g></svg>