<svg xmlns="http://www.w3.org/2000/svg" version="1.1" xmlns:xlink="http://www.w3.org/1999/xlink" width="512" height="512" x="0" y="0" viewBox="0 0 24 24" style="enable-background:new 0 0 512 512" xml:space="preserve" class=""><g><path d="M15.5 13c-1.93 0-3.5 1.57-3.5 3.5 0 .947.386 1.8 1 2.431V24l2.5-1.875L18 24v-5.069c.614-.631 1-1.484 1-2.431 0-1.93-1.57-3.5-3.5-3.5Zm1.5 9-1.5-1.125L14 22v-2.351c.456.219.961.351 1.5.351s1.044-.133 1.5-.351V22Zm-1.5-3c-1.379 0-2.5-1.122-2.5-2.5s1.121-2.5 2.5-2.5 2.5 1.122 2.5 2.5-1.121 2.5-2.5 2.5ZM24 4.5V22h-4v-1h3V4.5c0-.827-.673-1.5-1.5-1.5h-19C1.673 3 1 3.673 1 4.5V21h10v1H0V4.5C0 3.122 1.121 2 2.5 2h19C22.879 2 24 3.122 24 4.5ZM5 6h14v1H5V6Zm0 4h14v1H5v-1Zm0 4h5.605a5.484 5.484 0 0 0-.393 1H5v-1Z" fill="#4389b4" opacity="1" data-original="#000000"></path></g></svg>