<svg xmlns="http://www.w3.org/2000/svg" version="1.1" xmlns:xlink="http://www.w3.org/1999/xlink" width="512" height="512" x="0" y="0" viewBox="0 0 24 24" style="enable-background:new 0 0 512 512" xml:space="preserve" class=""><g><path d="M24 5v17h-3v-2h1V5c0-.551-.448-1-1-1H3c-.552 0-1 .449-1 1v15h9v2H0V5c0-1.654 1.346-3 3-3h18c1.654 0 3 1.346 3 3Zm-5 2H5v2h14V7Zm1 9a3.966 3.966 0 0 1-1 2.618V24l-3-2.5-3 2.5v-5.382A3.962 3.962 0 0 1 12 16c0-2.206 1.794-4 4-4s4 1.794 4 4Zm-6 0c0 1.103.897 2 2 2s2-.897 2-2-.897-2-2-2-2 .897-2 2Zm-1.314-5H5v2h5.809a6.027 6.027 0 0 1 1.877-2ZM5 15v2h5.09c-.055-.326-.09-.659-.09-1s.035-.674.09-1H5Z" fill="#487b9d" opacity="1" data-original="#000000" class=""></path></g></svg>