<svg xmlns="http://www.w3.org/2000/svg" version="1.1" xmlns:xlink="http://www.w3.org/1999/xlink" width="512" height="512" x="0" y="0" viewBox="0 0 24 24" style="enable-background:new 0 0 512 512" xml:space="preserve" class=""><g><path d="M0 14.5V20h2v4h1v-4h2v-1H1v-4.5c0-.827.673-1.5 1.5-1.5H5v-1H2.5A2.503 2.503 0 0 0 0 14.5ZM18.5 5C19.878 5 21 3.878 21 2.5S19.878 0 18.5 0 16 1.122 16 2.5 17.122 5 18.5 5Zm0-4c.827 0 1.5.673 1.5 1.5S19.327 4 18.5 4 17 3.327 17 2.5 17.673 1 18.5 1ZM4.5 6C3.122 6 2 7.122 2 8.5S3.122 11 4.5 11 7 9.878 7 8.5 5.878 6 4.5 6Zm0 4C3.673 10 3 9.327 3 8.5S3.673 7 4.5 7 6 7.673 6 8.5 5.327 10 4.5 10ZM20.5 6h-4A2.503 2.503 0 0 0 14 8.5V18h2v6h1v-6h3v6h1v-6h2V8.5C23 7.122 21.878 6 20.5 6ZM22 17h-7V8.5c0-.827.673-1.5 1.5-1.5h4c.827 0 1.5.673 1.5 1.5V17ZM7 11.5V19h2v5h1v-5h2v-1H8v-6.5c0-.827.673-1.5 1.5-1.5H12V9H9.5A2.503 2.503 0 0 0 7 11.5ZM11.5 3C10.122 3 9 4.122 9 5.5S10.122 8 11.5 8 14 6.878 14 5.5 12.878 3 11.5 3Zm0 4c-.827 0-1.5-.673-1.5-1.5S10.673 4 11.5 4s1.5.673 1.5 1.5S12.327 7 11.5 7Z" fill="#4389b4" opacity="1" data-original="#000000"></path></g></svg>