<svg xmlns="http://www.w3.org/2000/svg" version="1.1" xmlns:xlink="http://www.w3.org/1999/xlink" width="512" height="512" x="0" y="0" viewBox="0 0 24 24" style="enable-background:new 0 0 512 512" xml:space="preserve" class=""><g><path d="M4.5 5C5.878 5 7 3.879 7 2.5S5.878 0 4.5 0 2 1.121 2 2.5 3.122 5 4.5 5Zm0-4C5.327 1 6 1.673 6 2.5S5.327 4 4.5 4 3 3.327 3 2.5 3.673 1 4.5 1Zm7.5 9c1.378 0 2.5-1.121 2.5-2.5S13.378 5 12 5 9.5 6.121 9.5 7.5 10.622 10 12 10Zm0-4c.827 0 1.5.673 1.5 1.5S12.827 9 12 9s-1.5-.673-1.5-1.5S11.173 6 12 6Zm1.5 5h-3A2.503 2.503 0 0 0 8 13.5V20h2v4h1v-4h2v4h1v-4h2v-6.5c0-1.379-1.122-2.5-2.5-2.5Zm1.5 8H9v-5.5c0-.827.673-1.5 1.5-1.5h3c.827 0 1.5.673 1.5 1.5V19Zm3.5-14C19.878 5 21 3.879 21 2.5S19.878 0 18.5 0 16 1.121 16 2.5 17.122 5 18.5 5Zm0-4c.827 0 1.5.673 1.5 1.5S19.327 4 18.5 4 17 3.327 17 2.5 17.673 1 18.5 1Zm-12 5c.429 0 .826.118 1.18.309-.096.35-.161.711-.169 1.089a1.49 1.49 0 0 0-1.01-.399H2.5c-.827 0-1.5.673-1.5 1.5v7.5h5v1H3v7H2v-7H0v-8.5c0-1.379 1.122-2.5 2.5-2.5h4ZM21 20v4h-1v-4h-2v-1h4.768l-1.96-10.769A1.498 1.498 0 0 0 19.332 7h-1.661c-.483 0-.905.243-1.181.607 0-.036.011-.07.011-.107 0-.387-.064-.755-.155-1.113.387-.243.84-.387 1.325-.387h1.661c1.209 0 2.243.863 2.459 2.052L23.966 20H21Z" fill="#4d87a9" opacity="1" data-original="#000000" class=""></path></g></svg>