<svg xmlns="http://www.w3.org/2000/svg" version="1.1" xmlns:xlink="http://www.w3.org/1999/xlink" width="512" height="512" x="0" y="0" viewBox="0 0 24 24" style="enable-background:new 0 0 512 512" xml:space="preserve" class=""><g><path d="M24 7.99c0-1.136-.631-2.177-1.729-2.807l-7.756-3.542c-1.527-.879-3.502-.878-4.99-.021L1.729 5.184l-.041.021C.631 5.813.001 6.854.001 7.99s.631 2.177 1.729 2.807l2.271 1.037v6.183c0 1.93 1.195 3.631 2.974 4.233 1.471.498 3.162.75 5.026.75s3.556-.252 5.026-.75c1.778-.603 2.974-2.304 2.974-4.233v-6.184l2.312-1.057c.255-.147.485-.321.688-.513v10.238a.5.5 0 0 0 1 0V7.991Zm-5 10.026c0 1.501-.922 2.821-2.294 3.286-1.367.463-2.951.697-4.706.697s-3.339-.234-4.706-.697C5.922 20.837 5 19.517 5 18.016V12.29l4.484 2.047c.769.442 1.65.662 2.526.662a4.95 4.95 0 0 0 2.464-.641l4.525-2.069v5.727Zm2.855-8.13-7.838 3.584c-1.227.706-2.811.706-4.076-.021L2.185 9.908C1.432 9.474.999 8.775.999 7.99c0-.778.425-1.473 1.167-1.907l7.815-3.574c1.227-.707 2.811-.705 4.076.021l7.756 3.542c.753.434 1.186 1.133 1.186 1.918s-.433 1.484-1.145 1.896Z" fill="#4389b4" opacity="1" data-original="#000000" class=""></path></g></svg>