<svg xmlns="http://www.w3.org/2000/svg" version="1.1" xmlns:xlink="http://www.w3.org/1999/xlink" width="512" height="512" x="0" y="0" viewBox="0 0 24 24" style="enable-background:new 0 0 512 512" xml:space="preserve" class=""><g><path d="M8 13c2.206 0 4-1.794 4-4s-1.794-4-4-4-4 1.794-4 4 1.794 4 4 4Zm0-7c1.654 0 3 1.346 3 3s-1.346 3-3 3-3-1.346-3-3 1.346-3 3-3Zm7 15.5v2a.5.5 0 0 1-1 0v-2c0-3.032-2.467-5.5-5.5-5.5h-7C.673 16 0 15.327 0 14.5v-9a.5.5 0 0 1 1 0v9a.5.5 0 0 0 .5.5h7c3.584 0 6.5 2.916 6.5 6.5Zm-10-3v5a.5.5 0 0 1-1 0v-5a.5.5 0 0 1 1 0ZM21.499 0l-5 .002A2.503 2.503 0 0 0 14 2.503V9.71a1.294 1.294 0 0 0 1.292 1.289c.242 0 .483-.067.694-.203a.477.477 0 0 0 .092-.076l1.636-1.715 3.788-.003A2.503 2.503 0 0 0 24 6.502V2.5C24 1.121 22.878 0 21.499 0ZM23 6.502c0 .826-.672 1.499-1.499 1.5l-4.001.003a.497.497 0 0 0-.361.155l-1.732 1.815a.283.283 0 0 1-.254-.012.286.286 0 0 1-.151-.254V2.503A1.5 1.5 0 0 1 16.5 1.002l5-.002c.828 0 1.501.673 1.501 1.5v4.002Z" fill="#4d87a9" opacity="1" data-original="#000000"></path></g></svg>