<svg xmlns="http://www.w3.org/2000/svg" version="1.1" xmlns:xlink="http://www.w3.org/1999/xlink" width="512" height="512" x="0" y="0" viewBox="0 0 24 24" style="enable-background:new 0 0 512 512" xml:space="preserve" class=""><g><path d="M23 22.5V24h-1v-1.5c0-.827-.673-1.5-1.5-1.5h-3c-.827 0-1.5.673-1.5 1.5V24h-1v-1.5c0-.827-.673-1.5-1.5-1.5h-3c-.827 0-1.5.673-1.5 1.5V24H8v-1.5c0-.827-.673-1.5-1.5-1.5h-3c-.827 0-1.5.673-1.5 1.5V24H1v-1.5C1 21.121 2.122 20 3.5 20h3c.821 0 1.544.403 2 1.015a2.489 2.489 0 0 1 2-1.015h3c.821 0 1.544.403 2 1.015a2.489 2.489 0 0 1 2-1.015h3c1.378 0 2.5 1.121 2.5 2.5ZM5 14c1.378 0 2.5 1.121 2.5 2.5S6.378 19 5 19s-2.5-1.121-2.5-2.5S3.622 14 5 14Zm0 1c-.827 0-1.5.673-1.5 1.5S4.173 18 5 18s1.5-.673 1.5-1.5S5.827 15 5 15Zm7-1c1.378 0 2.5 1.121 2.5 2.5S13.378 19 12 19s-2.5-1.121-2.5-2.5S10.622 14 12 14Zm0 1c-.827 0-1.5.673-1.5 1.5S11.173 18 12 18s1.5-.673 1.5-1.5S12.827 15 12 15ZM9.5 2.5C9.5 1.121 10.622 0 12 0s2.5 1.121 2.5 2.5S13.378 5 12 5 9.5 3.879 9.5 2.5Zm1 0c0 .827.673 1.5 1.5 1.5s1.5-.673 1.5-1.5S12.827 1 12 1s-1.5.673-1.5 1.5ZM19 14c1.378 0 2.5 1.121 2.5 2.5S20.378 19 19 19s-2.5-1.121-2.5-2.5S17.622 14 19 14Zm0 1c-.827 0-1.5.673-1.5 1.5S18.173 18 19 18s1.5-.673 1.5-1.5S19.827 15 19 15Zm-11-.563a4.513 4.513 0 0 1 1-1.275V7h6v6.162c.403.363.749.789 1 1.275V6.74L23.312.891 22.687.11l-7.363 5.891H8.675L1.312.109.687.89l7.312 5.85v7.697Z" fill="#4389b4" opacity="1" data-original="#000000" class=""></path></g></svg>