<svg xmlns="http://www.w3.org/2000/svg" version="1.1" xmlns:xlink="http://www.w3.org/1999/xlink" width="512" height="512" x="0" y="0" viewBox="0 0 24 24" style="enable-background:new 0 0 512 512" xml:space="preserve" class=""><g><path d="M9.5 2.5a2.5 2.5 0 1 1 5 0 2.5 2.5 0 0 1-5 0Zm8 14a2.5 2.5 0 1 0 5 0 2.5 2.5 0 0 0-5 0Zm-16 0C1.5 17.879 2.621 19 4 19s2.5-1.121 2.5-2.5S5.379 14 4 14s-2.5 1.121-2.5 2.5Zm20 3.5h-3a2.503 2.503 0 0 0-2.5 2.5c0-1.379-1.122-2.5-2.5-2.5h-3A2.503 2.503 0 0 0 8 22.5C8 21.121 6.878 20 5.5 20h-3A2.503 2.503 0 0 0 0 22.5V24h24v-1.5c0-1.379-1.122-2.5-2.5-2.5ZM12 14a2.5 2.5 0 1 0 0 5 2.5 2.5 0 0 0 0-5Zm-4 .479C8.742 13.014 10.246 12 12 12s3.258 1.014 4 2.479v-5.59l7.151-6.13-1.302-1.518L15.13 7H8.87L2.151 1.241.849 2.759 8 8.889v5.59Z" fill="#4389b4" opacity="1" data-original="#000000" class=""></path></g></svg>