<svg xmlns="http://www.w3.org/2000/svg" version="1.1" xmlns:xlink="http://www.w3.org/1999/xlink" width="512" height="512" x="0" y="0" viewBox="0 0 24 24" style="enable-background:new 0 0 512 512" xml:space="preserve"><g><path d="M22.802.703A1.482 1.482 0 0 0 21.537 0h-4.025a3.479 3.479 0 0 0-3.139 1.952l-2.001 4.057a9.144 9.144 0 0 0-.742 0L9.629 1.952A3.478 3.478 0 0 0 6.49 0H2.463a1.48 1.48 0 0 0-1.265.703c-.273.44-.3.98-.071 1.445l3.674 7.455a8.954 8.954 0 0 0-1.802 5.396c0 4.962 4.038 9 9 9s9-4.038 9-9a8.95 8.95 0 0 0-1.802-5.396l3.674-7.455A1.48 1.48 0 0 0 22.8.703ZM2.024 1.706a.485.485 0 0 1 .023-.475A.483.483 0 0 1 2.463 1h4.025c.958 0 1.818.534 2.242 1.394l1.836 3.721a8.99 8.99 0 0 0-5.059 2.659L2.024 1.706ZM12 23c-4.411 0-8-3.589-8-8 0-4.176 3.744-8 8-8s8 3.825 8 8c0 4.411-3.589 8-8 8Zm9.976-21.294-3.484 7.068a8.99 8.99 0 0 0-5.059-2.659l1.836-3.721A2.485 2.485 0 0 1 17.511 1h4.025c.246 0 .373.162.416.231a.482.482 0 0 1 .023.475ZM15.894 13h-2.025l-.536-1.961A1.404 1.404 0 0 0 11.991 10a1.396 1.396 0 0 0-1.322 1.034L10.131 13H8.106c-.792 0-1.283.635-1.283 1.224 0 .545.331 1.068.843 1.352l1.331.829-.604 1.646a1.44 1.44 0 0 0 .489 1.657 1.447 1.447 0 0 0 1.758-.011l1.361-1.052 1.361 1.052a1.454 1.454 0 0 0 1.758.011c.514-.387.71-1.053.489-1.657l-.604-1.646 1.309-.816c.533-.296.864-.819.864-1.365 0-.589-.491-1.224-1.283-1.224Zm-.088 1.728-1.676 1.044a.5.5 0 0 0-.205.597l.744 2.028a.452.452 0 0 1-.152.513.453.453 0 0 1-.545-.003l-1.667-1.289a.497.497 0 0 0-.611 0l-1.667 1.289a.45.45 0 0 1-.697-.51l.744-2.028a.5.5 0 0 0-.205-.597l-1.697-1.057c-.174-.097-.35-.286-.35-.491 0-.06.067-.224.283-.224h2.407a.499.499 0 0 0 .482-.368l.64-2.34A.39.39 0 0 1 11.99 11a.397.397 0 0 1 .376.297l.638 2.334a.5.5 0 0 0 .482.368h2.407c.216 0 .283.164.283.224 0 .205-.176.394-.371.503Z" fill="#4389b4" opacity="1" data-original="#000000"></path></g></svg>