<svg xmlns="http://www.w3.org/2000/svg" version="1.1" xmlns:xlink="http://www.w3.org/1999/xlink" width="512" height="512" x="0" y="0" viewBox="0 0 24 24" style="enable-background:new 0 0 512 512" xml:space="preserve" class=""><g><path d="M21.5 6h-7.43l-1.346-1.303L17.118 2.5l-5-2.5H11v4.965L9.93 6H2.5A2.503 2.503 0 0 0 0 8.5V24h24V8.5C24 7.122 22.879 6 21.5 6Zm0 1c.827 0 1.5.673 1.5 1.5V10h-4.798l-3.099-3H21.5ZM12 1.059 14.882 2.5 12 3.941V1.059ZM2.5 7h6.397l-3.099 3H1V8.5C1 7.673 1.673 7 2.5 7ZM14 23h-4v-6c0-1.103.897-2 2-2s2 .897 2 2v6Zm1 0v-6c0-1.654-1.346-3-3-3s-3 1.346-3 3v6H1V11h5.202L12 5.388 17.798 11H23v12h-8ZM4 15h3v1H4v-1Zm0 4h3v1H4v-1Zm13-4h3v1h-3v-1Zm0 4h3v1h-3v-1Zm-4-9a1 1 0 1 1-2 0 1 1 0 0 1 2 0Z" fill="#4389b4" opacity="1" data-original="#000000"></path></g></svg>