<svg xmlns="http://www.w3.org/2000/svg" version="1.1" xmlns:xlink="http://www.w3.org/1999/xlink" width="512" height="512" x="0" y="0" viewBox="0 0 256 256" style="enable-background:new 0 0 512 512" xml:space="preserve" class=""><g><switch><g><g fill="#65c1d6"><path d="M99.467 63.161H78.438c-.618 0-1.119.5-1.119 1.119v1.953c0 .618.501 1.119 1.119 1.119h8.232v24.265c0 .618.501 1.119 1.119 1.119h2.309c.618 0 1.119-.5 1.119-1.119V67.351h8.251c.618 0 1.119-.5 1.119-1.119v-1.953a1.12 1.12 0 0 0-1.12-1.118zM121.362 64.479c-1.782-1.124-3.856-1.694-6.164-1.694-2.309 0-4.388.58-6.179 1.726-1.79 1.145-3.189 2.796-4.159 4.906-.946 2.059-1.426 4.443-1.426 7.086v2.816c0 4.138 1.083 7.494 3.218 9.976 2.178 2.532 5.066 3.816 8.583 3.816 2.321 0 4.406-.577 6.195-1.715 1.793-1.138 3.188-2.777 4.145-4.871.932-2.042 1.405-4.428 1.405-7.093v-3.285c-.039-2.589-.537-4.91-1.478-6.901-.964-2.039-2.357-3.643-4.14-4.767zm-6.127 24.386c-2.238 0-3.954-.792-5.244-2.421-1.334-1.685-2.011-4.044-2.011-7.012v-2.854c0-3.077.678-5.478 2.015-7.136 1.296-1.608 2.998-2.39 5.202-2.39 2.254 0 3.97.777 5.246 2.376 1.321 1.654 1.99 4.022 1.99 7.037v2.892c0 3.071-.659 5.47-1.959 7.13-1.251 1.6-2.965 2.378-5.239 2.378zM150.774 65.619c-1.85-1.631-4.363-2.458-7.471-2.458h-9.312c-.618 0-1.119.5-1.119 1.119v27.337c0 .618.501 1.119 1.119 1.119h2.309c.618 0 1.119-.5 1.119-1.119V81.601h5.828c3.271 0 5.835-.799 7.621-2.373 1.828-1.61 2.754-3.892 2.754-6.782-.001-2.863-.959-5.16-2.848-6.827zm-1.7 6.856c0 1.591-.457 2.777-1.397 3.628-.96.868-2.432 1.309-4.375 1.309h-5.884v-10.06h6.021c1.85.022 3.27.496 4.224 1.409.95.911 1.411 2.125 1.411 3.714z" fill="#4d87a9" opacity="1" data-original="#65c1d6"></path></g><g fill="#846f75"><path d="M48.881 129.22v4.34a7.852 7.852 0 0 0 3.369 6.441 7.882 7.882 0 0 0 7.206.912l4.773-1.773v39.566c0 4.325 3.519 7.844 7.844 7.844h4.649c4.325 0 7.844-3.519 7.844-7.844V122.09c0-4.325-3.519-7.844-7.844-7.844h-.775c-.928 0-1.844.164-2.727.49l-19.224 7.13a7.876 7.876 0 0 0-5.115 7.354zm6.854-2.666 19.219-7.128c.328-.121.653-.18.993-.18h.775a2.847 2.847 0 0 1 2.844 2.844v56.617a2.847 2.847 0 0 1-2.844 2.844h-4.649a2.847 2.847 0 0 1-2.844-2.844v-43.162a2.503 2.503 0 0 0-3.371-2.344l-8.133 3.02c-.883.321-1.863.2-2.619-.324a2.851 2.851 0 0 1-1.224-2.338v-4.34a2.853 2.853 0 0 1 1.853-2.665zM114.277 187.326c8.23 0 14.906-3.281 19.305-9.49 3.864-5.454 5.823-13.075 5.823-22.652l-.001-10.419v-.034c-.126-9.329-2.19-16.734-6.134-22.01-4.429-5.926-11.024-9.058-19.071-9.058-8.177 0-14.839 3.243-19.266 9.378-3.915 5.425-5.9 13.031-5.9 22.61v10.19c.094 9.37 2.146 16.846 6.096 22.221 4.453 6.061 11.075 9.264 19.148 9.264zm-20.244-41.675c0-8.507 1.667-15.129 4.955-19.685 3.448-4.778 8.708-7.304 15.211-7.304 6.408 0 11.618 2.438 15.066 7.052 3.296 4.409 5.025 10.824 5.139 19.067l.001 10.401c0 8.521-1.649 15.17-4.903 19.762-3.421 4.829-8.686 7.381-15.225 7.381-6.418 0-11.646-2.498-15.12-7.225-3.317-4.513-5.041-11.01-5.124-19.285z" fill="#4d87a9" opacity="1" data-original="#846f75" class=""></path><path d="M114.277 172.725c3.168 0 5.393-1.172 7.003-3.688 1.826-2.856 2.763-7.273 2.787-13.128v-10.84c0-5.879-.913-10.293-2.713-13.12-.997-1.564-2.822-3.645-7.155-3.645-3.235 0-5.484 1.131-7.078 3.56-1.803 2.749-2.742 7.043-2.789 12.784v11.04c0 5.851.951 10.302 2.826 13.231 1.661 2.597 3.923 3.806 7.119 3.806zm-4.946-28.057c.052-6.221 1.257-8.975 1.97-10.062.58-.883 1.161-1.303 2.898-1.303 2.09 0 2.521.676 2.937 1.33.721 1.132 1.931 3.993 1.931 10.435v10.824c-.026 6.412-1.264 9.3-1.999 10.45-.611.955-1.16 1.382-2.79 1.382-1.511 0-2.163-.337-2.909-1.501-1.313-2.053-2.037-5.794-2.037-10.536v-11.019zM168.963 172.725c3.168 0 5.393-1.172 7.003-3.688 1.826-2.856 2.763-7.273 2.787-13.128v-10.84c0-5.879-.913-10.293-2.713-13.12-.997-1.564-2.822-3.645-7.155-3.645-3.235 0-5.484 1.131-7.078 3.56-1.803 2.749-2.742 7.043-2.79 12.784v11.04c0 5.851.951 10.303 2.826 13.231 1.662 2.597 3.924 3.806 7.12 3.806zm-4.946-28.057c.052-6.221 1.257-8.975 1.97-10.062.58-.883 1.161-1.303 2.898-1.303 2.09 0 2.52.676 2.937 1.33.721 1.133 1.931 3.994 1.931 10.435v10.823c-.027 6.413-1.265 9.301-1.999 10.451-.611.955-1.16 1.382-2.79 1.382-1.511 0-2.163-.337-2.908-1.501-1.314-2.053-2.038-5.794-2.038-10.536v-11.019z" fill="#4d87a9" opacity="1" data-original="#846f75" class=""></path><path d="M149.814 178.063c4.454 6.061 11.076 9.264 19.148 9.264 8.23 0 14.906-3.281 19.305-9.49 3.864-5.454 5.823-13.075 5.823-22.652V144.732c-.126-9.329-2.19-16.734-6.134-22.01-4.43-5.926-11.024-9.058-19.071-9.058-8.177 0-14.839 3.243-19.266 9.378-3.915 5.425-5.9 13.032-5.9 22.61v10.19c.094 9.369 2.145 16.844 6.095 22.221zm3.86-52.096c3.448-4.778 8.707-7.304 15.211-7.304 6.408 0 11.618 2.438 15.066 7.052 3.296 4.409 5.025 10.824 5.139 19.067v10.401c0 8.521-1.649 15.17-4.903 19.762-3.421 4.829-8.685 7.381-15.225 7.381-6.417 0-11.645-2.498-15.119-7.225-3.317-4.514-5.042-11.011-5.125-19.285v-10.165c.001-8.506 1.668-15.128 4.956-19.684z" fill="#4d87a9" opacity="1" data-original="#846f75" class=""></path><path d="M212.766 105.535a2.5 2.5 0 0 0-2.5 2.5v94.667c0 4.136-3.364 7.5-7.5 7.5H45.97c-4.136 0-7.5-3.364-7.5-7.5V87.149c0-4.136 3.364-7.5 7.5-7.5h24.5a2.5 2.5 0 1 0 0-5h-24.5c-6.893 0-12.5 5.607-12.5 12.5v115.553c0 6.893 5.607 12.5 12.5 12.5h156.796c6.893 0 12.5-5.607 12.5-12.5v-94.667a2.5 2.5 0 0 0-2.5-2.5z" fill="#4d87a9" opacity="1" data-original="#846f75" class=""></path><path d="m221.657 76.085-7.097-8.897 2.533-11.096a3.976 3.976 0 0 0-.771-3.383 3.977 3.977 0 0 0-3.127-1.507h-11.381l-7.096-8.898a3.98 3.98 0 0 0-3.127-1.506 3.978 3.978 0 0 0-3.127 1.506l-7.096 8.898h-11.381a3.977 3.977 0 0 0-3.127 1.507 3.978 3.978 0 0 0-.772 3.382l2.533 11.097-7.097 8.897a3.977 3.977 0 0 0-.771 3.384 3.982 3.982 0 0 0 2.163 2.714l10.254 4.937 2.533 11.097a3.983 3.983 0 0 0 2.165 2.714 3.983 3.983 0 0 0 3.469-.001l10.254-4.938 10.254 4.938a3.973 3.973 0 0 0 3.469.001 3.982 3.982 0 0 0 2.166-2.714l2.532-11.097 10.254-4.938a3.98 3.98 0 0 0 2.164-2.713 3.982 3.982 0 0 0-.773-3.384zm-14.252 6.74a3.98 3.98 0 0 0-2.162 2.712l-2.36 10.343-9.556-4.603a3.986 3.986 0 0 0-3.472 0l-9.557 4.603-2.36-10.342a3.985 3.985 0 0 0-2.164-2.715l-9.558-4.601 6.617-8.297a3.982 3.982 0 0 0 .77-3.381l-2.36-10.342h10.608a3.98 3.98 0 0 0 3.127-1.506l6.614-8.294 6.615 8.296a3.98 3.98 0 0 0 3.125 1.504h10.608l-2.361 10.344a3.984 3.984 0 0 0 .773 3.382l6.615 8.294z" fill="#4d87a9" opacity="1" data-original="#846f75" class=""></path></g><path fill="#4d87a9" d="M191.59 74.851a2.5 2.5 0 0 1-2.5-2.5v-11.71a2.5 2.5 0 1 1 5 0v11.71a2.5 2.5 0 0 1-2.5 2.5zM191.59 85.184a2.5 2.5 0 0 1-2.5-2.5v-1.378a2.5 2.5 0 1 1 5 0v1.378a2.5 2.5 0 0 1-2.5 2.5z" opacity="1" data-original="#65c1d6"></path></g></switch></g></svg>