<svg xmlns="http://www.w3.org/2000/svg" version="1.1" xmlns:xlink="http://www.w3.org/1999/xlink" width="512" height="512" x="0" y="0" viewBox="0 0 511.999 511.999" style="enable-background:new 0 0 512 512" xml:space="preserve"><g><path d="M386.221 413.096a7.5 7.5 0 0 0 2.338-14.816l-20.271-3.198 19.85-11.46a7.5 7.5 0 0 0-7.5-12.99l-19.85 11.461 7.366-19.154a7.5 7.5 0 0 0-4.308-9.692 7.497 7.497 0 0 0-9.692 4.309l-14.022 36.464-21.783 12.576v-25.153l24.567-30.375a7.5 7.5 0 1 0-11.662-9.433l-12.905 15.956V334.67c0-4.142-3.357-7.5-7.5-7.5s-7.5 3.358-7.5 7.5v22.921l-12.905-15.956a7.5 7.5 0 0 0-10.548-1.115 7.499 7.499 0 0 0-1.114 10.548l24.567 30.375v25.153l-21.783-12.576-14.023-36.464a7.496 7.496 0 0 0-9.692-4.308 7.5 7.5 0 0 0-4.308 9.692l7.366 19.154-19.849-11.46a7.5 7.5 0 0 0-7.5 12.99l19.85 11.46-20.271 3.198a7.499 7.499 0 0 0-6.239 8.577 7.499 7.499 0 0 0 8.577 6.239l38.591-6.088 21.782 12.576-21.782 12.576-38.591-6.088a7.497 7.497 0 0 0-8.577 6.239 7.498 7.498 0 0 0 6.239 8.577l20.271 3.198-19.85 11.46a7.5 7.5 0 0 0 7.5 12.99l19.849-11.46-7.366 19.154a7.499 7.499 0 0 0 4.308 9.692 7.499 7.499 0 0 0 9.692-4.308l14.023-36.465 21.783-12.576v25.153l-24.567 30.376a7.5 7.5 0 1 0 11.662 9.433l12.905-15.956v22.92c0 4.142 3.357 7.5 7.5 7.5s7.5-3.358 7.5-7.5v-22.92l12.905 15.956a7.5 7.5 0 1 0 11.662-9.433l-24.567-30.376v-25.153l21.783 12.576 14.022 36.465a7.5 7.5 0 0 0 14-5.383l-7.366-19.155 19.851 11.461a7.5 7.5 0 0 0 7.5-12.99l-19.85-11.46 20.271-3.198a7.499 7.499 0 0 0 6.239-8.577 7.49 7.49 0 0 0-8.577-6.239l-38.59 6.088-21.782-12.576 21.782-12.576zM208.665 320.845a7.5 7.5 0 0 0 2.338-14.816l-13.147-2.074 13.245-7.647a7.5 7.5 0 0 0-7.5-12.99l-13.245 7.647 4.777-12.423c1.487-3.866-.442-8.206-4.309-9.692s-8.207.443-9.691 4.309L169.7 302.891l-15.676 9.051V293.84l20.032-24.768a7.5 7.5 0 1 0-11.662-9.433l-8.37 10.349v-15.294c0-4.142-3.357-7.5-7.5-7.5s-7.5 3.358-7.5 7.5v15.294l-8.37-10.349a7.5 7.5 0 0 0-10.548-1.115 7.499 7.499 0 0 0-1.114 10.548l20.032 24.768v18.1l-15.675-9.05-11.433-29.732a7.5 7.5 0 1 0-14 5.383l4.777 12.423-13.245-7.647a7.5 7.5 0 0 0-7.5 12.99l13.245 7.647-13.147 2.074a7.499 7.499 0 0 0-6.239 8.577 7.499 7.499 0 0 0 8.577 6.239l31.466-4.964 15.675 9.05-15.675 9.05-31.466-4.964a7.501 7.501 0 0 0-8.577 6.239 7.498 7.498 0 0 0 6.239 8.577l13.147 2.074-13.245 7.647a7.5 7.5 0 0 0 7.5 12.99l13.245-7.647-4.777 12.423a7.499 7.499 0 0 0 4.309 9.692 7.499 7.499 0 0 0 9.691-4.309l11.433-29.733 15.675-9.05v18.1l-20.032 24.768a7.5 7.5 0 1 0 11.662 9.433l8.37-10.349v15.294c0 4.142 3.357 7.5 7.5 7.5s7.5-3.358 7.5-7.5v-15.294l8.37 10.349a7.5 7.5 0 0 0 10.548 1.115 7.499 7.499 0 0 0 1.114-10.548l-20.032-24.768v-18.101l15.676 9.051 11.433 29.733a7.5 7.5 0 0 0 14-5.383l-4.777-12.423 13.245 7.647a7.5 7.5 0 0 0 7.5-12.99l-13.245-7.647 13.147-2.074a7.499 7.499 0 0 0 6.239-8.577 7.494 7.494 0 0 0-8.577-6.239l-31.466 4.964-15.675-9.05 15.675-9.05zM278.09 296.895c12.612 0 22.873-10.261 22.873-22.873s-10.261-22.873-22.873-22.873c-12.611 0-22.872 10.261-22.872 22.873s10.261 22.873 22.872 22.873zm0-30.745c4.341 0 7.873 3.532 7.873 7.873s-3.532 7.873-7.873 7.873-7.872-3.532-7.872-7.873c0-4.342 3.532-7.873 7.872-7.873zM363.781 323.944c11.478 0 20.815-9.338 20.815-20.815 0-11.478-9.338-20.816-20.815-20.816s-20.815 9.338-20.815 20.816c-.001 11.477 9.337 20.815 20.815 20.815zm0-26.631c3.207 0 5.815 2.609 5.815 5.816s-2.608 5.815-5.815 5.815-5.815-2.609-5.815-5.815a5.82 5.82 0 0 1 5.815-5.816zM124.822 418.323c-12.511 0-22.688 10.178-22.688 22.689 0 12.51 10.178 22.688 22.688 22.688s22.689-10.178 22.689-22.688-10.178-22.689-22.689-22.689zm0 30.378c-4.239 0-7.688-3.449-7.688-7.688 0-4.24 3.449-7.689 7.688-7.689 4.24 0 7.689 3.449 7.689 7.689 0 4.239-3.449 7.688-7.689 7.688zM209.3 484.614c0-15.1-12.285-27.385-27.385-27.385-15.101 0-27.386 12.285-27.386 27.385s12.285 27.385 27.386 27.385c15.1 0 27.385-12.285 27.385-27.385zm-27.384 12.385c-6.829 0-12.386-5.556-12.386-12.385s5.557-12.385 12.386-12.385 12.385 5.556 12.385 12.385-5.556 12.385-12.385 12.385zM82.089 229.921h46.934c4.143 0 7.5-3.358 7.5-7.5s-3.357-7.5-7.5-7.5H82.089c-29.667 0-55.27-24.227-54.726-54.578.575-32.154 28.676-55.127 58.337-52.395 10.726.983 19.948-7.43 20.042-18.193.385-44.256 52.074-69.109 86.93-41.36 8.343 6.646 20.502 4.899 26.636-3.834C254.581-5.641 333.401 11.28 344.454 72.15c-8.478-4.448-18.368-6.946-28.288-6.946-36.284 0-63.177 30.872-60.962 64.873-.002.003-.044.07-.188.086-25.023 2.869-44.181 24.082-44.249 49.577-.033 12.882 5.067 25.473 14.64 35.072l.02.019.09.09h-61.492c-4.143 0-7.5 3.358-7.5 7.5s3.357 7.5 7.5 7.5h287.321c18.38 0 35.418-9.938 44.466-25.936a7.5 7.5 0 0 0-13.057-7.384c-6.391 11.3-18.426 18.32-31.409 18.32H261.569c-18.999 0-35.854-15.543-35.802-35.141.046-17.777 13.361-32.697 30.956-34.714 8.052-.922 13.952-7.914 13.437-15.914-1.645-25.574 18.564-48.947 46.006-48.947 15.293 0 29.294 7.619 37.729 19.625 5.018 7.145 14.993 8.594 21.833 3.144 22.829-18.174 56.613-1.851 56.864 27.052.078 8.855 7.68 15.726 16.446 14.919 15.771-1.454 30.618 7.972 36.057 22.914a7.5 7.5 0 1 0 14.095-5.13c-7.767-21.338-28.953-34.788-51.548-32.719-.05-.022-.051-.093-.051-.115-.361-41.385-48.64-64.582-81.208-38.654-.062.049-.085.049-.115.046-.027-.004-.054-.013-.101-.079a61.122 61.122 0 0 0-5.627-6.878c-.013-21.588-8.494-42.723-23.588-58.443-36.89-38.417-99.489-33.253-129.918 10.054-1.173 1.672-3.417 1.997-5.018.723-44.694-35.587-110.78-3.627-111.273 52.96-.017 1.988-1.656 3.573-3.671 3.386-38.199-3.505-73.973 26.036-74.706 67.064-.7 39.108 32.068 69.847 69.723 69.847z" fill="#273d5e" opacity="1" data-original="#000000"></path></g></svg>