<svg xmlns="http://www.w3.org/2000/svg" version="1.1" xmlns:xlink="http://www.w3.org/1999/xlink" width="512" height="512" x="0" y="0" viewBox="0 0 24 24" style="enable-background:new 0 0 512 512" xml:space="preserve" class=""><g><path d="M21.5 6h-8.293L18.364.843l-.707-.707L12 5.793 6.343.136l-.707.707L10.793 6H2.5A2.503 2.503 0 0 0 0 8.5V24h24V8.5C24 7.122 22.878 6 21.5 6ZM23 23H1V8.5C1 7.673 1.673 7 2.5 7h19c.827 0 1.5.673 1.5 1.5V23ZM4 20h13V10H4v10Zm1-9h11v8H5v-8Zm16 0a1 1 0 1 1-2 0 1 1 0 0 1 2 0Zm0 4a1 1 0 1 1-2 0 1 1 0 0 1 2 0Zm0 4a1 1 0 1 1-2 0 1 1 0 0 1 2 0Z" fill="#4d87a9" opacity="1" data-original="#000000" class=""></path></g></svg>