<?xml version="1.0" encoding="UTF-8"?>
<svg width="120px" height="126px" viewBox="0 0 120 126" version="1.1" xmlns="http://www.w3.org/2000/svg" xmlns:xlink="http://www.w3.org/1999/xlink">
    <title>Layer_1</title>
    <g id="Icons" stroke="none" stroke-width="1" fill="none" fill-rule="evenodd">
        <g id="Layer_1" transform="translate(-40, -37)">
            <path d="M95.25,42.01 L95.25,100.93 L49.65,100.93 L49.65,42.01 L95.25,42.01 M99.75,37.5 L45.14,37.5 L45.14,105.43 L99.75,105.43 L99.75,37.5 L99.75,37.5 Z" id="Shape" fill="#75ACCE" fill-rule="nonzero"></path>
            <circle id="Oval" fill="#75ACCE" fill-rule="nonzero" cx="143.48" cy="62.54" r="8.96"></circle>
            <line x1="83.79" y1="65.43" x2="107.87" y2="89.83" id="Path" stroke="#75ACCE" stroke-width="2.25" stroke-linecap="round"></line>
            <g id="Group" fill="#75ACCE" fill-rule="nonzero">
                <path d="M43.64,162.5 L71.9,162.5 C72.94,162.5 72.45,158.22 72.45,152.93 L72.45,146.15 C72.45,140.87 68.17,136.58 62.88,136.58 L50.04,136.58 C44.76,136.58 40.47,140.86 40.47,146.15 L40.47,152.93 C40.47,158.21 40.47,162.5 43.64,162.5 L43.64,162.5 Z" id="Path"></path>
                <circle id="Oval" cx="56.52" cy="125.81" r="8.96"></circle>
            </g>
            <g id="Group" fill="#75ACCE" fill-rule="nonzero">
                <path d="M86.96,162.5 L115.22,162.5 C116.26,162.5 115.77,158.22 115.77,152.93 L115.77,146.15 C115.77,140.87 111.49,136.58 106.2,136.58 L93.36,136.58 C88.08,136.58 83.79,140.86 83.79,146.15 L83.79,152.93 C83.79,158.21 83.79,162.5 86.96,162.5 Z" id="Path"></path>
                <circle id="Oval" cx="99.84" cy="125.81" r="8.96"></circle>
            </g>
            <g id="Group" fill="#75ACCE" fill-rule="nonzero">
                <path d="M128.84,162.5 L157.1,162.5 C158.14,162.5 157.65,158.22 157.65,152.93 L157.65,146.15 C157.65,140.87 153.37,136.58 148.08,136.58 L135.24,136.58 C129.96,136.58 125.67,140.86 125.67,146.15 L125.67,152.93 C125.67,158.21 125.67,162.5 128.84,162.5 Z" id="Path"></path>
                <circle id="Oval" cx="141.72" cy="125.81" r="8.96"></circle>
            </g>
            <path d="M129.02,106.75 L158.83,106.75 C159.93,106.75 159.41,101.16 159.41,94.26 L159.41,85.41 C159.41,78.51 154.89,72.92 149.32,72.92 L135.77,72.92 C130.2,72.92 125.68,78.51 125.68,85.41 L125.68,94.26 C125.68,101.16 125.68,106.75 129.02,106.75 Z" id="Path" fill="#75ACCE" fill-rule="nonzero"></path>
            <polyline id="Path" stroke="#75ACCE" stroke-width="9.02" stroke-linecap="round" points="107.87 91.91 122.15 91.91 130.97 79.33"></polyline>
        </g>
    </g>
</svg>