<?xml version="1.0" encoding="UTF-8"?>
<svg width="126px" height="126px" viewBox="0 0 126 126" version="1.1" xmlns="http://www.w3.org/2000/svg" xmlns:xlink="http://www.w3.org/1999/xlink">
    <title>Layer_1</title>
    <g id="Icons" stroke="none" stroke-width="1" fill="none" fill-rule="evenodd">
        <g id="Layer_1" transform="translate(-37, -37)" fill-rule="nonzero">
            <circle id="Oval" fill="#75ABCC" cx="100" cy="100.28" r="62.5"></circle>
            <path d="M99.67,160.12 C97.49,160.12 95.29,159.99 93.12,159.73 C93.38,159.66 93.28,159.55 93.08,159.43 C93.22,159.3 93.37,159.25 93.59,159.27 C93.4,159.25 93.13,159.21 92.94,159.17 C93.3,159.16 93.65,159.16 94.01,159.17 C93.83,158.98 93.6,158.93 93.34,159.01 C93.41,159.01 93.47,159.03 93.53,159.06 C93.41,159.1 93.29,159.1 93.17,159.06 L93.2,159.03 C92.84,159.01 92.53,158.85 92.28,158.58 C93.25,158.81 94.19,158.87 94.25,158.23 C94.32,158.11 94.13,157.97 93.93,157.85 C96.11,158.01 98.16,157.99 97.3,156.56 C97.15,156.26 96.59,156.01 96.01,155.94 C96.07,155.9 96.06,155.85 96.01,155.8 C102.55,157.92 103.02,149.71 107.33,148.28 L107.33,148.28 C112.06,148.12 111.99,141.89 113.02,138.81 C114.29,135.04 116.91,135.28 112.98,133.01 C110.49,131.57 107.31,131.99 104.8,132.64 C104.78,131.74 104.25,132.15 103.72,131.89 C101.98,130.9 100.35,131.34 99.58,133.21 C99.5,133.04 99.48,132.85 99.51,132.66 C98.87,132.88 97.98,132.9 97.34,132.97 C97.82,132.98 97.12,133.17 97.24,133.13 C98.29,132.7 97.51,132.39 97.85,131.92 C98.02,130.93 97.79,126.46 93.4,126.32 C90,126.42 88.61,124.2 85.65,123.82 C84.42,122.88 83.97,122.41 84.34,121.69 C83.69,121.84 82.79,121.59 82.09,121.72 C82.1,121.71 82.61,121.84 82.61,121.84 C80.22,122.43 77.89,121.69 76.34,119.99 C75.64,120.31 76.16,120.39 76.49,120.72 C75.87,121.8 74.29,120.89 75.2,123.02 C74.9,122.09 74.4,119.77 74.4,119.85 C74.33,119.87 74.26,119.85 74.2,119.82 C72.05,120.39 70.42,121.38 69.96,123.54 C67.58,120.3 65.78,123.29 63.58,119.56 C61.49,116.02 64.47,114.17 59.21,113.37 L59.22,113.37 C59.24,113.11 59.4,112.89 59.63,112.72 L59.63,112.72 C59.73,111.89 59.81,111.16 59.89,110.52 C60.01,110.77 60.05,111.06 60.04,111.42 C60.25,111 60.37,110.45 60.33,110.04 C60.5,109.96 60.51,109.86 60.35,109.75 C61.09,108.91 61.42,108.2 60.4,107.95 C58.92,107.17 57.99,107.97 57.47,109.62 C56.86,109.97 55.67,109.73 54.75,109.02 L54.75,109.05 C53.15,106.96 53.12,103.88 54.02,101.43 C54.27,101.61 54.37,101.46 54.38,101.17 C54.41,101.34 54.38,99.86 54.41,99.49 C54.48,99.49 54.52,99.52 54.52,99.59 C54.66,99.46 54.71,99.24 54.65,99.03 C54.81,99.09 54.9,99.03 54.92,98.87 L54.85,98.87 C55.15,98.76 55.33,98.6 55.39,98.32 C55.43,98.35 55.45,98.4 55.47,98.45 C55.48,98.42 55.5,98.38 55.52,98.34 C55.55,98.47 55.6,98.5 55.68,98.38 L55.68,98.53 C55.77,98.47 55.84,98.48 55.9,98.53 C55.79,98.56 55.66,98.61 55.55,98.65 C55.97,98.42 56.91,97.54 56.78,97.81 C56.76,97.87 56.72,97.89 56.66,97.88 C58.26,98.18 59.44,98.75 60.28,99.61 C59.95,98.81 60.67,98.56 59.84,98.02 C60.7,98.55 61.24,97.89 61.63,97.91 C61.54,98.72 61.96,98.69 62.2,98.61 C62.48,98.58 62.76,98.59 62.74,98.77 C64.34,99.25 65.19,100.25 65.13,102.12 L65.16,101.96 C65.09,102.37 65.21,102.9 65.49,103.19 L65.49,103.5 C65.55,104.34 65.98,105.06 66.75,105.26 C67.25,102.76 65.92,100.22 67.16,97.93 C67.94,97.27 70.34,95.75 70.94,95.35 C70.96,95.22 71.04,95.11 71.15,95.03 C71.1,94.93 71.02,94.86 70.9,94.82 C71.01,94.88 71.11,94.87 71.18,94.77 C71.54,95.07 71.72,94.86 71.74,94.37 C71.61,94.59 71.49,94.72 71.55,94.33 C71.14,94.42 71.01,94.29 71.17,93.92 C71.16,94.24 71.32,94.26 71.58,94.11 L71.58,94.05 C71.71,94.07 71.77,94.12 71.78,94.23 C71.65,93.62 71.59,93.17 71.6,93.1 C71.5,92.97 71.47,92.85 71.64,92.82 C71.58,92.29 71.37,91.73 71.13,91.39 C71.18,91.6 71.4,91.83 71.68,91.99 C71.72,91.84 71.68,91.72 71.58,91.63 L71.65,91.63 C71.66,91.36 71.69,91.08 71.74,90.82 C72.27,90.46 72.13,91.44 72.17,92.24 C72.2,94.25 72.43,91.28 72.51,90.54 C72.59,90.76 72.75,90.91 72.96,90.97 C72.92,91.05 72.92,91.14 72.94,91.22 C73.27,90.93 73.5,90.62 73.66,90.23 C74.47,89.25 75.84,88.46 77.07,88.41 C77.03,88.42 76.98,88.61 76.97,88.61 C76.21,88.3 76.72,87.86 76.6,87.67 C77.34,86.38 78.27,85.69 79.5,85.41 C79.57,85.31 79.59,85.2 79.56,85.08 C80.27,85.2 80.95,84.92 81.44,84.35 C81.44,84.46 81.48,84.49 81.58,84.45 C81.39,84.58 81.26,84.75 81.23,84.95 C81.58,84.88 81.91,84.86 82.27,84.88 C81.52,84.99 80.84,85.31 80.15,85.89 C80.24,85.85 80.31,85.8 80.37,85.72 C80.08,86.52 80.25,86.89 80.9,86.69 C81.2,86.42 81.46,86.09 81.65,85.73 L81.69,85.85 L81.81,85.67 C81.97,85.9 82.07,85.94 82.05,85.6 C82.66,85.51 83.37,85.26 83.97,84.94 C83.9,84.88 83.81,84.86 83.71,84.89 C83.71,84.82 83.74,84.78 83.81,84.76 C83.7,84.59 83.53,84.55 83.33,84.62 C83.38,84.53 83.37,84.45 83.3,84.37 C82.85,84.6 82.38,84.57 81.87,84.32 C81.87,84.24 81.92,84.19 82.01,84.17 C81.86,84.04 81.67,83.97 81.47,83.98 C81.32,83.76 81.26,83.45 81.31,83.14 C81.21,83.1 81.12,83.1 81.02,83.12 C81.32,82.89 81.51,82.59 81.25,82.36 C80.93,82.46 80.62,82.38 80.23,82.14 C81.03,82.16 81.68,81.86 81.91,81.36 C80.13,80.7 78.24,81.7 76.93,83.2 C77.46,82.88 77.85,82.43 78.06,81.89 C78.44,81.65 78.87,81.28 79.17,80.92 C79.74,80.73 80.2,80.42 80.59,80 C81.91,79.96 83.55,79.83 84.77,79.65 C85.22,79.42 86.88,78.38 87.76,77.75 C87.68,77.68 87.6,77.6 87.52,77.53 C87.6,77.56 87.69,77.56 87.78,77.55 C87.76,77.42 87.67,77.36 87.53,77.38 C87.55,77.3 87.6,77.28 87.68,77.32 C87.63,77.05 87.55,76.93 87.33,76.78 C87.77,76.86 87.76,76.72 87.51,76.47 C87.68,76.33 87.53,76.27 87.18,76.28 L87.21,76.22 C86.95,76.19 86.78,76.33 86.71,76.6 C86.91,75.95 86.74,75.66 86.01,75.92 C86.16,75.86 86.32,75.87 86.46,75.94 C85.85,76.07 85.28,76.37 84.8,76.83 C84.81,76.52 84.63,76.37 84.37,76.31 C84.91,76.43 85.34,76.31 85.85,75.94 C85.7,76 85.5,76.06 85.32,76.09 C86.06,75.92 86.76,75.71 86.34,75.28 C86.39,75.21 86.38,75.15 86.29,75.1 C86.05,75.35 85.84,75.29 85.72,74.93 C85.7,74.98 85.66,75.01 85.61,75 L85.63,74.87 C85.51,74.97 85.4,75.08 85.29,75.19 L85.44,74.88 C85.34,74.89 85.3,74.85 85.32,74.76 C85.14,74.83 85.05,74.85 84.87,74.84 C84.97,74.68 84.99,74.56 84.98,74.36 C84.91,74.36 84.85,74.36 84.8,74.41 C84.79,74.22 84.64,74.17 84.41,74.23 L84.47,74.17 C84.39,74.11 84.37,74.02 84.41,73.91 L84.06,73.94 C84.06,73.84 84.12,73.81 84.21,73.86 C84.05,73.75 83.99,73.65 84.22,73.59 C84.03,73.54 83.78,73.51 83.56,73.51 C83.7,73.49 83.89,73.45 83.99,73.42 L83.84,73.38 L83.88,73.32 C83.99,73.44 84.11,73.49 84.24,73.45 C84.43,73.24 84.53,73.05 84.21,72.92 C84.29,72.73 84.16,72.69 83.92,72.76 C84.25,72.53 84.29,72.36 83.89,72.31 C83.9,72.24 83.95,72.19 84.02,72.18 L83.93,72.05 C83.8,72.1 83.68,72.14 83.56,72.18 C83.66,72.07 83.76,72.01 83.89,71.96 L83.84,71.94 C83.93,71.89 83.96,71.83 83.94,71.74 C83.38,71.78 83.37,71.72 83.83,71.59 C83.74,71.58 83.72,71.53 83.78,71.44 C83.72,71.42 83.67,71.43 83.62,71.44 C83.65,71.4 83.66,71.35 83.66,71.29 L83.63,71.29 C83.63,71.29 83.68,71.18 83.68,71.18 C83.48,71.19 83.27,71.22 83.11,71.27 C83.35,71.21 83.67,71.15 83.51,71.02 L83.51,70.91 C83.51,70.91 83.44,70.9 83.43,70.97 C83.43,70.89 83.4,70.86 83.31,70.88 C83.37,70.85 83.42,70.8 83.45,70.75 C83.39,70.7 83.33,70.7 83.26,70.73 C83.24,70.67 83.26,70.64 83.31,70.64 L83.21,70.64 C83.29,70.44 83.26,70.36 83.11,70.43 C83.18,70.35 83.2,70.25 83.19,70.14 L83.12,70.14 C82.86,70.06 82.64,70.32 82.66,70.79 C82.56,70.86 82.5,70.92 82.42,71.03 L82.37,70.97 C82.35,71.13 82.31,71.24 82.27,71.32 C82.2,71.41 82.13,71.41 82.07,71.32 C82.21,71.48 82.2,71.64 82.03,71.79 C82.15,71.61 82.09,71.48 81.91,71.4 C81.68,71.7 81.42,71.92 81.07,72.09 C81.07,71.98 81.07,71.86 81.1,71.75 L80.99,71.84 C81.04,71.77 81.06,71.69 81.07,71.6 C80.91,71.99 80.62,72.23 80.19,72.31 C80.96,71.68 81.16,71.29 80.11,71.51 C80.05,71.44 79.97,71.4 79.88,71.38 C80.08,71.41 80.14,71.34 80.07,71.18 C80.19,71.16 80.23,71.21 80.21,71.33 C80.29,71.29 80.36,71.24 80.42,71.18 C80.53,71.18 80.52,71.15 80.39,71.07 C80.42,71.01 80.49,70.95 80.56,70.9 C80.64,70.57 80.4,70.29 79.71,70.14 C80,70.22 80.34,70.23 80.64,70.16 C80.63,70.07 80.59,69.92 80.57,69.86 C80.72,69.66 80.79,69.47 80.75,69.24 C80.68,69.34 80.58,69.39 80.43,69.39 C80.46,69.33 80.46,69.27 80.43,69.21 C80.3,69.21 80.22,69.23 80.11,69.26 C80.11,69.09 80.01,69.04 79.83,69.1 C79.83,69.06 79.83,69.04 79.87,69.01 C79.91,68.82 79.99,68.56 79.65,68.71 C79.73,68.6 79.75,68.51 79.73,68.35 C79.61,68.35 79.55,68.37 79.45,68.44 C79.64,67.86 79.25,67.8 78.67,68.01 L78.51,68.01 C78.51,68.01 78.31,67.83 78.34,67.84 C78.1,67.68 77.86,67.59 77.57,67.54 L77.59,67.48 C77.09,67.77 76.9,68.06 77.32,68.26 C76.91,68.59 76.64,68.91 76.94,69.18 C76.82,69.18 76.7,69.2 76.79,69.31 C76.79,69.54 76.72,69.72 76.59,69.79 L76.56,69.87 C76.65,69.94 76.73,69.95 76.82,69.9 C76.63,70.01 76.56,70.14 76.75,70.28 C75.97,70.35 75.49,70.67 76.08,71.48 C76.06,72.14 75.98,72.82 75.85,73.46 C75.93,73.38 76,73.29 76.06,73.19 C76.05,73.3 76.06,73.45 76.1,73.52 C75.74,73.55 75.39,73.8 75.08,74.23 L75.24,74.15 C74.77,74.48 74.24,74.74 73.68,74.89 C73.6,75.69 73.72,76.8 73.94,77.29 C73.69,77.36 73.41,77.49 73.17,77.63 C73.33,77.9 73.31,78.11 73.02,78.22 C73.05,78.04 73.04,77.94 72.97,77.81 C72.71,77.84 72.55,78.03 72.5,78.34 C72.32,77.98 72.08,77.92 71.76,78.23 C72.36,77.65 72.28,77.23 71.48,77.1 C71.75,76.53 72.2,75.22 72.49,74.09 C72.41,74.08 72.31,74.05 72.21,74 C71.79,73.67 71.19,73.63 70.68,74 C71.18,73.4 70.91,72.96 70.25,72.7 C70.12,71.65 69.54,71.06 68.57,71.14 L68.61,71.06 L68.39,71.12 C68.98,70.35 69.58,69.43 68.62,69.44 C68.68,69.36 68.73,69.27 68.75,69.18 C68.66,69.15 68.64,69 68.65,68.87 C69.22,68.24 69.8,67.46 70.13,66.89 C70.44,66.94 70.71,66.83 70.84,66.56 C70.98,66.56 71.13,66.48 71.24,66.38 L71.26,66.56 C71.38,66.24 71.56,66.09 71.79,66.12 L71.67,66.1 C71.65,66.01 71.67,65.95 71.74,65.92 C72.22,66.18 72.55,66.07 72.66,65.53 L72.59,65.53 C72.56,65.29 72.45,65.19 72.23,65.28 C72.4,65.18 72.39,65.13 72.2,65.14 C72.22,65.04 72.17,64.93 72.09,64.85 C71.9,64.95 71.97,64.87 72.1,64.73 C72.17,64.93 72.3,65.09 72.47,65.14 C72.5,65.21 72.56,65.21 72.63,65.15 L72.59,65.25 L72.63,65.25 C72.69,65.33 72.73,65.43 72.76,65.54 L72.83,65.49 C73.01,65.51 73.17,65.39 73.25,65.2 C73.34,65.29 73.38,65.18 73.4,65.05 C73.43,65.06 73.44,65.09 73.44,65.12 L73.48,65.12 C73.48,65.12 73.47,65.2 73.47,65.2 C73.47,65.18 73.49,65.16 73.51,65.14 L73.58,65.28 C73.71,65.31 73.87,65.29 74.04,65.21 L74.04,65.23 C74.4,64.98 74.7,64.74 75.02,64.45 L74.98,64.45 C74.98,64.45 74.99,64.41 74.99,64.41 C74.52,64.34 74.26,64.07 74.22,63.62 C74.54,63.6 74.71,63.85 74.71,64.23 C75.38,64.01 75.93,63.64 76.06,63.44 L76.06,63.46 C76.13,63.39 76.2,63.38 76.27,63.43 L76.18,63.71 L76.21,63.68 C76.26,63.74 76.31,63.77 76.38,63.81 C76.47,63.59 76.56,63.69 76.64,63.86 L76.64,63.9 C76.65,63.73 76.71,63.55 76.79,63.43 C77.5,63.73 78.03,63.26 78.21,62.31 L78.07,62.34 C78.07,62.34 78.12,62.29 78.13,62.25 L78.09,62.25 C78.09,62.25 78.11,62.2 78.14,62.2 C78.1,62.13 78.1,62.07 78.16,62.02 L78.23,62.08 C78.23,62.08 78.29,62.03 78.32,62.04 C78.29,62.08 78.29,62.13 78.32,62.17 C78.59,62.08 78.79,61.97 78.52,61.78 C78.65,61.73 78.77,61.65 78.85,61.55 C78.78,61.48 78.7,61.45 78.58,61.45 C78.64,61.38 78.64,61.29 78.57,61.23 C78.66,61.21 78.7,61.14 78.7,61.04 C78.44,60.95 78.18,60.87 77.91,60.76 C77.68,60.98 77.59,61.22 77.74,61.43 L77.72,61.49 C77.67,61.44 77.63,61.45 77.61,61.51 L77.56,61.51 C77.49,61.57 77.51,61.62 77.59,61.66 C77.11,61.74 76.6,62.13 76.27,62.64 C76.25,62.64 76.24,62.62 76.24,62.59 L76.2,62.61 L76.2,62.58 C76.11,62.63 76.03,62.68 75.94,62.72 C75.86,62.3 75.98,61.94 76.3,61.67 C76.48,61.8 76.52,61.36 76.55,60.91 C76.23,61.05 75.89,61.29 75.6,61.57 C75.73,61.34 75.84,61.12 75.94,60.88 C75.86,60.83 75.85,60.75 75.91,60.64 C75.93,60.67 75.96,60.67 75.99,60.66 L75.99,60.72 C76.07,60.69 76.12,60.63 76.15,60.56 L76.09,60.6 L76.07,60.55 L76.04,60.55 C76.04,60.55 76.05,60.5 76.05,60.5 L76.01,60.5 C76.01,60.5 76.08,60.47 76.09,60.44 C75.92,60.52 75.8,60.51 75.85,60.3 L75.75,60.27 C76,60.2 76.12,60.09 76.13,59.91 C76.22,59.99 76.33,60.08 76.34,59.95 C76.39,59.91 76.41,59.87 76.39,59.82 C76.37,59.84 76.33,59.86 76.31,59.86 C76.36,59.75 76.41,59.63 76.45,59.52 L76.38,59.52 C76.38,59.52 76.44,59.4 76.44,59.4 L76.4,59.37 L76.43,59.33 L76.44,59.33 C76.63,59.18 76.73,58.97 76.69,58.76 C76.72,58.69 76.77,58.64 76.83,58.59 L76.73,58.59 C76.73,58.59 76.73,58.53 76.73,58.53 C76.7,58.56 76.66,58.58 76.61,58.59 L76.67,58.51 L76.61,58.53 C76.71,58.13 76.38,58.46 76.19,58.65 C76.15,58.72 76.09,58.78 76.02,58.81 L76.02,58.67 C75.91,58.71 75.82,58.77 75.72,58.88 L75.73,58.88 C75.59,58.96 75.51,59.07 75.49,59.22 L75.53,59.2 C75.53,59.2 75.47,59.27 75.43,59.28 C75.22,59.3 75.04,59.49 75.02,59.77 C74.92,59.87 74.97,59.93 75.12,59.95 C75.09,60.02 75.09,60.08 75.12,60.15 C75.16,60.15 75.18,60.13 75.2,60.09 C75.12,60.3 75.2,60.35 75.39,60.3 C75.34,60.42 75.25,60.5 75.13,60.54 C75.16,60.46 75.23,60.4 75.31,60.36 C75.17,60.36 75.06,60.42 74.97,60.52 L75.02,60.52 C74.86,60.61 74.79,60.67 74.63,60.79 C74.74,60.87 74.86,60.84 74.97,60.73 C74.94,60.75 74.91,60.77 74.87,60.77 C74.91,60.73 74.95,60.69 75,60.65 C75.02,60.77 74.95,60.89 74.83,60.97 L74.87,61.01 C74.6,61.19 74.29,61.29 74.03,61.25 C74.05,61.2 74.01,61.19 73.97,61.19 C73.85,61.38 73.47,62.15 73.56,61.74 L73.47,61.77 L73.47,61.72 C73.47,61.72 73.33,61.77 73.33,61.77 L73.44,61.63 L73.36,61.61 C73.56,61.45 73.77,61.24 73.96,61.01 C73.83,60.99 73.74,61.04 73.69,61.15 L73.69,61.1 C73.69,61.1 73.65,61.1 73.65,61.1 C73.7,61.04 73.79,60.96 73.87,60.9 C73.79,60.94 73.75,60.93 73.74,60.87 L73.8,60.84 C73.75,60.79 73.75,60.74 73.8,60.69 L73.74,60.65 L73.69,60.74 C73.69,60.69 73.69,60.64 73.72,60.61 C73.7,60.57 73.66,60.56 73.62,60.57 C73.65,60.72 73.61,60.76 73.48,60.69 L73.48,60.66 C73.48,60.66 73.42,60.64 73.38,60.68 C73.41,60.64 73.4,60.61 73.36,60.6 C73.35,60.71 73.31,60.79 73.26,60.88 L73.26,60.84 C73.21,60.93 73.18,61.06 73.17,61.13 C73.28,61.02 73.36,60.98 73.35,61.14 C73.39,61.14 73.42,61.14 73.46,61.13 C73.11,61.06 73.13,60.91 73.02,61.13 C72.96,61.09 72.89,61.08 72.81,61.08 L72.84,61.05 C72.84,61.05 72.79,61.04 72.77,61.05 L72.77,60.95 C72.53,60.9 72.31,60.82 72.13,60.72 L72.1,60.72 C72.1,60.72 72.1,60.68 72.1,60.68 C72.08,60.69 72.06,60.68 72.05,60.66 C71.96,60.75 71.94,60.66 71.92,60.58 C71.97,60.43 72.01,60.27 72.02,60.15 C71.99,60.19 71.96,60.22 71.91,60.23 L71.91,60.19 C71.91,60.19 71.85,60.24 71.85,60.24 L71.85,60.19 C71.68,60.16 71.67,60.07 71.8,59.96 C71.76,59.87 71.76,59.78 71.8,59.68 L71.77,59.68 C71.88,59.64 71.95,59.58 72.01,59.48 C72.04,59.38 72.05,59.32 72.04,59.22 C71.98,59.26 71.94,59.25 71.92,59.19 C71.58,59.14 71.25,59.19 70.95,59.37 L71.02,59.37 C71.02,59.37 70.97,59.41 70.97,59.41 L71.01,59.43 L70.96,59.46 L71.01,59.46 C71.01,59.46 70.98,59.5 70.98,59.5 L71.07,59.53 L71.02,59.53 C71.02,59.53 71.02,59.56 71.02,59.56 C71.06,59.54 71.1,59.55 71.13,59.56 C71.12,59.54 71.13,59.52 71.15,59.51 C71.14,59.42 71.2,59.41 71.29,59.44 C71.31,59.48 71.31,59.51 71.3,59.55 C71.36,59.5 71.41,59.5 71.46,59.54 L71.43,59.57 L71.46,59.57 C71.46,59.57 71.42,59.6 71.41,59.63 C71.46,59.61 71.51,59.57 71.54,59.53 L71.49,59.56 L71.55,59.46 L71.63,59.49 C71.64,59.38 71.71,59.36 71.84,59.44 L71.84,59.46 C71.84,59.46 71.88,59.46 71.88,59.46 C71.85,59.5 71.81,59.52 71.76,59.53 L71.76,59.56 C71.67,59.57 71.57,59.62 71.48,59.69 L71.53,59.62 C71.47,59.62 71.44,59.65 71.41,59.71 C71.31,59.68 71.28,59.68 71.16,59.68 L71.19,59.65 C71.08,59.65 71.02,59.66 70.91,59.7 L70.91,59.74 C70.91,59.74 70.84,59.76 70.82,59.74 C70.66,59.92 70.52,60.11 70.37,60.35 L70.4,60.37 C70.32,60.39 70.28,60.44 70.25,60.53 C70.23,60.48 70.19,60.48 70.13,60.53 C70.13,60.42 70.07,60.45 69.98,60.57 C69.98,60.46 70.03,60.34 70.1,60.25 L70.1,60.28 C70.15,60.25 70.18,60.26 70.19,60.31 C70.28,60.28 70.35,60.21 70.38,60.11 L70.35,60.08 L70.41,59.98 L70.35,60 C70.35,59.94 70.39,59.9 70.46,59.87 L70.45,59.87 C70.51,59.84 70.52,59.82 70.5,59.78 C70.44,59.84 70.38,59.88 70.31,59.92 L70.33,59.89 L70.29,59.92 C70.35,59.82 70.44,59.73 70.53,59.66 L70.43,59.58 L70.4,59.61 L70.36,59.53 L70.37,59.53 C70.37,59.53 70.44,59.46 70.47,59.41 L70.43,59.41 C70.43,59.41 70.48,59.33 70.52,59.28 C70.39,59.31 70.22,59.32 70.09,59.31 L70.2,59.23 C70.14,59.2 70.08,59.22 70.04,59.28 L70.02,59.25 L69.99,59.27 C69.99,59.27 69.95,59.21 69.99,59.19 C69.93,59.18 69.91,59.19 69.92,59.24 L69.88,59.21 L69.93,59.18 C69.84,59.16 69.77,59.12 69.7,59.04 L69.72,59.04 C69.59,58.96 69.5,58.85 69.5,58.71 L69.44,58.73 C69.46,58.67 69.46,58.6 69.43,58.55 L69.48,58.55 C69.46,58.47 69.57,58.41 69.7,58.35 C69.76,58.44 69.8,58.44 69.82,58.34 C69.83,58.4 69.87,58.43 69.92,58.43 L69.88,58.48 C69.88,58.48 69.93,58.5 69.96,58.47 L69.98,58.5 C69.98,58.5 70.07,58.41 70.13,58.38 L70.05,58.4 C70.17,58.29 70.26,58.15 70.31,58 L70.25,58 C70.25,58 70.31,57.93 70.3,57.87 L70.34,57.87 C70.34,57.87 70.3,57.76 70.3,57.76 L70.27,57.79 C70.27,57.79 70.25,57.71 70.2,57.69 C70.2,57.77 70.17,57.82 70.1,57.84 C70.14,57.76 70.12,57.69 70.05,57.61 L70.03,57.64 C70.01,57.16 70.04,56.68 70.13,56.24 C70.13,56.2 70.13,56.18 70.13,56.13 C70.09,56.13 70.06,56.11 70.05,56.08 C69.87,56.23 69.68,56.28 69.58,56.17 C69.47,56.13 69.5,56.09 69.6,56.04 L69.54,56.08 C69.64,56.03 69.75,56 69.86,55.98 L69.86,55.94 C69.86,55.94 69.81,55.94 69.81,55.94 C69.92,55.85 70.06,55.75 70.2,55.68 L70.16,55.65 C70.16,55.65 70.13,55.71 70.1,55.74 C70.08,55.71 70.05,55.71 70.02,55.74 C70.05,55.73 70.08,55.7 70.08,55.67 L70.05,55.65 L70.05,55.62 C70.05,55.62 69.97,55.65 69.95,55.69 C69.98,55.67 70.01,55.67 70.04,55.69 C69.98,55.74 69.89,55.76 69.81,55.76 L69.86,55.72 C69.74,55.79 69.68,55.83 69.58,55.91 C69.54,55.87 69.5,55.85 69.44,55.89 C69.51,55.92 69.52,55.95 69.46,55.98 C69.45,55.95 69.43,55.94 69.4,55.96 C69.35,55.88 69.37,55.8 69.43,55.73 C69.73,55.47 70.02,55.17 70.26,54.86 C70.21,54.86 70.16,54.88 70.11,54.9 L70.14,54.92 C70.05,54.95 70,55 70,55.09 C69.8,55.09 69.61,55.09 69.4,55.11 C69.45,55.09 69.5,55.07 69.55,55.06 L69.55,55.08 C69.55,55.08 69.66,55.02 69.66,55.02 C69.38,54.91 69.12,54.92 68.81,55.05 C68.9,55.02 69,54.96 69.07,54.9 C69.03,54.87 68.98,54.87 68.92,54.91 L68.99,54.87 L68.9,54.89 C68.95,54.89 68.98,54.86 68.99,54.82 C68.85,54.86 68.7,54.85 68.57,54.78 C68.62,54.75 68.68,54.73 68.75,54.73 C68.75,54.76 68.72,54.78 68.69,54.78 C68.73,54.77 68.77,54.75 68.81,54.75 L68.81,54.77 C68.81,54.77 68.9,54.75 68.95,54.77 L68.93,54.75 C69.06,54.71 69.15,54.75 69.14,54.88 C69.4,54.94 69.65,54.91 69.85,54.76 C69.79,54.77 69.72,54.78 69.67,54.77 C69.7,54.73 69.7,54.71 69.73,54.65 C69.64,54.63 69.55,54.64 69.46,54.68 L69.48,54.6 C69.39,54.6 69.3,54.6 69.21,54.6 C69.2,54.56 69.21,54.54 69.21,54.51 C69.18,54.51 69.14,54.51 69.11,54.53 C69.1,54.52 69.11,54.5 69.12,54.5 C68.99,54.57 68.87,54.58 68.78,54.5 L68.78,54.48 C68.49,54.48 68.24,54.59 68.04,54.81 C68.2,54.7 68.3,54.56 68.33,54.4 C68.26,54.42 68.16,54.5 68.1,54.58 C68.17,54.47 68.26,54.31 68.33,54.16 C68.31,54.18 68.28,54.19 68.26,54.21 L68.28,54.18 C68.3,53.99 68.41,53.81 68.59,53.67 L68.55,53.67 C68.8,53.47 68.97,53.21 69.04,52.91 C69.01,52.93 68.98,52.94 68.94,52.94 C69.12,52.76 69.27,52.58 69.43,52.37 C69.4,52.37 69.41,52.34 69.43,52.32 C69.4,52.34 69.37,52.36 69.33,52.36 C69.37,52.34 69.4,52.31 69.42,52.28 C69.38,52.27 69.37,52.24 69.39,52.19 C69.31,52.19 69.32,52.14 69.39,52.1 L69.35,52.1 C69.6,51.77 69.87,51.29 70,50.94 L70.03,50.94 C70.03,50.94 70.03,50.96 70.03,50.96 C70.11,50.88 70.15,50.78 70.15,50.66 C70.25,50.68 70.29,50.59 70.3,50.51 L70.28,50.58 C70.41,50.52 70.51,50.45 70.61,50.34 L70.52,50.38 L70.55,50.36 L70.53,50.36 C70.65,50.32 70.74,50.27 70.66,50.17 L70.72,50.14 C70.72,50.14 70.68,50.11 70.65,50.12 C70.75,50.01 70.87,49.92 71.02,49.85 L70.97,49.87 L71.02,49.83 L70.96,49.85 L70.98,49.82 C70.88,49.83 70.78,49.87 70.69,49.92 C70.72,49.88 70.76,49.85 70.81,49.83 L70.77,49.83 C70.77,49.83 70.85,49.79 70.85,49.79 L70.78,49.79 C70.83,49.78 70.88,49.74 70.91,49.69 L70.9,49.69 C70.9,49.69 70.99,49.69 70.99,49.69 C71.08,49.77 71.24,49.67 71.4,49.49 C71.37,49.48 71.33,49.47 71.3,49.48 L71.31,49.48 C71.31,49.48 71.26,49.51 71.23,49.48 L71.26,49.45 C71.19,49.45 71.13,49.42 71.07,49.38 L71.11,49.31 L71.08,49.31 C71.08,49.26 71.12,49.21 71.17,49.17 L71.14,49.19 L71.14,49.17 C71.14,49.17 71.06,49.2 71.06,49.2 C71.11,49.14 71.16,49.12 71.23,49.14 C71.23,49.17 71.23,49.18 71.25,49.18 C71.26,49.1 71.23,49.05 71.15,49.07 L71.15,49.05 C71.07,49.08 71,49.14 70.95,49.2 C70.95,49.17 70.95,49.15 70.97,49.14 C70.91,49.16 70.84,49.17 70.78,49.18 C70.81,49.15 70.85,49.13 70.9,49.13 L70.9,49.11 C70.97,49.11 71.05,49.1 71.11,49.04 C71.1,48.99 71.07,48.97 71.04,48.98 L71.04,49.01 C70.97,48.97 70.95,48.91 70.99,48.83 L70.94,48.81 C71,48.81 71.04,48.81 71.08,48.77 C70.93,48.77 70.8,48.82 70.69,48.92 C70.77,48.86 70.84,48.8 70.92,48.74 C70.81,48.69 70.73,48.71 70.67,48.83 C70.69,48.8 70.72,48.74 70.74,48.71 C70.68,48.74 70.59,48.79 70.53,48.82 L70.66,48.73 C70.59,48.76 70.51,48.77 70.44,48.76 L70.54,48.73 C70.18,48.75 70.25,48.56 70.46,48.33 L70.46,48.36 C70.46,48.36 70.52,48.32 70.53,48.27 C70.42,48.29 70.28,48.33 70.2,48.37 C70.18,48.37 70.17,48.35 70.19,48.32 L70.16,48.32 C70.16,48.32 70.18,48.29 70.18,48.29 C70.18,48.31 70.2,48.32 70.23,48.31 C69.71,48.59 68.93,49.06 68.34,49.45 C68.37,49.43 68.4,49.43 68.43,49.43 L68.38,49.49 C68.38,49.49 68.42,49.47 68.44,49.47 C68.32,49.53 68.22,49.61 68.1,49.74 L68.1,49.71 C67.97,49.74 67.84,49.8 67.74,49.9 C67.78,49.89 67.82,49.88 67.86,49.88 C67.83,49.88 67.8,49.89 67.77,49.91 L67.8,49.91 C67.74,49.97 67.68,50.04 67.64,50.1 L67.67,50.1 C67.65,50.17 67.61,50.21 67.57,50.23 L67.57,50.15 C67.57,50.15 67.52,50.15 67.51,50.18 L67.54,50.18 C67.48,50.29 67.43,50.37 67.48,50.18 L67.45,50.18 C67.52,50.1 67.66,49.95 67.7,49.9 C67.77,49.8 67.86,49.73 67.98,49.69 C67.86,49.74 67.73,49.8 67.62,49.86 C67.64,49.84 67.67,49.83 67.71,49.84 C67.64,49.97 67.51,50.07 67.38,50.07 C67.46,50.05 67.52,50.01 67.57,49.94 C67.5,49.94 67.42,49.96 67.35,49.97 C67.41,49.93 67.46,49.89 67.5,49.84 L67.49,49.84 C67.49,49.84 67.55,49.77 67.59,49.74 L67.59,49.74 C67.59,49.74 67.63,49.72 67.64,49.69 L67.61,49.69 C67.71,49.57 67.82,49.47 67.94,49.38 L67.97,49.42 C68.07,49.4 68.16,49.36 68.24,49.3 C68.26,49.32 68.24,49.34 68.21,49.37 C68.27,49.29 68.32,49.23 68.38,49.15 L68.32,49.12 C68.4,48.96 68.32,48.98 68.17,49.08 C68.25,49.01 68.31,48.93 68.32,48.84 L68.28,48.84 C68.28,48.84 68.32,48.81 68.32,48.81 C68.3,48.81 68.28,48.81 68.25,48.81 C68.25,48.77 68.27,48.75 68.32,48.74 C68.3,48.7 68.27,48.71 68.24,48.74 C68.23,48.67 68.25,48.64 68.31,48.65 L68.31,48.61 C68.11,48.71 67.91,48.85 67.75,49.01 L67.81,48.98 L67.61,49.16 L67.61,49.11 C67.61,49.11 67.57,49.11 67.57,49.11 C67.62,49.07 67.66,49.05 67.72,49.03 C67.14,49.28 66.67,49.66 66.31,50.16 C66.39,50.13 66.47,50.08 66.54,50.02 C66.43,50.14 66.29,50.23 66.14,50.29 C66.22,50.27 66.29,50.27 66.37,50.3 L66.37,50.37 C66.37,50.37 66.41,50.34 66.41,50.34 C66.36,50.36 66.33,50.4 66.32,50.44 C66.35,50.44 66.36,50.45 66.36,50.48 C66.27,50.57 66.15,50.63 66.02,50.63 C66.04,50.58 66.07,50.54 66.11,50.5 C66.07,50.51 66.03,50.53 65.99,50.55 L66.01,50.55 C65.67,50.82 65.26,51.14 65.33,50.68 C65.37,50.71 65.4,50.69 65.42,50.64 C65.35,50.64 65.28,50.63 65.21,50.6 C65.23,50.55 65.27,50.5 65.32,50.48 C65.29,50.45 65.29,50.42 65.32,50.38 C65.26,50.39 65.21,50.41 65.16,50.44 C65.21,50.41 65.25,50.36 65.27,50.31 C65.24,50.28 65.21,50.28 65.18,50.3 C65.2,50.29 65.22,50.27 65.24,50.24 L65.17,50.22 L65.17,50.22 C65.06,50.22 64.94,50.25 64.83,50.3 C64.85,50.28 64.87,50.24 64.89,50.22 C63.98,50.88 67.09,48.72 66.67,49 C66.62,49.04 66.58,49.08 66.54,49.13 C67.17,48.69 67.86,48.21 68.54,47.81 C68.47,47.86 68.39,47.92 68.32,47.97 C68.46,47.91 68.57,47.84 68.69,47.76 L68.65,47.8 C68.7,47.8 68.75,47.76 68.78,47.71 C68.76,47.73 68.67,47.82 68.79,47.77 C68.71,47.78 68.69,47.82 68.72,47.88 C68.82,47.84 68.91,47.78 69,47.71 L68.9,47.81 C68.9,47.81 68.98,47.77 69.02,47.78 C68.99,47.87 68.91,47.95 68.82,48 C68.92,47.95 69.04,47.9 69.15,47.86 C69.03,47.92 68.91,47.99 68.8,48.08 C68.87,48.06 68.95,48.04 69.02,48.03 C68.99,48.06 68.99,48.08 69.02,48.09 C69,48.12 68.97,48.15 68.94,48.17 C69.04,48.12 69.15,48.05 69.27,47.99 L69.25,47.96 L69.3,47.93 L69.3,47.95 C69.68,47.78 70.03,47.57 70.36,47.32 C70.32,47.4 70.27,47.42 70.21,47.4 C70.28,47.33 70.36,47.27 70.45,47.23 C70.41,47.26 70.37,47.27 70.33,47.26 C70.39,47.22 70.45,47.19 70.52,47.19 L70.5,47.22 C70.57,47.18 70.62,47.14 70.69,47.1 C70.66,47.1 70.63,47.11 70.6,47.11 C70.68,47.08 70.76,47.02 70.81,46.95 L70.75,46.97 L70.78,46.97 C70.78,46.97 70.75,47.02 70.72,47.02 L70.72,47 C70.62,47.06 70.48,47.11 70.36,47.14 L70.37,47.14 C70.3,47.19 70.22,47.22 70.14,47.22 L70.17,47.19 L70.15,47.19 C70.48,47.03 70.84,46.89 71.21,46.79 C71.17,46.81 71.12,46.83 71.07,46.84 C71.27,46.76 71.48,46.66 71.66,46.55 C71.54,46.6 71.42,46.65 71.3,46.7 C71.44,46.62 71.59,46.54 71.73,46.45 C71.73,46.47 71.73,46.48 71.71,46.49 C71.82,46.43 71.96,46.36 72.08,46.3 L72.06,46.32 C72.31,46.19 72.54,46.08 72.8,45.97 L72.69,46.01 C74.07,45.39 75.41,44.71 76.71,43.96 C76.65,43.96 76.6,43.96 76.54,43.96 L76.61,43.91 C76.43,43.97 76.21,44.03 76.01,44.06 C76.33,43.8 76.8,43.61 77.25,43.56 L77.22,43.58 C78.01,43.11 78.98,42.78 79.9,42.46 C80.87,42.25 81.88,41.94 82.82,41.56 C82.76,41.56 82.71,41.59 82.68,41.63 C83.1,41.57 83.52,41.49 83.93,41.38 C83.85,41.45 83.75,41.49 83.64,41.5 C84.65,41.35 85.72,41.15 86.72,40.9 C86.67,40.9 86.64,40.9 86.59,40.89 C86.72,40.81 86.83,40.74 86.96,40.67 C86.94,40.67 86.92,40.67 86.9,40.66 L86.96,40.66 C86.96,40.66 86.85,40.61 86.81,40.6 C87.38,40.43 87.96,40.32 88.57,40.26 C88.87,40.3 89.27,40.22 89.51,40.05 C89.71,39.96 89.92,39.91 90.14,39.92 L90.14,39.92 C90.23,39.93 90.3,39.94 90.38,39.95 C90.4,39.97 90.43,39.99 90.45,39.99 C90.47,40.03 90.52,40.03 90.58,40.01 L90.56,40.01 C90.66,40.1 90.5,40.11 90.41,40.12 L90.43,40.12 C90.43,40.12 90.35,40.15 90.32,40.16 L90.36,40.16 C90.36,40.16 90.35,40.17 90.33,40.17 L90.34,40.17 C90.34,40.17 90.32,40.22 90.28,40.21 L90.4,40.21 C90.4,40.21 90.36,40.24 90.34,40.24 L90.4,40.24 C90.4,40.24 90.35,40.27 90.32,40.29 C90.35,40.29 90.35,40.29 90.34,40.31 L90.34,40.31 C90.34,40.31 90.29,40.33 90.27,40.35 C90.28,40.35 90.29,40.35 90.29,40.36 C90.35,40.36 90.39,40.36 90.44,40.38 L90.44,40.38 C90.44,40.38 90.57,40.39 90.57,40.39 C90.57,40.43 90.62,40.42 90.66,40.41 L90.64,40.41 C90.96,40.39 91.23,40.38 91.53,40.38 C91.75,40.44 91.99,40.41 92.18,40.29 L92.16,40.29 C92.16,40.29 92.19,40.24 92.14,40.21 C92.64,40.11 93.15,40.09 93.65,40.17 C93.6,40.23 93.53,40.25 93.44,40.24 C93.96,40.29 94.48,40.29 95.01,40.24 C94.98,40.14 95.1,40.15 95.22,40.17 C95.17,40.17 95.13,40.17 95.08,40.18 L95.16,40.18 C95.16,40.18 95.13,40.2 95.13,40.2 L95.13,40.2 C95.05,40.22 94.99,40.25 95.03,40.29 C95.01,40.32 95.02,40.35 95.04,40.38 C95.25,40.28 95.46,40.24 95.47,40.39 L95.47,40.39 C95.47,40.39 95.41,40.39 95.38,40.4 C95.47,40.4 95.55,40.4 95.63,40.37 C95.82,40.42 96,40.39 96.02,40.31 L96.04,40.31 C95.94,40.33 95.78,40.33 95.7,40.31 C95.88,40.27 96.08,40.27 96.24,40.31 L96.24,40.27 C96.24,40.27 96.25,40.27 96.26,40.27 C96.36,40.27 96.51,40.25 96.6,40.23 C96.82,40.26 97.1,40.25 97.29,40.21 L97.15,40.17 C97.46,40.2 97.78,40.2 98.09,40.17 C97.18,40.25 96.29,40.38 95.4,40.54 L95.41,40.54 C95.28,40.55 95.14,40.57 95.01,40.59 L95.01,40.59 C95.01,40.59 94.84,40.61 94.84,40.61 L94.9,40.61 C94.9,40.61 94.81,40.65 94.75,40.64 L94.78,40.62 C94.78,40.62 94.7,40.64 94.65,40.65 L94.67,40.65 C94.54,40.67 94.42,40.71 94.31,40.77 L94.31,40.77 C94.31,40.77 94.31,40.79 94.31,40.79 C94.28,40.77 94.26,40.79 94.25,40.81 C94.29,40.81 94.32,40.81 94.35,40.83 L94.33,40.85 C94.38,40.83 94.43,40.82 94.44,40.87 L94.41,40.87 C94.41,40.87 94.45,40.89 94.47,40.91 C94.4,40.91 94.32,40.89 94.25,40.85 L94.31,40.83 C94.23,40.83 94.15,40.88 94.1,40.93 C94.12,40.93 94.14,40.93 94.17,40.93 C94.17,40.96 94.15,40.98 94.13,40.99 C94.13,41.04 94.16,41.05 94.21,41.03 L94.21,41.01 C94.21,41.01 94.26,41 94.3,40.99 C94.3,41.01 94.3,41.03 94.33,41.04 C94.3,41.04 94.28,41.04 94.25,41.07 C94.28,41.11 94.32,41.12 94.36,41.11 C94.36,41.15 94.39,41.18 94.45,41.18 L94.42,41.18 C94.42,41.18 94.51,41.18 94.48,41.22 C94.72,41.23 94.94,41.24 95.17,41.25 C95.15,41.25 95.14,41.26 95.12,41.26 L95.12,41.26 C95.17,41.27 95.22,41.26 95.27,41.24 L95.22,41.24 C95.38,41.19 95.56,41.18 95.73,41.22 L95.73,41.22 C95.73,41.22 95.73,41.23 95.73,41.23 C95.59,41.25 95.45,41.28 95.3,41.32 C95.32,41.35 95.29,41.35 95.26,41.34 L95.27,41.34 C95.27,41.34 95.26,41.36 95.25,41.36 C95.29,41.38 95.32,41.39 95.36,41.38 C95.41,41.4 95.5,41.42 95.57,41.41 C95.54,41.41 95.52,41.43 95.5,41.45 C95.63,41.43 95.77,41.42 95.91,41.42 C95.73,41.47 95.53,41.5 95.35,41.51 C95.37,41.54 95.36,41.56 95.33,41.59 C95.41,41.58 95.47,41.59 95.5,41.66 C95.52,41.66 95.54,41.66 95.57,41.66 C95.57,41.66 95.57,41.67 95.56,41.67 C95.94,41.67 96.35,41.61 96.72,41.49 C96.75,41.47 96.75,41.45 96.69,41.45 L96.71,41.43 L96.7,41.43 C96.7,41.43 96.73,41.41 96.75,41.43 L96.75,41.43 C96.75,41.43 96.81,41.41 96.81,41.41 L96.81,41.41 C96.99,41.39 97.18,41.41 97.35,41.46 C97.35,41.46 97.35,41.45 97.37,41.44 C97.36,41.43 97.37,41.41 97.39,41.41 C97.36,41.41 97.35,41.41 97.34,41.38 L97.36,41.38 C97.36,41.38 97.29,41.38 97.27,41.35 C97.33,41.31 97.4,41.29 97.46,41.31 C97.44,41.31 97.43,41.32 97.43,41.34 L97.51,41.36 C97.51,41.36 97.47,41.37 97.46,41.39 L97.54,41.39 C97.54,41.39 97.51,41.41 97.51,41.41 C97.61,41.41 97.71,41.41 97.79,41.39 L97.79,41.39 C97.79,41.39 97.85,41.41 97.89,41.39 C97.85,41.34 97.98,41.37 98.05,41.38 C98.03,41.38 98.02,41.38 98.01,41.4 C98.09,41.39 98.17,41.39 98.24,41.4 C98.21,41.4 98.17,41.4 98.14,41.42 L98.18,41.42 C98.18,41.42 98.18,41.44 98.18,41.44 C98.26,41.44 98.34,41.44 98.41,41.44 C98.35,41.45 98.26,41.47 98.19,41.48 C98.31,41.53 98.44,41.56 98.58,41.56 C98.6,41.59 98.66,41.61 98.71,41.6 L98.7,41.6 C98.7,41.6 98.78,41.57 98.83,41.6 C98.82,41.6 98.81,41.61 98.79,41.61 C98.83,41.61 98.87,41.61 98.91,41.61 L98.89,41.63 C98.96,41.61 99.04,41.59 98.87,41.59 C98.89,41.59 98.9,41.58 98.9,41.56 C98.88,41.56 98.86,41.56 98.83,41.56 C99.02,41.57 99.25,41.58 99.44,41.58 L99.43,41.58 C99.57,41.62 99.71,41.65 99.86,41.65 L99.84,41.63 C99.97,41.66 100.04,41.67 100.16,41.69 L100.14,41.69 C100.3,41.69 100.46,41.69 100.62,41.69 L100.62,41.69 C100.68,41.74 100.74,41.76 100.8,41.75 C100.78,41.71 100.73,41.68 100.68,41.68 C100.72,41.68 100.77,41.68 100.8,41.69 L100.79,41.69 C100.92,41.69 101.06,41.68 101.18,41.66 L101.16,41.69 L101.18,41.71 L101.15,41.71 C101.21,41.75 101.3,41.75 101.37,41.73 C101.31,41.71 101.28,41.69 101.25,41.65 C101.27,41.65 101.29,41.65 101.3,41.65 L101.3,41.65 C101.43,41.68 101.64,41.74 101.47,41.58 C101.51,41.58 101.54,41.56 101.56,41.53 L101.56,41.53 C101.61,41.53 101.66,41.53 101.71,41.52 L101.7,41.52 C101.88,41.53 102.07,41.57 102.24,41.61 L102.22,41.61 C102.58,41.76 102.97,41.87 103.32,41.92 C103.3,41.92 103.28,41.92 103.26,41.91 C103.35,41.92 103.42,41.92 103.5,41.91 L103.47,41.89 C103.47,41.89 103.55,41.88 103.6,41.89 L103.6,41.85 C103.6,41.85 103.62,41.85 103.62,41.85 C103.62,41.83 103.62,41.83 103.6,41.83 C103.88,41.82 104.15,41.79 103.94,41.55 C103.99,41.52 104.04,41.51 104.09,41.52 C104.05,41.49 104.06,41.47 104.11,41.45 C104.08,41.43 104.05,41.39 104.04,41.37 L104,41.37 C104.52,41.18 105.09,41.13 105.59,41.23 C105.15,41.36 104.65,41.4 104.18,41.37 C104.29,41.4 104.45,41.5 104.52,41.58 L104.54,41.58 C104.54,41.58 104.47,41.65 104.42,41.67 C104.53,41.94 104.79,42.06 105.13,42.04 C105.05,41.85 105.32,41.96 105.55,42.05 C105.49,42.05 105.44,42.08 105.41,42.13 C105.53,42.16 105.65,42.15 105.77,42.09 C105.75,42.04 105.75,41.99 105.77,41.95 L105.74,41.93 L105.75,41.93 C105.75,41.93 105.65,41.88 105.59,41.89 C105.63,41.9 105.67,41.89 105.69,41.87 L105.63,41.85 C106.5,42.18 105.67,42.3 104.87,42.4 C106.08,42.41 107.18,42.34 108.4,42.18 C108.11,42.08 107.89,41.92 107.76,41.67 C107.88,41.66 107.99,41.63 108.1,41.58 L108.09,41.58 C108.31,41.63 108.53,41.64 108.76,41.6 C108.68,41.56 108.6,41.5 108.55,41.43 C108.67,41.46 108.78,41.52 108.88,41.58 C108.86,41.58 108.84,41.58 108.82,41.6 L108.85,41.65 C108.7,41.65 108.54,41.65 108.39,41.65 L108.43,41.67 C108.33,41.66 108.21,41.67 108.12,41.7 L108.12,41.72 C108.12,41.72 108.1,41.74 108.12,41.76 C108.06,41.76 108,41.78 107.93,41.8 C108.26,41.99 108.62,42.08 108.99,42.06 L108.99,42.06 C110.12,42.01 111.25,42.36 111.38,42.66 L111.42,42.7 C111.33,42.7 111.24,42.7 111.32,42.62 C111.22,42.57 111.11,42.53 111,42.51 L111,42.49 C110.88,42.43 110.74,42.38 110.61,42.36 C110.64,42.4 110.68,42.42 110.73,42.43 C110.72,42.47 110.69,42.47 110.63,42.44 C108.96,42.26 107.15,42.34 105.4,42.62 C105.43,42.67 105.44,42.72 105.42,42.76 C105.53,42.81 105.64,42.89 105.71,42.98 L105.65,42.98 C106.39,43.02 107.19,43.12 107.93,43.24 C107.9,43.2 107.86,43.19 107.79,43.2 C107.93,43.2 108.1,43.22 108.24,43.23 C108.17,43.21 108.12,43.18 108.07,43.14 C108.34,43.11 108.64,43.11 108.89,43.15 L108.85,43.17 C109.01,43.19 109.17,43.17 109.32,43.15 C109.26,43.17 109.2,43.15 109.15,43.12 C109.15,43.08 109.17,43.04 109.21,43.02 C109.18,43.02 109.16,43.01 109.15,42.99 C109.31,43.01 109.48,42.97 109.59,42.88 L109.53,42.85 C109.79,42.85 110.08,42.88 110.34,42.95 C110.1,42.99 109.97,43.14 109.99,43.37 C109.96,43.37 109.93,43.37 109.91,43.35 C109.86,43.49 109.82,43.66 109.79,43.82 C109.86,43.87 109.91,43.93 109.94,44.01 C110.06,44.2 110.37,44.24 110.69,44.13 C110.66,44.14 110.64,44.13 110.64,44.11 C110.99,44.19 111.29,44.27 111.62,44.38 C111.46,44.42 111.21,44.43 111.02,44.43 C111.22,44.58 111.48,44.71 111.71,44.79 C111.64,44.82 111.66,44.87 111.74,44.92 L111.71,44.97 C111.9,45.11 112.13,45.21 112.35,45.26 C112.32,45.29 112.29,45.3 112.26,45.31 C112.29,45.32 112.31,45.34 112.34,45.35 C112.13,45.36 111.89,45.36 111.7,45.35 C111.73,45.34 111.75,45.35 111.76,45.37 C111.67,45.33 111.58,45.28 111.51,45.21 C111.65,45.39 111.84,45.49 112.06,45.52 C112.02,45.56 111.97,45.56 111.92,45.52 C111.96,45.6 112.03,45.64 112.14,45.64 L112.11,45.61 C112.21,45.59 112.31,45.61 112.38,45.68 C112.33,45.68 112.28,45.68 112.22,45.7 C112.33,45.8 112.37,45.84 112.51,45.94 L112.5,45.94 C112.86,46.15 113.18,46.37 113.47,46.59 L113.47,46.61 C113.86,46.68 114.2,46.82 114.49,47.05 C114.42,47.05 114.35,47.05 114.28,47.04 C113.95,47.27 113.41,47.16 112.92,46.83 L112.97,46.87 C112.66,46.9 112.55,47.08 112.51,47.36 C113.51,47.32 114.4,47.44 115.39,47.73 C115.3,47.73 115.21,47.74 115.12,47.75 C115.13,47.8 115.17,47.84 115.23,47.85 C115.01,47.75 114.86,47.81 114.76,47.98 C115.35,48.61 116.04,48.88 116.92,48.81 L116.83,48.86 C116.83,48.86 116.84,48.95 116.77,48.99 C116.84,49.09 116.72,49.19 116.56,49.26 C116.62,49.33 116.69,49.38 116.77,49.42 C116.66,49.44 116.58,49.4 116.54,49.31 C116.41,49.39 116.3,49.45 116.16,49.54 C116.42,49.73 116.7,49.78 117.02,49.69 L116.92,49.53 C117.11,49.56 117.31,49.59 117.51,49.61 L117.44,49.67 C117.48,49.73 117.54,49.78 117.61,49.8 C117.42,49.98 117.22,50.07 116.96,50.09 C117.05,50.23 116.91,50.23 116.78,50.21 L116.83,50.29 C115.85,49.84 114.93,49.77 114,50.08 C113.96,49.89 114.16,49.84 114.42,49.84 C114.4,49.81 114.37,49.79 114.34,49.78 C114.4,49.79 114.46,49.78 114.51,49.76 L114.47,49.72 L114.5,49.72 C114.5,49.72 114.45,49.68 114.45,49.68 C114.51,49.66 114.59,49.67 114.66,49.68 C114.61,49.59 114.66,49.54 114.76,49.54 C115.45,48.51 114.78,48.08 113.5,48.06 L113.53,48.09 C113.4,48.09 113.26,48.12 113.13,48.16 C113.19,48.14 113.23,48.15 113.25,48.2 C113.19,48.24 113.13,48.26 113.06,48.28 L113.12,48.3 C113.04,48.3 112.96,48.3 112.88,48.32 L113,48.32 C112.64,48.4 112.21,48.59 111.89,48.82 C112,48.88 111.87,48.98 111.75,49.06 C111.79,49.1 111.81,49.13 111.83,49.18 C111.76,49.18 111.69,49.18 111.63,49.16 L111.72,49.25 L111.59,49.2 L111.62,49.25 C111.53,49.21 111.51,49.25 111.56,49.33 C111.49,49.28 111.43,49.28 111.41,49.36 L111.22,49.29 C111.32,49.31 111.39,49.27 111.43,49.19 C111.33,49.11 111.25,49.09 111.21,49.19 C111.13,49.19 111.06,49.23 111,49.29 C111.08,49.29 111.2,49.29 111.12,49.35 C111.32,49.39 111.31,49.45 111.11,49.51 C111.13,49.54 111.11,49.57 111.06,49.59 L111.19,49.63 L111.19,49.65 C111.19,49.65 111.12,49.66 111.08,49.67 C111.12,49.67 111.15,49.67 111.18,49.7 L111.11,49.7 C111.11,49.7 111.11,49.77 111.14,49.8 C111.05,49.69 110.96,49.64 110.89,49.75 C110.79,49.77 110.64,49.8 110.54,49.82 C110.72,49.43 110.62,49.28 110.25,49.43 L110.22,49.39 C110.22,49.39 110.13,49.44 110.08,49.43 C110.11,49.44 110.13,49.46 110.14,49.49 C110.11,49.48 110.09,49.47 110.06,49.48 L110.09,49.56 C110.02,49.54 109.95,49.54 109.88,49.54 L109.88,49.57 C109.88,49.57 109.86,49.59 109.86,49.59 C109.98,49.67 110.15,49.76 110.27,49.81 C110.22,49.81 110.2,49.83 110.22,49.87 C110.16,49.82 110.08,49.78 110,49.76 C110.05,49.79 110.06,49.83 110.03,49.86 C109.97,49.8 109.93,49.78 109.85,49.76 L109.89,49.71 C109.84,49.67 109.78,49.64 109.71,49.63 L109.71,49.67 C109.6,49.64 109.55,49.64 109.62,49.74 L109.53,49.74 C109.68,49.82 109.84,49.89 109.98,49.96 C109.98,50.02 110.05,50.04 110.13,50.04 C110.09,50.09 110.11,50.13 110.18,50.16 C109.98,50.09 109.81,50.03 109.61,49.99 C109.79,50.15 110,50.3 110.21,50.43 L110.17,50.39 C110.28,50.42 110.35,50.48 110.37,50.57 C110.11,50.45 109.81,50.31 109.59,50.18 C109.63,50.21 109.65,50.24 109.63,50.28 C109.56,50.28 109.5,50.27 109.42,50.27 L109.48,50.32 C109.48,50.32 109.43,50.32 109.42,50.34 L109.57,50.39 L109.51,50.43 C109.66,50.43 109.76,50.46 109.87,50.55 C109.88,50.74 110.03,50.87 110.26,50.91 C110.22,50.96 110.17,50.95 110.13,50.9 L110.08,50.94 C110.02,50.86 109.97,50.88 109.93,50.99 C110.08,51.05 109.97,51.04 109.87,51.02 L109.87,51.04 C109.87,51.04 109.81,51.02 109.81,51.02 L109.83,51.05 L109.79,51.05 C109.79,51.05 109.86,51.11 109.92,51.11 C109.86,51.11 109.8,51.11 109.75,51.11 C109.97,51.11 110.15,51.15 110.39,51.23 C110.26,51.23 110.12,51.25 109.99,51.26 L110.12,51.29 L110.12,51.31 C110.12,51.31 110.17,51.35 110.17,51.35 L110.17,51.37 C110.17,51.37 110.19,51.4 110.19,51.4 C110.14,51.4 110.09,51.4 110.05,51.35 C110.21,51.49 110.35,51.61 110.53,51.75 C110.36,51.62 110.17,51.53 109.96,51.48 C110.04,51.61 110.19,51.72 110.35,51.78 L110.02,51.66 C110.07,51.87 110.29,51.94 110.56,51.91 C110.42,51.91 110.23,51.94 110.13,51.99 C110.24,51.98 110.34,51.99 110.4,52.05 L110.33,52.05 C110.33,52.05 110.36,52.09 110.36,52.09 L110.27,52.07 L110.27,52.11 C110.27,52.11 110.18,52.06 110.12,52.05 C110.32,52.2 110.41,52.28 110.6,52.41 L110.6,52.37 L110.67,52.37 C110.67,52.37 110.63,52.41 110.63,52.41 C110.67,52.41 110.71,52.43 110.75,52.45 C110.7,52.45 110.68,52.47 110.69,52.51 C110.74,52.49 110.77,52.5 110.78,52.54 L110.72,52.57 L110.75,52.6 C110.75,52.75 110.77,52.84 110.84,52.69 L110.95,52.66 L110.93,52.6 C110.93,52.6 111,52.6 111.03,52.6 C110.99,52.66 111.03,52.7 111.12,52.72 C110.87,52.81 110.84,52.9 111.13,52.97 L111.11,52.99 C111.17,52.99 111.23,53.01 111.29,53.04 L111.25,53.06 L111.32,53.09 L111.32,53.12 C111.32,53.12 111.04,53.03 111.04,53.03 C111.02,53.08 111.04,53.1 111.11,53.12 L111.07,53.14 L111.09,53.17 C111.09,53.17 111.23,53.26 111.36,53.29 L111.36,53.33 L111.41,53.33 C111.41,53.33 111.49,53.41 111.46,53.45 C111.53,53.45 111.57,53.42 111.55,53.33 C111.64,53.47 111.6,53.53 111.44,53.51 C111.46,53.64 111.55,53.75 111.65,53.76 C111.74,53.84 111.74,53.84 111.84,53.94 C111.8,54.05 111.86,54.13 111.92,54.18 L111.98,54.21 L111.95,54.26 C112,54.31 112.05,54.33 112.12,54.29 C112.15,54.31 112.16,54.34 112.16,54.37 L112.11,54.37 C112.16,54.42 112.23,54.44 112.3,54.44 L112.27,54.4 C112.27,54.4 112.35,54.4 112.37,54.44 C112.34,54.57 112.4,54.69 112.51,54.8 C112.52,54.75 112.52,54.7 112.51,54.64 C112.56,54.68 112.62,54.7 112.69,54.7 L112.57,54.75 C112.66,54.8 112.72,54.85 112.79,54.91 L112.74,54.91 C112.83,54.97 112.94,55.02 113.05,55.05 C112.96,55.06 112.9,55.06 112.81,55.05 C112.9,55.12 112.97,55.17 113.05,55.22 C113.05,55.18 113.05,55.15 113.01,55.13 C113.09,55.15 113.16,55.2 113.2,55.26 L113.12,55.28 L113.15,55.33 L113.1,55.33 C113.18,55.48 113.23,55.55 113.33,55.66 C113.35,55.62 113.36,55.58 113.34,55.54 L113.38,55.54 C113.51,55.65 113.63,55.78 113.38,55.84 C113.52,56.12 113.72,56.4 113.89,56.56 L113.89,56.49 C113.97,56.58 114.06,56.61 114.16,56.59 C114.15,56.43 114.13,56.27 114.11,56.12 C114.2,56.62 114.21,56.7 114.11,56.93 C114.05,56.91 113.99,56.89 113.93,56.86 C113.86,56.97 113.88,57.06 113.97,57.14 L113.93,57.17 C113.93,57.17 113.99,57.19 114.01,57.22 L113.97,57.26 C113.97,57.26 113.93,57.23 113.9,57.22 C113.9,57.26 113.92,57.29 113.96,57.31 C113.86,57.42 113.92,57.52 114.04,57.59 C113.89,57.66 113.88,57.72 114.05,57.74 L114.07,57.8 C114.17,57.68 114.27,57.68 114.37,57.8 C114.17,57.88 114.02,57.99 114.14,58.08 C114.11,58.11 114.12,58.14 114.17,58.14 C114.2,58.12 114.21,58.1 114.21,58.07 C114.25,58.17 114.33,58.23 114.44,58.25 L114.44,58.27 C114.37,58.23 114.31,58.21 114.24,58.21 C114.24,58.35 114.31,58.42 114.44,58.44 C114.38,58.46 114.33,58.46 114.28,58.43 C114.28,58.48 114.24,58.52 114.19,58.54 C114.21,58.57 114.24,58.59 114.28,58.6 L114.11,58.6 C114.27,58.8 114.41,58.75 114.53,58.47 L114.51,58.59 C114.56,58.57 114.63,58.52 114.66,58.48 C114.52,58.6 114.44,58.73 114.46,58.87 C114.63,59.17 114.9,59.28 115.24,58.94 C115.18,58.88 115.14,58.82 115.1,58.74 C115.23,58.88 115.34,58.88 115.44,58.75 C115.36,58.64 115.29,58.52 115.26,58.4 C115.33,58.48 115.4,58.56 115.48,58.64 C115.48,58.59 115.5,58.55 115.55,58.54 C115.5,58.69 115.5,58.82 115.67,58.85 L115.67,58.96 C115.37,58.89 115.15,59.03 115.02,59.29 C115.07,59.41 115.13,59.48 115.22,59.38 L115.33,59.46 C115.33,59.46 115.23,59.48 115.18,59.48 L115.18,59.5 C115.18,59.5 115.18,59.5 115.18,59.5 C115.38,59.63 115.47,59.58 115.48,59.39 C115.48,59.5 115.51,59.57 115.59,59.59 C115.57,59.73 115.65,59.8 115.8,59.8 C115.8,59.76 115.8,59.71 115.78,59.67 C115.84,59.73 115.91,59.76 116,59.76 C115.94,59.85 115.96,59.9 116.06,59.91 C115.97,59.69 115.87,59.46 115.77,59.21 C115.81,59.21 115.84,59.21 115.87,59.23 C115.88,59.17 115.91,59.13 115.97,59.12 C115.93,59.22 115.97,59.29 116.05,59.35 C116.01,59.29 115.96,59.28 115.92,59.31 C116.03,59.63 116.14,59.88 116.35,59.73 L116.39,59.73 C116.33,59.83 116.33,59.91 116.39,59.98 C116.36,60.03 116.33,60.06 116.28,60.07 C116.3,60.21 116.38,60.3 116.51,60.33 C116.56,60.29 116.56,60.24 116.49,60.2 C116.54,60.26 116.58,60.26 116.61,60.2 C116.59,60.17 116.56,60.14 116.52,60.13 C116.62,60.11 116.63,60.04 116.59,59.94 C116.68,59.92 116.71,59.98 116.7,60.11 L116.73,60.08 C116.82,60.19 116.91,60.3 116.99,60.41 C116.96,60.41 116.95,60.44 116.94,60.47 C116.9,60.43 116.87,60.43 116.84,60.46 C117.08,60.75 117.42,60.82 117.76,60.68 L117.7,60.56 C117.79,60.62 117.86,60.68 117.93,60.76 L117.93,60.7 C117.93,60.7 118.02,60.68 118.02,60.68 L117.97,60.61 L118.06,60.54 L118.09,60.63 C118.3,60.56 118.31,60.43 118.16,60.26 L118.29,60.29 C118.26,59.93 118.13,59.6 117.93,59.33 C118.18,59.07 117.93,58.9 117.56,58.77 C117.63,58.77 117.7,58.79 117.76,58.83 C117.72,58.76 117.6,58.67 117.49,58.62 C117.52,58.62 117.52,58.6 117.5,58.56 C117.64,58.67 117.89,58.82 118.11,58.93 C118.38,58.92 118.79,59.09 119.1,59.33 C119.1,59.28 119.06,59.23 119.02,59.2 C119.08,59.2 119.12,59.22 119.14,59.28 C119.2,59.24 119.23,59.31 119.25,59.4 C119.39,59.33 119.51,59.37 119.6,59.51 L119.63,59.44 C119.76,59.54 119.88,59.63 120.02,59.74 C120.35,59.78 120.92,59.97 121.06,60.08 C121.1,60.15 121.16,60.18 121.26,60.17 C121.23,60.21 121.2,60.22 121.15,60.22 C121.48,60.28 121.79,60.43 122,60.66 C122.1,60.5 122.21,60.38 122.35,60.27 C122.18,60.11 122.01,59.94 121.84,59.76 L121.91,59.73 C121.83,59.53 121.92,59.37 122.13,59.25 C121.71,58.74 121.19,58.32 120.63,58.02 C120.67,58.02 120.69,58.01 120.69,57.98 C120.54,57.83 120.35,57.75 120.14,57.76 C120.28,57.55 120.14,57.61 119.94,57.74 C120.04,57.65 120.08,57.53 120,57.43 C120.05,57.29 120,57.18 119.85,57.11 C119.9,57.06 119.95,57.07 120,57.14 C120.02,57 119.94,56.85 119.78,56.78 C119.82,56.79 119.85,56.78 119.86,56.75 C119.82,56.71 119.79,56.68 119.74,56.65 C119.68,56.83 119.63,56.96 119.59,57.07 C119.42,57.04 119.28,57.1 119.18,57.22 C119.18,57.18 119.18,57.15 119.14,57.12 C119.18,57.07 119.2,57.05 119.25,56.99 L119.25,56.99 C119.25,56.99 119.37,56.98 119.37,56.98 C119.37,56.95 119.37,56.92 119.34,56.91 C119.39,56.91 119.43,56.9 119.47,56.87 L119.43,56.83 C119.7,56.51 119.43,56.32 118.9,56.25 L118.92,56.21 C118.8,56.26 118.67,56.25 118.54,56.19 C118.51,56.29 118.45,56.31 118.36,56.28 C118.61,56.44 118.7,56.66 118.56,56.88 C118.59,56.6 118.48,56.39 118.24,56.33 C117.93,56.16 117.59,55.98 117.28,55.81 L117.4,55.78 C117.13,55.61 116.86,55.47 116.57,55.36 L116.7,55.32 C116.6,55.18 116.46,55.08 116.28,55.04 C116.39,55.08 116.51,55.11 116.4,54.97 L116.45,54.97 C116.4,54.89 116.35,54.87 116.28,54.91 C116.29,54.79 116.22,54.68 116.09,54.62 C116.15,54.51 116.1,54.4 115.99,54.29 L116.06,54.29 C116.03,54.21 115.99,54.16 115.94,54.1 L115.98,54.08 C115.85,53.84 115.67,53.63 115.45,53.45 C115.49,53.45 115.53,53.48 115.57,53.5 C115.13,53.37 114.64,53.09 114.43,52.85 L114.43,52.81 C114.38,52.79 114.3,52.78 114.24,52.77 C114.29,52.77 114.38,52.75 114.41,52.73 C114.31,52.7 114.2,52.62 114.16,52.56 C114.2,52.58 114.24,52.58 114.28,52.56 L114.19,52.5 C114.26,52.5 114.32,52.5 114.38,52.47 C114.27,52.35 114.32,52.29 114.48,52.28 C114.44,52.22 114.39,52.19 114.32,52.19 C114.39,52.18 114.45,52.17 114.52,52.16 L114.49,52.12 C114.82,52.09 115.15,52.12 115.47,52.24 L115.44,52.27 C115.44,52.27 115.52,52.33 115.57,52.33 C115.79,52.58 116.47,53.56 116.65,53.9 C116.78,53.93 116.87,53.97 116.82,54.1 C117.2,54.42 117.76,54.66 118.31,54.74 C118.28,54.82 118.46,54.94 118.67,55.03 L118.67,55.03 C118.78,55.1 118.96,55.18 119.02,55.21 C119.19,55.14 119.45,55.08 119.64,55.09 L119.6,54.97 C119.81,55 119.99,55.08 120.09,55.2 C120.14,55.12 120.08,55.03 119.95,54.96 C120.14,55.03 120.11,54.87 120.06,54.72 C120.09,54.72 120.11,54.72 120.12,54.71 C120.03,54.63 120,54.55 120.07,54.48 C120.07,54.36 120.02,54.28 119.93,54.21 L120.03,54.23 C120.05,54.12 120.01,54.07 119.92,54.08 C120.02,54.01 120.03,53.87 119.96,53.72 C120.08,53.69 120.11,53.63 120.03,53.54 C120.15,53.44 120.1,53.33 119.99,53.2 C120.08,53.23 120.16,53.27 120.25,53.32 C120.21,53.3 120.18,53.3 120.15,53.32 C120.63,53.06 120.98,52.98 120.93,53.58 L120.87,53.6 C120.87,53.6 120.94,53.7 120.99,53.75 C120.95,53.75 120.91,53.75 120.87,53.78 C121.26,54.03 121.08,54.28 120.76,54.49 L120.66,54.49 C120.71,54.51 120.72,54.54 120.68,54.58 C120.81,54.65 120.78,54.73 120.65,54.79 L120.73,54.84 C120.66,55.07 120.74,55.29 120.96,55.45 C121.05,55.49 121.16,55.5 121.26,55.48 C121.37,55.67 121.58,55.72 121.78,55.64 C121.78,55.58 121.74,55.54 121.69,55.52 C122.07,55.62 122.66,55.96 123.04,56.29 C123,56.29 122.95,56.29 122.92,56.26 C122.91,56.49 122.75,56.5 122.53,56.39 L122.63,56.46 C122.44,56.41 122.24,56.38 122.04,56.37 C122.27,57.08 122.9,57.65 123.68,57.92 L123.55,57.85 C123.71,57.89 123.87,57.97 124,58.07 L124,58.07 C124.13,58.14 124.26,58.23 124.39,58.33 C124.34,58.38 124.3,58.42 124.26,58.47 C124.15,58.4 124.04,58.28 123.96,58.15 C124.23,58.55 124.38,58.91 124.46,59.38 L124.41,59.38 C124.41,59.38 124.43,59.45 124.46,59.46 C124.31,59.46 124.12,59.4 123.97,59.31 L124.15,59.27 C123.66,59.56 123.55,60.29 123.73,61.03 L123.69,61.01 C123.67,61.07 123.67,61.13 123.69,61.18 C123.79,61.11 123.86,61.14 123.91,61.24 C123.44,61.19 123.04,61.27 122.81,61.53 C122.76,61.47 122.74,61.39 122.75,61.31 C122.68,61.44 122.72,61.6 122.82,61.73 L122.76,61.68 C122.67,61.82 122.68,61.94 122.8,62.02 C122.69,62.07 122.63,62.14 122.65,62.26 C122.47,61.94 122.29,61.87 122.03,62.09 C122.07,62.13 122.07,62.16 122.03,62.19 L121.96,62.14 C121.85,62.06 121.65,62.02 121.45,62.08 C121.41,62.05 121.41,62.02 121.42,61.98 C121.45,62 121.47,61.99 121.48,61.96 C121.31,61.96 121.2,61.91 121.14,61.74 L121.13,61.74 C121,61.62 120.89,61.52 120.76,61.45 C120.76,61.39 120.8,61.36 120.86,61.34 C120.72,61.17 120.68,61.12 120.56,60.87 C120.59,60.9 120.63,60.92 120.68,60.93 L120.65,60.85 L120.69,60.85 C120.62,60.63 120.52,60.52 120.39,60.72 C120.29,60.69 120.26,60.72 120.31,60.81 C120.24,60.78 120.18,60.72 120.15,60.66 L120.13,60.73 C119.94,60.45 119.62,60.14 119.31,59.94 C119.2,60.84 119.57,61.52 120.45,62 C120.48,61.99 120.49,61.97 120.48,61.94 C120.95,62.05 121.43,62.34 121.65,62.66 C121.76,62.64 121.89,62.7 121.93,62.78 C122.07,63.01 122.11,63.04 122.48,63.36 C122.38,63.31 122.27,63.29 122.17,63.3 L122.26,63.38 L122.22,63.42 C121.69,63.5 121.65,63.63 122.2,63.81 C122.16,63.83 122.11,63.82 122.07,63.77 C121.38,64.1 121.43,64.52 121.97,64.97 C122.3,65.43 121.74,64.92 121.56,64.79 C121.68,65.44 121.95,65.94 122.45,65.68 C122.35,65.85 122.28,66.07 122.27,66.24 C122.33,66.21 122.39,66.17 122.45,66.12 C121.99,67.02 122.02,68.18 122.39,68.78 C122.09,69.26 121.65,69.43 121.14,69.38 C121.44,69.62 121.77,69.85 122.08,70.04 C121.4,70.25 120.9,70.69 120.7,71.4 L120.86,71.26 C120.83,71.43 120.86,71.53 121.05,71.36 C121.14,71.46 121.1,71.55 120.94,71.61 C121.13,71.65 121.23,71.66 121.38,71.65 L121.32,71.59 C121.65,71.57 121.95,71.49 122.2,71.36 L122.2,71.42 C122.48,71.42 122.54,71.41 122.9,71.3 C122.78,71.47 122.85,71.57 122.99,71.66 L122.89,71.64 C123.18,71.87 123.53,71.95 123.9,71.86 C124.12,72.21 124.39,72.43 124.79,72.56 C124.68,72.51 124.57,72.47 124.45,72.45 C124.61,72.71 124.78,72.98 124.96,73.23 L124.94,73.11 C126.13,76.08 121.42,75.28 122.09,77.61 L122.12,77.81 C122.24,77.76 122.3,77.81 122.29,77.93 L122.37,77.86 C122.97,79.02 123.74,80.47 124.3,81.5 C124.35,81.41 124.42,81.34 124.51,81.28 C124.81,81.64 125.01,82.29 125.22,82.69 C127.33,82.31 129.14,81.65 129.72,79.11 C128.51,77.14 128.33,73.58 128.69,72.1 C129.06,70.52 129.83,69.28 131.95,70.4 C132.68,70.34 133.71,70.37 134.44,70.46 C134.66,70.3 134.95,70.36 135.28,70.53 C135.74,70.58 136.47,71.22 136.89,71.98 L136.89,71.95 C136.89,71.95 136.9,71.98 136.9,71.98 C136.12,70.68 135.47,69.75 136.31,69.38 C135.4,69.01 134.23,68.91 133.75,69.12 L133.83,69.2 C133.65,69.2 133.48,69.17 133.34,69.13 C132.02,68.92 130.8,68.32 130.1,67.53 C130.46,67.2 130.99,66.93 130.81,66.95 C131.18,66.97 131.58,67.08 131.95,67.26 C132.09,67.47 132.43,67.6 132.77,67.62 C133.01,67.32 133.35,67.27 133.7,67.43 C133.59,67.42 133.49,67.43 133.5,67.56 C134.63,67.14 135.53,67.48 136.19,68.49 L136.13,68.53 C136.44,68.61 136.7,68.67 136.98,68.72 L136.98,68.72 C137.21,68.85 137.41,68.93 137.68,69.01 L137.59,68.89 C137.81,68.82 137.87,68.88 137.74,69.06 C137.92,69.13 138.09,69.21 138.26,69.29 C138.3,69.08 138.46,68.85 138.65,68.69 L138.62,68.58 C138.74,68.66 138.83,68.64 138.9,68.54 C138.97,68.81 138.78,68.93 138.52,68.93 C138.52,69.07 138.49,69.23 138.44,69.31 C138.74,69.74 139.16,70.05 139.64,70.19 C139.56,70.11 139.51,70.01 139.48,69.9 C139.68,69.95 139.86,70.05 140.01,70.21 L140.04,70.18 C139.89,70.08 139.82,69.96 139.84,69.81 C139.95,69.88 140.06,69.9 140.18,69.87 C139.91,69.6 139.61,69.38 139.28,69.2 C139.39,69.14 139.48,69.15 139.56,69.23 C139.34,69 139.21,68.8 139.16,68.48 C139.27,68.54 139.37,68.55 139.49,68.52 C139.26,68.16 139.01,68.07 138.72,68.2 L138.57,68.12 C138.47,68.23 138.33,68.28 138.18,68.24 C138.29,68.03 138.19,67.88 137.97,67.78 C138.05,67.7 138.12,67.73 138.17,67.84 C137.78,67.69 137.25,67.27 136.97,66.86 C137.15,66.97 137.4,67.04 137.65,67.07 C137.39,66.9 137.27,66.78 137.72,66.88 C137.56,66.81 137.48,66.75 137.36,66.64 C137.42,66.55 137.51,66.52 137.61,66.56 C137.18,66.62 137.01,66.42 137.04,65.98 C137.32,65.7 137.52,65.46 137.75,65.16 C137.75,65.43 137.86,65.65 138.08,65.81 C137.81,65.09 137.65,64.36 137.64,63.79 C136.44,63.63 135.31,62.69 134.57,61.39 C134.71,61.52 134.86,61.66 134.98,61.79 C134.79,61.25 134.43,60.85 133.9,60.6 C133.96,60.64 134.04,60.67 134.1,60.67 C134.02,60.37 133.84,60.17 133.52,60.08 C133.6,60.06 133.66,60.05 133.73,60.05 C133.51,59.83 133.4,59.59 133.36,59.29 L133.47,59.38 C133.47,59.28 133.43,59.2 133.35,59.14 C133.62,59.11 133.71,59.19 133.59,59.43 C133.7,59.26 133.78,59.35 133.84,59.51 C134.01,59.39 134.08,59.22 134.01,58.97 C134.05,59.01 134.09,59.01 134.13,58.97 L134.06,58.88 C134.13,58.89 134.2,58.91 134.26,58.92 C134.31,59.22 134.45,59.5 134.64,59.73 C134.66,59.6 134.74,59.56 134.87,59.6 C135.25,59.81 135.75,60.03 135.37,59.3 L135.33,59.3 C135.34,58.81 135.21,58.47 134.86,58.1 C134.83,58.19 134.84,58.29 134.9,58.37 L134.84,58.34 C134.84,58.43 134.89,58.5 134.98,58.56 L134.87,58.56 C134.87,58.56 134.94,58.63 134.94,58.63 C134.85,58.68 134.84,58.72 134.91,58.77 C134.81,58.7 134.7,58.65 134.58,58.62 L134.58,58.72 C134.55,58.66 134.51,58.64 134.46,58.65 L134.49,58.72 C134.42,58.74 134.37,58.7 134.34,58.6 C134.32,58.64 134.3,58.66 134.25,58.7 C134.29,58.72 134.32,58.75 134.35,58.79 C134.27,58.74 134.18,58.7 134.15,58.76 C134.11,58.74 134.07,58.74 134.03,58.76 C134.16,58.67 134.13,58.59 133.95,58.53 C134.01,58.55 134.08,58.57 134.13,58.61 L134.15,58.52 C134.15,58.52 134.24,58.57 134.28,58.59 C134.23,58.55 134.19,58.49 134.17,58.43 C134.26,58.47 134.35,58.51 134.43,58.55 C134.27,58.43 134.06,58.22 133.92,58.04 C134.06,58.09 134.16,58.18 134.23,58.31 C134.04,58.09 133.89,57.85 133.79,57.58 L133.85,57.61 C133.77,57.53 133.72,57.44 133.7,57.32 L133.79,57.29 C133.52,56.94 133.37,56.41 133.43,56.16 C133.65,56.58 134.04,56.97 134.33,57.1 C134.65,57.44 134.91,57.82 135.08,58.22 C135.31,58.24 135.5,58.25 135.53,58.11 C137.45,57.48 138.57,58.2 138.61,60.26 C138.62,60.31 138.65,60.36 138.68,60.41 C138.47,60.41 138.37,60.5 138.38,60.68 C138.26,60.61 138.14,60.56 138.01,60.52 C137.86,61.04 137.71,62.73 137.74,63.72 L137.69,63.7 C137.87,63.98 138.03,64.03 138.16,63.76 C138.11,63.93 138.05,64.26 138.23,64.26 C138.29,64.41 138.26,64.62 138.16,64.8 C138.1,64.72 138.05,64.73 138.01,64.81 C138.23,64.94 138.2,65.02 137.99,65.05 C137.97,65.49 138.16,65.9 138.52,66.2 C138.59,66.09 138.62,65.98 138.62,65.85 C138.87,66.16 139.24,66.43 139.55,66.54 C139.52,66.77 139.41,66.79 139.23,66.65 C139.36,66.88 139.49,67.06 139.63,66.9 C139.88,66.8 140.06,66.89 140.2,67.12 C140.18,67.07 140.19,67.02 140.2,66.97 C140.24,67.06 140.28,67.13 140.35,67.21 C140.52,67.16 140.62,67.28 140.68,67.45 C140.74,67.29 140.78,67.14 140.8,66.98 C140.88,67.22 140.93,67.44 140.96,67.68 L140.96,67.3 C141.03,67.32 141.06,67.36 141.08,67.43 C141.04,67.13 141.08,67.01 141.15,66.92 C141.82,66.4 142.12,65.2 141.86,63.7 C143.53,65.27 145,67.08 145.84,69.28 L145.77,69.25 C145.81,69.35 145.81,69.46 145.77,69.56 C145.61,69.55 145.48,69.52 145.33,69.46 C145.37,69.61 145.33,69.77 145.23,69.88 C145.31,70.01 145.32,70.16 145.28,70.3 C145.25,70.21 145.22,70.12 145.2,70.03 C145.23,70.48 145.29,70.95 145.37,71.41 C144.57,72.2 143.81,72.72 142.93,73.04 C142.11,76.92 142.7,76.44 137.93,77.65 C137.87,77.69 137.86,77.76 137.87,77.84 C137.81,77.83 137.75,77.8 137.71,77.76 C137.52,77.99 137.32,77.9 137.15,77.63 L137.27,77.57 C136.83,76.15 136.02,75.14 135.66,75.15 C135.51,75.13 135.34,75.03 135.23,74.88 C134.96,75.46 134.58,75.91 134.05,76.21 C134.07,76.49 133.89,76.61 133.6,76.6 C131.87,78.53 130.92,82.69 127.99,82.4 C127.85,88.79 125.91,94.65 126.32,101.3 C126.5,101.22 126.74,101.33 126.91,101.44 C127.98,103.22 128.79,105.83 127.94,107.8 C128.31,107.75 128.78,108.09 129.05,108.59 C128.85,108.71 128.84,108.9 128.99,109.12 L129.01,109.09 L129.16,109.71 L129.2,109.71 C129.2,109.71 129.18,109.73 129.18,109.73 L129.21,109.7 C129.41,109.88 129.76,109.98 130.08,109.93 C130.29,109.99 130.68,109.75 130.97,109.43 C130.51,109.88 130.46,110.23 131.04,110.33 C131.2,110.58 131.28,110.58 131.45,110.56 C131.89,110.85 132.52,111.21 133.07,111.48 C133.28,112.37 133.96,112.81 135.07,112.8 L135.12,112.78 C140.27,116.13 143.52,107.16 147.28,105.91 L147.33,105.88 C147.4,106.04 147.51,106.13 147.66,106.06 C147.68,106.57 147.89,106.86 148.32,106.64 L148.38,106.77 L148.53,106.45 L148.56,106.45 C148.93,105.79 149.42,105.25 149.78,105.1 C150.64,105.28 150.95,106.31 150.73,107.9 C150.78,108.18 150.92,108.49 151.2,108.62 C150.59,110.87 153.56,112.97 153.78,116.14 C153.95,118.64 152.91,122.69 152.58,125.24 C152.4,126.65 152.2,128.43 151.79,129.78 C151.79,129.76 151.81,129.74 151.83,129.74 C142.46,148.51 120.06,159.93 99.63,159.93 M39.18,99.64 C39.18,82.6 46.58,65.99 59.31,54.64 C59.31,54.69 59.29,54.72 59.24,54.75 C59.27,54.78 59.29,54.78 59.32,54.75 L59.29,54.79 C59.29,54.79 59.32,54.79 59.34,54.77 L59.3,54.82 C59.39,54.77 59.52,54.72 59.6,54.73 L59.56,54.76 L59.64,54.73 L59.6,54.8 C59.6,54.8 59.69,54.77 59.73,54.74 C59.71,54.78 59.68,54.81 59.65,54.84 L59.72,54.81 L59.72,54.83 C59.72,54.83 59.77,54.84 59.8,54.83 C59.8,54.87 59.8,54.9 59.79,54.93 L59.84,54.93 C59.84,54.93 59.79,54.97 59.83,55 C59.88,54.98 59.93,54.95 59.95,54.9 L59.95,54.93 C59.95,54.93 60.04,54.88 60.07,54.86 L60.07,54.89 C60.07,54.89 60.12,54.89 60.12,54.89 L60.12,54.96 C60.34,54.79 60.55,54.63 60.77,54.46 L60.77,54.52 C60.84,54.52 60.91,54.49 60.97,54.43 L60.93,54.47 L60.98,54.45 C60.98,54.45 60.92,54.53 60.9,54.57 C60.96,54.57 61,54.54 61.03,54.48 C61.06,54.51 61.05,54.54 61.02,54.57 C61.17,54.55 61.29,54.45 61.37,54.32 C61.34,54.37 61.3,54.42 61.27,54.47 C61.43,54.47 61.59,54.45 61.74,54.38 C62.02,54.46 62.41,54.38 62.74,54.17 C62.42,54.27 62.08,54.46 61.86,54.67 C61.97,54.65 62.02,54.67 62.01,54.76 C61.75,54.69 61.56,54.84 61.46,55.14 C61.78,54.3 61.19,54.67 60.66,55.05 L60.73,55.11 C60.73,55.11 60.62,55.18 60.55,55.17 L60.55,55.14 C60.55,55.14 60.51,55.16 60.49,55.19 C60.56,55.11 60.57,55.08 60.49,55.11 L60.55,55.05 C60.55,55.05 60.49,55.07 60.46,55.09 L60.46,55.07 C60.35,55.13 60.3,55.21 60.29,55.32 C60.32,55.28 60.35,55.26 60.38,55.27 C60.36,55.31 60.33,55.35 60.29,55.38 C60.35,55.36 60.41,55.35 60.47,55.35 L60.45,55.39 L60.47,55.39 C60.42,55.44 60.36,55.47 60.3,55.49 C60.38,55.45 60.49,55.43 60.55,55.44 L60.51,55.48 C60.58,55.44 60.64,55.41 60.72,55.39 C60.64,55.43 60.57,55.48 60.51,55.54 C60.61,55.49 60.71,55.44 60.81,55.39 L60.71,55.47 C60.71,55.47 60.67,55.6 60.64,55.65 C60.67,55.65 60.68,55.65 60.67,55.68 L60.77,55.64 C60.77,55.64 60.89,55.63 60.99,55.58 L60.99,55.6 C61.04,55.58 61.09,55.55 61.12,55.51 L61.06,55.51 C61.05,55.45 61.06,55.42 61.12,55.39 C61.14,55.45 61.18,55.45 61.24,55.4 L61.22,55.38 C61.26,55.32 61.3,55.28 61.37,55.25 L61.37,55.29 C61.45,55.24 61.49,55.22 61.57,55.22 C61.52,55.22 61.5,55.25 61.51,55.29 C61.56,55.27 61.61,55.26 61.66,55.27 C61.53,55.29 61.41,55.36 61.34,55.46 C61.42,55.43 61.5,55.39 61.57,55.35 C61.43,55.41 61.37,55.51 61.37,55.65 C61.48,55.64 61.49,55.67 61.42,55.74 L61.42,55.68 C61.29,55.71 61.21,55.76 61.24,55.87 C61.19,55.91 61.15,55.89 61.12,55.83 L61.09,55.91 C61.09,55.91 61.15,55.91 61.17,55.93 C61.15,55.98 61.11,56 61.04,55.97 C60.98,56.12 60.86,56.3 60.72,56.44 C60.75,56.42 60.79,56.4 60.83,56.39 C60.75,56.48 60.66,56.59 60.56,56.69 L60.59,56.67 C60.43,56.81 60.36,56.97 60.38,57.18 L60.43,57.16 L60.39,57.23 L60.42,57.23 C60.32,57.36 60.28,57.52 60.33,57.64 C60.09,57.87 59.95,58.09 60.36,58.12 C60.28,58.19 60.22,58.28 60.18,58.38 C60.11,58.38 60,58.43 59.93,58.5 C60.05,58.41 60.17,58.3 60.28,58.2 C59.94,58.33 59.72,58.55 59.58,58.92 C59.6,58.9 59.62,58.89 59.65,58.89 L59.65,58.97 C59.7,58.94 59.78,58.88 59.82,58.85 L59.8,58.89 C59.8,58.89 59.87,58.87 59.9,58.85 L59.88,58.92 C59.94,58.91 59.99,58.86 60.01,58.79 C59.73,58.95 59.47,59.17 59.22,59.46 C59.13,59.58 58.97,59.89 58.92,60.06 L58.98,60.02 C59.05,60.14 59.14,60 59.2,59.87 C59.3,59.77 59.38,59.65 59.42,59.52 L59.42,59.54 C59.42,59.54 59.49,59.51 59.51,59.48 C59.48,59.52 59.45,59.56 59.43,59.61 C59.46,59.61 59.48,59.6 59.49,59.57 C59.44,59.64 59.38,59.73 59.33,59.8 C59.37,59.83 59.42,59.82 59.46,59.75 C59.38,59.84 59.28,59.96 59.19,60.06 L59.19,60.06 C59.07,60.08 59.03,60.15 59.06,60.25 L59.14,60.19 C59.06,60.27 58.98,60.37 58.93,60.45 C59.21,60.26 59.48,60.03 59.71,59.77 L59.68,59.82 C59.74,59.75 59.81,59.7 59.89,59.66 C59.72,59.82 59.55,59.98 59.38,60.15 L59.41,60.15 C59.21,60.31 59.06,60.5 58.97,60.73 L59,60.73 C58.95,60.8 58.88,60.89 58.82,60.96 C58.87,60.92 58.93,60.9 58.97,60.94 C58.92,60.94 58.88,60.97 58.85,61.01 L58.91,61.01 C58.87,61.06 58.83,61.06 58.8,61.01 C58.74,61.05 58.7,61.09 58.66,61.15 C58.7,61.15 58.73,61.13 58.76,61.1 C58.78,61.15 58.78,61.19 58.76,61.24 L58.74,61.24 C58.74,61.24 58.74,61.16 58.74,61.16 C58.65,61.2 58.58,61.29 58.55,61.39 L58.58,61.36 C58.53,61.42 58.49,61.48 58.44,61.54 C58.49,61.45 58.53,61.36 58.56,61.26 C58.51,61.27 58.48,61.3 58.45,61.34 L58.49,61.38 C58.38,61.42 58.31,61.51 58.31,61.62 L58.26,61.64 L58.23,61.57 C58.17,61.6 58.13,61.65 58.11,61.71 C58.12,61.72 58.14,61.72 58.15,61.71 C58.13,61.75 58.11,61.81 58.09,61.85 L58.13,61.85 C58.13,61.85 58.06,61.96 58.01,61.99 L58.08,61.84 C57.87,62.17 57.69,62.48 57.51,62.83 C57.32,62.8 57.09,62.93 56.94,63.16 C56.98,63.16 57.01,63.13 57.04,63.1 L57.04,63.12 C57.13,63.06 57.23,63.01 57.32,62.99 L57.3,63.06 C57.36,63.03 57.43,63.01 57.49,63.02 C57.45,63.07 57.39,63.11 57.34,63.15 L57.38,63.12 C57.22,63.31 57.04,63.53 56.89,63.7 L56.92,63.7 C56.88,63.76 56.82,63.83 56.76,63.89 C56.74,63.87 56.72,63.87 56.7,63.9 L56.7,63.88 C56.7,63.88 56.67,63.88 56.67,63.88 L56.67,63.84 C56.59,63.86 56.5,63.94 56.47,64.04 L56.56,63.97 L56.5,64.05 L56.54,64.05 C56.54,64.05 56.67,64.06 56.74,64.01 C56.69,64.14 56.57,64.26 56.43,64.35 L56.47,64.27 C56.09,64.59 55.82,64.97 55.6,65.51 C55.62,65.49 55.65,65.48 55.67,65.49 C55.31,65.83 55.05,66.23 54.93,66.59 C54.95,66.63 54.99,66.65 55.03,66.64 C54.73,66.94 54.54,67.21 54.6,67.29 C54.51,67.37 54.45,67.46 54.43,67.58 L54.4,67.58 C54.39,67.49 54.34,67.47 54.28,67.52 C54.33,67.56 54.33,67.61 54.28,67.66 C54.08,67.62 54.02,67.84 54.04,68.09 C54.04,68.06 54.07,68.03 54.1,68.02 C54.14,68.08 54.15,68.13 54.11,68.19 L54.19,68.16 C54.22,68.27 54.23,68.39 54.13,68.32 C54.11,68.42 54.09,68.52 54.07,68.61 C54.01,68.65 53.95,68.63 53.9,68.54 C53.9,68.63 53.92,68.75 53.94,68.84 C53.97,68.84 54,68.83 54.02,68.8 L53.99,68.9 L54.02,68.9 C54.02,68.9 54.02,68.99 54.02,68.99 C54.04,69.04 54.09,69.15 54.1,69.2 C53.83,69.45 53.66,69.67 53.88,69.79 L53.84,69.9 C53.84,69.9 53.92,69.8 53.96,69.76 C53.83,70 53.75,70.16 53.64,70.38 C53.73,70.34 53.81,70.29 53.89,70.23 C53.66,70.47 53.59,70.66 53.65,70.89 C53.62,70.78 53.56,70.76 53.5,70.85 C53.48,70.98 53.43,71.22 53.4,71.38 L53.4,71.33 C53.18,71.54 52.98,71.81 52.8,72.13 C52.76,71.91 52.59,72.09 52.45,72.25 C52.91,71.92 53,71.48 52.76,70.89 C52.43,71.26 52.14,71.72 51.94,72.19 L52.01,72.15 C51.87,72.37 51.77,72.51 51.63,72.73 C51.66,72.67 51.69,72.59 51.72,72.53 C51.56,72.75 51.52,72.95 51.56,73.19 C49.71,74.61 47.63,77.89 47.06,80.67 C47.14,80.64 47.2,80.56 47.22,80.46 C47.28,80.53 47.3,80.62 47.31,80.71 C47.09,80.72 46.99,80.93 46.99,81.2 C47,81.07 47.02,80.92 47.04,80.8 C46.52,82.1 46.21,83.58 46.17,84.95 C46.27,85.13 46.34,85.47 46.33,85.74 L46.39,85.68 C46.4,87.18 46.23,88.77 45.89,90.29 L45.93,90.27 C45.9,91.28 45.89,92.3 45.87,93.32 C45.78,93.34 45.74,93.41 45.74,93.52 C45.66,93.39 45.57,93.3 45.41,93.17 C45.36,93.22 45.35,93.27 45.38,93.32 L45.42,93.3 C45.46,93.85 45.57,94.34 45.78,94.86 L45.92,94.73 C46.08,95.59 46.02,96.41 45.72,97.26 C45.72,97.21 45.75,97.19 45.78,97.2 C46.03,98.02 46.25,99.07 46.37,99.98 C46.78,99.61 46.81,99.05 46.54,98.47 L46.43,98.54 C46.35,98.13 46.35,97.71 46.43,97.29 L46.42,97.29 C46.5,96.67 46.52,95.98 46.47,95.36 C46.42,95.46 46.41,95.57 46.44,95.67 C46.42,94.74 46.44,93.77 46.49,92.86 L46.47,92.88 C46.47,92.81 46.44,92.74 46.4,92.7 C46.28,91.54 46.44,90.4 46.87,89.29 C46.92,89.4 46.94,89.51 46.95,89.64 L46.97,89.64 C47.04,92.09 47.31,95.47 47.54,97.53 C47.44,97.81 47.53,98.07 47.75,98.21 C48.2,100.1 48.57,102.12 48.44,103.97 C48.49,108.72 56.5,115.09 60.34,116.65 L60.19,116.61 C60.58,117.39 61.14,118.26 61.71,118.97 C61.55,119.59 61.78,120.15 62.38,120.53 C62.48,120.34 62.42,120.2 62.25,120.09 C62.84,120.61 63.55,121.41 63.96,122.02 L63.87,121.8 C64.08,121.9 64.26,122.16 64.34,122.43 C64.88,122.88 66.02,123.05 66.53,123.75 C66.68,123.71 66.8,123.63 66.9,123.52 C66.58,121.56 67.56,122.85 68.74,123 C68.95,124.07 69.79,126.58 70.2,127.41 C69.62,128.15 69.28,128.62 68.92,129.2 C67.48,130.08 67.19,131.85 68.34,132.7 C67.91,133.72 67.78,134.65 67.98,135.76 C70.52,137.73 72.1,140.55 74.32,142.84 C77.59,146.39 81.32,146.08 82.9,151.23 C82.93,152.06 83.19,153.02 83.59,153.81 L83.44,153.86 C83.9,154.39 84.32,154.99 84.61,155.53 C84.55,155.6 84.55,155.69 84.59,155.78 C84.61,156.1 84.63,156.37 84.66,156.7 C84.6,156.7 84.54,156.7 84.48,156.7 L84.68,156.9 C84.58,156.88 84.47,156.89 84.39,156.92 C84.57,157.08 84.75,157.24 84.93,157.4 L84.91,157.4 C85.16,157.49 85.4,157.68 85.45,157.87 L85.34,157.87 C85.61,158.3 86,158.52 86.48,158.52 L86.46,158.49 C86.65,158.52 86.86,158.55 87.06,158.56 C86.99,158.58 86.92,158.59 86.84,158.6 C86.98,158.63 87.15,158.71 87.29,158.81 C87.21,158.76 87.13,158.73 87.04,158.73 C59.66,153.26 39.1,127.64 39.1,99.6 M71.59,85.7 C71.85,85.73 72.13,85.81 72.33,85.89 C72.34,85.78 72.31,85.69 72.22,85.65 C72.32,85.57 72.4,85.57 72.42,85.71 C72.76,85.64 73.08,85.5 73.35,85.31 C73.19,85.46 72.98,85.66 72.85,85.8 C72.54,86.5 71.51,86.61 70.29,86.24 C70.63,85.87 71.07,85.68 71.59,85.69 L71.59,85.7 Z M63.71,51.03 C63.66,51.13 63.59,51.2 63.49,51.24 C63.52,51.13 63.59,51.06 63.71,51.03 M67.92,87.23 C68.01,87.2 68.09,87.22 68.16,87.3 C68.29,87.13 68.5,87.03 68.7,87.03 C69.3,86.7 70.06,86.63 70.81,86.83 C69.78,87.65 68.5,87.91 67.43,87.42 C67.55,87.23 67.71,87.16 67.91,87.23 L67.92,87.23 Z M68.31,86.75 C67.98,86.89 67.91,86.87 68.27,86.59 C68.24,86.66 68.25,86.71 68.31,86.75 Z M68.32,81.23 C68.29,81.51 68.3,81.74 68.38,81.99 C68.3,82.02 68.26,82.07 68.27,82.14 L68.31,82.14 C67.85,82.2 66.67,81.9 65.96,81.5 C66.1,81.24 66.35,81.03 66.62,80.9 C65.97,81.12 65.21,81.27 64.55,81.3 C64.64,81.19 64.68,81.05 64.65,80.92 C62.89,80.92 65.74,79.98 66.46,79.63 C66.41,79.7 66.39,79.78 66.39,79.87 C66.56,79.79 66.71,79.64 66.81,79.47 C66.74,79.59 66.67,79.71 66.62,79.84 C67.04,79.27 67.33,79.19 67.37,80.18 L67.55,79.71 C67.77,80.19 68.03,80.54 68.5,80.81 C68.4,80.94 68.34,81.09 68.33,81.24 L68.32,81.23 Z M62.68,51.82 C62.68,51.82 62.75,51.82 62.78,51.79 L62.78,51.81 C62.95,51.67 63.13,51.6 63.14,51.79 C62.78,51.93 61.5,52.73 62.68,51.82 M61.56,52.77 L61.7,52.74 C61.53,52.81 61.39,52.91 61.27,53.04 C61.29,53.06 61.3,53.06 61.32,53.05 C61.14,53.2 60.95,53.36 60.78,53.5 C60.89,53.42 61.03,53.37 61.16,53.36 C60.86,53.72 60.88,53.69 60.76,53.85 C60.48,53.98 60.13,54.12 59.78,54.24 C59.81,54.23 59.82,54.21 59.82,54.18 C59.11,54.5 59.68,54.01 61.53,52.72 C61.5,52.74 61.51,52.76 61.56,52.76 L61.56,52.77 Z M69.86,83.29 C70.29,83.4 70.53,83.67 70.67,84.06 C70.74,84.34 70.86,84.76 70.55,84.58 C70.45,84.96 70.28,84.99 70.04,84.64 C69.98,84.65 69.92,84.69 69.88,84.75 C69.91,84.69 69.92,84.62 69.91,84.56 L69.86,84.56 C69.86,84.56 69.94,84.36 69.94,84.36 C69.67,84.32 69.09,85.15 68.47,86.17 C68.02,85.7 68.87,84.64 67.71,85.33 C68.13,84.92 68.18,84.39 68.47,83.96 C68,82.98 67.49,83.06 66.99,83.9 C67.01,83.8 67.02,83.7 67.03,83.6 C66.53,84.65 65.58,85.92 65,86.9 C64.79,85.56 65.43,84.48 66.23,83.24 C66.01,83.51 65.8,83.68 65.47,83.82 C65.78,83.35 66.24,82.94 66.73,82.7 L66.64,82.94 C67.17,82.75 67.72,82.72 68.01,82.83 C68.45,83.11 68.42,82.7 68.37,82.28 C68.42,82.39 68.43,82.51 68.4,82.63 C68.91,82.84 69.34,82.99 69.89,83.16 C69.87,83.2 69.87,83.25 69.87,83.29 L69.86,83.29 Z M64.6,50.43 C64.6,50.43 64.56,50.51 64.51,50.53 L64.51,50.5 C64.51,50.5 64.48,50.53 64.48,50.53 C64.51,50.46 64.54,50.44 64.59,50.4 C64.59,50.4 64.59,50.42 64.59,50.42 L64.6,50.43 Z M159.82,105.97 C159.84,105.63 159.86,105.28 159.87,104.94 L159.87,104.94 C159.85,104.72 159.86,104.5 159.9,104.28 C159.94,104.85 159.89,105.39 159.83,105.97 M149.23,94.33 C149.02,93.67 149.17,93.54 149.75,94.08 C149.93,93.95 150.07,93.82 150.18,93.66 C150.43,94.86 150.18,95.23 149.23,94.32 L149.23,94.33 Z M146.89,61.9 C147.02,62.08 147.15,62.26 147.28,62.44 C147.79,62.95 148.86,64.49 149.49,65.79 C149.43,65.78 149.39,65.73 149.38,65.66 C149.41,65.74 149.41,65.73 149.44,65.81 C149.39,65.75 149.34,65.69 149.3,65.62 L149.3,65.62 C149.03,65.25 148.74,64.88 148.44,64.52 L148.44,64.56 C148.44,64.56 148.4,64.51 148.37,64.49 C148.64,64.91 148.95,65.34 149.27,65.74 C148.92,65.33 148.46,64.9 148.07,64.61 L148.07,64.65 C147.97,64.52 147.87,64.44 147.73,64.38 L147.73,64.41 C147.46,64.17 146.98,63.86 146.91,63.83 C146.72,63.59 146.5,63.25 146.44,63.1 C146.27,62.88 146.1,62.64 145.95,62.42 C146.04,62.5 146.13,62.56 146.24,62.6 L146.24,62.57 C146.24,62.57 146.27,62.58 146.27,62.58 C146.19,62.49 146.13,62.39 146.08,62.29 C146.64,62.72 147.2,63.04 147.48,63.1 C147.43,63.03 147.43,62.98 147.48,62.95 L147.53,63 L147.53,63 C147.53,63 147.6,63.06 147.6,63.06 C147.55,62.97 147.5,62.87 147.46,62.78 L147.49,62.8 C147.34,62.54 146.93,61.93 146.9,61.89 M144.89,65.88 L144.95,66.02 C144.95,66.02 144.9,65.93 144.89,65.88 Z M159.4,96.6 C159.43,97 159.44,97.41 159.44,97.81 C159.51,97.79 159.53,97.73 159.5,97.63 C159.48,98.03 159.47,98.43 159.47,98.83 L159.43,98.52 C159.43,98.52 159.4,98.62 159.41,98.67 C159.38,98.64 159.34,98.6 159.32,98.57 C159.34,98.8 159.34,99.02 159.32,99.24 C159.1,98.21 159,97.14 159.04,96.11 C159.16,95.99 159.18,95.82 159.1,95.6 C159.16,95.54 159.2,95.42 159.21,95.31 C159.23,95.47 159.26,95.61 159.32,95.76 C159.32,95.61 159.34,95.47 159.37,95.33 C159.37,95.76 159.37,96.18 159.41,96.6 L159.4,96.6 Z M159.36,104.47 L159.32,104.36 L159.27,104.43 C159.08,103.67 158.98,102.85 158.97,102.05 L158.97,102.14 C158.93,101.83 158.92,101.51 158.92,101.2 C159.09,102.04 159.19,102.87 159.22,103.73 C159.38,104.06 159.5,104.76 159.46,105.28 L159.42,105.24 C159.42,105.24 159.42,105.29 159.39,105.3 C159.39,105.02 159.37,104.76 159.35,104.48 L159.36,104.47 Z M157.9,115.44 C158.03,114.81 158.22,114.16 158.45,113.58 C158.4,113.74 158.36,113.9 158.3,114.06 L158.3,114.06 C158.26,114.18 158.22,114.31 158.2,114.44 L158.2,114.44 C158.1,114.79 157.75,115.65 157.91,115.43 L157.9,115.44 Z M158.47,95.1 C158.47,95.04 158.47,94.98 158.47,94.92 C158.57,95.42 158.6,95.95 158.56,96.47 C158.53,96.43 158.52,96.38 158.52,96.32 L158.52,96.35 C158.45,95.94 158.44,95.51 158.46,95.09 L158.47,95.1 Z M156.14,78 C156.26,78.43 156.39,78.86 156.52,79.29 L156.5,79.29 C156.53,79.4 156.53,79.38 156.53,79.45 L156.52,79.45 C156.64,79.82 156.74,80.21 156.81,80.6 C156.7,80.48 156.58,80.34 156.49,80.21 L156.49,80.21 C156.49,80.21 156.48,80.2 156.48,80.2 C156.5,80.33 156.52,80.46 156.55,80.59 C156.46,80.08 156.26,79.58 155.99,79.15 L156.02,79.25 C156.02,79.25 155.94,79.18 155.93,79.13 L155.93,79.2 C155.88,79.14 155.82,79.05 155.78,78.98 L155.78,79.02 C155.78,79.02 155.7,78.93 155.67,78.89 L155.67,78.95 C155.67,78.95 155.67,78.95 155.67,78.95 L155.67,78.98 C155.6,78.87 155.47,78.73 155.38,78.65 L155.38,78.75 C155.38,78.75 155.36,78.75 155.36,78.75 L155.36,78.78 C155.36,78.78 155.29,78.72 155.26,78.69 C155.26,78.75 155.26,78.83 155.26,78.89 C155.17,78.8 155.11,78.71 155.07,78.59 L155.07,78.62 C155.07,78.62 155.03,78.59 155.03,78.59 C155.08,78.71 155.13,78.85 155.15,78.95 C155.1,78.85 155.04,78.76 154.98,78.68 L154.98,78.72 C154.62,78.19 154.21,77.62 153.81,77.09 L153.81,77.12 C153.81,77.12 153.73,77.02 153.73,77.02 L153.73,77.06 C153.73,77.06 153.7,77.05 153.7,77.05 L153.7,77.13 C153.68,77.05 153.63,77 153.55,76.98 C151.68,74.49 149.03,72.76 146.5,70.55 C147.01,70.93 147.51,71.28 148.1,71.52 C147.89,70.97 147.51,70.36 147.14,69.85 C147.45,70.23 147.73,70.63 147.99,71.04 C147.95,71 147.93,70.95 147.94,70.9 L147.96,70.9 C147.96,70.9 148,70.82 148,70.77 C148.8,71.3 150.05,72.12 150.55,72.45 L150.55,72.43 C151.25,73 152.27,73.98 152.72,74.5 C154.18,75.65 155.25,77.28 156.07,79.08 C155.56,77.37 155.18,75.65 154.45,73.98 C155.08,75.31 155.65,76.67 156.18,78.04 M136.17,55.12 C135.98,55.01 135.78,54.94 135.57,54.91 L135.6,54.99 C135.04,54.53 134.45,54.11 133.85,53.75 C133.88,53.71 133.88,53.67 133.85,53.63 C133.96,53.69 134.07,53.73 134.19,53.77 C134.03,53.58 133.83,53.36 133.64,53.17 L133.52,53.23 C133.2,52.77 132.86,52.26 132.6,51.85 L132.71,51.89 C132.61,51.79 132.53,51.68 132.47,51.55 L132.53,51.58 L132.53,51.52 C132.6,51.47 132.68,51.48 132.76,51.55 L132.76,51.52 C132.76,51.52 132.9,51.56 132.9,51.56 L132.83,51.51 C132.99,51.57 133.15,51.61 133.31,51.65 L133.28,51.59 C133.86,51.81 134.18,52.23 134.38,52.87 L134.3,52.83 C134.69,53.17 135.07,53.47 135.27,53.62 C135.56,53.66 135.82,53.76 136.07,53.94 C136.07,53.89 136.06,53.85 136.03,53.82 C136.18,53.86 136.21,53.78 136.19,53.65 C136.56,53.97 136.98,54.22 137.43,54.4 L137.15,54.22 L137.15,54.24 C136.91,54.09 136.72,53.88 136.59,53.64 C136.98,53.68 137.28,53.82 137.54,54.11 L137.54,54.06 C137.62,54.21 137.69,54.37 137.74,54.54 C137.66,54.52 137.59,54.49 137.52,54.45 C137.83,54.67 138.13,54.88 138.45,55.08 C138.32,54.98 138.24,54.84 138.22,54.69 L138.33,54.74 C138.33,54.74 138.31,54.79 138.28,54.78 C138.38,54.94 138.47,55 138.5,54.86 C138.59,54.97 138.69,55.07 138.78,55.18 L138.78,55.14 C138.78,55.14 138.87,55.17 138.92,55.17 L138.92,55.12 C139.58,55.54 140.2,56.07 140.7,56.62 C140.66,56.55 140.62,56.49 140.56,56.43 C140.98,56.89 141.51,57.51 140.82,57.57 C140.87,57.67 140.89,57.76 140.88,57.87 C140.41,57.67 139.92,57.34 139.55,56.96 L139.67,56.98 C139.22,56.67 138.8,56.29 138.47,55.87 L138.54,55.87 C138.49,55.83 138.43,55.8 138.36,55.78 C138.36,55.81 138.34,55.82 138.31,55.81 L138.4,55.94 C137.65,55.75 136,55.05 136.16,55.17 L136.17,55.12 Z M99.67,37.22 C42.45,37.22 15.92,111.17 59.86,147.66 C103.56,183.95 170.85,144.81 161.15,88.94 C156.03,59.46 129.6,37.22 99.67,37.22" id="Shape" fill="#293E5D"></path>
        </g>
    </g>
</svg>