<?xml version="1.0" encoding="UTF-8"?>
<svg width="126px" height="100px" viewBox="0 0 126 100" version="1.1" xmlns="http://www.w3.org/2000/svg" xmlns:xlink="http://www.w3.org/1999/xlink">
    <title>Layer_1</title>
    <g id="Icons" stroke="none" stroke-width="1" fill="none" fill-rule="evenodd">
        <g id="Layer_1" transform="translate(-37, -50)" fill="#293E5D" fill-rule="nonzero">
            <path d="M83.58,61.03 C83.58,59.89 84.5,58.98 85.63,58.98 L114.36,58.98 C115.5,58.98 116.41,59.9 116.41,61.03 L116.41,66.21 L125.51,66.21 L125.51,56.94 C125.51,53.38 122.62,50.49 119.06,50.49 L80.92,50.49 C77.36,50.49 74.47,53.38 74.47,56.94 L74.47,66.21 L83.57,66.21 L83.57,61.03 L83.58,61.03 Z" id="Path"></path>
            <path d="M146.01,98.57 L146.01,107.68 C151.59,105.97 156.4,103.87 160.06,101.38 L160.06,149.53 L39.94,149.53 L39.94,100.78 C44.51,103.92 50.88,106.48 58.35,108.44 L58.35,99.44 C45.91,95.9 37.5,90.51 37.5,83.31 L37.5,70.13 L162.5,70.13 L162.5,83.92 C162.5,90.29 156.01,95.16 146.01,98.57 Z" id="Path"></path>
        </g>
    </g>
</svg>