<?xml version="1.0" encoding="UTF-8"?>
<svg width="150px" height="90px" viewBox="0 0 150 90" version="1.1" xmlns="http://www.w3.org/2000/svg" xmlns:xlink="http://www.w3.org/1999/xlink">
    <title>Layer_1</title>
    <g id="Icons" stroke="none" stroke-width="1" fill="none" fill-rule="evenodd">
        <g id="Layer_1" transform="translate(-25, -55)" fill="#75ACCE" fill-rule="nonzero">
            <path d="M51.75,63.87 C51.75,68.28 47.79,71.85 42.93,71.85 C38.07,71.85 34.09,68.28 34.09,63.87 C34.09,59.46 38.04,55.91 42.93,55.91 C47.82,55.91 51.75,59.5 51.75,63.87" id="Path"></path>
            <path d="M28.06,74.97 C29.25,74.14 31.45,73.46 32.95,73.46 L51.7,73.46 C53.2,73.46 55.49,74.02 56.78,74.71 L57.52,75.11 C58.81,75.8 59.87,77.47 59.87,78.83 L59.87,110.8 C59.87,112.16 58.81,113.27 57.52,113.27 C56.23,113.27 55.17,112.16 55.17,110.8 L55.17,90.02 C55.17,88.66 54.32,87.55 53.28,87.55 C52.24,87.55 51.39,88.66 51.39,90.02 L51.39,141.62 C51.39,142.98 50.16,144.09 48.66,144.09 L48.05,144.09 C46.55,144.09 45.23,142.98 45.11,141.63 L43.71,124.97 C43.6,123.62 43.05,122.51 42.49,122.51 C41.93,122.51 41.39,123.62 41.29,124.97 L40.03,141.63 C39.93,142.98 38.61,144.09 37.11,144.09 L36.16,144.09 C34.66,144.09 33.43,142.98 33.43,141.62 L33.43,90.02 C33.43,88.66 32.58,87.55 31.55,87.55 C30.52,87.55 29.67,88.66 29.67,90.02 L29.64,110.8 C29.64,112.16 28.59,113.27 27.32,113.27 C26.05,113.27 25,112.16 25,110.8 L25,79.58 C25,78.22 25.97,76.44 27.16,75.61 L28.06,74.98 L28.06,74.97 Z" id="Path"></path>
            <path d="M142.78,111.09 C143.03,110.53 143.79,110.07 144.46,110.07 L148.93,110.07 C149.6,110.07 150.36,110.53 150.61,111.09 L156.01,123.1 C156.26,123.66 156.19,124.29 155.84,124.5 C155.49,124.71 154.95,124.45 154.63,123.91 L150.52,117.02 C150.2,116.49 149.83,116.15 149.7,116.28 C149.57,116.41 149.65,116.97 149.88,117.54 L154.56,128.89 C154.79,129.46 154.44,129.92 153.77,129.92 L150.78,129.92 C150.11,129.92 149.49,130.41 149.4,131.01 L147.98,140.52 C147.89,141.12 147.32,141.61 146.72,141.61 C146.12,141.61 145.55,141.12 145.46,140.52 L144.04,131.01 C143.95,130.41 143.33,129.92 142.66,129.92 L139.67,129.92 C139,129.92 138.65,129.46 138.89,128.89 L143.63,117.8 C143.87,117.23 143.94,116.61 143.78,116.41 C143.62,116.21 143.24,116.49 142.92,117.02 L138.82,123.91 C138.5,124.44 137.96,124.71 137.61,124.5 C137.26,124.29 137.18,123.66 137.43,123.1 L142.81,111.09 L142.78,111.09 Z" id="Path"></path>
            <path d="M150.48,104.89 C150.48,106.86 148.71,108.46 146.53,108.46 C144.35,108.46 142.59,106.86 142.59,104.89 C142.59,102.92 144.35,101.33 146.53,101.33 C148.71,101.33 150.48,102.93 150.48,104.89" id="Path"></path>
            <path d="M66.84,110.36 C67.09,109.8 67.85,109.34 68.52,109.34 L72.99,109.34 C73.66,109.34 74.42,109.8 74.67,110.36 L80.07,122.37 C80.32,122.93 80.25,123.56 79.9,123.77 C79.55,123.98 79.01,123.72 78.69,123.18 L74.58,116.29 C74.26,115.76 73.89,115.42 73.76,115.55 C73.63,115.68 73.71,116.24 73.94,116.81 L78.62,128.16 C78.85,128.73 78.5,129.19 77.83,129.19 L74.84,129.19 C74.17,129.19 73.55,129.68 73.46,130.28 L72.04,139.79 C71.95,140.39 71.38,140.88 70.78,140.88 C70.18,140.88 69.61,140.39 69.52,139.79 L68.1,130.28 C68.01,129.68 67.39,129.19 66.72,129.19 L63.73,129.19 C63.06,129.19 62.71,128.73 62.95,128.16 L67.69,117.07 C67.93,116.5 68,115.88 67.84,115.68 C67.68,115.48 67.3,115.76 66.98,116.29 L62.88,123.18 C62.56,123.71 62.02,123.98 61.67,123.77 C61.32,123.56 61.24,122.93 61.49,122.37 L66.87,110.36 L66.84,110.36 Z" id="Path"></path>
            <path d="M74.54,104.89 C74.54,106.86 72.77,108.46 70.59,108.46 C68.41,108.46 66.65,106.86 66.65,104.89 C66.65,102.92 68.41,101.33 70.59,101.33 C72.77,101.33 74.54,102.93 74.54,104.89" id="Path"></path>
            <path d="M74.95,62.19 C74.95,64.16 73.18,65.76 71.01,65.76 C68.84,65.76 67.06,64.16 67.06,62.19 C67.06,60.22 68.83,58.63 71.01,58.63 C73.19,58.63 74.95,60.23 74.95,62.19" id="Path"></path>
            <path d="M64.36,66.95 C64.89,66.58 65.87,66.28 66.54,66.28 L74.92,66.28 C75.59,66.28 76.61,66.53 77.19,66.84 L77.52,67.02 C78.1,67.33 78.57,68.07 78.57,68.68 L78.57,82.97 C78.57,83.58 78.1,84.07 77.52,84.07 C76.94,84.07 76.47,83.57 76.47,82.97 L76.47,73.68 C76.47,73.07 76.09,72.58 75.62,72.58 C75.15,72.58 74.77,73.08 74.77,73.68 L74.77,96.74 C74.77,97.35 74.22,97.84 73.55,97.84 L73.28,97.84 C72.61,97.84 72.02,97.35 71.97,96.74 L71.35,89.29 C71.3,88.69 71.05,88.19 70.81,88.19 C70.57,88.19 70.32,88.68 70.27,89.29 L69.71,96.73 C69.67,97.33 69.08,97.83 68.41,97.83 L67.98,97.83 C67.31,97.83 66.76,97.33 66.76,96.73 L66.76,73.67 C66.76,73.06 66.38,72.57 65.92,72.57 C65.46,72.57 65.08,73.07 65.08,73.67 L65.08,82.96 C65.07,83.57 64.6,84.06 64.03,84.06 C63.46,84.06 62.99,83.56 62.99,82.96 L62.99,69.01 C62.99,68.4 63.43,67.61 63.96,67.23 L64.36,66.95 L64.36,66.95 Z" id="Path"></path>
            <path d="M93.23,104.89 C93.23,106.86 91.46,108.46 89.29,108.46 C87.12,108.46 85.34,106.86 85.34,104.89 C85.34,102.92 87.11,101.33 89.29,101.33 C91.47,101.33 93.23,102.93 93.23,104.89" id="Path"></path>
            <path d="M82.65,109.65 C83.18,109.28 84.16,108.98 84.83,108.98 L93.21,108.98 C93.88,108.98 94.9,109.23 95.48,109.54 L95.81,109.72 C96.39,110.03 96.86,110.77 96.86,111.38 L96.86,125.67 C96.86,126.28 96.39,126.77 95.81,126.77 C95.23,126.77 94.76,126.27 94.76,125.67 L94.76,116.38 C94.76,115.77 94.38,115.28 93.91,115.28 C93.44,115.28 93.06,115.78 93.06,116.38 L93.06,139.44 C93.06,140.05 92.51,140.54 91.84,140.54 L91.57,140.54 C90.9,140.54 90.31,140.05 90.26,139.44 L89.64,131.99 C89.59,131.39 89.34,130.89 89.1,130.89 C88.86,130.89 88.61,131.38 88.56,131.99 L88,139.43 C87.96,140.03 87.37,140.53 86.7,140.53 L86.27,140.53 C85.6,140.53 85.05,140.03 85.05,139.43 L85.05,116.37 C85.05,115.76 84.67,115.27 84.21,115.27 C83.75,115.27 83.37,115.77 83.37,116.37 L83.37,125.66 C83.36,126.27 82.89,126.76 82.32,126.76 C81.75,126.76 81.28,126.26 81.28,125.66 L81.28,111.71 C81.28,111.1 81.72,110.31 82.25,109.93 L82.65,109.65 L82.65,109.65 Z" id="Path"></path>
            <path d="M112.36,62.19 C112.36,64.16 110.59,65.76 108.42,65.76 C106.25,65.76 104.47,64.16 104.47,62.19 C104.47,60.22 106.24,58.63 108.42,58.63 C110.6,58.63 112.36,60.23 112.36,62.19" id="Path"></path>
            <path d="M101.77,67.31 C102.3,66.94 103.28,66.64 103.95,66.64 L112.33,66.64 C113,66.64 114.02,66.89 114.6,67.2 L114.93,67.38 C115.51,67.69 115.98,68.43 115.98,69.04 L115.98,83.33 C115.98,83.94 115.51,84.43 114.93,84.43 C114.35,84.43 113.88,83.93 113.88,83.33 L113.88,74.04 C113.88,73.43 113.5,72.94 113.03,72.94 C112.56,72.94 112.18,73.44 112.18,74.04 L112.18,97.1 C112.18,97.71 111.63,98.2 110.96,98.2 L110.69,98.2 C110.02,98.2 109.43,97.71 109.38,97.1 L108.76,89.65 C108.71,89.05 108.46,88.55 108.22,88.55 C107.98,88.55 107.73,89.04 107.68,89.65 L107.12,97.09 C107.08,97.69 106.49,98.19 105.82,98.19 L105.39,98.19 C104.72,98.19 104.17,97.69 104.17,97.09 L104.17,74.03 C104.17,73.42 103.79,72.93 103.33,72.93 C102.87,72.93 102.49,73.43 102.49,74.03 L102.49,83.32 C102.48,83.93 102.01,84.42 101.44,84.42 C100.87,84.42 100.4,83.92 100.4,83.32 L100.4,69.37 C100.4,68.76 100.84,67.97 101.37,67.59 L101.77,67.31 L101.77,67.31 Z" id="Path"></path>
            <path d="M130.11,104.89 C130.11,106.86 128.34,108.46 126.17,108.46 C124,108.46 122.22,106.86 122.22,104.89 C122.22,102.92 123.99,101.33 126.17,101.33 C128.35,101.33 130.11,102.93 130.11,104.89" id="Path"></path>
            <path d="M119.52,109.28 C120.05,108.91 121.03,108.61 121.7,108.61 L130.08,108.61 C130.75,108.61 131.77,108.86 132.35,109.17 L132.68,109.35 C133.26,109.66 133.73,110.4 133.73,111.01 L133.73,125.3 C133.73,125.91 133.26,126.4 132.68,126.4 C132.1,126.4 131.63,125.9 131.63,125.3 L131.63,116.01 C131.63,115.4 131.25,114.91 130.78,114.91 C130.31,114.91 129.93,115.41 129.93,116.01 L129.93,139.07 C129.93,139.68 129.38,140.17 128.71,140.17 L128.44,140.17 C127.77,140.17 127.18,139.68 127.13,139.07 L126.51,131.62 C126.46,131.02 126.21,130.52 125.97,130.52 C125.73,130.52 125.48,131.01 125.43,131.62 L124.87,139.06 C124.83,139.66 124.24,140.16 123.57,140.16 L123.14,140.16 C122.47,140.16 121.92,139.66 121.92,139.06 L121.92,116 C121.92,115.39 121.54,114.9 121.08,114.9 C120.62,114.9 120.24,115.4 120.24,116 L120.24,125.29 C120.23,125.9 119.76,126.39 119.19,126.39 C118.62,126.39 118.15,125.89 118.15,125.29 L118.15,111.34 C118.15,110.73 118.59,109.94 119.12,109.56 L119.52,109.28 L119.52,109.28 Z" id="Path"></path>
            <path d="M149.24,62.19 C149.24,64.16 147.47,65.76 145.3,65.76 C143.13,65.76 141.35,64.16 141.35,62.19 C141.35,60.22 143.12,58.63 145.3,58.63 C147.48,58.63 149.24,60.23 149.24,62.19" id="Path"></path>
            <path d="M138.65,66.58 C139.18,66.21 140.16,65.91 140.83,65.91 L149.21,65.91 C149.88,65.91 150.9,66.16 151.48,66.47 L151.81,66.65 C152.39,66.96 152.86,67.7 152.86,68.31 L152.86,82.6 C152.86,83.21 152.39,83.7 151.81,83.7 C151.23,83.7 150.76,83.2 150.76,82.6 L150.76,73.31 C150.76,72.7 150.38,72.21 149.91,72.21 C149.44,72.21 149.06,72.71 149.06,73.31 L149.06,96.37 C149.06,96.98 148.51,97.47 147.84,97.47 L147.57,97.47 C146.9,97.47 146.31,96.98 146.26,96.37 L145.64,88.92 C145.59,88.32 145.34,87.82 145.1,87.82 C144.86,87.82 144.61,88.31 144.56,88.92 L144,96.36 C143.96,96.96 143.37,97.46 142.7,97.46 L142.27,97.46 C141.6,97.46 141.05,96.96 141.05,96.36 L141.05,73.3 C141.05,72.69 140.67,72.2 140.21,72.2 C139.75,72.2 139.37,72.7 139.37,73.3 L139.37,82.59 C139.36,83.2 138.89,83.69 138.32,83.69 C137.75,83.69 137.28,83.19 137.28,82.59 L137.28,68.64 C137.28,68.03 137.72,67.24 138.25,66.86 L138.65,66.58 Z" id="Path"></path>
            <path d="M123.32,68.39 C123.57,67.83 124.33,67.37 125,67.37 L129.47,67.37 C130.14,67.37 130.9,67.83 131.15,68.39 L136.55,80.4 C136.8,80.96 136.73,81.59 136.38,81.8 C136.03,82.01 135.49,81.75 135.17,81.21 L131.06,74.32 C130.74,73.79 130.37,73.45 130.24,73.58 C130.11,73.71 130.19,74.27 130.42,74.84 L135.1,86.19 C135.33,86.76 134.98,87.22 134.31,87.22 L131.32,87.22 C130.65,87.22 130.03,87.71 129.94,88.31 L128.52,97.82 C128.43,98.42 127.86,98.91 127.26,98.91 C126.66,98.91 126.09,98.42 126,97.82 L124.58,88.31 C124.49,87.71 123.87,87.22 123.2,87.22 L120.21,87.22 C119.54,87.22 119.19,86.76 119.43,86.19 L124.17,75.1 C124.41,74.53 124.48,73.91 124.32,73.71 C124.16,73.51 123.78,73.79 123.46,74.32 L119.36,81.21 C119.04,81.74 118.5,82.01 118.15,81.8 C117.8,81.59 117.72,80.96 117.97,80.4 L123.35,68.39 L123.32,68.39 Z" id="Path"></path>
            <path d="M131.02,62.19 C131.02,64.16 129.25,65.76 127.07,65.76 C124.89,65.76 123.13,64.16 123.13,62.19 C123.13,60.22 124.89,58.63 127.07,58.63 C129.25,58.63 131.02,60.23 131.02,62.19" id="Path"></path>
            <path d="M168.41,104.89 C168.41,106.86 166.64,108.46 164.47,108.46 C162.3,108.46 160.52,106.86 160.52,104.89 C160.52,102.92 162.29,101.33 164.47,101.33 C166.65,101.33 168.41,102.93 168.41,104.89" id="Path"></path>
            <path d="M157.83,109.28 C158.36,108.91 159.34,108.61 160.01,108.61 L168.39,108.61 C169.06,108.61 170.08,108.86 170.66,109.17 L170.99,109.35 C171.57,109.66 172.04,110.4 172.04,111.01 L172.04,125.3 C172.04,125.91 171.57,126.4 170.99,126.4 C170.41,126.4 169.94,125.9 169.94,125.3 L169.94,116.01 C169.94,115.4 169.56,114.91 169.09,114.91 C168.62,114.91 168.24,115.41 168.24,116.01 L168.24,139.07 C168.24,139.68 167.69,140.17 167.02,140.17 L166.75,140.17 C166.08,140.17 165.49,139.68 165.44,139.07 L164.82,131.62 C164.77,131.02 164.52,130.52 164.28,130.52 C164.04,130.52 163.79,131.01 163.74,131.62 L163.18,139.06 C163.14,139.66 162.55,140.16 161.88,140.16 L161.45,140.16 C160.78,140.16 160.23,139.66 160.23,139.06 L160.23,116 C160.23,115.39 159.85,114.9 159.39,114.9 C158.93,114.9 158.55,115.4 158.55,116 L158.55,125.29 C158.54,125.9 158.07,126.39 157.5,126.39 C156.93,126.39 156.46,125.89 156.46,125.29 L156.46,111.34 C156.46,110.73 156.9,109.94 157.43,109.56 L157.83,109.28 L157.83,109.28 Z" id="Path"></path>
            <path d="M161.63,68.39 C161.88,67.83 162.64,67.37 163.31,67.37 L167.78,67.37 C168.45,67.37 169.21,67.83 169.46,68.39 L174.86,80.4 C175.11,80.96 175.04,81.59 174.69,81.8 C174.34,82.01 173.8,81.75 173.48,81.21 L169.37,74.32 C169.05,73.79 168.68,73.45 168.55,73.58 C168.42,73.71 168.5,74.27 168.73,74.84 L173.41,86.19 C173.64,86.76 173.29,87.22 172.62,87.22 L169.63,87.22 C168.96,87.22 168.34,87.71 168.25,88.31 L166.83,97.82 C166.74,98.42 166.17,98.91 165.57,98.91 C164.97,98.91 164.4,98.42 164.31,97.82 L162.89,88.31 C162.8,87.71 162.18,87.22 161.51,87.22 L158.52,87.22 C157.85,87.22 157.5,86.76 157.74,86.19 L162.48,75.1 C162.72,74.53 162.79,73.91 162.63,73.71 C162.47,73.51 162.09,73.79 161.77,74.32 L157.67,81.21 C157.35,81.74 156.81,82.01 156.46,81.8 C156.11,81.59 156.03,80.96 156.28,80.4 L161.66,68.39 L161.63,68.39 Z" id="Path"></path>
            <path d="M169.33,62.19 C169.33,64.16 167.56,65.76 165.38,65.76 C163.2,65.76 161.44,64.16 161.44,62.19 C161.44,60.22 163.2,58.63 165.38,58.63 C167.56,58.63 169.33,60.23 169.33,62.19" id="Path"></path>
            <path d="M103.77,110.73 C104.02,110.17 104.78,109.71 105.45,109.71 L109.92,109.71 C110.59,109.71 111.35,110.17 111.6,110.73 L117,122.74 C117.25,123.3 117.18,123.93 116.83,124.14 C116.48,124.35 115.94,124.09 115.62,123.55 L111.51,116.66 C111.19,116.13 110.82,115.79 110.69,115.92 C110.56,116.05 110.64,116.61 110.87,117.18 L115.55,128.53 C115.78,129.1 115.43,129.56 114.76,129.56 L111.77,129.56 C111.1,129.56 110.48,130.05 110.39,130.65 L108.97,140.16 C108.88,140.76 108.31,141.25 107.71,141.25 C107.11,141.25 106.54,140.76 106.45,140.16 L105.03,130.65 C104.94,130.05 104.32,129.56 103.65,129.56 L100.66,129.56 C99.99,129.56 99.64,129.1 99.88,128.53 L104.62,117.44 C104.86,116.87 104.93,116.25 104.77,116.05 C104.61,115.85 104.23,116.13 103.91,116.66 L99.81,123.55 C99.49,124.08 98.95,124.35 98.6,124.14 C98.25,123.93 98.17,123.3 98.42,122.74 L103.8,110.73 L103.77,110.73 Z" id="Path"></path>
            <path d="M111.47,104.89 C111.47,106.86 109.7,108.46 107.52,108.46 C105.34,108.46 103.58,106.86 103.58,104.89 C103.58,102.92 105.34,101.33 107.52,101.33 C109.7,101.33 111.47,102.93 111.47,104.89" id="Path"></path>
            <path d="M86.16,68.02 C86.41,67.46 87.17,67 87.84,67 L92.31,67 C92.98,67 93.74,67.46 93.99,68.02 L99.39,80.03 C99.64,80.59 99.57,81.22 99.22,81.43 C98.87,81.64 98.33,81.38 98.01,80.84 L93.9,73.95 C93.58,73.42 93.21,73.08 93.08,73.21 C92.95,73.34 93.03,73.9 93.26,74.47 L97.94,85.82 C98.17,86.39 97.82,86.85 97.15,86.85 L94.16,86.85 C93.49,86.85 92.87,87.34 92.78,87.94 L91.36,97.45 C91.27,98.05 90.7,98.54 90.1,98.54 C89.5,98.54 88.93,98.05 88.84,97.45 L87.42,87.94 C87.33,87.34 86.71,86.85 86.04,86.85 L83.05,86.85 C82.38,86.85 82.03,86.39 82.27,85.82 L87.01,74.73 C87.25,74.16 87.32,73.54 87.16,73.34 C87,73.14 86.62,73.42 86.3,73.95 L82.2,80.84 C81.88,81.37 81.34,81.64 80.99,81.43 C80.64,81.22 80.56,80.59 80.81,80.03 L86.19,68.02 L86.16,68.02 Z" id="Path"></path>
            <path d="M93.86,62.19 C93.86,64.16 92.09,65.76 89.91,65.76 C87.73,65.76 85.97,64.16 85.97,62.19 C85.97,60.22 87.73,58.63 89.91,58.63 C92.09,58.63 93.86,60.23 93.86,62.19" id="Path"></path>
        </g>
    </g>
</svg>