<?xml version="1.0" encoding="UTF-8"?>
<svg width="120px" height="126px" viewBox="0 0 120 126" version="1.1" xmlns="http://www.w3.org/2000/svg" xmlns:xlink="http://www.w3.org/1999/xlink">
    <title>Layer_1</title>
    <g id="Icons" stroke="none" stroke-width="1" fill="none" fill-rule="evenodd">
        <g id="Layer_1" transform="translate(-39, -37)" fill-rule="nonzero">
            <path d="M156.49,158.52 L41.55,158.52 L41.55,37.5 L156.48,37.5 L156.48,158.52 L156.49,158.52 Z M45.37,154.7 L152.67,154.7 L152.67,41.32 L45.37,41.32 L45.37,154.71 L45.37,154.7 Z" id="Shape" fill="#75ACCE"></path>
            <polygon id="Path" fill="#75ACCE" points="158.59 162.5 39.46 162.5 39.46 119.72 99.07 150.66 158.59 119.72"></polygon>
            <rect id="Rectangle" fill="#75ACCE" x="54.52" y="93.62" width="88.99" height="3.82"></rect>
            <rect id="Rectangle" fill="#75ACCE" x="54.52" y="106.94" width="88.99" height="3.82"></rect>
            <rect id="Rectangle" fill="#75ACCE" x="54.52" y="120.26" width="88.99" height="3.82"></rect>
            <g id="Group">
                <ellipse id="Oval" fill="#75ACCE" cx="99.02" cy="66.56" rx="23.37" ry="20.55"></ellipse>
                <path d="M100.03,80.23 L100.03,84.4 L98.01,84.4 L98.01,80.27 C95.49,80.18 93.01,79.56 90.24,78.36 L90.24,73.44 C92.76,74.64 95.39,75.7 98.01,75.93 L98.01,68.96 L95.29,67.41 C93.02,66.17 90.04,64.13 90.04,60.62 C90.04,56.36 93.77,53.96 98.01,53.57 L98.01,49.71 L100.03,49.71 L100.03,53.53 C101.59,53.62 102.91,53.88 103.96,54.19 C105.12,54.54 105.98,54.94 106.54,55.21 L106.54,60.05 C103.71,58.59 101.7,58.01 100.03,57.92 L100.03,64.66 C101.69,65.55 103.41,66.43 104.87,67.55 C106.69,68.97 108,70.74 108,73.18 C108,77.22 104.32,79.79 100.03,80.23 Z M98.01,57.96 C96.19,58.31 95.19,59.33 95.19,60.44 C95.19,61.46 96,62.39 98.01,63.55 L98.01,57.96 L98.01,57.96 Z M100.03,70.07 L100.03,75.88 C101.85,75.57 102.8,74.51 102.8,73.22 C102.8,72.11 101.79,71.13 100.03,70.07 Z" id="Shape" fill="#FFFFFF"></path>
            </g>
        </g>
    </g>
</svg>