<?xml version="1.0" encoding="UTF-8"?>
<svg width="150px" height="42px" viewBox="0 0 150 42" version="1.1" xmlns="http://www.w3.org/2000/svg" xmlns:xlink="http://www.w3.org/1999/xlink">
    <title>Layer_1</title>
    <g id="Icons" stroke="none" stroke-width="1" fill="none" fill-rule="evenodd">
        <g id="Layer_1" transform="translate(-25, -79)">
            <g id="Group" fill="#293E5D" fill-rule="nonzero">
                <path d="M126.02,108.03 C124.02,107.31 123.46,105.81 123.56,103.83 C123.21,104.06 122.84,104.31 122.46,104.54 C122.61,104.62 122.81,104.6 123.07,104.43 C123,105.81 123.54,107.24 124.95,108.08 L119.77,112.47 L113.47,108.22 C114.99,107.53 115.72,106.64 115.51,104.28 C115.18,104.07 114.98,103.92 114.98,103.92 C115.27,106.3 114.83,107.22 112.57,108.04 C107.87,109.73 103.64,110.34 102.2,116.75 C102.88,116.95 111.42,119.45 119.64,119.39 C128.62,119.33 135.93,116.91 136.42,116.75 C135.15,110.18 130.69,109.72 126.03,108.05 L126.02,108.03 Z" id="Path"></path>
                <path d="M127.88,95.62 C127.86,95.51 127.82,95.4 127.75,95.29 L127.49,95.47 L127.75,95.29 C127.62,95.1 127.49,94.96 127.34,94.85 C127.22,94.76 127.08,94.71 126.94,94.69 C126.94,94.56 126.95,94.43 126.95,94.3 C126.95,94.2 126.95,94.11 126.95,94.01 C126.95,93.66 126.94,93.3 126.92,92.95 C126.88,93 126.83,93.06 126.79,93.11 C126.65,93.26 126.5,93.41 126.32,93.55 C124.9,94.69 122.25,95.42 119.08,95.42 L119.04,95.42 C116.87,95.42 114.82,95.05 113.28,94.39 C112.67,94.13 112.15,93.83 111.75,93.5 C111.65,93.42 111.55,93.33 111.46,93.24 C111.34,93.12 111.23,93 111.14,92.88 C111.14,93.06 111.12,93.23 111.12,93.41 C111.12,93.84 111.15,94.27 111.19,94.71 C111.05,94.73 110.91,94.79 110.79,94.87 C110.64,94.98 110.51,95.13 110.38,95.32 C110.32,95.42 110.28,95.52 110.26,95.63 C110.24,95.74 110.23,95.85 110.23,95.97 C110.23,96.28 110.29,96.64 110.38,97.02 C110.52,97.59 110.73,98.2 110.98,98.71 C111.1,98.96 111.23,99.19 111.37,99.37 C111.44,99.46 111.51,99.54 111.59,99.62 C111.67,99.69 111.75,99.75 111.86,99.79 C111.99,99.84 112.12,99.86 112.24,99.86 C112.27,99.86 112.31,99.86 112.34,99.86 L112.34,99.86 C112.79,101.42 113.56,102.82 114.63,103.89 C115.7,104.96 117.08,105.69 118.71,105.88 C118.97,105.91 119.23,105.93 119.48,105.93 C120.36,105.93 121.16,105.74 121.88,105.41 C122.95,104.91 123.82,104.07 124.51,103.07 C125.16,102.13 125.66,101.02 126.03,99.87 C126.13,99.87 126.24,99.84 126.35,99.8 C126.49,99.74 126.59,99.65 126.69,99.55 C126.86,99.37 127,99.13 127.14,98.84 C127.35,98.42 127.54,97.91 127.67,97.4 C127.81,96.89 127.9,96.4 127.9,95.99 C127.9,95.86 127.9,95.74 127.87,95.63 L127.88,95.62 Z M127.17,96.9 C127.05,97.42 126.86,98 126.65,98.45 C126.54,98.68 126.44,98.87 126.34,99.01 C126.29,99.08 126.24,99.13 126.21,99.17 C126.17,99.2 126.15,99.22 126.14,99.22 C126.07,99.25 126.02,99.26 125.97,99.26 C125.94,99.26 125.92,99.26 125.9,99.26 L125.62,99.19 L125.53,99.47 C125.04,101.05 124.31,102.53 123.32,103.6 C122.82,104.13 122.26,104.56 121.63,104.86 C121,105.16 120.29,105.32 119.5,105.33 C119.28,105.33 119.04,105.32 118.81,105.29 C117.33,105.12 116.09,104.46 115.1,103.47 C114.11,102.49 113.39,101.18 112.96,99.72 C112.93,99.62 112.9,99.51 112.87,99.4 L112.75,98.99 L112.4,99.22 C112.4,99.22 112.32,99.26 112.26,99.26 C112.22,99.26 112.16,99.26 112.09,99.23 C112.09,99.23 112.04,99.2 111.98,99.14 C111.88,99.03 111.74,98.82 111.61,98.57 C111.42,98.19 111.23,97.7 111.09,97.23 C110.95,96.76 110.87,96.3 110.87,95.99 C110.87,95.9 110.87,95.83 110.89,95.78 C110.9,95.73 110.92,95.7 110.92,95.69 C111.02,95.54 111.11,95.45 111.17,95.4 C111.24,95.35 111.28,95.35 111.31,95.35 C111.34,95.35 111.37,95.35 111.41,95.38 L111.75,95.57 C111.98,96.29 112.35,96.92 112.83,97.32 C112.62,96.37 112.79,95.48 113.92,94.68 C115.89,97.34 121.18,98.21 124.03,96.58 C124.54,96.29 124.97,95.87 125.4,95.47 C125.67,96.09 125.63,96.74 125.55,97.39 C125.98,96.85 126.31,96.19 126.53,95.48 L126.77,95.35 C126.77,95.35 126.84,95.32 126.86,95.32 C126.89,95.32 126.93,95.32 127,95.37 C127.07,95.42 127.16,95.51 127.25,95.65 C127.25,95.65 127.27,95.69 127.28,95.75 C127.29,95.81 127.3,95.89 127.3,95.99 C127.3,96.23 127.26,96.56 127.18,96.9 L127.17,96.9 Z" id="Shape"></path>
                <g id="Path">
                    <path d="M119.21,90.47 C118.47,90.47 117.76,90.34 117.22,90.1 L111.22,87.48 C111.2,89.24 111.18,91.48 111.18,91.56 C111.18,93.41 114.7,94.91 119.05,94.92 C123.4,94.92 126.93,93.44 126.93,91.59 C126.93,91.53 126.92,89.4 126.91,87.63 L121.18,90.11 C120.64,90.34 119.94,90.47 119.21,90.47 Z"></path>
                    <path d="M117.5,89.65 L106.53,84.85 C105.59,84.44 105.63,83.87 106.6,83.56 L117.45,80.2 C118.43,79.9 120.01,79.9 120.98,80.2 L131.82,83.6 C132.79,83.91 132.83,84.48 131.89,84.89 L120.9,89.65 C119.96,90.05 118.44,90.05 117.51,89.65 L117.5,89.65 Z"></path>
                    <g>
                        <polygon points="132.28 84.5 131.61 92.18 131.37 84.73"></polygon>
                        <polygon points="131.66 92.22 131.72 92.42 131.73 92.2 131.72 92.42 132.17 93.82 132.53 93.82 131.62 90.45 130.71 93.82 131.88 93.82 131.72 92.42"></polygon>
                    </g>
                </g>
            </g>
            <g id="Group">
                <g fill="#293E5D" fill-rule="nonzero">
                    <path d="M166.9,95.62 C166.88,95.51 166.84,95.4 166.76,95.29 L166.49,95.47 L166.76,95.29 C166.63,95.1 166.49,94.96 166.33,94.85 C166.2,94.76 166.06,94.71 165.91,94.69 C165.91,94.56 165.92,94.43 165.92,94.3 C165.92,94.2 165.92,94.11 165.92,94.01 C165.92,93.66 165.91,93.3 165.89,92.95 C165.85,93 165.8,93.06 165.75,93.11 C165.61,93.26 165.44,93.41 165.26,93.55 C163.77,94.69 161,95.42 157.67,95.42 L157.63,95.42 C155.36,95.42 153.21,95.05 151.59,94.39 C150.95,94.13 150.41,93.83 149.99,93.5 C149.88,93.42 149.78,93.33 149.69,93.24 C149.57,93.12 149.45,93 149.36,92.88 C149.35,93.06 149.34,93.23 149.34,93.41 C149.34,93.84 149.37,94.27 149.42,94.71 C149.27,94.73 149.13,94.79 149,94.87 C148.84,94.98 148.7,95.13 148.57,95.32 C148.5,95.42 148.47,95.52 148.44,95.63 C148.42,95.74 148.41,95.85 148.41,95.97 C148.41,96.28 148.47,96.64 148.57,97.02 C148.71,97.59 148.94,98.2 149.2,98.71 C149.33,98.96 149.46,99.19 149.61,99.37 C149.68,99.46 149.76,99.54 149.84,99.62 C149.92,99.69 150.01,99.75 150.12,99.79 C150.25,99.84 150.39,99.86 150.52,99.86 C150.56,99.86 150.59,99.86 150.63,99.86 L150.63,99.86 C151.1,101.42 151.91,102.82 153.03,103.89 C154.15,104.96 155.6,105.69 157.3,105.88 C157.57,105.91 157.84,105.93 158.1,105.93 C159.02,105.93 159.86,105.74 160.61,105.41 C161.73,104.91 162.64,104.07 163.37,103.07 C164.05,102.13 164.57,101.02 164.97,99.87 C165.08,99.87 165.19,99.84 165.3,99.8 C165.45,99.74 165.55,99.65 165.65,99.55 C165.82,99.37 165.97,99.13 166.12,98.84 C166.34,98.42 166.53,97.91 166.68,97.4 C166.83,96.89 166.92,96.4 166.92,95.99 C166.92,95.86 166.92,95.74 166.89,95.63 L166.9,95.62 Z M166.15,96.9 C166.03,97.42 165.82,98 165.6,98.45 C165.49,98.68 165.38,98.87 165.27,99.01 C165.22,99.08 165.17,99.13 165.13,99.17 C165.09,99.2 165.06,99.22 165.06,99.22 C164.99,99.25 164.93,99.26 164.88,99.26 C164.85,99.26 164.83,99.26 164.81,99.26 L164.51,99.19 L164.42,99.47 C163.91,101.05 163.15,102.53 162.11,103.6 C161.59,104.13 161,104.56 160.34,104.86 C159.68,105.16 158.94,105.32 158.11,105.33 C157.88,105.33 157.63,105.32 157.38,105.29 C155.83,105.12 154.53,104.46 153.49,103.47 C152.46,102.49 151.7,101.18 151.25,99.72 C151.22,99.62 151.18,99.51 151.15,99.4 L151.03,98.99 L150.66,99.22 C150.66,99.22 150.57,99.26 150.51,99.26 C150.46,99.26 150.41,99.26 150.34,99.23 C150.34,99.23 150.29,99.2 150.23,99.14 C150.12,99.03 149.98,98.82 149.84,98.57 C149.64,98.19 149.44,97.7 149.29,97.23 C149.15,96.76 149.06,96.3 149.06,95.99 C149.06,95.9 149.06,95.83 149.08,95.78 C149.09,95.73 149.11,95.7 149.11,95.69 C149.21,95.54 149.3,95.45 149.37,95.4 C149.44,95.35 149.48,95.35 149.51,95.35 C149.54,95.35 149.57,95.35 149.62,95.38 L149.98,95.57 C150.23,96.29 150.61,96.92 151.11,97.32 C150.89,96.37 151.07,95.48 152.25,94.68 C154.31,97.34 159.86,98.21 162.84,96.58 C163.37,96.29 163.83,95.87 164.27,95.47 C164.56,96.09 164.51,96.74 164.42,97.39 C164.87,96.85 165.22,96.19 165.44,95.48 L165.7,95.35 C165.7,95.35 165.77,95.32 165.79,95.32 C165.82,95.32 165.86,95.32 165.93,95.37 C166,95.42 166.09,95.51 166.2,95.65 C166.2,95.65 166.22,95.69 166.23,95.75 C166.24,95.81 166.25,95.89 166.25,95.99 C166.25,96.23 166.2,96.56 166.12,96.9 L166.15,96.9 Z" id="Shape"></path>
                    <g id="Path">
                        <path d="M157.8,90.47 C157.06,90.47 156.35,90.34 155.81,90.1 L149.81,87.48 C149.79,89.24 149.77,91.48 149.77,91.56 C149.77,93.41 153.29,94.91 157.64,94.92 C161.99,94.92 165.52,93.44 165.52,91.59 C165.52,91.53 165.51,89.4 165.5,87.63 L159.77,90.11 C159.23,90.34 158.53,90.47 157.8,90.47 Z"></path>
                        <path d="M156.09,89.65 L145.12,84.85 C144.18,84.44 144.22,83.87 145.19,83.56 L156.04,80.2 C157.02,79.9 158.6,79.9 159.57,80.2 L170.41,83.6 C171.38,83.91 171.42,84.48 170.48,84.89 L159.49,89.65 C158.55,90.05 157.03,90.05 156.1,89.65 L156.09,89.65 Z"></path>
                        <g>
                            <polygon points="170.88 84.5 170.2 92.18 169.97 84.73"></polygon>
                            <polygon points="170.25 92.22 170.31 92.42 170.32 92.2 170.31 92.42 170.77 93.82 171.12 93.82 170.21 90.45 169.31 93.82 170.47 93.82 170.31 92.42"></polygon>
                        </g>
                    </g>
                </g>
                <g id="Path">
                    <path d="M153.55,105.31 L149.78,106.87 L145.59,108.9 L145.83,109.08 C147.28,108.16 148.93,107.5 150.72,106.86 C152.39,106.26 153.3,106.23 153.55,105.3 L153.55,105.31 Z"></path>
                    <path d="M169.97,108.79 L168.37,108.1 C168.88,108.35 169.37,108.61 169.84,108.9 L169.97,108.79 Z"></path>
                    <path d="M166.39,107.24 L168.37,108.1 C167.73,107.79 167.07,107.51 166.39,107.24 Z" fill="#293E5D" fill-rule="nonzero"></path>
                    <path d="M169.17,109.5 C168.7,109.21 168.88,108.35 168.37,108.1 L166.39,107.24 C165.87,107.04 165.34,106.84 164.81,106.65 C162.81,105.93 162.06,105.81 162.15,103.83 C161.8,104.06 161.43,104.31 161.05,104.54 C161.2,104.62 161.4,104.6 161.66,104.43 C161.59,105.81 162.13,107.24 163.54,108.08 L158.36,112.47 L152.06,108.22 C153.58,107.53 154.31,106.64 154.1,104.28 C153.77,104.07 153.57,103.92 153.57,103.92 C153.65,104.54 153.64,104.98 153.55,105.31 L153.55,105.31 L153.55,105.31 C153.3,106.24 152.4,106.27 150.72,106.87 C148.93,107.51 147.9,108.64 146.45,109.55 L158.75,117.57 L169.17,109.5 L169.17,109.5 Z" fill="#293E5D" fill-rule="nonzero"></path>
                    <path d="M169.97,110.22 L158.76,119.39 L145.59,110.22 C143.23,111.71 141.68,113.41 140.78,117.38 C141.46,117.58 150,120.08 158.22,120.02 C167.2,119.96 174.51,117.54 175,117.38 C174.22,113.32 172.42,111.74 169.97,110.22 Z" fill="#293E5D" fill-rule="nonzero"></path>
                </g>
            </g>
            <g id="Group" fill="#293E5D" fill-rule="nonzero">
                <path d="M48.83,108.03 C46.83,107.31 46.27,105.81 46.37,103.83 C46.02,104.06 45.65,104.31 45.27,104.54 C45.42,104.62 45.62,104.6 45.88,104.43 C45.81,105.81 46.35,107.24 47.76,108.08 L42.58,112.47 L36.28,108.22 C37.8,107.53 38.53,106.64 38.32,104.28 C37.99,104.07 37.79,103.92 37.79,103.92 C38.08,106.3 37.64,107.22 35.38,108.04 C30.68,109.73 26.45,110.34 25.01,116.75 C25.69,116.95 34.23,119.45 42.45,119.39 C51.43,119.33 58.74,116.91 59.23,116.75 C57.96,110.18 53.5,109.72 48.84,108.05 L48.83,108.03 Z" id="Path"></path>
                <path d="M50.69,95.62 C50.67,95.51 50.63,95.4 50.56,95.29 L50.3,95.47 L50.56,95.29 C50.43,95.1 50.3,94.96 50.15,94.85 C50.03,94.76 49.89,94.71 49.75,94.69 C49.75,94.56 49.76,94.43 49.76,94.3 C49.76,94.2 49.76,94.11 49.76,94.01 C49.76,93.66 49.75,93.3 49.73,92.95 C49.69,93 49.64,93.06 49.6,93.11 C49.46,93.26 49.31,93.41 49.13,93.55 C47.71,94.69 45.06,95.42 41.89,95.42 L41.85,95.42 C39.68,95.42 37.63,95.05 36.09,94.39 C35.48,94.13 34.96,93.83 34.56,93.5 C34.46,93.42 34.36,93.33 34.27,93.24 C34.15,93.12 34.04,93 33.95,92.88 C33.95,93.06 33.93,93.23 33.93,93.41 C33.93,93.84 33.96,94.27 34,94.71 C33.86,94.73 33.72,94.79 33.6,94.87 C33.45,94.98 33.32,95.13 33.19,95.32 C33.13,95.42 33.09,95.52 33.07,95.63 C33.05,95.74 33.04,95.85 33.04,95.97 C33.04,96.28 33.1,96.64 33.19,97.02 C33.33,97.59 33.54,98.2 33.79,98.71 C33.91,98.96 34.04,99.19 34.18,99.37 C34.25,99.46 34.32,99.54 34.4,99.62 C34.48,99.69 34.56,99.75 34.67,99.79 C34.8,99.84 34.93,99.86 35.05,99.86 C35.08,99.86 35.12,99.86 35.15,99.86 L35.15,99.86 C35.6,101.42 36.37,102.82 37.44,103.89 C38.51,104.96 39.89,105.69 41.52,105.88 C41.78,105.91 42.04,105.93 42.29,105.93 C43.17,105.93 43.97,105.74 44.69,105.41 C45.76,104.91 46.63,104.07 47.32,103.07 C47.97,102.13 48.47,101.02 48.84,99.87 C48.94,99.87 49.05,99.84 49.16,99.8 C49.3,99.74 49.4,99.65 49.5,99.55 C49.67,99.37 49.81,99.13 49.95,98.84 C50.16,98.42 50.35,97.91 50.48,97.4 C50.62,96.89 50.71,96.4 50.71,95.99 C50.71,95.86 50.71,95.74 50.68,95.63 L50.69,95.62 Z M49.98,96.9 C49.86,97.42 49.67,98 49.46,98.45 C49.35,98.68 49.25,98.87 49.15,99.01 C49.1,99.08 49.05,99.13 49.02,99.17 C48.98,99.2 48.96,99.22 48.95,99.22 C48.88,99.25 48.83,99.26 48.78,99.26 C48.75,99.26 48.73,99.26 48.71,99.26 L48.43,99.19 L48.34,99.47 C47.85,101.05 47.12,102.53 46.13,103.6 C45.63,104.13 45.07,104.56 44.44,104.86 C43.81,105.16 43.1,105.32 42.31,105.33 C42.09,105.33 41.85,105.32 41.62,105.29 C40.14,105.12 38.9,104.46 37.91,103.47 C36.92,102.49 36.2,101.18 35.77,99.72 C35.74,99.62 35.71,99.51 35.68,99.4 L35.56,98.99 L35.21,99.22 C35.21,99.22 35.13,99.26 35.07,99.26 C35.03,99.26 34.97,99.26 34.9,99.23 C34.9,99.23 34.85,99.2 34.79,99.14 C34.69,99.03 34.55,98.82 34.42,98.57 C34.23,98.19 34.04,97.7 33.9,97.23 C33.76,96.76 33.68,96.3 33.68,95.99 C33.68,95.9 33.68,95.83 33.7,95.78 C33.71,95.73 33.73,95.7 33.73,95.69 C33.83,95.54 33.92,95.45 33.98,95.4 C34.05,95.35 34.09,95.35 34.12,95.35 C34.15,95.35 34.18,95.35 34.22,95.38 L34.56,95.57 C34.79,96.29 35.16,96.92 35.64,97.32 C35.43,96.37 35.6,95.48 36.73,94.68 C38.7,97.34 43.99,98.21 46.84,96.58 C47.35,96.29 47.78,95.87 48.21,95.47 C48.48,96.09 48.44,96.74 48.36,97.39 C48.79,96.85 49.12,96.19 49.34,95.48 L49.58,95.35 C49.58,95.35 49.65,95.32 49.67,95.32 C49.7,95.32 49.74,95.32 49.81,95.37 C49.88,95.42 49.97,95.51 50.06,95.65 C50.06,95.65 50.08,95.69 50.09,95.75 C50.1,95.81 50.11,95.89 50.11,95.99 C50.11,96.23 50.07,96.56 49.99,96.9 L49.98,96.9 Z" id="Shape"></path>
                <g id="Path">
                    <path d="M42.02,90.47 C41.28,90.47 40.57,90.34 40.03,90.1 L34.03,87.48 C34.01,89.24 33.99,91.48 33.99,91.56 C33.99,93.41 37.51,94.91 41.86,94.92 C46.21,94.92 49.74,93.44 49.74,91.59 C49.74,91.53 49.73,89.4 49.72,87.63 L43.99,90.11 C43.45,90.34 42.75,90.47 42.02,90.47 L42.02,90.47 Z"></path>
                    <path d="M40.31,89.65 L29.34,84.85 C28.4,84.44 28.44,83.87 29.41,83.56 L40.26,80.2 C41.24,79.9 42.82,79.9 43.79,80.2 L54.63,83.6 C55.6,83.91 55.64,84.48 54.7,84.89 L43.71,89.65 C42.77,90.05 41.25,90.05 40.32,89.65 L40.31,89.65 Z"></path>
                    <g>
                        <polygon points="55.1 84.5 54.42 92.18 54.19 84.73"></polygon>
                        <polygon points="54.47 92.22 54.53 92.42 54.54 92.2 54.53 92.42 54.99 93.82 55.34 93.82 54.43 90.45 53.53 93.82 54.69 93.82 54.53 92.42"></polygon>
                    </g>
                </g>
            </g>
            <g id="Group">
                <g fill="#293E5D" fill-rule="nonzero">
                    <path d="M89.71,95.62 C89.69,95.51 89.65,95.4 89.57,95.29 L89.3,95.47 L89.57,95.29 C89.44,95.1 89.3,94.96 89.14,94.85 C89.01,94.76 88.87,94.71 88.72,94.69 C88.72,94.56 88.73,94.43 88.73,94.3 C88.73,94.2 88.73,94.11 88.73,94.01 C88.73,93.66 88.72,93.3 88.7,92.95 C88.66,93 88.61,93.06 88.56,93.11 C88.42,93.26 88.25,93.41 88.07,93.55 C86.58,94.69 83.81,95.42 80.48,95.42 L80.44,95.42 C78.17,95.42 76.02,95.05 74.4,94.39 C73.76,94.13 73.22,93.83 72.8,93.5 C72.69,93.42 72.59,93.33 72.5,93.24 C72.38,93.12 72.26,93 72.17,92.88 C72.16,93.06 72.15,93.23 72.15,93.41 C72.15,93.84 72.18,94.27 72.23,94.71 C72.08,94.73 71.94,94.79 71.81,94.87 C71.65,94.98 71.51,95.13 71.38,95.32 C71.31,95.42 71.28,95.52 71.25,95.63 C71.23,95.74 71.22,95.85 71.22,95.97 C71.22,96.28 71.28,96.64 71.38,97.02 C71.52,97.59 71.75,98.2 72.01,98.71 C72.14,98.96 72.27,99.19 72.42,99.37 C72.49,99.46 72.57,99.54 72.65,99.62 C72.73,99.69 72.82,99.75 72.93,99.79 C73.06,99.84 73.2,99.86 73.33,99.86 C73.37,99.86 73.4,99.86 73.44,99.86 L73.44,99.86 C73.91,101.42 74.72,102.82 75.84,103.89 C76.96,104.96 78.41,105.69 80.11,105.88 C80.38,105.91 80.65,105.93 80.91,105.93 C81.83,105.93 82.67,105.74 83.42,105.41 C84.54,104.91 85.45,104.07 86.18,103.07 C86.86,102.13 87.38,101.02 87.78,99.87 C87.89,99.87 88,99.84 88.11,99.8 C88.26,99.74 88.36,99.65 88.46,99.55 C88.63,99.37 88.78,99.13 88.93,98.84 C89.15,98.42 89.34,97.91 89.49,97.4 C89.64,96.89 89.73,96.4 89.73,95.99 C89.73,95.86 89.73,95.74 89.7,95.63 L89.71,95.62 Z M88.96,96.9 C88.84,97.42 88.63,98 88.41,98.45 C88.3,98.68 88.19,98.87 88.08,99.01 C88.03,99.08 87.98,99.13 87.94,99.17 C87.9,99.2 87.87,99.22 87.87,99.22 C87.8,99.25 87.74,99.26 87.69,99.26 C87.66,99.26 87.64,99.26 87.62,99.26 L87.32,99.19 L87.23,99.47 C86.72,101.05 85.96,102.53 84.92,103.6 C84.4,104.13 83.81,104.56 83.15,104.86 C82.49,105.16 81.75,105.32 80.92,105.33 C80.69,105.33 80.44,105.32 80.19,105.29 C78.64,105.12 77.34,104.46 76.3,103.47 C75.27,102.49 74.51,101.18 74.06,99.72 C74.03,99.62 73.99,99.51 73.96,99.4 L73.84,98.99 L73.47,99.22 C73.47,99.22 73.38,99.26 73.32,99.26 C73.27,99.26 73.22,99.26 73.15,99.23 C73.15,99.23 73.1,99.2 73.04,99.14 C72.93,99.03 72.79,98.82 72.65,98.57 C72.45,98.19 72.25,97.7 72.1,97.23 C71.96,96.76 71.87,96.3 71.87,95.99 C71.87,95.9 71.87,95.83 71.89,95.78 C71.9,95.73 71.92,95.7 71.92,95.69 C72.02,95.54 72.11,95.45 72.18,95.4 C72.25,95.35 72.29,95.35 72.32,95.35 C72.35,95.35 72.38,95.35 72.43,95.38 L72.79,95.57 C73.04,96.29 73.42,96.92 73.92,97.32 C73.7,96.37 73.88,95.48 75.06,94.68 C77.12,97.34 82.67,98.21 85.65,96.58 C86.18,96.29 86.64,95.87 87.08,95.47 C87.37,96.09 87.32,96.74 87.23,97.39 C87.68,96.85 88.03,96.19 88.25,95.48 L88.51,95.35 C88.51,95.35 88.58,95.32 88.6,95.32 C88.63,95.32 88.67,95.32 88.74,95.37 C88.81,95.42 88.9,95.51 89.01,95.65 C89.01,95.65 89.03,95.69 89.04,95.75 C89.05,95.81 89.06,95.89 89.06,95.99 C89.06,96.23 89.01,96.56 88.93,96.9 L88.96,96.9 Z" id="Shape"></path>
                    <g id="Path">
                        <path d="M80.61,90.47 C79.87,90.47 79.16,90.34 78.62,90.1 L72.62,87.48 C72.6,89.24 72.58,91.48 72.58,91.56 C72.58,93.41 76.1,94.91 80.45,94.92 C84.8,94.92 88.33,93.44 88.33,91.59 C88.33,91.53 88.32,89.4 88.31,87.63 L82.58,90.11 C82.04,90.34 81.34,90.47 80.61,90.47 Z"></path>
                        <path d="M78.91,89.65 L67.94,84.85 C67,84.44 67.04,83.87 68.01,83.56 L78.86,80.2 C79.84,79.9 81.42,79.9 82.39,80.2 L93.23,83.6 C94.2,83.91 94.24,84.48 93.3,84.89 L82.31,89.65 C81.37,90.05 79.85,90.05 78.92,89.65 L78.91,89.65 Z"></path>
                        <g>
                            <polygon points="93.69 84.5 93.02 92.18 92.78 84.73"></polygon>
                            <polygon points="93.06 92.22 93.13 92.42 93.13 92.2 93.13 92.42 93.58 93.82 93.93 93.82 93.03 90.45 92.12 93.82 93.29 93.82 93.13 92.42"></polygon>
                        </g>
                    </g>
                </g>
                <g id="Path">
                    <path d="M76.36,105.31 L72.59,106.87 L68.4,108.9 L68.64,109.08 C70.09,108.16 71.74,107.5 73.53,106.86 C75.2,106.26 76.11,106.23 76.36,105.3 L76.36,105.31 Z"></path>
                    <path d="M92.78,108.79 L91.18,108.1 C91.69,108.35 92.18,108.61 92.65,108.9 L92.78,108.79 Z"></path>
                    <path d="M89.2,107.24 L91.18,108.1 C90.54,107.79 89.88,107.51 89.2,107.24 Z" fill="#293E5D" fill-rule="nonzero"></path>
                    <path d="M91.98,109.5 C91.51,109.21 91.69,108.35 91.18,108.1 L89.2,107.24 C88.68,107.04 88.15,106.84 87.62,106.65 C85.62,105.93 84.87,105.81 84.96,103.83 C84.61,104.06 84.24,104.31 83.86,104.54 C84.01,104.62 84.21,104.6 84.47,104.43 C84.4,105.81 84.94,107.24 86.35,108.08 L81.17,112.47 L74.87,108.22 C76.39,107.53 77.12,106.64 76.91,104.28 C76.58,104.07 76.38,103.92 76.38,103.92 C76.46,104.54 76.45,104.98 76.36,105.31 L76.36,105.31 L76.36,105.31 C76.11,106.24 75.21,106.27 73.53,106.87 C71.74,107.51 70.71,108.64 69.26,109.55 L81.56,117.57 L91.98,109.5 L91.98,109.5 Z" fill="#293E5D" fill-rule="nonzero"></path>
                    <path d="M92.78,110.22 L81.57,119.39 L68.4,110.22 C66.04,111.71 64.49,113.41 63.59,117.38 C64.27,117.58 72.81,120.08 81.03,120.02 C90.01,119.96 97.32,117.54 97.81,117.38 C97.03,113.32 95.23,111.74 92.78,110.22 L92.78,110.22 Z" fill="#293E5D" fill-rule="nonzero"></path>
                </g>
            </g>
        </g>
    </g>
</svg>