<?xml version="1.0" encoding="UTF-8"?>
<svg width="161px" height="100px" viewBox="0 0 161 100" version="1.1" xmlns="http://www.w3.org/2000/svg" xmlns:xlink="http://www.w3.org/1999/xlink">
    <title>Layer_1</title>
    <g id="Icons" stroke="none" stroke-width="1" fill="none" fill-rule="evenodd">
        <g id="Layer_1" transform="translate(-20, -50)" fill="#293E5D" fill-rule="nonzero">
            <path d="M163.9,94.29 L164.02,93.79 L164.14,93.86 L164.26,93.36 L164.02,93.15 L164.14,93.05 L164.19,92.95 L162.43,93.36 L162.29,93.1 L161.88,91.41 L161.07,88.6 L155.39,89.82 L150.38,90.77 L150.71,92.77 L150.92,92.51 L151.16,92.3 L151.3,92.06 L151.54,91.8 L151.64,91.56 L151.85,91.46 L152.09,91.51 L152.42,91.01 L152.44,90.77 L152.51,90.75 L152.77,90.99 L153.01,91.04 L153.39,90.99 L153.44,90.75 L153.65,90.49 L153.91,90.49 L154.03,90.23 L154.22,90.13 L154.48,90.23 L154.72,90.4 L155.22,90.35 L155.24,90.37 L155.17,90.63 L155.41,90.68 L155.43,90.94 L155.64,91.15 L155.69,91.29 L156.21,91.29 L156.45,91.46 L156.57,91.7 L156.52,91.94 L156.78,92.11 L157.11,92.09 L157.37,92.21 L157.56,92.35 L157.77,92.4 L158.08,92.23 L158.37,92.42 L158.35,92.63 L158.21,92.84 L158.26,93.15 L158.07,93.39 L158.05,93.63 L157.91,93.87 L157.84,93.92 L157.77,94.16 L157.82,94.42 L158.03,94.66 L158.22,94.4 L158.24,94.23 L158.48,94.13 L158.62,94.39 L158.81,94.63 L159.07,94.8 L159.07,94.56 L159.12,94.42 L159.22,94.66 L159.46,94.9 L159.72,94.8 L159.96,94.82 L160.17,95.06 L160.24,95.01 L160.5,95.03 L160.74,95.22 L160.81,95 L160.5,94.52 L160.26,94.43 L160,94.22 L159.64,94.03 L159.47,93.79 L159.3,93.29 L159.3,93.15 L159.37,93.39 L159.63,93.89 L159.89,94.06 L160.13,94.13 L160.25,94.3 L160.39,94.06 L159.91,93.58 L159.77,93.03 L159.63,92.79 L159.7,92.55 L159.6,92.31 L159.62,91.86 L159.43,91.72 L159.48,91.67 L159.74,91.72 L159.84,91.7 L159.6,91.56 L159.65,91.3 L159.05,90.94 L159.31,90.87 L159.38,90.92 L159.62,90.92 L159.38,90.71 L159.62,90.76 L159.64,90.45 L159.59,90.31 L159.66,90.17 L159.87,90.43 L159.87,90.05 L159.97,89.91 L159.99,90.15 L160.23,90.08 L160.42,89.84 L160.25,89.58 L160.27,89.44 L160.51,89.39 L160.65,89.32 L160.6,89.56 L160.84,89.37 L160.91,89.47 L160.58,89.97 L160.91,89.99 L160.67,90.11 L160.43,90.16 L160.22,90.4 L160.1,91.14 L160.27,91.4 L160.37,91.16 L160.47,91.18 L160.47,91.42 L160.52,91.52 L160.26,91.73 L160.05,91.78 L160.05,92.28 L160.1,92.04 L160.31,91.9 L160.38,91.8 L160.55,92.04 L160.79,92.06 L160.62,92.27 L160.74,92.51 L160.5,92.32 L160.26,92.42 L160.21,92.68 L160.33,92.92 L160.38,92.66 L160.62,92.61 L160.76,92.71 L160.86,92.95 L161.17,93.05 L161.41,92.93 L161.24,93.17 L160.62,93.12 L160.55,93.38 L160.81,93.24 L160.69,93.72 L160.69,93.98 L160.93,94.24 L160.86,94 L161.1,94.12 L161.34,94.31 L161.55,94.41 L161.48,94.15 L161.58,93.91 L161.58,94.15 L161.7,94.27 L161.91,93.77 L161.91,94.25 L162.08,94.32 L161.87,94.58 L161.92,94.82 L162.16,94.68 L162.26,94.85 L162.5,94.75 L162.4,94.99 L162.23,95.25 L162.23,95.42 L162.71,95.25 L162.92,95.25 L163.16,95.01 L163.68,94.82 L163.66,94.58 L163.85,94.34 L163.9,94.29 Z M164.21,93.86 L164.09,94.65 L163.97,94.89 L163.95,95.13 L163.83,95.37 L164,95.13 L164.14,94.63 L164.21,94.37 L164.31,93.61 L164.21,93.87 L164.21,93.86 Z" id="Shape"></path>
            <g id="Group">
                <polygon id="Path" points="163.21 94.96 162.97 95.2 162.76 95.43 163 95.6 162.95 95.86 162.71 95.86 162.69 96.36 162.5 96.79 162.47 97.29 162.52 97.56 162.45 97.63 162.47 98.13 162.74 98.49 162.95 98.01 162.9 97.56 162.95 97.29 163.07 97.06 163.12 96.82 163.36 96.98 163.38 96.96 163.45 96.7 163.43 96.22 163.52 95.72 163.69 95.36 163.67 95.12 163.74 94.77"></polygon>
                <path d="M179.74,62.6 L179.81,62.7 L179.62,62.94 L179.38,62.73 L179.69,62.32 L179.24,61.84 L179.22,61.82 L179.2,61.8 L179.03,61.75 L178.84,61.75 L178.65,61.96 L178.39,61.75 L178.25,61.49 L178.25,61.23 L178.06,60.99 L177.99,60.75 L178.06,60.49 L177.89,60.37 L177.65,60.47 L177.39,60.47 L177.13,60.3 L176.89,60.32 L176.82,60.08 L176.84,59.87 L176.7,59.63 L176.7,59.39 L176.39,58.56 L175.32,55.29 L175.11,55.24 L174.61,54.88 L174.11,54.67 L173.85,54.6 L173.56,54.72 L173.37,54.98 L173.13,55.1 L172.92,55.36 L172.68,55.46 L172.44,55.7 L172.15,55.63 L171.86,55.42 L171.72,54.92 L171.48,54.9 L171.24,54.95 L170.1,58.34 L170.27,59.37 L170.05,59.73 L169.93,60.47 L170.07,60.71 L170.07,61.21 L170.28,61.45 L169.99,61.97 L170.11,62.16 L169.7,62.66 L169.56,62.9 L169.51,63.16 L169.46,63.21 L169.72,63.71 L169.48,63.61 L169.41,63.63 L169.36,63.87 L169.41,64.11 L169.17,64.21 L168.93,64.09 L168.74,64.33 L168.5,64.59 L168.26,64.52 L168.02,64.71 L168.02,64.95 L167.9,65.45 L167.95,65.69 L167.93,65.71 L164,66.74 L163.05,67.03 L161.17,67.55 L159.43,67.93 L159.19,67.93 L158.69,68.19 L157.81,69.14 L157.02,70.45 L157.04,70.76 L156.66,71.26 L156.56,71.45 L156.3,71.66 L155.85,72.14 L155.8,72.38 L156.04,72.57 L156.09,72.71 L156.04,72.45 L156.3,72.33 L156.32,72.69 L156.65,72.52 L156.51,72.76 L156.46,73 L156.22,73.1 L156.46,73.6 L156.48,73.77 L156.58,74.01 L156.6,74.27 L156.43,74.51 L156.17,74.51 L155.91,74.8 L155.6,75.04 L155.46,75.3 L155.25,75.54 L155.01,75.68 L154.84,75.92 L154.65,75.85 L154.15,75.87 L153.65,75.99 L153.15,76.28 L152.51,76.02 L151.51,76.07 L150.56,76.26 L150.04,76.47 L149.8,76.61 L149.54,76.68 L149.3,76.85 L149.04,76.97 L149.04,76.99 L149.18,77.44 L149.16,77.63 L149.68,77.73 L149.7,77.83 L149.58,78 L149.89,78.55 L149.89,78.81 L149.46,79.29 L149.34,79.55 L149.15,79.79 L148.84,80.1 L148.44,80.6 L147.89,81.15 L147.79,81.22 L146.96,81.89 L146.94,81.82 L146.7,82.08 L146.2,82.49 L145.87,82.68 L144.42,83.54 L143.92,83.9 L143.68,84.09 L143.47,84.33 L143.21,84.71 L142.73,85.14 L142.23,85.21 L141.99,85.16 L141.47,85.4 L141.23,85.57 L140.97,85.67 L140.73,85.86 L140.49,85.81 L140.2,85.67 L139.7,85.67 L139.46,85.88 L139.22,85.86 L139.46,85.62 L139.84,85.52 L139.62,85.28 L139.38,85.52 L139.12,85.47 L138.88,85.28 L138.52,85.21 L138.28,85.09 L137.76,85.02 L137.69,84.92 L137.86,84.42 L138.29,83.68 L138.31,82.94 L138.38,82.7 L138.45,82.58 L138.47,82.53 L138.76,82.32 L138.95,82.08 L138.93,81.56 L139.1,81.32 L139.15,81.11 L139.41,80.97 L139.53,81.14 L139.6,81.38 L139.55,81.45 L139.72,81.38 L139.86,81.14 L139.91,80.62 L139.84,80.38 L139.89,79.88 L139.96,79.78 L139.94,79.59 L139.92,79.59 L139.68,79.18 L139.56,78.89 L139.42,78.37 L139.28,77.87 L139.14,77.63 L138.88,76.65 L138.59,76.15 L138.35,75.91 L138.11,75.81 L137.85,75.76 L137.47,76.05 L137.23,76.15 L136.97,76.39 L136.73,76.49 L136.78,76.73 L136.66,77.16 L136.42,77.35 L136.3,77.59 L136.11,77.85 L135.87,77.75 L135.61,77.73 L135.3,77.44 L135.28,77.06 L135.33,76.56 L135.59,76.37 L135.85,76.32 L136.09,75.94 L136.11,75.44 L136.18,75.2 L136.42,75.06 L136.66,74.82 L136.56,74.03 L136.58,73.53 L136.46,73.03 L136.34,72.79 L136.08,72.62 L135.94,72.38 L136.04,72.07 L136.28,72.02 L136.28,71.78 L136.14,71.68 L135.95,71.44 L135.88,71.2 L135.62,71.03 L135.38,71.03 L135.12,70.91 L134.6,70.77 L134.36,70.65 L134.1,70.65 L133.86,70.58 L133.72,70.34 L133.48,70.2 L133.24,70.13 L133.03,70.18 L132.79,70.18 L132.55,69.99 L132.31,69.92 L132.05,69.78 L131.84,69.97 L131.6,70.09 L131.46,70.35 L131.22,70.64 L131.22,70.88 L131.34,71.14 L131.58,71.28 L131.6,71.49 L131.27,71.49 L131.01,71.63 L130.77,71.82 L130.6,72.06 L130.72,72.82 L130.72,73.11 L130.67,73.35 L130.6,73.61 L130.39,73.85 L130.46,73.61 L130.46,73.11 L130.36,73.13 L130.29,73.63 L130.12,73.87 L130.07,73.63 L130.17,73.39 L130.05,73.13 L130.12,72.96 L130.19,72.27 L129.95,72.46 L129.85,72.7 L129.68,72.94 L129.63,73.18 L129.44,73.42 L129.2,73.35 L128.89,73.8 L128.91,74.04 L128.7,74.28 L128.46,74.47 L128.6,74.95 L128.55,75.38 L128.6,75.62 L128.58,75.88 L128.29,76.62 L128.08,76.88 L128.06,77.12 L128.2,77.36 L128.39,78.1 L128.22,78.36 L128.12,78.6 L128.17,78.84 L128.86,80.15 L129.1,80.05 L128.96,80.29 L129.29,81.05 L129.43,82.05 L129.43,82.79 L129.29,83.7 L129.19,83.96 L128.93,84.46 L128.72,85.2 L128.6,85.44 L128.43,85.7 L128.19,85.94 L128.09,86.01 L127.59,86.37 L127.09,86.63 L126.83,86.7 L126.5,86.63 L126.17,86.39 L125.91,86.01 L125.84,85.77 L125.7,85.51 L125.63,85.13 L125.39,84.92 L125.13,84.44 L125.08,84.2 L125.1,83.7 L125.08,83.46 L125.01,82.94 L125.06,82.7 L125.06,82.44 L124.99,82.2 L124.82,81.96 L124.82,81.72 L124.61,81.46 L124.68,81.22 L124.51,80.67 L124.56,80.19 L124.73,79.67 L124.71,79.43 L124.76,79.17 L124.9,78.91 L124.9,78.65 L124.78,78.13 L124.78,77.89 L124.9,77.39 L125.02,77.13 L125.26,76.94 L125.28,76.82 L125.09,76.32 L125.16,76.06 L125.21,75.58 L125.47,74.86 L125.52,74.62 L125.4,74.36 L125.18,74.12 L124.92,74.31 L124.68,74.41 L124.54,74.65 L124.49,74.89 L124.32,75.15 L124.08,75.34 L123.96,75.58 L123.72,75.56 L123.67,75.32 L123.74,75.01 L123.93,74.51 L124.07,74.25 L124.09,74.01 L124.35,73.91 L124.59,73.74 L124.59,73.57 L124.66,73.33 L124.64,73.09 L124.9,72.68 L125.26,71.94 L125.4,71.44 L125.54,71.18 L125.75,70.92 L125.85,70.44 L126.06,70.08 L125.96,70.32 L126.06,70.58 L126.2,70.82 L126.44,70.61 L126.49,70.47 L126.73,70.21 L126.97,70.11 L127.21,70.16 L127.19,70.42 L126.95,70.61 L126.83,70.92 L127.07,70.94 L127.24,70.68 L127.48,70.44 L127.74,70.25 L127.76,69.96 L127.9,69.72 L128.09,69.6 L128.35,69.55 L128.59,69.57 L129.07,69.43 L129.33,69.43 L129.57,69.29 L129.78,68.91 L130.26,68.84 L130.52,68.91 L130.76,68.89 L131.26,69.06 L131.78,69.49 L132.02,69.59 L132.02,69.14 L132.09,68.88 L132.33,68.83 L132.57,68.97 L132.81,68.87 L133.98,68.89 L134.22,68.82 L134.08,68.58 L133.82,68.46 L133.8,68.22 L133.56,68.1 L133.49,68.1 L133.25,67.93 L133.23,67.67 L133.16,67.43 L133.02,67.17 L132.8,66.93 L132.61,66.98 L132.59,67 L132.45,67.21 L132.21,67.33 L132.04,67.09 L131.54,67.28 L131.06,67.21 L130.94,67 L130.92,66.12 L130.44,66.19 L130.2,66.29 L129.72,66.58 L129.48,66.65 L128.48,66.72 L128.24,66.82 L127.81,66.92 L127.57,67.16 L127.07,67.47 L126.69,67.97 L126.48,67.87 L126.24,67.89 L125.98,67.84 L125.74,67.63 L125.17,67.84 L124.93,67.86 L124.67,67.74 L124.53,67.48 L124.08,67 L123.94,66.74 L123.7,66.69 L123.46,66.48 L123.2,66.43 L122.7,66.43 L122.46,66.52 L122.29,66.76 L122.17,66.83 L122.38,66.33 L122.14,66.57 L121.9,66.71 L121.83,66.95 L121.73,67.05 L121.66,66.81 L121.71,66.31 L121.3,65.81 L121.13,65.71 L120.96,65.47 L120.44,66.07 L120.3,66.31 L119.8,66.52 L119.54,66.78 L119.3,66.95 L119.06,67.05 L118.8,67.07 L118.56,67.14 L118.3,67.14 L118.04,67.28 L117.59,67.78 L116.85,68.11 L116.61,68.25 L116.18,68.2 L115.94,68.08 L115.68,68.03 L115.44,68.17 L115.18,68.17 L115.28,68 L115.35,67.76 L115.35,67.52 L115.52,67.28 L115.57,67.02 L115.31,66.83 L115,66.97 L114.76,67.16 L114.5,67.3 L114.24,67.37 L113.76,67.66 L112.78,68.02 L112.54,68.07 L112.28,68.02 L112.04,67.78 L112.16,67.59 L112.9,66.99 L113.14,66.78 L113.28,66.59 L113.54,66.38 L114.18,65.64 L114.44,65.23 L115.37,64.32 L116.13,63.87 L116.61,63.66 L116.87,63.59 L117.68,63.16 L117.92,63.02 L118.16,62.78 L118.4,62.61 L117.8,62.61 L117.54,62.73 L117.3,62.61 L117.28,62.54 L117.04,62.3 L116.54,62.35 L116.28,62.42 L115.78,62.4 L115.52,62.47 L115.28,62.47 L115.21,62.23 L115.07,62.16 L115.09,61.99 L114.83,62.01 L114.33,62.34 L114.09,62.58 L113.59,62.79 L113.28,62.77 L112.83,62.53 L112.78,62.34 L112.06,62.03 L111.96,61.79 L111.7,61.72 L111.32,61.77 L111.25,62.15 L110.99,62.03 L110.85,61.86 L110.83,61.62 L110.59,61.41 L110.33,61.43 L110.4,61.17 L109.4,60.76 L108.85,60.76 L108.61,60.78 L108.54,60.8 L108.47,60.85 L108.3,60.87 L108.16,61.11 L107.54,61.25 L107.28,61.11 L107.21,60.87 L106.14,60.75 L105.9,60.58 L105.4,60.58 L105.16,60.48 L104.95,60.24 L104.97,59.88 L104.76,59.16 L104.62,58.4 L104.41,58.16 L103.93,58.11 L103.76,58.04 L103.78,59.23 L103.73,59.47 L101.77,59.52 L96.17,59.52 L91,59.4 L84.94,59.14 L80.91,58.88 L79.05,58.74 L74.07,58.29 L70.09,57.84 L66.35,57.39 L60.58,56.56 L54,55.44 L50.26,54.7 L49.69,54.58 L47.76,54.17 L45.33,53.67 L40.8,52.62 L36.89,51.64 L33.43,50.71 L33.24,50.88 L33.26,51.12 L33.38,51.36 L33.38,51.46 L33.57,51.72 L33.81,51.84 L33.76,52.08 L33.78,52.32 L33.73,52.56 L33.49,52.44 L33.61,52.68 L33.54,52.94 L33.28,52.8 L33.11,52.75 L33.11,53.01 L33.35,52.99 L33.42,53.23 L33.63,53.54 L33.56,53.75 L33.58,53.85 L33.53,54.35 L33.67,54.59 L33.69,54.85 L33.43,55.09 L33.14,55.42 L33.16,55.66 L32.92,55.83 L33.09,56.09 L32.88,56.33 L32.93,56.85 L32.69,57.09 L32.21,57.28 L32.07,57.45 L31.83,57.64 L31.59,57.66 L31.45,57.4 L31.19,57.52 L31.14,57.78 L31,57.59 L31.02,57.38 L30.78,57.31 L31.02,57.29 L31.21,57.05 L31.71,56.69 L31.66,56.95 L31.54,57.19 L31.56,57.43 L31.66,57.33 L31.71,57.07 L31.88,56.83 L32.12,56.78 L31.91,57.04 L32.17,57.21 L32.58,56.3 L32.46,56.06 L32.22,56.11 L32.22,55.85 L32.46,55.92 L32.48,55.68 L32.43,55.42 L32.69,55.47 L32.88,55.33 L32.9,55.07 L32.78,54.83 L32.21,55.35 L32,55.61 L31.5,55.75 L31,56.23 L31.05,56.49 L31.29,56.44 L31.55,56.46 L31.05,56.56 L30.83,56.35 L31,56.11 L31.48,55.68 L31.72,55.54 L32.17,54.99 L32.1,55.23 L32.1,55.47 L32.22,55.23 L32.48,54.99 L32.58,54.68 L32.44,54.06 L32.51,53.8 L32.25,53.99 L32.23,54.25 L32.06,53.87 L31.8,53.97 L31.78,53.71 L31.71,53.47 L31.47,53.54 L31.21,53.56 L30.92,53.37 L30.42,53.25 L30.16,53.08 L29.68,52.94 L29.32,52.73 L29.15,52.49 L28.89,52.35 L28.63,52.14 L28.18,51.69 L27.92,51.55 L27.99,51.88 L27.92,51.93 L27.85,52.19 L27.68,52.45 L27.7,52.69 L27.63,52.93 L27.63,53.19 L27.68,53.43 L27.87,53.72 L27.99,54.22 L28.01,54.48 L27.89,55.48 L27.99,56.1 L27.92,56.84 L27.82,57.1 L27.92,57.17 L27.99,56.93 L28.23,57.1 L28.47,57.36 L28.71,57.46 L28.3,57.51 L27.92,57.7 L27.87,57.44 L27.77,57.94 L27.84,58.2 L27.89,58.18 L28.39,58.35 L28.49,58.59 L28.42,58.59 L28.16,58.45 L27.99,58.69 L28.06,58.93 L27.87,59.19 L28.04,59.43 L28.02,59.53 L27.88,59.32 L27.64,59.34 L27.74,58.86 L27.69,58.6 L27.38,59.86 L27.62,59.84 L27.81,60.1 L28.33,59.98 L28.47,60.22 L28.71,60.27 L28.78,60.29 L28.9,60.36 L28.97,60.38 L29.04,60.62 L29.28,60.86 L29.52,60.84 L29.28,60.96 L29.02,60.84 L29,60.82 L28.86,60.61 L28.62,60.42 L28.36,60.49 L28.12,60.47 L28.05,60.35 L27.86,60.33 L27.84,60.4 L27.94,60.54 L27.87,60.52 L27.85,60.45 L27.61,60.24 L27.51,60.5 L27.41,61 L27.2,61.24 L27.22,61.29 L27.17,61.53 L27.05,61.77 L27.07,62.03 L27.17,62.2 L26.96,62.44 L26.84,62.7 L27.01,62.94 L26.77,62.87 L26.75,63.06 L26.63,63.3 L26.61,63.56 L26.49,63.82 L26.44,64.08 L26.18,64.46 L26.11,64.72 L25.73,65.44 L25.63,65.92 L25.42,66.42 L25.47,66.68 L25.45,66.78 L25.28,66.9 L25.14,67.14 L25,67.64 L24.5,68.9 L24.36,69.16 L24.29,69.4 L24.55,69.3 L24.57,69.42 L24.31,69.42 L24.1,69.63 L23.81,70.11 L23.71,70.37 L23.81,70.39 L23.83,70.37 L23.83,70.39 L23.81,70.39 L23.57,70.53 L23.47,70.79 L23.37,70.55 L22.89,71.55 L22.41,72.17 L22.41,72.67 L22.53,73.17 L22.46,73.43 L22.27,73.69 L22.22,73.93 L22.08,74.24 L22.13,75.22 L22.37,75.72 L22.2,76.24 L22.06,76.48 L22.23,76.77 L22.21,77.01 L22.26,77.51 L22.21,77.56 L22.14,78.04 L21.54,79.11 L21.59,79.35 L21.49,79.61 L21.32,79.85 L21.2,80.11 L21.27,80.18 L21.03,80.35 L20.77,80.47 L20.63,80.71 L20.39,80.97 L20.17,81.47 L20.17,81.88 L20.1,82.14 L20.62,82.88 L20.62,83.12 L20.79,83.36 L21.03,84.12 L21.01,84.36 L21.06,84.62 L21.01,84.86 L21.01,85.17 L20.84,85.41 L20.63,85.89 L20.68,86.89 L20.63,87.27 L20.42,87.51 L20.63,88.01 L20.92,88.51 L21.18,89.25 L21.35,89.51 L21.56,89.75 L21.68,89.99 L21.73,90.25 L21.71,90.49 L21.76,90.39 L21.78,90.41 L21.99,90.91 L22.06,91.41 L21.89,90.91 L21.84,91.17 L21.67,91.43 L21.57,91.69 L21.83,91.52 L22.09,91.81 L22.16,92.05 L22.42,92.22 L22.56,92.48 L22.8,92.72 L23.01,92.58 L22.89,92.32 L23.08,92.15 L23.03,91.89 L23.15,91.63 L23.41,91.54 L23.65,91.75 L23.84,92.01 L24.08,92.15 L24.29,92.03 L24.53,92.05 L24.74,92.29 L25.22,92.31 L25.46,92.12 L25.39,92.29 L25.15,92.46 L25.39,92.46 L25.65,92.34 L25.67,92.36 L25.17,92.55 L24.43,92.19 L24.05,92.21 L23.81,92.02 L23.6,92.11 L23.36,92.11 L23.22,92.37 L23.39,92.61 L23.32,92.85 L23.42,93.11 L23.56,93.21 L23.63,93.69 L23.63,94.17 L23.82,94.43 L23.58,94.38 L23.34,94.09 L23.2,93.83 L22.96,93.66 L22.98,93.42 L23.12,93.18 L23.1,92.92 L23.05,92.82 L22.79,92.82 L22.67,93.04 L22.65,93.28 L22.46,93.78 L22.6,94.02 L22.62,94.52 L22.55,94.76 L22.45,94.93 L22.45,95.17 L22.55,95.41 L22.96,96.15 L23.22,96.36 L23.7,96.41 L23.84,96.91 L23.84,97.43 L23.72,97.38 L23.62,97.62 L23.12,97.86 L23.12,98.38 L23.05,98.88 L23.17,99.14 L23.58,99.64 L23.7,100.14 L23.91,100.33 L23.96,100.85 L24.22,101.33 L24.24,101.59 L24.33,101.83 L24.64,102.09 L24.78,102.59 L25.23,103.07 L25.28,103.33 L25.09,103.5 L25.04,103.76 L25.23,104 L25.49,104.1 L25.68,104.36 L25.66,104.6 L25.45,104.96 L25.45,105.46 L25.31,105.7 L25.36,105.96 L25.19,106.22 L25.17,106.48 L25.34,106.53 L25.51,106.79 L25.72,107.03 L26.46,107.15 L26.7,107.25 L26.96,107.3 L27.44,107.63 L27.68,107.73 L28.18,107.78 L28.59,108.09 L28.78,108.33 L29.02,108.54 L29.09,109.04 L29.64,109.49 L30.14,109.8 L31.12,109.97 L31.17,110.02 L31.36,110.52 L31.38,110.76 L31.31,111 L31.33,111.24 L31.59,111.41 L31.71,111.22 L31.95,111.27 L32.21,111.41 L32.45,111.82 L32.64,112.06 L32.9,112.28 L33.71,113.33 L33.95,113.83 L34.12,114.4 L34.17,114.9 L34.12,115.4 L34,115.88 L34,116.14 L34.07,115.95 L34.33,116.12 L34.23,116.36 L34.11,116.1 L34.21,116.36 L34.28,116.72 L34.4,116.74 L42.05,117.53 L41.69,118.03 L41.59,118.29 L42.35,118.74 L48.76,122.44 L52.96,124.8 L57.85,125.49 L59.47,125.68 L62,125.99 L62.24,125.89 L62.38,124.6 L62.52,124.29 L67.79,124.86 L67.81,124.86 L68.02,124.98 L68.04,125 L68.16,125.02 L68.4,125.21 L68.54,125.45 L68.59,125.69 L68.8,126.17 L69.04,126.36 L69.52,126.62 L69.76,126.86 L70.24,127.5 L70.72,127.98 L70.84,128.24 L71.27,128.74 L71.53,128.93 L71.77,129.03 L72.27,129.48 L72.51,129.6 L72.56,129.84 L72.75,129.96 L72.85,130.2 L72.92,130.7 L73.04,130.8 L73.25,131.3 L73.39,131.54 L73.39,131.78 L73.32,132.04 L73.34,132.52 L73.86,133.76 L74.19,134.09 L74.43,134.19 L74.67,134.36 L74.84,134.6 L75.41,135.13 L75.65,135.23 L76.15,135.35 L76.27,135.61 L76.94,135.92 L77.18,136.18 L77.42,136.37 L77.66,136.39 L77.68,136.48 L77.92,136.53 L78.33,136.53 L78.4,136.32 L78.66,136.15 L78.8,135.91 L79.04,135.81 L79.14,135.57 L79.19,135.31 L79.33,135.21 L79.74,134.21 L79.95,133.9 L80.07,133.78 L80.31,133.76 L80.57,133.64 L80.81,133.66 L81.05,133.59 L81.19,133.35 L81.43,133.35 L81.86,133.59 L82.1,133.66 L82.36,133.61 L82.6,133.66 L82.86,133.66 L83.53,133.85 L83.79,133.68 L84.03,133.78 L84.27,133.97 L84.36,134.21 L84.55,134.42 L84.6,134.61 L84.84,134.56 L84.94,134.8 L85.2,135.01 L85.44,135.13 L85.46,135.34 L86.18,135.89 L86.47,136.39 L86.66,136.63 L86.8,137.27 L87.09,137.8 L87.19,138.04 L87.19,138.13 L87.36,138.35 L87.48,138.59 L87.69,138.85 L87.62,138.92 L87.74,139.42 L87.98,139.92 L88.24,140.14 L88.48,140.24 L88.69,140.6 L88.76,140.84 L88.97,141.01 L89.16,141.27 L89.21,141.51 L89.69,142.18 L90.1,142.3 L90.34,142.49 L90.41,142.61 L90.39,142.85 L90.49,143.09 L90.47,143.35 L90.35,143.61 L90.61,143.8 L90.61,144.06 L90.56,144.3 L90.58,144.54 L90.77,144.78 L91.03,145.26 L91.22,145.52 L91.41,146.04 L91.48,146.56 L91.74,146.8 L91.69,147.04 L91.83,147.11 L92.33,147.16 L92.57,147.28 L92.71,147.26 L92.95,147.43 L93.12,147.67 L93.26,147.77 L93.52,147.72 L93.76,147.84 L94.02,147.86 L94.5,148.31 L94.71,148.4 L95.71,148.5 L96.28,148.48 L96.52,148.6 L96.76,148.65 L97.24,149.13 L97.29,149.13 L97.55,149.32 L97.79,149.3 L97.79,149.06 L98.41,148.89 L98.53,148.87 L98.48,148.58 L98.19,148.82 L98.26,148.56 L98.07,148.82 L97.88,148.49 L98.14,148.49 L97.97,148.25 L97.9,147.75 L97.49,146.92 L97.51,146.66 L97.32,145.8 L97.08,145.56 L97.08,145.32 L97.32,145.42 L97.06,145.11 L97.08,144.87 L97.32,144.87 L97.34,144.61 L97.46,144.37 L97.46,144.11 L97.53,143.87 L97.05,143.99 L96.55,143.85 L96.6,143.59 L96.46,143.45 L96.34,143.19 L96.58,143.38 L96.77,143.62 L97.01,143.6 L97.18,143.53 L97.42,143.6 L97.18,143.79 L97.54,143.67 L98.04,142.43 L97.97,142.19 L97.85,142.12 L97.66,141.88 L97.66,141.69 L97.42,141.76 L97.28,141.66 L97.54,141.59 L98.06,141.54 L98.3,141.78 L98.78,141.11 L98.92,140.85 L98.92,140.64 L98.68,140.81 L98.56,141.05 L98.32,140.84 L98.46,140.6 L98.39,140.48 L98.65,140.5 L98.89,140.38 L98.96,140.57 L99.2,140.33 L99.27,140.09 L99.29,140.33 L99.19,140.57 L99.43,140.45 L99.72,140.12 L99.72,139.86 L99.6,139.62 L99.72,139.36 L99.67,139.26 L100,139.74 L100.24,139.84 L100.98,139.43 L101.03,139.33 L100.79,139.19 L100.53,139.26 L100.67,139.02 L100.43,138.85 L100.17,138.35 L100.43,138.33 L100.48,138.5 L100.86,138.81 L101.1,138.71 L100.89,138.23 L100.94,138.21 L101.08,138.47 L101.32,138.59 L101.58,138.42 L101.68,138.66 L101.92,138.64 L101.78,138.81 L102.28,138.6 L102.21,138.84 L101.71,139.13 L101.69,139.2 L102.43,138.8 L102.93,138.61 L103.22,138.42 L102.96,138.47 L102.72,138.64 L102.67,138.4 L103.17,138.23 L103.65,138.18 L104.13,137.85 L104.49,137.68 L104.73,137.49 L105.21,137.04 L105.26,136.61 L105.67,136.32 L105.84,136.08 L106.08,135.96 L106.2,135.65 L105.94,135.56 L105.94,135.2 L105.7,135.01 L105.72,134.77 L105.6,134.51 L105.72,134.41 L106.08,134.62 L106.22,134.36 L106.46,134.17 L106.7,134.22 L106.7,134.63 L106.51,135.13 L107.03,134.99 L107.51,134.99 L107.46,135.06 L107.2,135.11 L106.65,135.49 L106.51,135.75 L106.58,135.75 L106.84,135.49 L107.08,135.35 L107.34,135.26 L108.06,134.88 L108.85,134.52 L109.59,134.45 L109.23,133.93 L109.52,133.43 L109.73,133.24 L109.75,133.24 L109.85,133.5 L109.75,133.76 L109.51,133.88 L109.46,134.14 L109.72,134.33 L109.96,134.16 L111.13,134.04 L111.23,133.9 L110.99,133.73 L111.23,133.54 L111.28,132.92 L111.5,133.16 L111.59,133.4 L111.59,133.64 L111.35,133.76 L111.28,133.88 L111.52,133.98 L111.78,134 L112.28,134.12 L112.78,134.31 L113.04,134.45 L113.47,134.59 L114.71,134.78 L114.95,134.76 L115.31,134.57 L115.55,134.57 L115.38,134.19 L115.14,134 L115.4,133.98 L115.5,133.88 L115.76,133.76 L116.26,133.59 L116.21,133.85 L116.23,133.99 L116.47,133.92 L116.97,133.87 L117.04,134.13 L117.28,134.25 L117.38,134.61 L117.64,134.61 L118.12,134.78 L118.26,134.54 L118.33,134.52 L118.33,134.33 L118.38,134.57 L118.33,134.59 L118.31,134.85 L118.48,135.09 L118.74,135.26 L118.86,135.52 L118.79,135.76 L118.98,135.88 L119.24,135.79 L119.72,136.1 L119.98,135.98 L120.05,135.98 L120.31,136.12 L120.5,136 L120.5,135.67 L120.57,135.41 L120.83,135.39 L121.07,135.29 L121.19,135.24 L121.29,135.5 L121.53,135.4 L121.79,135.47 L121.77,135.85 L121.89,136.09 L122.1,135.99 L122.34,135.8 L122.46,135.56 L122.29,135.32 L122.53,135.25 L122.46,134.77 L121.96,134.48 L121.91,134.24 L121.93,134.22 L122.81,134.58 L123.05,134.63 L123.29,134.75 L123.41,134.85 L123.24,135.11 L123.5,135.11 L123.74,135.04 L123.91,135.3 L124.2,135.35 L124.44,135.28 L124.51,135.52 L124.68,135.78 L124.92,135.83 L124.94,135.52 L125.06,135.78 L124.89,136.02 L124.7,136.52 L124.94,136.28 L125.04,136.04 L125.23,135.78 L125.56,136.19 L125.61,135.95 L125.73,135.69 L125.71,135.55 L125.95,135.48 L125.93,135.41 L125.69,135.34 L125.57,135.1 L125.36,134.96 L124.88,134.89 L124.62,134.75 L124.31,134.77 L124.19,134.51 L123.93,134.39 L123.64,134.32 L123.54,134.06 L123.78,133.96 L123.71,133.79 L123.97,133.77 L124.21,133.87 L124.04,133.68 L123.92,133.44 L124.18,133.2 L124.42,133.25 L124.49,133.32 L124.56,133.06 L124.56,132.82 L124.35,132.7 L124.33,132.41 L124.26,132.17 L123.88,132.43 L123.86,132.69 L123.76,132.93 L123.52,132.93 L123.4,132.69 L123.16,132.74 L122.97,132.57 L122.95,132.5 L123.47,132.19 L123.59,131.93 L123.54,131.91 L123.28,132.08 L123.26,131.84 L123.09,132.08 L122.85,131.94 L122.64,132.18 L122.4,132.28 L121.68,132.35 L121.3,132.35 L120.99,132.21 L120.97,131.97 L121.18,131.73 L121.51,131.21 L121.75,131.14 L122.08,131.19 L122.34,131.36 L122.58,131.57 L122.82,131.57 L122.99,131.67 L123.09,131.6 L123.33,131.81 L123.59,131.83 L123.66,131.78 L123.68,131.85 L123.97,131.73 L124.21,131.71 L124.3,131.47 L124.56,131.26 L124.63,131.14 L124.58,131.12 L124.79,131.07 L124.74,131.12 L124.98,131.1 L125.48,130.89 L125.98,130.79 L126.1,130.72 L125.74,130.7 L126.15,130.65 L126.41,130.84 L126.65,130.91 L126.89,130.81 L126.96,130.71 L127.46,130.9 L127.6,130.64 L127.84,130.59 L128.32,130.69 L128.56,130.69 L128.61,129.81 L128.66,129.55 L128.76,129.33 L128.74,129.21 L128.88,129.4 L129,129.42 L129.14,129.66 L129.19,129.9 L129.09,130.14 L129.21,130.38 L129.47,130.52 L129.54,130.47 L129.71,130.73 L129.66,130.97 L129.4,131.06 L129.16,131.04 L128.99,131.16 L129.97,130.99 L130.23,130.89 L130.3,130.65 L130.25,130.58 L130.51,130.63 L130.75,130.42 L130.82,129.97 L131.06,130.06 L131.08,130.18 L130.84,130.42 L130.72,130.66 L130.86,130.68 L131.12,130.58 L131.36,130.44 L131.57,130.11 L131.69,129.85 L131.64,129.75 L131.62,129.73 L131.76,129.59 L131.88,129.92 L132.02,129.68 L132.12,129.39 L132.17,129.63 L132.43,129.87 L132.24,130.11 L131.86,130.21 L131.79,130.26 L132.05,130.24 L132.81,130.05 L133.45,129.98 L133.57,129.96 L134.07,129.51 L134.14,129.72 L134.38,129.6 L134.64,129.53 L135.07,129.72 L135.19,129.93 L134.98,129.88 L134.72,129.76 L134.48,129.81 L134.43,129.95 L133.93,129.93 L134.17,130 L134.41,130 L135.41,130.21 L136.03,130.43 L136.53,130.72 L136.48,130.48 L136.24,130.34 L136.12,130.15 L136.36,130.1 L136.6,130.22 L136.98,129.93 L136.93,130.17 L136.74,130.24 L136.62,130.45 L136.98,130.69 L137.24,130.64 L137.38,130.9 L137.64,130.88 L137.5,131.05 L137.24,130.88 L136.74,130.69 L136.98,130.93 L137.22,131.05 L137.32,131.15 L137.22,131.15 L137.48,131.29 L137.72,131.36 L137.96,131.6 L138.1,131.86 L138.15,132.1 L137.91,132.17 L137.82,131.91 L137.8,131.67 L137.78,131.93 L137.88,132.17 L138.12,132.27 L138.38,132.25 L138.48,132.18 L138.98,132.04 L139.22,132.02 L139.27,131.9 L139.53,131.69 L139.58,131.81 L139.82,131.79 L140.56,131.17 L140.82,131.1 L140.99,131.03 L141.25,131.1 L141.15,130.86 L140.84,130.72 L141.17,130.82 L141.07,130.7 L141.19,130.46 L141.43,130.27 L141.91,130.22 L142.17,130.15 L142.31,130.17 L142.86,130.46 L143.1,130.48 L143.6,130.79 L143.96,131.29 L144.48,131.53 L144.6,131.79 L144.62,132.03 L145.34,132.51 L145.55,132.8 L145.79,132.9 L145.93,133.14 L146.17,133.21 L146.67,133.16 L147.05,133.52 L147.05,133.76 L147.24,134 L147.5,134.12 L147.52,134.38 L147.57,134.5 L147.62,135.24 L147.69,135.48 L147.67,135.77 L147.41,137.03 L147.48,137.24 L147.48,137.74 L147.36,138.14 L147.53,138.4 L147.79,138.64 L147.53,138.28 L148.01,138.59 L148.03,138.69 L148.2,138.45 L148.32,137.95 L148.08,137.95 L148.01,137.9 L148.01,137.66 L147.84,137.47 L147.84,137.42 L148.36,137.68 L148.43,137.92 L148.67,137.68 L148.88,137.92 L148.93,138.13 L148.5,138.87 L148.43,139.27 L148.19,139.37 L148.19,139.54 L147.95,139.35 L148.12,139.59 L148.6,139.83 L148.74,140.07 L148.69,140.17 L149.24,141.08 L149.41,141.32 L149.79,141.73 L150.03,141.8 L150.27,141.78 L150.37,141.83 L150.3,141.59 L150.16,141.35 L149.92,141.18 L150.18,141.2 L150.3,141.37 L150.75,141.13 L150.8,141.18 L150.54,141.35 L150.71,141.59 L150.69,142.09 L150.74,142.35 L150.86,142.59 L150.84,142.76 L151.08,142.74 L151.32,142.48 L151.37,142.24 L151.7,141.98 L151.41,142.34 L151.39,142.6 L151.2,142.84 L151.22,142.98 L151.46,143.05 L151.7,143.26 L151.96,144.19 L152.37,144.69 L152.56,144.69 L152.32,144.79 L152.56,144.93 L152.82,144.86 L153.08,144.88 L153.22,144.9 L153.7,145.09 L153.77,145.33 L154.01,145.52 L154.32,145.95 L154.44,146.21 L154.87,146.69 L155.08,146.76 L155.34,146.76 L155.58,146.95 L155.44,147.19 L155.13,147.05 L154.89,146.86 L154.7,147.1 L154.8,147.34 L155.04,147.6 L155.54,147.43 L155.85,147.24 L156.09,147.29 L156.35,147.29 L156.59,147.17 L156.78,146.96 L157.02,146.79 L157.28,146.93 L157.14,146.81 L157.45,146.93 L157.35,146.69 L157.45,146.43 L157.62,146.19 L157.45,145.71 L157.52,145.57 L157.47,145.33 L157.59,145.07 L157.61,144.83 L157.8,144.62 L157.78,144.38 L157.85,144.12 L157.95,144.38 L157.97,144.14 L157.9,143.83 L157.85,143.33 L157.85,142.59 L157.8,142.33 L157.75,141.19 L157.46,140.26 L157.34,140.19 L157.29,139.88 L156.88,139.38 L156.64,139.26 L156.57,139.31 L156.62,139.21 L156.62,138.97 L156.31,138.49 L155.9,137.63 L154.95,136.27 L154.21,135.08 L154.07,134.84 L153.76,134.1 L153.59,133.6 L153.69,133.6 L153.93,133.74 L153.88,133.98 L154.14,134.22 L154.38,134.12 L154.59,134.29 L154.64,134.55 L154.59,135.05 L154.76,135.79 L155.26,136.58 L155.52,136.84 L155,136.1 L154.88,135.86 L154.74,135.41 L154.67,134.91 L154.86,134.67 L154.74,134.41 L154.57,134.17 L154.09,133.67 L152.71,131.93 L151.92,130.62 L151.54,129.88 L151.16,128.97 L151.09,128.71 L150.83,128.21 L150.76,127.76 L150.64,127.52 L150.4,127.28 L150.26,127.02 L150.4,127.19 L150.45,126.69 L150.16,126.59 L150.18,126.33 L150.01,126.09 L150.06,125.85 L150.18,125.61 L150.01,125.61 L150.15,125.37 L149.91,125.16 L150.15,125.3 L150.27,125.04 L149.94,125.02 L150.04,124.78 L150.28,124.92 L150.49,124.54 L150.56,124.3 L150.3,124.21 L150.06,124.21 L149.82,124.09 L149.89,124.07 L150.13,124.14 L150.37,124.14 L150.37,123.88 L150.51,123.9 L150.68,123.42 L150.44,123.49 L150.32,123.37 L150.56,123.15 L150.44,122.91 L150.7,123.08 L150.8,122.82 L150.78,122.7 L150.54,122.8 L150.49,122.56 L150.75,122.51 L150.94,122.22 L150.7,122.05 L150.7,121.79 L150.94,121.91 L151.18,121.89 L151.16,121.65 L151.4,121.48 L151.52,121.24 L151.33,121.22 L151.45,120.72 L151.55,120.48 L151.55,120.72 L151.72,120.7 L151.89,120.46 L151.65,120.27 L151.53,120.1 L151.46,119.86 L151.22,119.38 L151.41,119.57 L151.53,119.81 L151.77,120.02 L151.79,119.52 L151.96,119.97 L152.2,120.11 L152.46,119.92 L152.58,119.51 L152.34,119.75 L152.51,119.51 L152.41,119.39 L152.15,119.39 L151.91,119.27 L151.72,119.29 L152.2,119.08 L152.51,119.15 L152.75,119.03 L152.99,119.01 L153.23,118.77 L153.06,118.65 L153.3,118.77 L153.54,118.58 L153.83,118.51 L153.81,118.37 L154.05,118.25 L154.17,117.99 L153.93,117.89 L153.83,117.53 L154.04,117.53 L154.14,117.77 L154.38,117.72 L154.59,117.48 L154.73,117.24 L154.9,117.12 L154.8,116.86 L154.97,116.62 L155.21,116.69 L155.45,116.62 L155.55,116.38 L155.74,116.12 L155.55,116.02 L155.79,116.09 L156,115.85 L155.81,115.61 L155.57,115.44 L155.59,115.15 L155.73,114.89 L155.8,114.84 L155.63,115.34 L155.87,115.44 L155.97,115.68 L155.99,114.87 L156.11,114.61 L156.63,113.63 L157.18,113.06 L157.42,112.92 L157.42,112.78 L157.56,112.76 L158.06,112.55 L158.54,112.43 L158.97,112.43 L159.21,112.26 L159.26,111.76 L159.09,111.26 L159.14,111.26 L159.26,111.5 L159.43,112.1 L159.43,111.36 L159.5,111.1 L159.72,110.6 L160.05,110.1 L160.57,109.65 L160.43,109.41 L160.57,109.17 L160.45,109 L160.69,109.1 L160.52,109.34 L160.78,109.44 L160.85,109.39 L161.02,109.15 L161.26,108.67 L161.52,108.77 L162.12,108.46 L162.36,108.46 L162.38,108.34 L162.57,108.1 L162.69,108.36 L162.79,108.1 L163.05,108.27 L163.15,108.25 L163.36,107.77 L163.57,107.53 L163.67,107.27 L163.57,107.08 L163.48,107.1 L163.36,107.36 L163.12,107.41 L163.19,107.17 L163.07,106.93 L163,107.17 L163.02,107.19 L162.83,107.24 L162.9,107.48 L162.66,107.36 L162.16,107.67 L161.66,107.62 L161.25,107.24 L161.06,107 L161.28,107.14 L161.54,107.24 L161.83,107.45 L162.09,107.47 L162.26,107.35 L162.64,106.87 L162.64,106.63 L162.4,106.68 L162.47,106.49 L162.73,106.44 L162.83,106.18 L162.3,105.99 L162.06,105.99 L160.96,105.7 L160.89,105.6 L160.91,105.55 L161.43,105.69 L161.91,105.71 L162.15,105.61 L162.32,105.66 L162.22,105.42 L162.2,105.18 L162.44,105.16 L162.3,105.33 L162.54,105.54 L162.8,105.61 L162.82,105.35 L162.96,105.59 L163.2,105.64 L163.75,105.66 L163.96,105.42 L164.29,104.66 L164.29,104.42 L164.53,104.49 L164.74,104.25 L164.67,104.04 L164.62,103.54 L164.45,103.3 L164.19,103.06 L164.21,103.2 L164.16,103.37 L163.8,103.42 L163.8,103.68 L163.87,104.16 L163.63,104.4 L163.53,104.28 L163.7,104.04 L163.46,103.94 L163.58,103.7 L163.58,103.41 L163.53,103.17 L163.27,103.15 L162.89,103.29 L162.84,103.53 L162.34,103.41 L162.08,103.58 L161.84,103.68 L161.58,103.73 L161.53,103.47 L161.34,103.23 L161.2,102.97 L161.15,102.73 L161.25,102.52 L161.15,102.33 L161.27,102.47 L161.25,102.52 L161.3,102.59 L161.28,102.83 L161.52,103.31 L161.76,103.29 L162.02,103.39 L162.57,102.94 L162.31,102.77 L162.55,102.77 L162.91,102.84 L162.72,102.6 L162.98,102.7 L163.22,102.6 L163.22,102.39 L162.96,102.18 L162.72,102.11 L162.98,102.06 L163.48,102.37 L163.79,102.37 L163.55,102.13 L163.38,101.89 L163.88,102.27 L164.07,102.6 L164.05,102.34 L163.57,101.62 L163.57,101.5 L163.31,101.45 L163.12,101.21 L163.07,100.97 L163,100.85 L163.14,100.97 L163.38,101.16 L163.45,100.92 L163.26,100.92 L163.52,100.87 L163.97,101.85 L164.14,102.04 L164.35,102.52 L164.59,102.76 L164.5,102.86 L164.74,102.96 L164.98,103.22 L165.12,103.48 L165.17,103.41 L165.03,103.15 L164.41,102.41 L164.08,101.91 L163.65,100.91 L163.63,100.86 L163.18,100.12 L162.97,99.62 L162.28,99.64 L162.04,99.59 L161.97,99.88 L162.07,100.02 L161.83,99.9 L161.64,99.88 L161.38,100.12 L161.45,99.88 L161.21,99.64 L160.97,99.47 L160.95,99.49 L160.78,99.23 L160.68,98.99 L160.42,99.09 L160.18,98.99 L159.97,99.04 L159.49,98.85 L158.73,98.85 L158.8,98.73 L159.04,98.78 L159.54,98.68 L159.8,98.89 L159.92,98.89 L159.94,98.63 L160.18,98.84 L160.42,98.98 L160.66,98.79 L160.85,99.05 L161.09,99.26 L161.35,99.36 L161.59,99.62 L161.71,99.48 L161.88,99.43 L161.95,99.17 L161.85,98.93 L161.59,98.83 L161.52,98.59 L161.26,98.66 L160.76,98.47 L160.55,98.23 L160.03,97.82 L160.29,97.87 L160.77,98.3 L161.27,98.51 L161.39,98.25 L161.17,98.01 L161.26,97.94 L161.5,97.99 L161.74,98.18 L161.79,97.94 L161.67,97.49 L161.43,97.51 L161.19,97.44 L161.29,97.37 L161.03,97.16 L160.79,97.18 L160.55,96.99 L160.48,96.85 L159.98,96.61 L159.79,96.35 L159.53,96.23 L159.39,96.09 L159.25,95.85 L158.75,95.54 L158.54,95.52 L158.78,95.5 L159.07,95.62 L159.33,95.83 L159.54,96.09 L159.78,96.19 L159.99,96.45 L160.16,96.47 L160.66,96.85 L160.9,96.87 L160.92,96.94 L161.18,97.03 L161.32,96.67 L161.3,96.41 L161.16,96.17 L161.4,96.22 L161.4,95.96 L160.87,95.77 L160.63,95.75 L160.63,95.65 L160.39,95.65 L160.39,95.51 L160.15,95.34 L160.1,95.22 L159.62,95.32 L159.55,95.27 L159.29,95.29 L159.15,95.24 L158.75,94.88 L158.75,94.64 L158.49,94.64 L158.2,94.85 L158.03,94.92 L157.79,94.9 L157.69,94.66 L157.79,94.64 L157.74,94.4 L157.84,93.66 L157.98,93.76 L158.05,93.74 L158.12,93.64 L158.1,93.52 L158.34,93.28 L158.27,93.02 L158.25,92.88 L158.13,92.62 L157.92,92.5 L157.71,92.45 L157.52,92.31 L157.26,92.19 L156.93,92.21 L156.67,92.04 L156.72,91.8 L156.6,91.56 L156.36,91.39 L155.84,91.39 L155.79,91.25 L155.58,91.04 L155.56,90.78 L155.32,90.73 L155.39,90.47 L155.37,90.45 L154.87,90.5 L154.63,90.33 L154.37,90.23 L154.18,90.33 L154.06,90.59 L153.8,90.59 L153.59,90.85 L153.54,91.09 L153.16,91.14 L152.92,91.09 L152.66,90.85 L152.59,90.87 L152.57,91.11 L152.24,91.61 L152,91.56 L151.79,91.66 L151.69,91.9 L151.45,92.16 L151.31,92.4 L151.07,92.61 L150.86,92.87 L150.53,90.87 L155.54,89.92 L161.22,88.7 L162.03,91.51 L162.44,93.2 L162.58,93.46 L164.34,93.05 L164.41,93.03 L164.48,93.03 L164.31,92.53 L164.05,92.58 L163.93,92.65 L164.14,92.39 L164.02,92.37 L164.02,92.13 L164.12,91.89 L164.02,91.75 L163.76,91.77 L163.28,91.39 L163.18,91.15 L162.92,90.94 L162.78,90.56 L162.76,90.3 L162.59,90.06 L162.35,89.87 L162.14,89.63 L162,89.39 L162.02,89.15 L161.83,88.91 L161.95,88.74 L162.05,88.48 L162.07,88.24 L162.19,88.12 L162.43,87.86 L162.67,87.79 L162.91,87.58 L162.91,87.34 L163.1,87.13 L162.98,87.39 L162.98,87.63 L162.72,87.82 L162.65,87.87 L162.48,87.94 L162.24,88.15 L162.12,88.39 L162.07,88.75 L162,88.92 L161.98,88.99 L162.12,89.23 L162.14,89.25 L162.09,89.37 L162.57,89.77 L162.83,89.84 L163.07,89.96 L163.5,90.29 L163.74,90.17 L164.24,90.17 L164.34,90.43 L164.24,90.83 L164.26,91.09 L164.5,91.07 L164.64,90.88 L164.69,90.64 L164.86,90.38 L164.96,89.88 L165.08,89.64 L164.96,89.59 L164.98,89.47 L165.17,89.23 L165.41,89.21 L165.29,89 L165.46,88.76 L165.36,88.52 L165.6,88.42 L165.65,88.13 L165.82,87.87 L165.92,87.63 L165.8,87.39 L165.87,87.15 L165.82,86.77 L165.72,86.53 L165.82,86.48 L165.87,86.24 L165.97,86.45 L165.95,86.69 L166.02,87.19 L166.04,86.93 L165.99,86.19 L165.92,85.95 L165.92,85.19 L165.85,84.88 L165.35,84.81 L165.11,84.88 L164.92,84.83 L164.92,84.14 L165.06,83.85 L165.13,83.87 L165.37,83.63 L165.35,83.46 L165.45,83.1 L165.47,82.84 L165.45,82.58 L165.28,81.98 L165.04,81.74 L164.99,81.5 L165.01,81.43 L165.08,81.67 L165.34,81.84 L165.46,82.22 L165.51,82.98 L165.39,83.5 L165.48,83.5 L165.6,83.24 L165.86,83.14 L165.88,82.85 L166.14,82.33 L166.38,82.23 L166.83,81.73 L167.09,81.59 L167.28,81.33 L167.42,81.43 L167.8,80.93 L168.06,80.88 L168.3,80.74 L168.56,80.74 L168.68,80.62 L169.44,80.43 L169.44,80.29 L169.34,80.1 L169.46,80.15 L169.46,80.27 L169.72,80.29 L170.22,79.98 L170.72,79.81 L170.86,79.86 L171.1,79.74 L171.82,79.26 L171.87,79 L171.77,78.67 L171.75,78.43 L171.61,78.17 L171.71,77.93 L171.64,77.67 L171.83,77.93 L171.95,77.81 L172,78.07 L172.14,77.93 L172.31,78.05 L172.43,78.55 L172.55,78.81 L172.67,78.62 L172.84,78.36 L173.08,78.38 L173.22,77.97 L173.46,77.78 L173.58,77.54 L173.82,77.37 L173.82,77.61 L173.94,78.11 L174.2,78.01 L174.44,77.84 L174.51,77.58 L174.61,77.63 L175.35,77.22 L175.64,77.12 L175.78,76.86 L175.64,76.38 L175.31,75.93 L175.05,75.74 L174.81,75.67 L174.55,75.72 L174.81,75.77 L175.07,75.94 L175.17,76.2 L175.38,76.18 L175.5,76.59 L175.29,76.83 L174.79,77.21 L174.55,77.14 L174.29,77.16 L174.15,77.06 L173.91,76.58 L173.67,76.53 L173.43,76.41 L173.43,76.17 L173.67,76.29 L173.46,76.03 L172.98,75.58 L172.72,75.53 L172.46,75.67 L172.22,75.53 L172.05,75.29 L172.31,75.29 L172.19,75.05 L172.4,74.79 L172.35,74.69 L172.47,74.45 L172.95,74.12 L173,73.86 L172.76,73.91 L172.81,73.96 L172.57,74.01 L172.33,73.82 L172.28,73.58 L172.09,73.46 L172.14,73.22 L172.14,72.98 L172.26,72.48 L172.14,72.41 L172.35,72.17 L172.45,71.91 L172.38,71.65 L172.38,71.41 L172.62,71.17 L172.81,70.72 L172.69,70.48 L173.02,69.98 L172.85,69.91 L172.83,69.67 L172.9,69.41 L173.28,68.89 L173.4,69.34 L173.42,69.1 L173.44,69.34 L173.56,69.1 L173.63,68.84 L173.7,68.86 L173.89,69.36 L173.96,69.1 L173.63,68.34 L173.53,68.44 L173.55,68.2 L173.67,67.96 L173.65,68.22 L174.01,69.03 L174.11,68.79 L173.92,68.53 L173.99,68.2 L174.09,68.15 L174.23,68.39 L174.16,68.63 L174.42,68.75 L174.3,68.27 L174.32,68.01 L174.37,67.96 L174.35,68.2 L174.42,68.46 L174.61,68.6 L174.66,68.36 L174.64,68.1 L174.74,67.86 L175,67.88 L175.26,67.98 L175.36,67.74 L175.55,67.45 L175.43,67.21 L175.48,66.95 L175.46,66.69 L175.53,66.45 L175.55,66.19 L175.41,65.95 L175.77,65.74 L175.7,65.33 L175.89,65.57 L175.84,65.81 L176.08,65.76 L176.06,66.02 L175.94,66.19 L176.44,66.19 L176.8,66.33 L176.66,66.07 L176.61,65.83 L176.68,65.57 L176.66,65.33 L176.88,65.57 L177.12,65.36 L177.07,65.12 L177.71,65.29 L177.88,65.55 L177.98,65.31 L177.88,65.07 L178.02,64.95 L178.12,65.19 L178.14,64.93 L178.21,65.19 L178.26,64.93 L178.19,64.69 L178.33,64.4 L178.54,64.66 L178.66,64.68 L178.71,64.44 L178.95,64.44 L178.95,64.2 L179.16,64.08 L179.18,64.08 L179.18,63.91 L179.42,63.96 L179.25,63.7 L179.63,63.75 L179.87,63.58 L180.13,63.1 L180.15,62.86 L179.89,62.65 L179.74,62.6 Z M121.87,107.14 L121.97,106.88 L122.09,107.12 L121.88,107.14 L121.87,107.14 Z" id="Shape"></path>
            </g>
        </g>
    </g>
</svg>