<?xml version="1.0" encoding="utf-8"?>
<!-- Generator: Adobe Illustrator 28.0.0, SVG Export Plug-In . SVG Version: 6.00 Build 0)  -->
<svg version="1.1" id="Layer_1" xmlns="http://www.w3.org/2000/svg" xmlns:xlink="http://www.w3.org/1999/xlink" x="0px" y="0px"
	 viewBox="0 0 387.3 144" style="enable-background:new 0 0 387.3 144;" xml:space="preserve">
<style type="text/css">
	.st0{fill:#2A3F5E;}
	.st1{fill:none;}
	.st2{enable-background:new    ;}
	.st3{fill:#76ACCD;}
	.st4{fill:#FFFFFF;}
</style>
<g>
	<path class="st0" d="M56.8,26.8c0-1.1,0.9-1.9,1.9-1.9h26.8c1.1,0,1.9,0.9,1.9,1.9v4.8h8.5V23c0-3.3-2.7-6-6-6H54.3
		c-3.3,0-6,2.7-6,6v8.6h8.5V26.8z"/>
	<path class="st0" d="M56.8,67.6c0,1.3-0.2,2.4-0.4,2.9c-0.7,0.3-1.7,0.9-4.3,0.9c-3.8,0-6.1-2.8-6.1-5.7c0-2.6,2.1-5.2,5-5.2
		C54.8,60.5,56.8,63.6,56.8,67.6z M97.9,61.7c0-1.6-1.3-2.8-3-2.8s-3,1.2-3,2.8c0,1.5,1.2,2.8,3,2.8C96.6,64.5,97.9,63.2,97.9,61.7z
		 M114.9,61.8v8.5c5.2-1.6,9.7-3.5,13.1-5.9v44.9H16.1V63.8c4.3,2.9,10.2,5.3,17.1,7.1v-8.4c-11.6-3.3-19.4-8.3-19.4-15V35.3h116.5
		v12.8C130.3,54.1,124.2,58.6,114.9,61.8z M62.2,67.5c0-5.9-3.5-12-11.1-12c-5.7,0-10.5,4.5-10.5,10.1c0,6.5,5.6,10.2,11,10.2
		c1,0,1.7-0.2,2.5-0.3c-2.9,4-7.7,6.1-14,7.1V87C52.7,86.3,62.2,78.3,62.2,67.5z M94.9,67.8c3.6,0,6.4-2.7,6.4-6.1s-2.7-6.1-6.4-6.1
		s-6.4,2.7-6.4,6.1C88.5,65.1,91.3,67.8,94.9,67.8z M96.4,87.4l13.5-31.8h-2.5L93.9,87.4H96.4z M108.9,75c-3.6,0-6.4,2.7-6.4,6.1
		c0,3.3,2.8,6,6.4,6s6.4-2.7,6.4-6C115.3,77.7,112.6,75,108.9,75z M108.9,78.3c-1.7,0-3,1.2-3,2.9c0,1.5,1.2,2.7,3,2.7
		c1.7,0,3-1.2,3-2.7C111.9,79.5,110.7,78.3,108.9,78.3z"/>
	<rect x="138.7" y="23.4" class="st1" width="242.5" height="113.5"/>
	<g class="st2">
		<path class="st0" d="M143.1,35c-2.1,0-3.7-1.6-3.7-3.7c0-2.1,1.7-3.8,3.7-3.8s3.7,1.6,3.7,3.8C146.9,33.4,145.2,35,143.1,35z
			 M143.1,28.5c-1.5,0-2.6,1.2-2.6,2.8s1.2,2.7,2.6,2.7s2.6-1.2,2.6-2.7S144.6,28.5,143.1,28.5z"/>
		<path class="st0" d="M153.1,24.7c-0.3-0.3-0.8-0.7-1.4-0.7c-0.8,0-1.5,0.6-1.5,1.8v1.8h2.2l-0.3,0.8h-1.9v6.2h-1.1v-6.2h-1.2
			l0.3-0.8h0.9v-1.8c0-1.8,1.3-2.8,2.6-2.8c1,0,1.7,0.6,2.1,1L153.1,24.7z"/>
		<path class="st0" d="M159.6,35c-1,0-2.1-0.5-2.1-2.5v-4H156l0.3-0.8h1.2V25h1.1v2.8h2.6l-0.3,0.8h-2.3v4c0,1.1,0.4,1.5,1.2,1.5
			c0.6,0,1.2-0.4,1.4-0.5v1C161.1,34.6,160.5,35,159.6,35z"/>
		<path class="st0" d="M167.3,34.8v-5.1c0-0.6-0.4-1.2-1.2-1.2c-1.1,0-1.8,0.7-2.5,1.4v4.8h-1.1V23.4h1.1v5.4
			c0.3-0.3,1.3-1.3,2.6-1.3c1.1,0,2.1,0.7,2.1,2.2v5.1H167.3z"/>
		<path class="st0" d="M171.3,31.4c0.1,1.8,1.4,2.7,2.7,2.7c1.5,0,2.4-0.7,2.7-0.8v1c-0.2,0.1-1.2,0.8-2.8,0.8
			c-1.9,0-3.7-1.4-3.7-3.7c0-2.3,1.8-3.8,3.7-3.8c1.6,0,3,1.3,3,3.3v0.5H171.3z M173.8,28.5c-1.6,0-2.3,1.2-2.5,2.1h4.5
			C175.8,29.4,175,28.5,173.8,28.5z"/>
	</g>
	<g class="st2">
		<path class="st0" d="M190.9,34.7c-0.6,0.2-1.5,0.4-2.7,0.4c-3.2,0-6-2.5-6-6s2.9-6,6-6c1.8,0,3.3,0.7,3.9,1l0,1.2
			c-0.6-0.3-2-1.1-3.8-1.1c-2.5,0-4.8,2.1-4.8,5c0,2.8,2.2,5,4.8,5c1.9,0,3.3-0.8,3.9-1.1v1.2C191.9,34.3,191.5,34.5,190.9,34.7z"/>
		<path class="st0" d="M196.9,34.7c-0.2,0.1-0.6,0.3-1.2,0.3c-0.9,0-1.6-0.6-1.6-1.9v-9.7h1.1v9.6c0,0.7,0.4,1,0.8,1
			c0.4,0,0.8-0.2,1-0.3V34.7z"/>
		<path class="st0" d="M202.5,34.8l-0.1-0.6c-0.2,0.2-0.8,0.8-2.1,0.8c-1.2,0-2.3-0.9-2.3-2.3c0-1.5,1.2-2.4,3-2.6l1.3-0.1v-1.3
			h-3.9l0.2-0.9h4.7v7.1H202.5z M202.3,30.8l-1.2,0.1c-1.3,0.2-2.1,0.7-2.1,1.7c0,0.8,0.6,1.4,1.5,1.4c0.9,0,1.5-0.6,1.7-0.9V30.8z"
			/>
		<path class="st0" d="M207.3,35c-1.1,0-1.8-0.4-2.1-0.5v-1.1c0.3,0.1,1.2,0.7,2.1,0.7c0.8,0,1.5-0.3,1.5-1c0-0.7-1-1.1-1.6-1.4
			c-0.7-0.4-2-1-2-2.1c0-1.2,1-2,2.4-2c1,0,1.8,0.4,2,0.5v1c-0.5-0.3-1.3-0.6-1.9-0.6c-0.9,0-1.4,0.4-1.4,1c0,0.7,0.9,1,1.5,1.3
			c0.7,0.3,2.1,0.9,2.1,2.3C209.8,34.3,208.7,35,207.3,35z"/>
		<path class="st0" d="M213.3,35c-1.1,0-1.8-0.4-2.1-0.5v-1.1c0.3,0.1,1.2,0.7,2.1,0.7c0.8,0,1.5-0.3,1.5-1c0-0.7-1-1.1-1.6-1.4
			c-0.7-0.4-2-1-2-2.1c0-1.2,1-2,2.4-2c1,0,1.8,0.4,2,0.5v1c-0.5-0.3-1.3-0.6-1.9-0.6c-0.9,0-1.4,0.4-1.4,1c0,0.7,0.9,1,1.5,1.3
			c0.7,0.3,2.1,0.9,2.1,2.3C215.9,34.3,214.7,35,213.3,35z"/>
		<path class="st0" d="M224.6,35c-2.1,0-3.7-1.6-3.7-3.7c0-2.1,1.7-3.8,3.7-3.8s3.7,1.6,3.7,3.8C228.3,33.4,226.7,35,224.6,35z
			 M224.6,28.5c-1.5,0-2.6,1.2-2.6,2.8s1.2,2.7,2.6,2.7c1.5,0,2.6-1.2,2.6-2.7S226.1,28.5,224.6,28.5z"/>
		<path class="st0" d="M234.5,24.7c-0.3-0.3-0.8-0.7-1.4-0.7c-0.8,0-1.5,0.6-1.5,1.8v1.8h2.2l-0.3,0.8h-1.9v6.2h-1.1v-6.2h-1.2
			l0.3-0.8h0.9v-1.8c0-1.8,1.3-2.8,2.6-2.8c1,0,1.7,0.6,2.1,1L234.5,24.7z"/>
		<path class="st0" d="M238.3,34.8v-0.4l3.8-4.2c1-1.1,1.9-2.4,1.9-3.7c0-1.4-0.9-2.4-2.3-2.4c-1.3,0-2.4,0.9-2.5,2.2h-1
			c0.1-1.8,1.7-3.3,3.5-3.3c2,0,3.5,1.4,3.5,3.5c0,1.6-1.3,3.2-2.1,4.1l-2.8,3.1h5v1.1H238.3z"/>
		<path class="st0" d="M251.3,35.2c-2.5,0-4-3-4-6s1.5-6,4-6c2.5,0,4,3,4,6S253.7,35.2,251.3,35.2z M251.3,24.1
			c-1.7,0-2.8,2.6-2.8,5s1,5,2.8,5s2.8-2.5,2.8-5S253,24.1,251.3,24.1z"/>
		<path class="st0" d="M257,34.8v-0.4l3.8-4.2c1-1.1,1.9-2.4,1.9-3.7c0-1.4-0.9-2.4-2.3-2.4c-1.3,0-2.4,0.9-2.5,2.2h-1
			c0.1-1.8,1.7-3.3,3.5-3.3c2,0,3.5,1.4,3.5,3.5c0,1.6-1.3,3.2-2.1,4.1l-2.8,3.1h5v1.1H257z"/>
		<path class="st0" d="M265.7,34.8v-0.4l3.8-4.2c1-1.1,1.9-2.4,1.9-3.7c0-1.4-0.9-2.4-2.3-2.4c-1.3,0-2.4,0.9-2.5,2.2h-1
			c0.1-1.8,1.7-3.3,3.5-3.3c2,0,3.5,1.4,3.5,3.5c0,1.6-1.3,3.2-2.1,4.1l-2.8,3.1h5v1.1H265.7z"/>
		<path class="st0" d="M285.3,34.8h-1l-1.7-4.8l-1.7,4.8h-1l-2.6-7.1h1.1l1.9,5.6l1.9-5.6h0.5l1.9,5.6l1.9-5.6h1.1L285.3,34.8z"/>
		<path class="st0" d="M289.7,31.4c0.1,1.8,1.4,2.7,2.7,2.7c1.5,0,2.4-0.7,2.7-0.8v1c-0.2,0.1-1.2,0.8-2.8,0.8
			c-1.9,0-3.7-1.4-3.7-3.7c0-2.3,1.8-3.8,3.7-3.8c1.6,0,3,1.3,3,3.3v0.5H289.7z M292.2,28.5c-1.6,0-2.3,1.2-2.5,2.1h4.5
			C294.3,29.4,293.5,28.5,292.2,28.5z"/>
		<path class="st0" d="M300.3,28.5c-0.9,0-1.7,0.8-1.9,1v5.2h-1.1v-7.1h1.1v1c0.2-0.2,0.9-1.2,2.1-1.2c0.3,0,0.5,0,0.6,0.1v1
			C300.9,28.6,300.7,28.5,300.3,28.5z"/>
		<path class="st0" d="M302.8,31.4c0.1,1.8,1.4,2.7,2.7,2.7c1.5,0,2.4-0.7,2.7-0.8v1c-0.2,0.1-1.2,0.8-2.8,0.8
			c-1.9,0-3.7-1.4-3.7-3.7c0-2.3,1.8-3.8,3.7-3.8c1.6,0,3,1.3,3,3.3v0.5H302.8z M305.4,28.5c-1.6,0-2.3,1.2-2.5,2.1h4.5
			C307.4,29.4,306.6,28.5,305.4,28.5z"/>
	</g>
	<g class="st2">
		<path class="st3" d="M143.8,63.9c0.4,1.6,2,3.2,4.2,3.2c2.5,0,4.3-0.9,4.9-1.2V69c-0.4,0.2-1.9,1.2-5.3,1.2
			c-3.8,0-7.7-2.7-7.7-7.3c0-4.1,3.2-7.3,7-7.3c3.5,0,6.1,2.7,6.1,6.5v1.8H143.8z M146.9,58.6c-1.6,0-2.8,1.3-3,2.8h5.6
			C149.5,60.2,148.6,58.6,146.9,58.6z"/>
		<path class="st3" d="M174.7,69.8v-8.6c0-1.5-0.9-2.2-2.1-2.2c-1,0-2.1,0.7-2.8,1.4v9.5h-3.9v-8.6c0-1.5-0.9-2.2-2.1-2.2
			c-1,0-2.1,0.7-2.8,1.4v9.5H157V56h3.7l0.2,1.1c0.5-0.4,1.9-1.5,4.1-1.5c1.8,0,3.2,0.7,4.1,2.3l0.8-0.8c0.5-0.5,1.8-1.5,4.1-1.5
			c2.8,0,4.7,1.8,4.7,5.6v8.6H174.7z"/>
		<path class="st3" d="M190.5,70.2c-2.1,0-3.1-0.7-3.7-1.1v9.5h-3.9V56h3.8l0.3,1.1l3-1.5c2.1,0.6,7.4,2.1,7.4,7.8
			C197.4,67.1,194.5,70.2,190.5,70.2z M190,58.9l-3.2,1.6v5.3c0.4,0.3,1.6,1.2,3.2,1.2c2.2,0,3.5-1.7,3.5-3.6
			C193.5,60.4,191.2,59.2,190,58.9z"/>
		<path class="st3" d="M208.3,69c-0.4,0.3-1.6,1.2-3.7,1.2c-2.1,0-3.8-1.6-3.8-4.8V47.6h3.9v17.6c0,1.2,0.8,1.6,1.4,1.6
			c0.9,0,1.9-0.7,2.2-0.9V69z"/>
		<path class="st3" d="M217.4,70.2c-4.3,0-7.8-3.2-7.8-7.3s3.5-7.3,7.8-7.3c4.3,0,7.7,3.2,7.7,7.3S221.7,70.2,217.4,70.2z
			 M217.4,58.8c-2.1,0-3.9,1.8-3.9,4.1s1.8,4.1,3.9,4.1c2.1,0,3.8-1.7,3.8-4.1S219.5,58.8,217.4,58.8z"/>
		<path class="st3" d="M235.2,69.8l-3.2,8.9h-3.7l3.2-8.9l-5-13.8h3.9l3.1,9.4l3.1-9.4h3.9L235.2,69.8z"/>
		<path class="st3" d="M245.7,63.9c0.4,1.6,2,3.2,4.2,3.2c2.5,0,4.3-0.9,4.9-1.2V69c-0.4,0.2-1.9,1.2-5.3,1.2
			c-3.8,0-7.7-2.7-7.7-7.3c0-4.1,3.2-7.3,7-7.3c3.5,0,6.1,2.7,6.1,6.5v1.8H245.7z M248.8,58.6c-1.6,0-2.8,1.3-3,2.8h5.6
			C251.4,60.2,250.5,58.6,248.8,58.6z"/>
		<path class="st3" d="M268.7,69.8l-0.3-1.1l-3.4,1.5c-1.6-0.5-7.1-2-7.1-7.8c0-3.7,3-6.9,6.9-6.9c2.1,0,3.2,0.7,3.7,1.1v-9h3.9
			v22.2H268.7z M265.3,58.9c-2.1,0-3.5,1.7-3.5,3.6c0,2.4,1.7,3.9,3.2,4.4l3.6-1.6v-5.3C268.1,59.9,267,58.9,265.3,58.9z"/>
	</g>
	<g class="st2">
		<path class="st0" d="M143.4,95.2c-2.2,0-3.9-1.7-3.9-3.9s1.7-3.9,3.9-3.9s3.9,1.7,3.9,3.9S145.5,95.2,143.4,95.2z M143.4,88.4
			c-1.5,0-2.8,1.3-2.8,2.9s1.2,2.9,2.8,2.9s2.8-1.2,2.8-2.9S144.9,88.4,143.4,88.4z"/>
		<path class="st0" d="M152.3,88.4c-0.9,0-1.8,0.9-2,1.1V95h-1.1v-7.4h1.1v1.1c0.2-0.3,1-1.3,2.2-1.3c0.3,0,0.5,0,0.7,0.1v1.1
			C153,88.5,152.7,88.4,152.3,88.4z"/>
		<path class="st0" d="M158.9,86.1l-1-0.9l0.9-0.9l1,0.9L158.9,86.1z M158.3,95v-7.4h1.1V95H158.3z"/>
		<path class="st0" d="M166.9,95v-5c0-1-0.5-1.6-1.5-1.6c-1.3,0-2.2,1.2-2.4,1.4V95h-1.1v-7.4h1.1v1.1c0.2-0.2,1-1.3,2.6-1.3
			c1.3,0,2.4,0.9,2.4,2.6V95H166.9z"/>
		<path class="st0" d="M178.3,95l-0.1-0.6c-0.2,0.2-0.9,0.8-2.2,0.8c-1.3,0-2.4-0.9-2.4-2.4c0-1.6,1.2-2.5,3.1-2.7l1.4-0.1v-1.4
			h-4.1l0.2-1h5V95H178.3z M178.2,90.8l-1.2,0.1c-1.4,0.2-2.2,0.8-2.2,1.8c0,0.9,0.7,1.5,1.6,1.5c0.9,0,1.6-0.7,1.8-0.9V90.8z"/>
	</g>
	<g class="st2">
		<path class="st3" d="M191.4,89.2c0.2,0.4,0.3,0.9,0.3,1.4c0,1.9-1.6,3.3-3.5,3.3c-0.2,0-0.4,0-0.6,0l-0.4,0.6l2.6,0.8
			c1.3,0.4,2.2,1.3,2.2,2.6c0,1.4-1.5,2.7-3.8,2.7c-1.9,0-3.5-1.1-3.5-2.8c0-0.9,0.5-1.6,1-2l-1.1-0.4l1.6-2.2
			c-0.9-0.6-1.4-1.5-1.4-2.7c0-1.9,1.6-3.3,3.5-3.3c0.9,0,1.7,0.3,2.3,0.8l0.4-0.5h1.8v1.6H191.4z M189.4,97l-2.1-0.7
			c-0.3,0.2-0.8,0.6-0.8,1.3c0,0.8,0.9,1.4,1.8,1.4c1.1,0,1.8-0.6,1.8-1.1C190.1,97.5,189.8,97.1,189.4,97z M188.3,89.1
			c-0.9,0-1.6,0.6-1.6,1.5c0,0.9,0.7,1.5,1.6,1.5c0.8,0,1.5-0.6,1.5-1.5C189.8,89.7,189.1,89.1,188.3,89.1z"/>
		<path class="st3" d="M197.6,89.2c-0.9,0-1.4,0.5-1.6,0.7V95h-2.1v-7.4h2l0.1,0.8c0.1-0.2,0.7-1,1.9-1c0.5,0,0.8,0.1,0.9,0.1v1.9
			C198.7,89.3,198.2,89.2,197.6,89.2z"/>
		<path class="st3" d="M204.1,95l-0.1-0.5c-0.3,0.3-1,0.7-2,0.7c-1.4,0-2.5-1-2.5-2.4c0-1.7,1.5-2.4,3.1-2.5l1.2-0.1v-1.1H200
			l0.3-1.6h5.6V95H204.1z M203.8,91.6l-1.1,0.1c-0.7,0.1-1.2,0.5-1.2,1.1c0,0.5,0.5,0.9,1,0.9c0.5,0,1.1-0.4,1.3-0.5V91.6z"/>
		<path class="st3" d="M213.4,95l-0.1-0.6l-1.8,0.8c-0.9-0.3-3.8-1.1-3.8-4.2c0-2,1.6-3.7,3.7-3.7c1.2,0,1.7,0.4,2,0.6v-4.9h2.1V95
			H213.4z M211.7,89.1c-1.1,0-1.9,0.9-1.9,2c0,1.3,0.9,2.1,1.7,2.4l1.9-0.8v-2.8C213.2,89.6,212.5,89.1,211.7,89.1z"/>
		<path class="st3" d="M222.8,95l-0.1-0.5c-0.2,0.1-0.9,0.7-2.3,0.7c-1.4,0-2.6-1-2.6-3.2v-4.5h2.1v4.5c0,0.9,0.5,1.3,1.3,1.3
			c0.6,0,1.3-0.5,1.5-0.6v-5.2h2.1V95H222.8z"/>
		<path class="st3" d="M231.1,95l-0.1-0.5c-0.3,0.3-1,0.7-2,0.7c-1.4,0-2.5-1-2.5-2.4c0-1.7,1.5-2.4,3.1-2.5l1.2-0.1v-1.1h-3.8
			l0.3-1.6h5.6V95H231.1z M230.9,91.6l-1.1,0.1c-0.7,0.1-1.2,0.5-1.2,1.1c0,0.5,0.5,0.9,1,0.9c0.5,0,1.1-0.4,1.3-0.5V91.6z"/>
		<path class="st3" d="M238.1,95.2c-1.4,0-2.7-0.8-2.7-3.3v-2.6h-1.4l0.4-1.7h1v-2.9h2.1v2.9h2.4l-0.4,1.7h-2V92
			c0,1.1,0.5,1.4,1.3,1.4c0.4,0,0.8-0.1,1.1-0.3v1.7C239.6,95,239,95.2,238.1,95.2z"/>
		<path class="st3" d="M243.1,91.8c0.2,0.9,1.1,1.7,2.2,1.7c1.3,0,2.3-0.5,2.6-0.6v1.7c-0.2,0.1-1,0.7-2.8,0.7
			c-2.1,0-4.1-1.5-4.1-3.9c0-2.2,1.7-3.9,3.8-3.9c1.9,0,3.3,1.4,3.3,3.5v1H243.1z M244.8,89c-0.9,0-1.5,0.7-1.6,1.5h3
			C246.2,89.8,245.7,89,244.8,89z"/>
		<path class="st3" d="M258.2,95.2c-1.1,0-1.7-0.4-2-0.6v5.1H254V87.6h2l0.1,0.6l1.6-0.8c1.1,0.3,4,1.1,4,4.2
			C261.9,93.5,260.3,95.2,258.2,95.2z M257.9,89.1l-1.7,0.8v2.8c0.2,0.1,0.8,0.7,1.7,0.7c1.2,0,1.9-0.9,1.9-2
			C259.8,90,258.5,89.3,257.9,89.1z"/>
		<path class="st3" d="M267.4,89.2c-0.9,0-1.4,0.5-1.6,0.7V95h-2.1v-7.4h2l0.1,0.8c0.1-0.2,0.7-1,1.9-1c0.5,0,0.8,0.1,0.9,0.1v1.9
			C268.4,89.3,267.9,89.2,267.4,89.2z"/>
		<path class="st3" d="M273.3,95.2c-2.3,0-4.2-1.7-4.2-3.9s1.9-3.9,4.2-3.9c2.3,0,4.2,1.7,4.2,3.9S275.6,95.2,273.3,95.2z
			 M273.3,89.1c-1.1,0-2.1,0.9-2.1,2.2s0.9,2.2,2.1,2.2c1.1,0,2.1-0.9,2.1-2.2S274.4,89.1,273.3,89.1z"/>
		<path class="st3" d="M285.3,89.2c0.2,0.4,0.3,0.9,0.3,1.4c0,1.9-1.6,3.3-3.5,3.3c-0.2,0-0.4,0-0.6,0l-0.4,0.6l2.6,0.8
			c1.3,0.4,2.2,1.3,2.2,2.6c0,1.4-1.5,2.7-3.8,2.7c-1.9,0-3.5-1.1-3.5-2.8c0-0.9,0.5-1.6,1-2l-1.1-0.4l1.6-2.2
			c-0.9-0.6-1.4-1.5-1.4-2.7c0-1.9,1.6-3.3,3.5-3.3c0.9,0,1.7,0.3,2.3,0.8l0.4-0.5h1.8v1.6H285.3z M283.3,97l-2.1-0.7
			c-0.3,0.2-0.8,0.6-0.8,1.3c0,0.8,0.9,1.4,1.8,1.4c1.1,0,1.8-0.6,1.8-1.1C284,97.5,283.8,97.1,283.3,97z M282.2,89.1
			c-0.9,0-1.6,0.6-1.6,1.5c0,0.9,0.7,1.5,1.6,1.5c0.8,0,1.5-0.6,1.5-1.5C283.7,89.7,283,89.1,282.2,89.1z"/>
		<path class="st3" d="M291.5,89.2c-0.9,0-1.4,0.5-1.6,0.7V95h-2.1v-7.4h2l0.1,0.8c0.1-0.2,0.7-1,1.9-1c0.5,0,0.8,0.1,0.9,0.1v1.9
			C292.6,89.3,292.1,89.2,291.5,89.2z"/>
		<path class="st3" d="M298,95l-0.1-0.5c-0.3,0.3-1,0.7-2,0.7c-1.4,0-2.5-1-2.5-2.4c0-1.7,1.5-2.4,3.1-2.5l1.2-0.1v-1.1h-3.8
			l0.3-1.6h5.6V95H298z M297.7,91.6l-1.1,0.1c-0.7,0.1-1.2,0.5-1.2,1.1c0,0.5,0.5,0.9,1,0.9c0.5,0,1.1-0.4,1.3-0.5V91.6z"/>
		<path class="st3" d="M311.6,95v-4.6c0-0.8-0.5-1.2-1.1-1.2c-0.5,0-1.2,0.4-1.5,0.7V95h-2.1v-4.6c0-0.8-0.5-1.2-1.1-1.2
			c-0.5,0-1.2,0.4-1.5,0.7V95h-2.1v-7.4h2l0.1,0.6c0.3-0.2,1-0.8,2.2-0.8c0.9,0,1.7,0.4,2.2,1.2l0.4-0.4c0.3-0.3,1-0.8,2.2-0.8
			c1.5,0,2.5,1,2.5,3V95H311.6z"/>
	</g>
	<g class="st2">
		<path class="st0" d="M140.2,113.3c0.1-0.4,0-0.6-0.4-0.6c-0.4,0-0.7,0.3-0.8,0.3l0.1-0.7c0.1-0.1,0.5-0.5,1.2-0.5
			c0.7,0,1.1,0.5,1,1.5l-0.5,3.7c-0.1,1,0.2,1.2,0.7,1.2c0.5,0,1.7-0.8,2.9-6.3h1l-0.6,5c-0.1,1,0.2,1.3,0.7,1.3
			c1.2,0,2.4-1.7,2.4-3.9c0-1.6-0.4-2.3-0.5-2.4h1.1c0.1,0.1,0.4,0.9,0.4,2.3c0,2.8-1.8,5-3.7,5c-0.9,0-1.7-0.8-1.6-2.2l0.2-1.2
			c-1,2.9-2,3.4-2.8,3.4c-0.8,0-1.6-0.8-1.4-2.3L140.2,113.3z"/>
		<path class="st0" d="M151.7,113.2c0.1-0.4,0-0.6-0.4-0.6c-0.4,0-0.7,0.3-0.7,0.3l0.1-0.7c0.1-0.1,0.5-0.5,1.2-0.5
			c0.6,0,1.1,0.5,1,1.6l-0.7,4.4c-0.1,0.4,0,0.6,0.4,0.6c0.4,0,0.7-0.3,0.8-0.3l-0.1,0.7c-0.1,0.1-0.5,0.5-1.2,0.5
			c-0.7,0-1.1-0.5-1-1.6L151.7,113.2z M153.6,109.7l-1,0.9l-0.8-0.9l1-0.9L153.6,109.7z"/>
		<path class="st0" d="M156.3,117.5c-0.1,0.5,0.1,0.7,0.5,0.7c0.7,0,1.3-0.6,1.4-0.7l0.2,0.8c-0.1,0.1-0.9,0.9-2,0.9
			c-0.9,0-1.3-0.7-1.1-1.6l0.6-4.8h-1.4l0.4-0.8h1.1l0.8-2h0.5l-0.2,2h1.8l-0.4,0.8h-1.6L156.3,117.5z"/>
		<path class="st0" d="M161.2,107.7c0.1-0.4,0-0.7-0.4-0.7c-0.4,0-0.7,0.3-0.7,0.3l0.1-0.7c0.1-0.1,0.5-0.5,1.2-0.5
			c0.8,0,1.1,0.6,1,1.6l-1.1,7.6c0.9-3,2.1-3.7,3-3.7c0.9,0,1.6,0.8,1.4,2.3l-0.5,3.7c0,0.4,0,0.6,0.4,0.6c0.4,0,0.7-0.3,0.8-0.3
			l-0.1,0.7c-0.1,0.1-0.5,0.5-1.2,0.5c-0.7,0-1.1-0.5-1-1.5l0.4-3.5c0.1-1.1-0.2-1.4-0.7-1.4c-0.7,0-1.8,0.8-3.1,6.2h-1L161.2,107.7
			z"/>
		<path class="st0" d="M168.9,113.2c0.1-0.4,0-0.6-0.4-0.6c-0.4,0-0.7,0.3-0.7,0.3l0.1-0.7c0.1-0.1,0.5-0.5,1.2-0.5
			c0.6,0,1.1,0.5,1,1.6l-0.7,4.4c-0.1,0.4,0,0.6,0.4,0.6c0.4,0,0.7-0.3,0.8-0.3l-0.1,0.7c-0.1,0.1-0.5,0.5-1.2,0.5
			c-0.7,0-1.1-0.5-1-1.6L168.9,113.2z M170.8,109.7l-1,0.9l-0.8-0.9l1-0.9L170.8,109.7z"/>
		<path class="st0" d="M177.2,114.2c0.1-1.1-0.2-1.4-0.7-1.4c-0.7,0-1.8,0.8-3.1,6.2h-1l0.6-5.8c0-0.4,0-0.6-0.4-0.6
			c-0.4,0-0.7,0.3-0.7,0.3l0.1-0.7c0.1-0.1,0.5-0.5,1.2-0.5c0.6,0,1.1,0.5,1,1.6l-0.3,2.1c0.9-3,2.1-3.7,3-3.7
			c0.9,0,1.6,0.8,1.4,2.3l-0.5,3.7c0,0.4,0,0.6,0.4,0.6c0.4,0,0.7-0.3,0.8-0.3l-0.1,0.7c-0.1,0.1-0.5,0.5-1.2,0.5
			c-0.7,0-1.1-0.5-1-1.5L177.2,114.2z"/>
		<path class="st0" d="M192.4,108.4c-1.7,0.3-4.9,1.7-6.2,4.1c0.1-0.1,0.7-0.5,1.9-0.5c1.6,0,3,1.1,3,3.2c0,2.4-1.7,4.1-3.8,4.1
			c-1.7,0-3.1-1.3-3.1-3.7c0-4.3,4.1-7.9,8.3-8.3L192.4,108.4z M185.4,115.7c0,1.7,0.9,2.7,2,2.7c1.3,0,2.7-1.1,2.7-3.1
			c0-1.4-0.9-2.2-2.2-2.2c-1.1,0-1.7,0.3-2.1,0.5C185.7,113.8,185.4,114.6,185.4,115.7z"/>
		<path class="st0" d="M193.5,115.3v-1h3.5v1H193.5z"/>
		<path class="st0" d="M198.2,118.3c1.7-0.3,4.9-1.7,6.2-4.1c-0.1,0.1-0.7,0.5-1.9,0.5c-1.6,0-3-1.1-3-3.2c0-2.4,1.7-4.1,3.8-4.1
			c1.7,0,3.1,1.3,3.1,3.7c0,4.3-4.1,7.9-8.3,8.3L198.2,118.3z M205.3,111c0-1.7-0.9-2.7-2-2.7c-1.3,0-2.7,1.1-2.7,3.1
			c0,1.4,0.9,2.2,2.2,2.2c1.1,0,1.7-0.3,2.1-0.5C205,112.8,205.3,112,205.3,111z"/>
		<path class="st0" d="M212,112.6c-0.4,0-0.7,0.3-0.7,0.3l0.1-0.7c0.1-0.1,0.5-0.5,1.2-0.5c0.6,0,1.1,0.5,1,1.6l-0.3,2
			c0.7-1.9,1.7-3.5,3-3.5c0.9,0,1.5,0.8,1.3,2.3l-0.1,1c0.7-1.9,1.7-3.3,2.9-3.3c0.9,0,1.5,0.8,1.3,2.2l-0.5,3.7
			c0,0.4,0,0.6,0.4,0.6c0.4,0,0.7-0.3,0.8-0.3l-0.1,0.7c-0.1,0.1-0.5,0.5-1.2,0.5c-0.7,0-1.1-0.4-1-1.6l0.5-3.6
			c0.1-0.9-0.1-1.3-0.6-1.3c-0.5,0-1.8,0.7-3,6.2h-1l0.6-5c0.1-0.9-0.1-1.3-0.6-1.3c-0.5,0-1.8,0.7-3,6.2h-1l0.6-5.8
			C212.4,112.9,212.3,112.6,212,112.6z"/>
		<path class="st0" d="M227.2,111.7c1.5,0,2.5,1.4,2.5,3.1c0,2.2-1.7,4.4-3.7,4.4c-1.5,0-2.5-1.4-2.5-3.1
			C223.5,113.9,225.2,111.7,227.2,111.7z M226,118.2c1.3,0,2.5-1.6,2.5-3.4c0-1.2-0.6-2.1-1.5-2.1c-1.3,0-2.5,1.6-2.5,3.4
			C224.6,117.3,225.2,118.2,226,118.2z"/>
		<path class="st0" d="M236.3,114.2c0.1-1.1-0.2-1.4-0.7-1.4c-0.7,0-1.8,0.8-3.1,6.2h-1l0.6-5.8c0-0.4,0-0.6-0.4-0.6
			c-0.4,0-0.7,0.3-0.7,0.3l0.1-0.7c0.1-0.1,0.5-0.5,1.2-0.5c0.6,0,1.1,0.5,1,1.6l-0.3,2.1c0.9-3,2.1-3.7,3-3.7
			c0.9,0,1.6,0.8,1.4,2.3l-0.5,3.7c0,0.4,0,0.6,0.4,0.6c0.4,0,0.7-0.3,0.8-0.3l-0.1,0.7c-0.1,0.1-0.5,0.5-1.2,0.5
			c-0.7,0-1.1-0.5-1-1.5L236.3,114.2z"/>
		<path class="st0" d="M241.1,117.5c-0.1,0.5,0.1,0.7,0.5,0.7c0.7,0,1.3-0.6,1.4-0.7l0.2,0.8c-0.1,0.1-0.9,0.9-2,0.9
			c-0.9,0-1.3-0.7-1.1-1.6l0.6-4.8h-1.4l0.4-0.8h1.1l0.8-2h0.5l-0.2,2h1.8l-0.4,0.8h-1.6L241.1,117.5z"/>
		<path class="st0" d="M246,107.7c0.1-0.4,0-0.7-0.4-0.7c-0.4,0-0.7,0.3-0.7,0.3l0.1-0.7c0.1-0.1,0.5-0.5,1.2-0.5
			c0.8,0,1.1,0.6,1,1.6l-1.1,7.6c0.9-3,2.1-3.7,3-3.7c0.9,0,1.6,0.8,1.4,2.3l-0.5,3.7c0,0.4,0,0.6,0.4,0.6c0.4,0,0.7-0.3,0.8-0.3
			l-0.1,0.7c-0.1,0.1-0.5,0.5-1.2,0.5c-0.7,0-1.1-0.5-1-1.5l0.4-3.5c0.1-1.1-0.2-1.4-0.7-1.4c-0.7,0-1.8,0.8-3.1,6.2h-1L246,107.7z"
			/>
		<path class="st0" d="M252.3,117.7c0.1,0.1,1,0.6,1.9,0.6c0.7,0,1.3-0.3,1.3-1c0-0.6-0.4-0.9-0.7-1.1l-0.9-0.7
			c-0.6-0.4-1.2-0.9-1.2-1.8c0-1.1,1-2,2.3-2c1,0,1.7,0.4,1.8,0.4l-0.1,1c-0.1-0.1-0.7-0.4-1.5-0.4c-0.8,0-1.4,0.4-1.4,1
			c0,0.5,0.4,0.8,0.8,1.1l1,0.7c0.5,0.3,1,0.9,1,1.8c0,1.2-1,2-2.4,2c-1.1,0-1.9-0.5-2-0.6L252.3,117.7z"/>
		<path class="st0" d="M263.3,119.3c-0.9,0-1.7-0.7-1.7-1.9c0-2.2,2.2-3,4-3.1l0.2-1.4h-3.4l0.3-0.9h4.3l-0.7,5.8
			c0,0.3,0,0.6,0.4,0.6c0.4,0,0.7-0.3,0.8-0.3l-0.1,0.7c-0.1,0.1-0.5,0.5-1.1,0.5c-1,0-1-0.9-1-1.1
			C265.1,118.2,264.5,119.3,263.3,119.3z M265.5,115.1c-1.2,0.1-2.8,0.6-2.8,2.1c0,0.7,0.4,1.2,1,1.2c0.6,0,1.5-0.6,1.7-2.3
			L265.5,115.1z"/>
		<path class="st0" d="M272.2,107c-0.6,0-1,0.4-1.1,1.3l-0.5,3.7h2l-0.4,0.8h-1.6l-1.3,10.3c-0.2,1.3-0.9,1.9-1.8,1.9
			c-0.8,0-1.2-0.3-1.3-0.3l0.1-0.8c0.1,0.1,0.5,0.3,0.9,0.3c0.4,0,0.8-0.3,0.9-1.1l1.3-10.3h-1.2l0.4-0.8h0.9l0.5-3.7
			c0.2-1.6,1.1-2.3,2-2.3c0.9,0,1.4,0.4,1.5,0.5c-0.2,0.2-0.3,0.5-0.4,0.8C273,107.3,272.7,107,272.2,107z"/>
		<path class="st0" d="M274.1,117.5c-0.1,0.5,0.1,0.7,0.5,0.7c0.7,0,1.3-0.6,1.4-0.7l0.2,0.8c-0.1,0.1-0.9,0.9-2,0.9
			c-0.9,0-1.3-0.7-1.1-1.6l0.6-4.8h-1.4l0.4-0.8h1.1l0.8-2h0.5l-0.2,2h1.8l-0.4,0.8h-1.6L274.1,117.5z"/>
		<path class="st0" d="M280.3,118.2c1,0,1.8-0.9,1.9-1l0.5,0.7c-0.1,0.1-1,1.3-2.6,1.3c-1.5,0-2.5-1.3-2.5-3c0-2.7,2-4.5,3.7-4.5
			c1.2,0,1.9,0.7,1.9,1.7c0,1.9-2.5,2.9-4.4,2.9C278.8,117.5,279.4,118.2,280.3,118.2z M281.1,112.7c-0.9,0-2.2,1-2.4,2.8
			c1.8,0,3.3-1,3.3-2.1C282,113,281.7,112.7,281.1,112.7z"/>
		<path class="st0" d="M285.8,119h-1l0.6-5.8c0-0.4,0-0.6-0.4-0.6c-0.4,0-0.7,0.3-0.7,0.3l0.1-0.7c0.1-0.1,0.5-0.5,1.2-0.5
			c0.6,0,1.1,0.5,1,1.6l-0.3,2.1c0.3-1.2,1.2-3.7,2.8-3.7c0.9,0,1.3,0.8,1.4,1.2l-1,0.7c0-0.4-0.2-0.8-0.6-0.8
			C288.1,112.8,287,113.5,285.8,119z"/>
		<path class="st0" d="M296.6,119.9l-0.1-0.1c-0.4-0.3-0.9-0.7-0.9-1.3c0-0.4,0.2-0.7,0.5-0.9c-1.1-0.4-1.8-1.5-1.7-2.8
			c0.2-1.6,1.5-3,3-3c0.7,0,1.4,0.3,1.8,0.8l0.6-0.6h1.4l-0.1,0.8h-1.7c0.4,0.5,0.6,1.2,0.5,1.9c-0.1,1.6-1.5,3-3,3
			c-0.2,0.1-0.3,0.3-0.3,0.6c0,0.4,0.3,0.6,0.7,0.9c1.5,1.1,2.7,1.9,2.7,3.3s-1.3,2.6-3.3,2.6c-1.8,0-3.4-1-3.4-2.6
			C293.4,121.1,294.8,120,296.6,119.9z M296.7,124c1.3,0,2.2-0.7,2.2-1.6c0-0.8-1-1.4-1.4-1.7c-1.7-0.2-3.1,0.6-3.1,1.7
			C294.5,123.4,295.5,124,296.7,124z M295.5,114.8c-0.1,1.2,0.6,2,1.5,2c0.9,0,1.9-0.9,2-2.2c0.1-1.2-0.6-2-1.5-2
			C296.5,112.6,295.6,113.5,295.5,114.8z"/>
		<path class="st0" d="M303,119h-1l0.6-5.8c0-0.4,0-0.6-0.4-0.6c-0.4,0-0.7,0.3-0.7,0.3l0.1-0.7c0.1-0.1,0.5-0.5,1.2-0.5
			c0.6,0,1.1,0.5,1,1.6l-0.3,2.1c0.3-1.2,1.2-3.7,2.8-3.7c0.9,0,1.3,0.8,1.4,1.2l-1,0.7c0-0.4-0.2-0.8-0.6-0.8
			C305.2,112.8,304.1,113.5,303,119z"/>
		<path class="st0" d="M309.6,119.3c-0.9,0-1.7-0.7-1.7-1.9c0-2.2,2.2-3,4-3.1l0.2-1.4h-3.4l0.3-0.9h4.3l-0.7,5.8
			c0,0.3,0,0.6,0.4,0.6c0.4,0,0.7-0.3,0.8-0.3l-0.1,0.7c-0.1,0.1-0.5,0.5-1.1,0.5c-1,0-1-0.9-1-1.1
			C311.5,118.2,310.8,119.3,309.6,119.3z M311.8,115.1c-1.2,0.1-2.8,0.6-2.8,2.1c0,0.7,0.4,1.2,1,1.2c0.6,0,1.5-0.6,1.7-2.3
			L311.8,115.1z"/>
		<path class="st0" d="M318.5,111.8c0.7,0,1.1,0.1,1.5,0.3l0.5-4.4c0.1-0.4,0-0.7-0.4-0.7c-0.4,0-0.7,0.3-0.7,0.3l0.1-0.7
			c0.1-0.1,0.5-0.5,1.2-0.5c0.8,0,1.1,0.6,1,1.6l-1.2,9.9c0,0.4,0,0.7,0.4,0.7c0.4,0,0.7-0.3,0.8-0.3l-0.1,0.7
			c-0.1,0.1-0.6,0.5-1.2,0.5c-0.6,0-1-0.4-1-1.1l-1.9,1.2c-0.4-0.2-2.5-1.2-2.5-3.6C314.9,113.3,316.7,111.8,318.5,111.8z
			 M317.5,118.3l2-1.2l0.5-4c-0.2-0.1-0.7-0.3-1.4-0.3c-1.2,0-2.6,1.1-2.6,2.9C316,117.3,317.2,118.1,317.5,118.3z"/>
		<path class="st0" d="M324.5,116.9c-0.1,0.9,0.2,1.3,0.6,1.3c0.6,0,1.8-0.8,3-6.2h1l-0.6,5.8c0,0.4,0,0.6,0.4,0.6
			c0.4,0,0.7-0.3,0.7-0.3l-0.1,0.7c-0.1,0.1-0.5,0.5-1.2,0.5c-0.6,0-1.1-0.5-1-1.6l0.3-2.1c-0.9,3-2,3.7-2.9,3.7
			c-0.8,0-1.6-0.8-1.4-2.2l0.5-3.8c0.1-0.4,0-0.6-0.4-0.6c-0.4,0-0.7,0.3-0.8,0.3l0.1-0.7c0.1-0.1,0.5-0.5,1.2-0.5
			c0.7,0,1.1,0.5,1,1.5L324.5,116.9z"/>
		<path class="st0" d="M332.5,119.3c-0.9,0-1.7-0.7-1.7-1.9c0-2.2,2.2-3,4-3.1l0.2-1.4h-3.4l0.3-0.9h4.3l-0.7,5.8
			c0,0.3,0,0.6,0.4,0.6c0.4,0,0.7-0.3,0.8-0.3l-0.1,0.7c-0.1,0.1-0.5,0.5-1.1,0.5c-1,0-1-0.9-1-1.1
			C334.4,118.2,333.7,119.3,332.5,119.3z M334.7,115.1c-1.2,0.1-2.8,0.6-2.8,2.1c0,0.7,0.4,1.2,1,1.2c0.6,0,1.5-0.6,1.7-2.3
			L334.7,115.1z"/>
		<path class="st0" d="M339.5,117.5c-0.1,0.5,0.1,0.7,0.5,0.7c0.7,0,1.3-0.6,1.4-0.7l0.2,0.8c-0.1,0.1-0.9,0.9-2,0.9
			c-0.9,0-1.3-0.7-1.1-1.6l0.6-4.8h-1.4l0.4-0.8h1.1l0.8-2h0.5l-0.2,2h1.8l-0.4,0.8h-1.6L339.5,117.5z"/>
		<path class="st0" d="M344.2,113.2c0.1-0.4,0-0.6-0.4-0.6c-0.4,0-0.7,0.3-0.7,0.3l0.1-0.7c0.1-0.1,0.5-0.5,1.2-0.5
			c0.6,0,1.1,0.5,1,1.6l-0.7,4.4c-0.1,0.4,0,0.6,0.4,0.6c0.4,0,0.7-0.3,0.8-0.3l-0.1,0.7c-0.1,0.1-0.5,0.5-1.2,0.5
			c-0.7,0-1.1-0.5-1-1.6L344.2,113.2z M346.1,109.7l-1,0.9l-0.8-0.9l1-0.9L346.1,109.7z"/>
		<path class="st0" d="M350.9,111.7c1.5,0,2.5,1.4,2.5,3.1c0,2.2-1.7,4.4-3.7,4.4c-1.5,0-2.5-1.4-2.5-3.1
			C347.1,113.9,348.9,111.7,350.9,111.7z M349.7,118.2c1.3,0,2.5-1.6,2.5-3.4c0-1.2-0.6-2.1-1.5-2.1c-1.3,0-2.5,1.6-2.5,3.4
			C348.2,117.3,348.9,118.2,349.7,118.2z"/>
		<path class="st0" d="M360,114.2c0.1-1.1-0.2-1.4-0.7-1.4c-0.7,0-1.8,0.8-3.1,6.2h-1l0.6-5.8c0-0.4,0-0.6-0.4-0.6
			c-0.4,0-0.7,0.3-0.7,0.3l0.1-0.7c0.1-0.1,0.5-0.5,1.2-0.5c0.6,0,1.1,0.5,1,1.6l-0.3,2.1c0.9-3,2.1-3.7,3-3.7
			c0.9,0,1.6,0.8,1.4,2.3l-0.5,3.7c0,0.4,0,0.6,0.4,0.6c0.4,0,0.7-0.3,0.8-0.3l-0.1,0.7c-0.1,0.1-0.5,0.5-1.2,0.5
			c-0.7,0-1.1-0.5-1-1.5L360,114.2z"/>
		<path class="st0" d="M367.3,111.1l2.1,2.4l-1.1,0.8l-1.2-3l-1.9,3l-1-0.8l2.7-2.4l-3.2-0.6l0.6-1.3l2.8,1.5l-0.1-3.3h1.3l-0.9,3.3
			l3.2-1.5l0.3,1.3L367.3,111.1z"/>
	</g>
	<rect x="26" y="49" class="st0" width="92.1" height="45.2"/>
	<rect x="33.4" y="56.6" class="st1" width="93.8" height="36.9"/>
	<g class="st2">
		<path class="st4" d="M35.9,85.6v-4.2c5.9-1,10.5-3,13.2-6.8c-0.8,0.1-1.5,0.2-2.4,0.2c-5.1,0-10.4-3.5-10.4-9.7
			c0-5.2,4.6-9.6,10-9.6c7.2,0,10.5,5.8,10.5,11.3C56.8,77.2,47.7,84.7,35.9,85.6z M46.1,60.3c-2.8,0-4.8,2.5-4.8,5
			c0,2.8,2.2,5.4,5.8,5.4c2.5,0,3.5-0.5,4.1-0.9c0.1-0.4,0.4-1.5,0.4-2.7C51.6,63.3,49.8,60.3,46.1,60.3z"/>
		<path class="st4" d="M69.4,66.9c0.8-0.1,1.5-0.2,2.4-0.2c5.1,0,10.4,3.5,10.4,9.7c0,5.2-4.6,9.5-10,9.5c-7.2,0-10.5-5.8-10.5-11.3
			c0-10.2,9.1-17.7,20.9-18.6v4.2C76.7,61.1,72.2,63.1,69.4,66.9z M71.4,70.9c-2.5,0-3.5,0.5-4.1,0.8c-0.1,0.5-0.4,1.5-0.4,2.7
			c0,3.8,1.9,6.8,5.5,6.8c2.8,0,4.8-2.5,4.8-5C77.2,73.5,75,70.9,71.4,70.9z"/>
		<path class="st4" d="M92.7,67.2c-3.4,0-6.1-2.5-6.1-5.8s2.6-5.8,6.1-5.8s6.1,2.6,6.1,5.8S96.1,67.2,92.7,67.2z M92.7,58.8
			c-1.6,0-2.8,1.1-2.8,2.7c0,1.4,1.1,2.6,2.8,2.6c1.7,0,2.9-1.2,2.9-2.6C95.5,60,94.3,58.8,92.7,58.8z M94.1,85.8h-2.3l12.8-30.1
			h2.4L94.1,85.8z M105.9,85.6c-3.4,0-6.1-2.5-6.1-5.7c0-3.2,2.6-5.8,6.1-5.8s6.1,2.5,6.1,5.8C112,83,109.4,85.6,105.9,85.6z
			 M105.9,77.2c-1.6,0-2.8,1.2-2.8,2.7c0,1.5,1.2,2.6,2.8,2.6s2.9-1.2,2.9-2.6C108.8,78.3,107.6,77.2,105.9,77.2z"/>
	</g>
	<g class="st2">
		<path class="st0" d="M140.6,131.3l1,0.9l-0.6,0.4l-0.6-1.2l-0.5,1.2l-0.6-0.4l1-0.9l-1.3-0.1l0.2-0.6l1.1,0.6l-0.3-1.3h0.7
			l-0.3,1.3l1.1-0.6l0.2,0.6L140.6,131.3z"/>
		<path class="st0" d="M146,134.5h-1.7v-4.5h1.5c1,0,1.5,0.6,1.5,1.2c0,0.4-0.2,0.7-0.5,0.9c0.4,0.3,0.7,0.6,0.7,1.1
			C147.5,134,146.8,134.5,146,134.5z M145.6,130.7h-0.5v1.1h0.7c0.1,0,0.2,0,0.3,0c0.2-0.1,0.3-0.3,0.3-0.6
			C146.4,130.9,146.1,130.7,145.6,130.7z M145.7,132.5h-0.6v1.3h0.7c0.5,0,0.8-0.2,0.8-0.6C146.6,132.8,146.3,132.5,145.7,132.5z"/>
		<path class="st0" d="M149.8,134.5l0-0.2c-0.1,0.1-0.4,0.3-0.7,0.3c-0.5,0-0.9-0.4-0.9-0.9c0-0.6,0.6-0.9,1.2-1l0.4,0v-0.4h-1.5
			l0.1-0.6h2.1v2.8H149.8z M149.7,133.2l-0.4,0c-0.3,0-0.5,0.2-0.5,0.4c0,0.2,0.2,0.3,0.4,0.3c0.2,0,0.4-0.1,0.5-0.2V133.2z"/>
		<path class="st0" d="M152.1,134.6c-0.4,0-0.7-0.1-0.9-0.2v-0.7c0.1,0.1,0.6,0.3,0.9,0.3c0.2,0,0.4-0.1,0.4-0.2
			c0-0.1-0.1-0.2-0.3-0.3c-0.4-0.2-1-0.4-1-1c0-0.6,0.5-0.9,1-0.9c0.4,0,0.8,0.1,0.9,0.2v0.7c-0.1-0.1-0.5-0.2-0.8-0.2
			c-0.2,0-0.3,0.1-0.3,0.2c0,0.1,0.1,0.2,0.3,0.3c0.5,0.2,1,0.4,1,1C153.2,134.3,152.7,134.6,152.1,134.6z"/>
		<path class="st0" d="M154.5,133.3c0.1,0.3,0.4,0.6,0.9,0.6c0.5,0,0.9-0.2,1-0.2v0.6c-0.1,0-0.4,0.2-1.1,0.2
			c-0.8,0-1.6-0.6-1.6-1.5c0-0.8,0.7-1.5,1.4-1.5c0.7,0,1.3,0.6,1.3,1.3v0.4H154.5z M155.2,132.2c-0.3,0-0.6,0.3-0.6,0.6h1.2
			C155.7,132.5,155.5,132.2,155.2,132.2z"/>
		<path class="st0" d="M159.3,134.5l-0.1-0.2l-0.7,0.3c-0.3-0.1-1.5-0.4-1.5-1.6c0-0.8,0.6-1.4,1.4-1.4c0.4,0,0.6,0.2,0.8,0.2v-1.9
			h0.8v4.5H159.3z M158.6,132.3c-0.4,0-0.7,0.4-0.7,0.7c0,0.5,0.3,0.8,0.6,0.9l0.7-0.3v-1.1C159.2,132.4,158.9,132.3,158.6,132.3z"
			/>
		<path class="st0" d="M163.8,134.6c-0.9,0-1.6-0.6-1.6-1.5s0.7-1.5,1.6-1.5c0.9,0,1.6,0.7,1.6,1.5S164.6,134.6,163.8,134.6z
			 M163.8,132.2c-0.4,0-0.8,0.4-0.8,0.8c0,0.5,0.4,0.8,0.8,0.8c0.4,0,0.8-0.4,0.8-0.8C164.5,132.6,164.2,132.2,163.8,132.2z"/>
		<path class="st0" d="M167.9,134.5v-1.7c0-0.3-0.2-0.5-0.5-0.5c-0.3,0-0.5,0.2-0.6,0.3v1.9H166v-2.8h0.8l0,0.2
			c0.1-0.1,0.4-0.3,0.9-0.3c0.6,0,1,0.4,1,1.2v1.7H167.9z"/>
		<path class="st0" d="M171.8,134.6c-0.4,0-0.7-0.1-0.9-0.2v-0.7c0.1,0.1,0.6,0.3,0.9,0.3c0.2,0,0.4-0.1,0.4-0.2
			c0-0.1-0.1-0.2-0.3-0.3c-0.4-0.2-1-0.4-1-1c0-0.6,0.5-0.9,1-0.9c0.4,0,0.8,0.1,0.9,0.2v0.7c-0.1-0.1-0.5-0.2-0.8-0.2
			c-0.2,0-0.3,0.1-0.3,0.2c0,0.1,0.1,0.2,0.3,0.3c0.5,0.2,1,0.4,1,1C172.9,134.3,172.4,134.6,171.8,134.6z"/>
		<path class="st0" d="M175.5,134.5l0-0.2c-0.1,0.1-0.3,0.3-0.9,0.3c-0.5,0-1-0.4-1-1.2v-1.7h0.8v1.7c0,0.3,0.2,0.5,0.5,0.5
			c0.2,0,0.5-0.2,0.6-0.2v-2h0.8v2.8H175.5z"/>
		<path class="st0" d="M178.6,132.3c-0.3,0-0.5,0.2-0.6,0.3v2h-0.8v-2.8h0.8l0,0.3c0-0.1,0.3-0.4,0.7-0.4c0.2,0,0.3,0,0.3,0v0.7
			C179,132.3,178.8,132.3,178.6,132.3z"/>
		<path class="st0" d="M180.9,134.5h-0.8l-1-2.8h0.8l0.6,1.9l0.6-1.9h0.8L180.9,134.5z"/>
		<path class="st0" d="M183,133.3c0.1,0.3,0.4,0.6,0.9,0.6c0.5,0,0.9-0.2,1-0.2v0.6c-0.1,0-0.4,0.2-1.1,0.2c-0.8,0-1.6-0.6-1.6-1.5
			c0-0.8,0.7-1.5,1.4-1.5c0.7,0,1.3,0.6,1.3,1.3v0.4H183z M183.6,132.2c-0.3,0-0.6,0.3-0.6,0.6h1.2
			C184.2,132.5,184,132.2,183.6,132.2z"/>
		<path class="st0" d="M187.1,134.5l-0.7,1.8h-0.8l0.7-1.8l-1-2.8h0.8l0.6,1.9l0.6-1.9h0.8L187.1,134.5z"/>
		<path class="st0" d="M191.5,132.3c-0.3,0-0.5,0.2-0.6,0.3v2h-0.8v-2.8h0.8l0,0.3c0-0.1,0.3-0.4,0.7-0.4c0.2,0,0.3,0,0.3,0v0.7
			C191.9,132.3,191.7,132.3,191.5,132.3z"/>
		<path class="st0" d="M193,133.3c0.1,0.3,0.4,0.6,0.9,0.6c0.5,0,0.9-0.2,1-0.2v0.6c-0.1,0-0.4,0.2-1.1,0.2c-0.8,0-1.6-0.6-1.6-1.5
			c0-0.8,0.7-1.5,1.4-1.5c0.7,0,1.3,0.6,1.3,1.3v0.4H193z M193.6,132.2c-0.3,0-0.6,0.3-0.6,0.6h1.2
			C194.1,132.5,194,132.2,193.6,132.2z"/>
		<path class="st0" d="M196.4,134.6c-0.4,0-0.7-0.1-0.9-0.2v-0.7c0.1,0.1,0.6,0.3,0.9,0.3c0.2,0,0.4-0.1,0.4-0.2
			c0-0.1-0.1-0.2-0.3-0.3c-0.4-0.2-1-0.4-1-1c0-0.6,0.5-0.9,1-0.9c0.4,0,0.8,0.1,0.9,0.2v0.7c-0.1-0.1-0.5-0.2-0.8-0.2
			c-0.2,0-0.3,0.1-0.3,0.2c0,0.1,0.1,0.2,0.3,0.3c0.5,0.2,1,0.4,1,1C197.5,134.3,197,134.6,196.4,134.6z"/>
		<path class="st0" d="M199.8,134.6c-0.4,0-0.6-0.1-0.8-0.2v2h-0.8v-4.6h0.8l0.1,0.2l0.6-0.3c0.4,0.1,1.5,0.4,1.5,1.6
			C201.2,133.9,200.6,134.6,199.8,134.6z M199.7,132.2l-0.7,0.3v1.1c0.1,0.1,0.3,0.2,0.7,0.2c0.4,0,0.7-0.4,0.7-0.7
			C200.4,132.6,199.9,132.3,199.7,132.2z"/>
		<path class="st0" d="M203.3,134.6c-0.9,0-1.6-0.6-1.6-1.5s0.7-1.5,1.6-1.5c0.9,0,1.6,0.7,1.6,1.5S204.2,134.6,203.3,134.6z
			 M203.3,132.2c-0.4,0-0.8,0.4-0.8,0.8c0,0.5,0.4,0.8,0.8,0.8c0.4,0,0.8-0.4,0.8-0.8C204.1,132.6,203.7,132.2,203.3,132.2z"/>
		<path class="st0" d="M207.5,134.5v-1.7c0-0.3-0.2-0.5-0.5-0.5c-0.3,0-0.5,0.2-0.6,0.3v1.9h-0.8v-2.8h0.8l0,0.2
			c0.1-0.1,0.4-0.3,0.9-0.3c0.6,0,1,0.4,1,1.2v1.7H207.5z"/>
		<path class="st0" d="M209.9,134.6c-0.4,0-0.7-0.1-0.9-0.2v-0.7c0.1,0.1,0.6,0.3,0.9,0.3c0.2,0,0.4-0.1,0.4-0.2
			c0-0.1-0.1-0.2-0.3-0.3c-0.4-0.2-1-0.4-1-1c0-0.6,0.5-0.9,1-0.9c0.4,0,0.8,0.1,0.9,0.2v0.7c-0.1-0.1-0.5-0.2-0.8-0.2
			c-0.2,0-0.3,0.1-0.3,0.2c0,0.1,0.1,0.2,0.3,0.3c0.5,0.2,1,0.4,1,1C211,134.3,210.5,134.6,209.9,134.6z"/>
		<path class="st0" d="M212.3,133.3c0.1,0.3,0.4,0.6,0.9,0.6c0.5,0,0.9-0.2,1-0.2v0.6c-0.1,0-0.4,0.2-1.1,0.2
			c-0.8,0-1.6-0.6-1.6-1.5c0-0.8,0.7-1.5,1.4-1.5c0.7,0,1.3,0.6,1.3,1.3v0.4H212.3z M213,132.2c-0.3,0-0.6,0.3-0.6,0.6h1.2
			C213.5,132.5,213.3,132.2,213,132.2z"/>
		<path class="st0" d="M215.8,134.6c-0.4,0-0.7-0.1-0.9-0.2v-0.7c0.1,0.1,0.6,0.3,0.9,0.3c0.2,0,0.4-0.1,0.4-0.2
			c0-0.1-0.1-0.2-0.3-0.3c-0.4-0.2-1-0.4-1-1c0-0.6,0.5-0.9,1-0.9c0.4,0,0.8,0.1,0.9,0.2v0.7c-0.1-0.1-0.5-0.2-0.8-0.2
			c-0.2,0-0.3,0.1-0.3,0.2c0,0.1,0.1,0.2,0.3,0.3c0.5,0.2,1,0.4,1,1C216.9,134.3,216.4,134.6,215.8,134.6z"/>
		<path class="st0" d="M220.6,134.5l0-0.2c-0.1,0.1-0.4,0.3-0.7,0.3c-0.5,0-0.9-0.4-0.9-0.9c0-0.6,0.6-0.9,1.2-1l0.4,0v-0.4h-1.5
			l0.1-0.6h2.1v2.8H220.6z M220.5,133.2l-0.4,0c-0.3,0-0.5,0.2-0.5,0.4c0,0.2,0.2,0.3,0.4,0.3c0.2,0,0.4-0.1,0.5-0.2V133.2z"/>
		<path class="st0" d="M224.1,134.5v-1.7c0-0.3-0.2-0.5-0.5-0.5c-0.3,0-0.5,0.2-0.6,0.3v1.9h-0.8v-2.8h0.8l0,0.2
			c0.1-0.1,0.4-0.3,0.9-0.3c0.6,0,1,0.4,1,1.2v1.7H224.1z"/>
		<path class="st0" d="M227.8,134.5l-0.1-0.2l-0.7,0.3c-0.3-0.1-1.5-0.4-1.5-1.6c0-0.8,0.6-1.4,1.4-1.4c0.4,0,0.6,0.2,0.8,0.2v-1.9
			h0.8v4.5H227.8z M227.1,132.3c-0.4,0-0.7,0.4-0.7,0.7c0,0.5,0.3,0.8,0.6,0.9l0.7-0.3v-1.1C227.7,132.4,227.5,132.3,227.1,132.3z"
			/>
		<path class="st0" d="M232.3,134.6c-0.9,0-1.6-0.6-1.6-1.5s0.7-1.5,1.6-1.5c0.9,0,1.6,0.7,1.6,1.5S233.2,134.6,232.3,134.6z
			 M232.3,132.2c-0.4,0-0.8,0.4-0.8,0.8c0,0.5,0.4,0.8,0.8,0.8c0.4,0,0.8-0.4,0.8-0.8C233.1,132.6,232.7,132.2,232.3,132.2z"/>
		<path class="st0" d="M235.6,134.6c-0.5,0-1-0.3-1-1.2v-1h-0.5l0.1-0.7h0.4v-1.1h0.8v1.1h0.9l-0.1,0.7h-0.8v1
			c0,0.4,0.2,0.6,0.5,0.6c0.2,0,0.3,0,0.4-0.1v0.6C236.2,134.5,236,134.6,235.6,134.6z"/>
		<path class="st0" d="M238.9,134.5v-1.7c0-0.3-0.2-0.5-0.5-0.5c-0.3,0-0.6,0.2-0.6,0.3v1.9H237v-4.5h0.8v2c0.1-0.1,0.4-0.3,0.9-0.3
			c0.6,0,1,0.4,1,1.2v1.7H238.9z"/>
		<path class="st0" d="M241.2,133.3c0.1,0.3,0.4,0.6,0.9,0.6c0.5,0,0.9-0.2,1-0.2v0.6c-0.1,0-0.4,0.2-1.1,0.2
			c-0.8,0-1.6-0.6-1.6-1.5c0-0.8,0.7-1.5,1.4-1.5c0.7,0,1.3,0.6,1.3,1.3v0.4H241.2z M241.8,132.2c-0.3,0-0.6,0.3-0.6,0.6h1.2
			C242.3,132.5,242.2,132.2,241.8,132.2z"/>
		<path class="st0" d="M245.3,132.3c-0.3,0-0.5,0.2-0.6,0.3v2h-0.8v-2.8h0.8l0,0.3c0-0.1,0.3-0.4,0.7-0.4c0.2,0,0.3,0,0.3,0v0.7
			C245.7,132.3,245.5,132.3,245.3,132.3z"/>
		<path class="st0" d="M249,134.5h-0.8l-1-2.8h0.8l0.6,1.9l0.6-1.9h0.8L249,134.5z"/>
		<path class="st0" d="M251.1,133.3c0.1,0.3,0.4,0.6,0.9,0.6c0.5,0,0.9-0.2,1-0.2v0.6c-0.1,0-0.4,0.2-1.1,0.2
			c-0.8,0-1.6-0.6-1.6-1.5c0-0.8,0.7-1.5,1.4-1.5c0.7,0,1.3,0.6,1.3,1.3v0.4H251.1z M251.8,132.2c-0.3,0-0.6,0.3-0.6,0.6h1.2
			C252.3,132.5,252.1,132.2,251.8,132.2z"/>
		<path class="st0" d="M255.3,132.3c-0.3,0-0.5,0.2-0.6,0.3v2h-0.8v-2.8h0.8l0,0.3c0-0.1,0.3-0.4,0.7-0.4c0.2,0,0.3,0,0.3,0v0.7
			C255.6,132.3,255.5,132.3,255.3,132.3z"/>
		<path class="st0" d="M256.6,131.1l-0.5-0.5l0.5-0.5l0.5,0.5L256.6,131.1z M256.2,134.5v-2.8h0.8v2.8H256.2z"/>
		<path class="st0" d="M261.1,134.5h-0.8v-2.2h-1.5v2.2H258v-2.2h-0.5l0.1-0.7h0.4v-0.6c0-0.8,0.6-1.3,1.2-1.3c0.5,0,0.8,0.3,1,0.4
			l-0.5,0.5c-0.1-0.1-0.2-0.2-0.4-0.2c-0.3,0-0.5,0.2-0.5,0.6v0.6h2.3V134.5z"/>
		<path class="st0" d="M263.7,134.5l0-0.2c-0.1,0.1-0.4,0.3-0.7,0.3c-0.5,0-0.9-0.4-0.9-0.9c0-0.6,0.6-0.9,1.2-1l0.4,0v-0.4h-1.5
			l0.1-0.6h2.1v2.8H263.7z M263.6,133.2l-0.4,0c-0.3,0-0.5,0.2-0.5,0.4c0,0.2,0.2,0.3,0.4,0.3c0.2,0,0.4-0.1,0.5-0.2V133.2z"/>
		<path class="st0" d="M266.8,134.6c-0.3,0-0.6-0.1-0.8-0.3l0,0.2h-0.7v-4.5h0.8v1.9c0.2-0.1,0.5-0.2,0.8-0.2c0.8,0,1.4,0.7,1.4,1.5
			C268.2,133.9,267.6,134.6,266.8,134.6z M266.6,132.3c-0.2,0-0.4,0.1-0.6,0.2v1.2c0.2,0.1,0.4,0.2,0.6,0.2c0.5,0,0.8-0.4,0.8-0.8
			C267.4,132.6,267.1,132.3,266.6,132.3z"/>
		<path class="st0" d="M270.4,134.3c-0.1,0.1-0.3,0.2-0.8,0.2c-0.4,0-0.8-0.3-0.8-1v-3.6h0.8v3.6c0,0.3,0.2,0.3,0.3,0.3
			c0.2,0,0.4-0.1,0.4-0.2V134.3z"/>
		<path class="st0" d="M271.5,133.3c0.1,0.3,0.4,0.6,0.9,0.6c0.5,0,0.9-0.2,1-0.2v0.6c-0.1,0-0.4,0.2-1.1,0.2
			c-0.8,0-1.6-0.6-1.6-1.5c0-0.8,0.7-1.5,1.4-1.5c0.7,0,1.3,0.6,1.3,1.3v0.4H271.5z M272.2,132.2c-0.3,0-0.6,0.3-0.6,0.6h1.2
			C272.7,132.5,272.5,132.2,272.2,132.2z"/>
		<path class="st0" d="M276.4,134.6c-0.4,0-0.7-0.1-0.9-0.2v-0.7c0.1,0.1,0.6,0.3,0.9,0.3c0.2,0,0.4-0.1,0.4-0.2
			c0-0.1-0.1-0.2-0.3-0.3c-0.4-0.2-1-0.4-1-1c0-0.6,0.5-0.9,1-0.9c0.4,0,0.8,0.1,0.9,0.2v0.7c-0.1-0.1-0.5-0.2-0.8-0.2
			c-0.2,0-0.3,0.1-0.3,0.2c0,0.1,0.1,0.2,0.3,0.3c0.5,0.2,1,0.4,1,1C277.5,134.3,277,134.6,276.4,134.6z"/>
		<path class="st0" d="M279.6,134.6c-0.9,0-1.6-0.6-1.6-1.5s0.7-1.5,1.6-1.5c0.9,0,1.6,0.7,1.6,1.5S280.5,134.6,279.6,134.6z
			 M279.6,132.2c-0.4,0-0.8,0.4-0.8,0.8c0,0.5,0.4,0.8,0.8,0.8c0.4,0,0.8-0.4,0.8-0.8C280.4,132.6,280.1,132.2,279.6,132.2z"/>
		<path class="st0" d="M283.8,134.5l0-0.2c-0.1,0.1-0.3,0.3-0.9,0.3c-0.5,0-1-0.4-1-1.2v-1.7h0.8v1.7c0,0.3,0.2,0.5,0.5,0.5
			c0.2,0,0.5-0.2,0.6-0.2v-2h0.8v2.8H283.8z"/>
		<path class="st0" d="M286.8,132.3c-0.3,0-0.5,0.2-0.6,0.3v2h-0.8v-2.8h0.8l0,0.3c0-0.1,0.3-0.4,0.7-0.4c0.2,0,0.3,0,0.3,0v0.7
			C287.2,132.3,287.1,132.3,286.8,132.3z"/>
		<path class="st0" d="M289.1,134.6c-0.9,0-1.6-0.6-1.6-1.5c0-0.9,0.7-1.5,1.6-1.5c0.5,0,0.9,0.2,1,0.3v0.7
			c-0.1-0.1-0.5-0.3-0.9-0.3c-0.6,0-0.9,0.3-0.9,0.8c0,0.5,0.4,0.8,0.9,0.8c0.4,0,0.8-0.2,0.9-0.3v0.7
			C290,134.4,289.7,134.6,289.1,134.6z"/>
		<path class="st0" d="M291.4,133.3c0.1,0.3,0.4,0.6,0.9,0.6c0.5,0,0.9-0.2,1-0.2v0.6c-0.1,0-0.4,0.2-1.1,0.2
			c-0.8,0-1.6-0.6-1.6-1.5c0-0.8,0.7-1.5,1.4-1.5c0.7,0,1.3,0.6,1.3,1.3v0.4H291.4z M292.1,132.2c-0.3,0-0.6,0.3-0.6,0.6h1.2
			C292.6,132.5,292.4,132.2,292.1,132.2z"/>
		<path class="st0" d="M294.9,134.6c-0.4,0-0.7-0.1-0.9-0.2v-0.7c0.1,0.1,0.6,0.3,0.9,0.3c0.2,0,0.4-0.1,0.4-0.2
			c0-0.1-0.1-0.2-0.3-0.3c-0.4-0.2-1-0.4-1-1c0-0.6,0.5-0.9,1-0.9c0.4,0,0.8,0.1,0.9,0.2v0.7c-0.1-0.1-0.5-0.2-0.8-0.2
			c-0.2,0-0.3,0.1-0.3,0.2c0,0.1,0.1,0.2,0.3,0.3c0.5,0.2,1,0.4,1,1C296,134.3,295.5,134.6,294.9,134.6z"/>
	</g>
</g>
</svg>
