<svg xmlns="http://www.w3.org/2000/svg" width="211" height="69" viewBox="0 0 211 69"><g><g transform="rotate(-2 105.5 34.5)"><path fill="#fff" d="M178.814 11.826c-17.199-4.217-34.704-7.673-52.46-9.833C108.124-.277 89.54-1.21 71.155.204 53.335 1.576 35.6 5.244 19.757 12.228 11.328 15.943-1.87 22.38.615 31.915c2.196 8.428 12.264 14.433 20.82 18.4 10.028 4.678 20.922 8.023 31.95 10.678 11.907 2.836 24.227 4.344 36.488 5.745 17.97 2.056 36.18 3.255 54.33 2.6 17.176-.657 34.796-3.054 50.3-9.345 7.496-3.056 14.947-8 15.73-15.378.855-8.076-5.712-16.151-12.867-21.185-3.367-2.375-7.174-4.267-11.191-5.808-1.386-.533-.756 1.145-.488 1.593.661 1.105 1.806 2.327 3.196 2.86 7.436 2.852 14.286 7.214 16.347 14.08 2.223 7.406-3.501 14.07-11.029 17.658-14.26 6.795-31.202 9.525-47.415 10.58-17.202 1.117-34.54.305-51.649-1.4-8.194-.744-16.357-1.747-24.49-2.884-4.938-.691-9.871-1.379-14.726-2.4-10.11-2.129-20.09-4.962-29.545-8.607-4.8-1.85-9.49-3.94-13.772-6.524-.888-.585-1.303-.8-2.227-1.45-.432-.303-.851-.617-1.271-.932-.107-.051-.734-.582-.207-.203a6.147 6.147 0 0 1-.755-.587c-.145-.158-1.239-1.175-.626-.557-.268-.27-.52-.545-.782-.856-.524-.527.421.574-.045 0-.132-.179-.262-.348-.394-.515-.084-.107-.473-.693-.072-.082-.147-.224-.286-.453-.427-.682-.045-.073-.342-.655-.088-.143-.085-.172-.172-.344-.242-.52-.07-.175-.35-.968-.291-.757-.178-.696-.316-1.425-.304-2.14.025-1.456.56-2.931 1.333-4.24 2.419-4.1 7.394-7.098 11.952-9.45 14.404-7.47 30.997-11.723 47.73-13.757 34.61-4.206 70.332.404 103.832 7.815 3.95.874 7.883 1.797 11.802 2.757 1.384.339.836-1.011.477-1.593-.565-.963-1.823-2.526-3.185-2.86"/></g></g></svg>