<?xml version="1.0" encoding="utf-8"?>
<!-- Generator: Adobe Illustrator 28.0.0, SVG Export Plug-In . SVG Version: 6.00 Build 0)  -->
<svg version="1.1" id="Layer_1" xmlns="http://www.w3.org/2000/svg" xmlns:xlink="http://www.w3.org/1999/xlink" x="0px" y="0px"
	 viewBox="0 0 349 153.7" style="enable-background:new 0 0 349 153.7;" xml:space="preserve">
<style type="text/css">
	.st0{fill:#76ACCD;}
	.st1{fill:none;}
	.st2{enable-background:new    ;}
	.st3{fill:#2A3F5E;}
</style>
<g>
	<path class="st0" d="M200.2,30.2c0,3.9-3.5,7.1-7.9,7.1s-7.9-3.2-7.9-7.1s3.5-7.1,7.9-7.1C196.7,23.1,200.2,26.3,200.2,30.2"/>
	<path class="st0" d="M179.1,40.1c1.1-0.7,3-1.3,4.4-1.3h16.7c1.3,0,3.4,0.5,4.5,1.1l0.7,0.4c1.2,0.6,2.1,2.1,2.1,3.3v28.5
		c0,1.2-0.9,2.2-2.1,2.2c-1.2,0-2.1-1-2.1-2.2V53.6c0-1.2-0.8-2.2-1.7-2.2s-1.7,1-1.7,2.2v46c0,1.2-1.1,2.2-2.4,2.2H197
		c-1.3,0-2.5-1-2.6-2.2l-1.2-14.9c-0.1-1.2-0.6-2.2-1.1-2.2s-1,1-1.1,2.2l-1.1,14.9c-0.1,1.2-1.3,2.2-2.6,2.2h-0.9
		c-1.3,0-2.4-1-2.4-2.2v-46c0-1.2-0.8-2.2-1.7-2.2s-1.7,1-1.7,2.2v18.5c0,1.2-0.9,2.2-2.1,2.2c-1.1,0-2.1-1-2.1-2.2V44.2
		c0-1.2,0.9-2.8,1.9-3.5L179.1,40.1z"/>
	<path class="st0" d="M281.4,72.4c0.2-0.5,0.9-0.9,1.5-0.9h4c0.6,0,1.3,0.4,1.5,0.9l4.8,10.7c0.2,0.5,0.2,1.1-0.2,1.3
		c-0.3,0.2-0.8,0-1.1-0.5l-3.7-6.1c-0.3-0.5-0.6-0.8-0.7-0.7c-0.1,0.1,0,0.6,0.2,1.1l4.2,10.1c0.2,0.5-0.1,0.9-0.7,0.9h-2.7
		c-0.6,0-1.2,0.4-1.2,1l-1.3,8.5c-0.1,0.5-0.6,1-1.1,1s-1-0.4-1.1-1l-1.3-8.5c-0.1-0.5-0.6-1-1.2-1h-2.7c-0.6,0-0.9-0.4-0.7-0.9
		l4.2-9.9c0.2-0.5,0.3-1.1,0.1-1.2c-0.1-0.2-0.5,0.1-0.8,0.5l-3.7,6.1c-0.3,0.5-0.8,0.7-1.1,0.5c-0.3-0.2-0.4-0.8-0.2-1.3
		L281.4,72.4z"/>
	<path class="st0" d="M288.3,66.8c0,1.8-1.6,3.2-3.5,3.2s-3.5-1.4-3.5-3.2c0-1.7,1.6-3.2,3.5-3.2C286.7,63.7,288.3,65.1,288.3,66.8"
		/>
	<path class="st0" d="M213.7,71.7c0.2-0.5,0.9-0.9,1.5-0.9h4c0.6,0,1.3,0.4,1.5,0.9l4.8,10.7c0.2,0.5,0.2,1.1-0.2,1.3
		c-0.3,0.2-0.8,0-1.1-0.5l-3.7-6.1c-0.3-0.5-0.6-0.8-0.7-0.7c-0.1,0.1,0,0.6,0.2,1.1l4.2,10.1c0.2,0.5-0.1,0.9-0.7,0.9h-2.7
		c-0.6,0-1.2,0.4-1.2,1l-1.3,8.5c-0.1,0.5-0.6,1-1.1,1s-1-0.4-1.1-1l-1.3-8.5c-0.1-0.5-0.6-1-1.2-1h-2.7c-0.6,0-0.9-0.4-0.7-0.9
		l4.2-9.9c0.2-0.5,0.3-1.1,0.1-1.2c-0.1-0.2-0.5,0.1-0.8,0.5l-3.7,6.1c-0.3,0.5-0.8,0.7-1.1,0.5s-0.4-0.8-0.2-1.3L213.7,71.7z"/>
	<path class="st0" d="M220.6,66.8c0,1.8-1.6,3.2-3.5,3.2s-3.5-1.4-3.5-3.2c0-1.7,1.6-3.2,3.5-3.2C219,63.7,220.6,65.1,220.6,66.8"/>
	<path class="st0" d="M220.9,28.7c0,1.8-1.6,3.2-3.5,3.2s-3.5-1.4-3.5-3.2c0-1.7,1.6-3.2,3.5-3.2C219.3,25.6,220.9,27,220.9,28.7"/>
	<path class="st0" d="M211.5,33c0.5-0.3,1.4-0.6,1.9-0.6h7.5c0.6,0,1.5,0.2,2,0.5l0.3,0.2c0.5,0.3,0.9,0.9,0.9,1.5v12.7
		c0,0.5-0.4,1-0.9,1s-0.9-0.4-0.9-1V39c0-0.5-0.3-1-0.8-1c-0.4,0-0.8,0.4-0.8,1v20.6c0,0.5-0.5,1-1.1,1h-0.2c-0.6,0-1.1-0.4-1.2-1
		l-0.6-6.6c0-0.5-0.3-1-0.5-1s-0.4,0.4-0.5,1l-0.5,6.6c0,0.5-0.6,1-1.2,1h-0.4c-0.6,0-1.1-0.4-1.1-1V39c0-0.5-0.3-1-0.7-1
		s-0.7,0.4-0.8,1v8.3c0,0.5-0.4,1-0.9,1s-0.9-0.4-0.9-1V34.8c0-0.5,0.4-1.3,0.9-1.6L211.5,33z"/>
	<path class="st0" d="M237.2,66.8c0,1.8-1.6,3.2-3.5,3.2s-3.5-1.4-3.5-3.2c0-1.7,1.6-3.2,3.5-3.2C235.7,63.7,237.2,65.1,237.2,66.8"
		/>
	<path class="st0" d="M227.8,71.1c0.5-0.3,1.4-0.6,1.9-0.6h7.5c0.6,0,1.5,0.2,2,0.5l0.3,0.2c0.5,0.3,0.9,0.9,0.9,1.5v12.7
		c0,0.5-0.4,1-0.9,1s-0.9-0.4-0.9-1v-8.3c0-0.5-0.3-1-0.8-1c-0.4,0-0.8,0.4-0.8,1v20.6c0,0.5-0.5,1-1.1,1h-0.2c-0.6,0-1.1-0.4-1.2-1
		L234,91c0-0.5-0.3-1-0.5-1s-0.4,0.4-0.5,1l-0.5,6.6c0,0.5-0.6,1-1.2,1H231c-0.6,0-1.1-0.4-1.1-1V77.1c0-0.5-0.3-1-0.7-1
		s-0.7,0.4-0.8,1v8.3c0,0.5-0.4,1-0.9,1s-0.9-0.4-0.9-1V72.9c0-0.5,0.4-1.3,0.9-1.6L227.8,71.1z"/>
	<path class="st0" d="M254.3,28.7c0,1.8-1.6,3.2-3.5,3.2s-3.5-1.4-3.5-3.2c0-1.7,1.6-3.2,3.5-3.2C252.7,25.6,254.3,27,254.3,28.7"/>
	<path class="st0" d="M244.9,33.3c0.5-0.3,1.4-0.6,1.9-0.6h7.5c0.6,0,1.5,0.2,2,0.5l0.3,0.2c0.5,0.3,0.9,0.9,0.9,1.5v12.7
		c0,0.5-0.4,1-0.9,1s-0.9-0.4-0.9-1v-8.3c0-0.5-0.3-1-0.8-1c-0.4,0-0.8,0.4-0.8,1v20.6c0,0.5-0.5,1-1.1,1h-0.2c-0.6,0-1.1-0.4-1.2-1
		l-0.6-6.6c0-0.5-0.3-1-0.5-1s-0.4,0.4-0.5,1l-0.5,6.6c0,0.5-0.6,1-1.2,1h-0.4c-0.6,0-1.1-0.4-1.1-1V39.3c0-0.5-0.3-1-0.7-1
		s-0.7,0.4-0.8,1v8.3c0,0.5-0.4,1-0.9,1s-0.9-0.4-0.9-1V35.1c0-0.5,0.4-1.3,0.9-1.6L244.9,33.3z"/>
	<path class="st0" d="M270.1,66.8c0,1.8-1.6,3.2-3.5,3.2s-3.5-1.4-3.5-3.2c0-1.7,1.6-3.2,3.5-3.2C268.6,63.7,270.1,65.1,270.1,66.8"
		/>
	<path class="st0" d="M260.7,70.8c0.5-0.3,1.4-0.6,1.9-0.6h7.5c0.6,0,1.5,0.2,2,0.5l0.3,0.2c0.5,0.3,0.9,0.9,0.9,1.5V85
		c0,0.5-0.4,1-0.9,1s-0.9-0.4-0.9-1v-8.3c0-0.5-0.3-1-0.8-1c-0.4,0-0.8,0.4-0.8,1v20.6c0,0.5-0.5,1-1.1,1h-0.2c-0.6,0-1.1-0.4-1.2-1
		l-0.6-6.6c0-0.5-0.3-1-0.5-1s-0.4,0.4-0.5,1l-0.5,6.6c0,0.5-0.6,1-1.2,1h-0.4c-0.6,0-1.1-0.4-1.1-1V76.8c0-0.5-0.3-1-0.7-1
		s-0.7,0.4-0.8,1v8.3c0,0.5-0.4,1-0.9,1s-0.9-0.4-0.9-1V72.6c0-0.5,0.4-1.3,0.9-1.6L260.7,70.8z"/>
	<path class="st0" d="M287.2,28.7c0,1.8-1.6,3.2-3.5,3.2s-3.5-1.4-3.5-3.2c0-1.7,1.6-3.2,3.5-3.2C285.6,25.6,287.2,27,287.2,28.7"/>
	<path class="st0" d="M277.8,32.7c0.5-0.3,1.4-0.6,1.9-0.6h7.5c0.6,0,1.5,0.2,2,0.5l0.3,0.2c0.5,0.3,0.9,0.9,0.9,1.5V47
		c0,0.5-0.4,1-0.9,1s-0.9-0.4-0.9-1v-8.3c0-0.5-0.3-1-0.8-1c-0.4,0-0.8,0.4-0.8,1v20.6c0,0.5-0.5,1-1.1,1h-0.2c-0.6,0-1.1-0.4-1.2-1
		l-0.6-6.6c0-0.5-0.3-1-0.5-1s-0.4,0.4-0.5,1l-0.5,6.6c0,0.5-0.6,1-1.2,1H281c-0.6,0-1.1-0.4-1.1-1V38.6c0-0.5-0.3-1-0.7-1
		c-0.4,0-0.7,0.4-0.8,1v8.3c0,0.5-0.4,1-0.9,1s-0.9-0.4-0.9-1V34.5c0-0.5,0.4-1.3,0.9-1.6L277.8,32.7z"/>
	<path class="st0" d="M264.1,34.3c0.2-0.5,0.9-0.9,1.5-0.9h4c0.6,0,1.3,0.4,1.5,0.9l4.8,10.7c0.2,0.5,0.2,1.1-0.2,1.3
		c-0.3,0.2-0.8,0-1.1-0.5l-3.7-6.1c-0.3-0.5-0.6-0.8-0.7-0.7s0,0.6,0.2,1.1l4.2,10.1c0.2,0.5-0.1,0.9-0.7,0.9h-2.7
		c-0.6,0-1.2,0.4-1.2,1l-1.3,8.5c-0.1,0.5-0.6,1-1.1,1s-1-0.4-1.1-1l-1.3-8.5c-0.1-0.5-0.6-1-1.2-1h-2.7c-0.6,0-0.9-0.4-0.7-0.9
		l4.2-9.9c0.2-0.5,0.3-1.1,0.1-1.2c-0.1-0.2-0.5,0.1-0.8,0.5l-3.7,6.1c-0.3,0.5-0.8,0.7-1.1,0.5c-0.3-0.2-0.4-0.8-0.2-1.3
		L264.1,34.3z"/>
	<path class="st0" d="M271,28.7c0,1.8-1.6,3.2-3.5,3.2s-3.5-1.4-3.5-3.2c0-1.7,1.6-3.2,3.5-3.2C269.4,25.6,271,27,271,28.7"/>
	<path class="st0" d="M304.3,66.8c0,1.8-1.6,3.2-3.5,3.2s-3.5-1.4-3.5-3.2c0-1.7,1.6-3.2,3.5-3.2C302.7,63.7,304.3,65.1,304.3,66.8"
		/>
	<path class="st0" d="M294.9,70.8c0.5-0.3,1.4-0.6,1.9-0.6h7.5c0.6,0,1.5,0.2,2,0.5l0.3,0.2c0.5,0.3,0.9,0.9,0.9,1.5V85
		c0,0.5-0.4,1-0.9,1s-0.9-0.4-0.9-1v-8.3c0-0.5-0.3-1-0.8-1c-0.4,0-0.8,0.4-0.8,1v20.6c0,0.5-0.5,1-1.1,1h-0.2c-0.6,0-1.1-0.4-1.2-1
		l-0.6-6.6c0-0.5-0.3-1-0.5-1s-0.4,0.4-0.5,1l-0.5,6.6c0,0.5-0.6,1-1.2,1h-0.4c-0.6,0-1.1-0.4-1.1-1V76.8c0-0.5-0.3-1-0.7-1
		c-0.4,0-0.7,0.4-0.8,1v8.3c0,0.5-0.4,1-0.9,1s-0.9-0.4-0.9-1V72.6c0-0.5,0.4-1.3,0.9-1.6L294.9,70.8z"/>
	<path class="st0" d="M298.3,34.3c0.2-0.5,0.9-0.9,1.5-0.9h4c0.6,0,1.3,0.4,1.5,0.9l4.8,10.7c0.2,0.5,0.2,1.1-0.2,1.3
		c-0.3,0.2-0.8,0-1.1-0.5l-3.7-6.1c-0.3-0.5-0.6-0.8-0.7-0.7s0,0.6,0.2,1.1l4.2,10.1c0.2,0.5-0.1,0.9-0.7,0.9h-2.7
		c-0.6,0-1.2,0.4-1.2,1l-1.3,8.5c-0.1,0.5-0.6,1-1.1,1s-1-0.4-1.1-1l-1.3-8.5c-0.1-0.5-0.6-1-1.2-1h-2.7c-0.6,0-0.9-0.4-0.7-0.9
		l4.2-9.9c0.2-0.5,0.3-1.1,0.1-1.2c-0.1-0.2-0.5,0.1-0.8,0.5l-3.7,6.1c-0.3,0.5-0.8,0.7-1.1,0.5c-0.3-0.2-0.4-0.8-0.2-1.3
		L298.3,34.3z"/>
	<path class="st0" d="M305.1,28.7c0,1.8-1.6,3.2-3.5,3.2s-3.5-1.4-3.5-3.2c0-1.7,1.6-3.2,3.5-3.2C303.6,25.6,305.1,27,305.1,28.7"/>
	<path class="st0" d="M246.6,72c0.2-0.5,0.9-0.9,1.5-0.9h4c0.6,0,1.3,0.4,1.5,0.9l4.8,10.7c0.2,0.5,0.2,1.1-0.2,1.3
		c-0.3,0.2-0.8,0-1.1-0.5l-3.7-6.1c-0.3-0.5-0.6-0.8-0.7-0.7c-0.1,0.1,0,0.6,0.2,1.1l4.2,10.1c0.2,0.5-0.1,0.9-0.7,0.9h-2.7
		c-0.6,0-1.2,0.4-1.2,1l-1.3,8.5c-0.1,0.5-0.6,1-1.1,1s-1-0.4-1.1-1l-1.3-8.5c-0.1-0.5-0.6-1-1.2-1h-2.7c-0.6,0-0.9-0.4-0.7-0.9
		l4.2-9.9c0.2-0.5,0.3-1.1,0.1-1.2c-0.1-0.2-0.5,0.1-0.8,0.5l-3.7,6.1c-0.3,0.5-0.8,0.7-1.1,0.5s-0.4-0.8-0.2-1.3L246.6,72z"/>
	<path class="st0" d="M253.5,66.8c0,1.8-1.6,3.2-3.5,3.2s-3.5-1.4-3.5-3.2c0-1.7,1.6-3.2,3.5-3.2C251.9,63.7,253.5,65.1,253.5,66.8"
		/>
	<path class="st0" d="M230.9,33.9c0.2-0.5,0.9-0.9,1.5-0.9h4c0.6,0,1.3,0.4,1.5,0.9l4.8,10.7c0.2,0.5,0.2,1.1-0.2,1.3
		c-0.3,0.2-0.8,0-1.1-0.5l-3.7-6.1c-0.3-0.5-0.6-0.8-0.7-0.7c-0.1,0.1,0,0.6,0.2,1.1l4.2,10.1c0.2,0.5-0.1,0.9-0.7,0.9H238
		c-0.6,0-1.2,0.4-1.2,1l-1.3,8.5c-0.1,0.5-0.6,1-1.1,1s-1-0.4-1.1-1l-1.3-8.5c-0.1-0.5-0.6-1-1.2-1h-2.7c-0.6,0-0.9-0.4-0.7-0.9
		l4.2-9.9c0.2-0.5,0.3-1.1,0.1-1.2c-0.1-0.2-0.5,0.1-0.8,0.5l-3.7,6.1c-0.3,0.5-0.8,0.7-1.1,0.5s-0.4-0.8-0.2-1.3L230.9,33.9z"/>
	<path class="st0" d="M237.8,28.7c0,1.8-1.6,3.2-3.5,3.2s-3.5-1.4-3.5-3.2c0-1.7,1.6-3.2,3.5-3.2C236.2,25.6,237.8,27,237.8,28.7"/>
</g>
<rect x="31.6" y="116.4" class="st1" width="287.1" height="34.7"/>
<g class="st2">
	<path class="st3" d="M35.2,130.3c-1.3,0-2.2-0.4-2.7-0.6v-2.1c0.4,0.2,1.7,0.8,2.7,0.8c0.7,0,1.1-0.2,1.1-0.6
		c0-0.3-0.2-0.5-0.9-0.8c-1.2-0.6-2.9-1.3-2.9-3c0-1.7,1.4-2.6,3.1-2.6c1.2,0,2.3,0.4,2.6,0.6v2c-0.4-0.2-1.5-0.7-2.5-0.7
		c-0.7,0-1,0.2-1,0.6c0,0.3,0.3,0.5,0.8,0.8c1.4,0.7,3,1.3,3,3.1C38.4,129.5,36.8,130.3,35.2,130.3z"/>
	<path class="st3" d="M43.9,130.3c-1.6,0-3-0.9-3-3.7v-3h-1.6l0.4-2h1.2v-3.3h2.4v3.3H46l-0.4,2h-2.3v3c0,1.2,0.6,1.7,1.5,1.7
		c0.5,0,0.9-0.1,1.2-0.3v1.9C45.6,130,44.8,130.3,43.9,130.3z"/>
	<path class="st3" d="M53.5,130.1l-0.1-0.6c-0.2,0.2-1,0.8-2.6,0.8c-1.6,0-3-1.1-3-3.6v-5.1h2.4v5.2c0,1,0.6,1.5,1.4,1.5
		c0.7,0,1.5-0.6,1.7-0.7v-6h2.4v8.5H53.5z"/>
	<path class="st3" d="M64.4,130.1l-0.2-0.6l-2.1,0.9c-1-0.3-4.4-1.2-4.4-4.8c0-2.3,1.8-4.2,4.2-4.2c1.3,0,1.9,0.5,2.3,0.7v-5.6h2.4
		v13.6H64.4z M62.4,123.4c-1.3,0-2.2,1.1-2.2,2.2c0,1.5,1,2.4,1.9,2.7l2.2-1v-3.2C64.1,123.9,63.4,123.4,62.4,123.4z"/>
	<path class="st3" d="M71.2,126.5c0.3,1,1.2,1.9,2.6,1.9c1.5,0,2.6-0.6,3-0.7v1.9c-0.3,0.1-1.2,0.7-3.2,0.7c-2.4,0-4.7-1.7-4.7-4.5
		c0-2.5,2-4.5,4.3-4.5c2.2,0,3.8,1.7,3.8,4v1.1H71.2z M73.1,123.2c-1,0-1.7,0.8-1.9,1.8h3.5C74.7,124.1,74.2,123.2,73.1,123.2z"/>
	<path class="st3" d="M85.1,130.1v-5.2c0-1-0.6-1.5-1.4-1.5c-0.8,0-1.6,0.6-1.9,0.9v5.7h-2.4v-8.5h2.3l0.1,0.7c0.3-0.3,1.2-1,2.6-1
		c1.8,0,3.1,1.2,3.1,3.6v5.1H85.1z"/>
	<path class="st3" d="M93.4,130.3c-1.6,0-3-0.9-3-3.7v-3h-1.6l0.4-2h1.2v-3.3h2.4v3.3h2.7l-0.4,2h-2.3v3c0,1.2,0.6,1.7,1.5,1.7
		c0.5,0,0.9-0.1,1.2-0.3v1.9C95.1,130,94.4,130.3,93.4,130.3z"/>
	<path class="st3" d="M104.9,130.3c-1.6,0-3-0.9-3-3.7v-3h-1.6l0.4-2h1.2v-3.3h2.4v3.3h2.7l-0.4,2h-2.3v3c0,1.2,0.6,1.7,1.5,1.7
		c0.5,0,0.9-0.1,1.2-0.3v1.9C106.7,130,105.9,130.3,104.9,130.3z"/>
	<path class="st3" d="M113,130.3c-2.6,0-4.8-1.9-4.8-4.5c0-2.5,2.1-4.5,4.8-4.5c2.6,0,4.8,2,4.8,4.5
		C117.8,128.4,115.7,130.3,113,130.3z M113,123.3c-1.3,0-2.4,1.1-2.4,2.5c0,1.4,1.1,2.5,2.4,2.5c1.3,0,2.4-1.1,2.4-2.5
		C115.4,124.4,114.3,123.3,113,123.3z"/>
	<path class="st3" d="M129.4,118.7c-0.2-0.3-0.6-0.7-1.2-0.7c-0.8,0-1.5,0.6-1.5,1.7v1.9h2.9l-0.4,2h-2.5v6.5h-2.4v-6.5h-1.5l0.4-2
		h1.1v-1.7c0-2.5,1.8-3.8,3.6-3.8c1.6,0,2.5,0.9,2.9,1.3L129.4,118.7z"/>
	<path class="st3" d="M135.3,130.1l-0.1-0.6c-0.4,0.4-1.1,0.8-2.2,0.8c-1.6,0-2.8-1.2-2.8-2.7c0-1.9,1.7-2.7,3.6-2.9l1.3-0.1v-1.2
		h-4.4l0.4-1.8h6.4v8.5H135.3z M135,126.1l-1.2,0.1c-0.8,0.1-1.4,0.6-1.4,1.2s0.6,1,1.1,1c0.6,0,1.3-0.4,1.5-0.6V126.1z"/>
	<path class="st3" d="M144.1,130.3c-2.6,0-4.7-1.8-4.7-4.5c0-2.6,2-4.5,4.7-4.5c1.5,0,2.7,0.6,3,0.8v2c-0.4-0.2-1.4-0.8-2.6-0.8
		c-1.7,0-2.7,1-2.7,2.4c0,1.4,1.1,2.4,2.7,2.4c1.2,0,2.3-0.6,2.7-0.8v2.1C146.8,129.7,145.8,130.3,144.1,130.3z"/>
	<path class="st3" d="M155.1,130.1l-0.1-0.6c-0.2,0.2-1,0.8-2.6,0.8c-1.6,0-3-1.1-3-3.6v-5.1h2.4v5.2c0,1,0.6,1.5,1.4,1.5
		c0.7,0,1.5-0.6,1.7-0.7v-6h2.4v8.5H155.1z"/>
	<path class="st3" d="M164.5,129.6c-0.2,0.2-1,0.7-2.3,0.7c-1.3,0-2.3-1-2.3-3v-10.9h2.4v10.8c0,0.8,0.5,1,0.9,1
		c0.6,0,1.2-0.4,1.3-0.5V129.6z"/>
	<path class="st3" d="M169.3,130.3c-1.6,0-3-0.9-3-3.7v-3h-1.6l0.4-2h1.2v-3.3h2.4v3.3h2.7l-0.4,2h-2.3v3c0,1.2,0.6,1.7,1.5,1.7
		c0.5,0,0.9-0.1,1.2-0.3v1.9C171,130,170.2,130.3,169.3,130.3z"/>
	<path class="st3" d="M177.3,130.1l-2,5.4h-2.3l2-5.4l-3.1-8.5h2.4l1.9,5.8l1.9-5.8h2.4L177.3,130.1z"/>
</g>
<g>
	<path class="st3" d="M33.4,99.4V33.1l12.9-3.8v70.1C46.3,99.4,33.4,99.4,33.4,99.4z"/>
	<path class="st3" d="M58.6,99.4v-5.5l22.1-24.2c5.9-6.4,10.5-12.4,10.5-18.3c0-6.3-4.3-10.5-10.6-10.5c-5.8,0-10.7,3.9-11.4,12.1
		H57.6c0.7-14.4,10.9-23.6,23.2-23.6c13.2,0,23.1,8.7,23.1,21.9c0,9.4-7.1,18.4-12.9,24.5c-2,2.1-9.5,9.9-12,12.3h25.2v11.2
		L58.6,99.4L58.6,99.4z"/>
	<path class="st3" d="M125,74l-9.3-9.2l9.3-9.3l9.3,9.3L125,74z M125,101.4l-9.3-9.3l9.3-9.3l9.3,9.3L125,101.4z"/>
	<path class="st3" d="M149.9,99.4V33.1l12.9-3.8v70.1C162.8,99.4,149.9,99.4,149.9,99.4z"/>
</g>
</svg>
