<?xml version="1.0" encoding="utf-8"?>
<!-- Generator: Adobe Illustrator 28.0.0, SVG Export Plug-In . SVG Version: 6.00 Build 0)  -->
<svg version="1.1" id="Layer_1" xmlns="http://www.w3.org/2000/svg" xmlns:xlink="http://www.w3.org/1999/xlink" x="0px" y="0px"
	 viewBox="0 0 349 153.7" style="enable-background:new 0 0 349 153.7;" xml:space="preserve">
<style type="text/css">
	.st0{fill:none;}
	.st1{enable-background:new    ;}
	.st2{fill:#76ACCD;}
	.st3{fill:#2A3F5E;}
</style>
<g>
	<rect x="15.3" y="26.6" class="st0" width="314.3" height="107.3"/>
	<g class="st1">
		<path class="st2" d="M28.9,67.5c-6.2,0-9.9-2.6-12.2-4.8l4.3-5.4c0.9,0.7,3.6,3.4,7.6,3.4c3.4,0,6.9-2.5,6.9-7c0-3.9-3.1-6-6.3-6
			c-1,0-2.2,0.4-4.3,1.2l-3-4.1c4.8-2.7,9.7-5.8,12.3-11.3H18.4v-6.9h23.9v3.8c-0.9,6.1-4.1,10.1-6.5,12.3c3.2,1.5,7.3,4.7,7.3,10.9
			C43.2,62.1,36.4,67.5,28.9,67.5z"/>
		<path class="st2" d="M49.2,78.5v-1.4c1.5-1,4.6-3.5,4.6-7.8c0-3.8-4.8-7.6-4.8-7.6l5-5l1.5,1.3c2,1.7,4.4,4.6,4.4,8.5
			C59.9,75.5,50.5,78.1,49.2,78.5z"/>
		<path class="st2" d="M75.8,67.5c-6.2,0-9.9-2.6-12.2-4.8l4.3-5.4c0.9,0.7,3.6,3.4,7.6,3.4c3.4,0,6.9-2.5,6.9-7c0-3.9-3.1-6-6.3-6
			c-1,0-2.2,0.4-4.3,1.2l-3-4.1c4.8-2.7,9.7-5.8,12.3-11.3H65.3v-6.9h23.9v3.8c-0.9,6.1-4.1,10.1-6.5,12.3c3.2,1.5,7.3,4.7,7.3,10.9
			C90.1,62.1,83.3,67.5,75.8,67.5z"/>
		<path class="st2" d="M95.3,66.3v-3.2l13-14.2c3.5-3.8,6.2-7.3,6.2-10.8c0-3.7-2.5-6.2-6.2-6.2c-3.4,0-6.3,2.3-6.7,7.1h-6.9
			c0.4-8.5,6.4-13.9,13.7-13.9c7.8,0,13.6,5.1,13.6,12.9c0,5.5-4.2,10.9-7.6,14.4c-1.2,1.3-5.6,5.8-7.1,7.2h14.8v6.6H95.3z"/>
		<path class="st2" d="M142.5,67.5c-9.7,0-14.4-11.1-14.4-21s4.6-21.1,14.4-21.1c9.7,0,14.2,11.3,14.2,21.1S152.1,67.5,142.5,67.5z
			 M142.5,32.4c-3.8,0-7,6.1-7,14.1s3.2,14.1,7,14.1c3.8,0,6.9-6,6.9-14.1S146.3,32.4,142.5,32.4z"/>
	</g>
	<g class="st1">
		<path class="st3" d="M25.4,96.3v-1.3c-0.6,0.5-1.6,1.5-4.1,1.5c-2.5,0-4.4-1.8-4.4-4.8v-8.5h2.5v8.2c0,1.9,1,3,2.6,3
			c1.8,0,3-1.4,3.4-1.9v-9.2h2.5v13.1H25.4z"/>
		<path class="st3" d="M40.1,96.3v-2.8l-6.3-6.3v9.1h-2.5V83.3h1.7l7.1,7.1v-7.1h2.5v13.1H40.1z"/>
		<path class="st3" d="M50.3,96.3h-4.4V83.3h4.3c3.8,0,7.6,2.3,7.6,6.6C57.8,94.1,54.1,96.3,50.3,96.3z M50.3,85.5h-1.8v8.6h1.9
			c2.9,0,4.9-1.6,4.9-4.3C55.2,87.2,53.1,85.5,50.3,85.5z"/>
		<path class="st3" d="M60.5,96.3V83.3h7.9v2.2H63v3.2h4v2.2h-4v3.3h5.7v2.2H60.5z"/>
		<path class="st3" d="M79.6,96.6c-1.4,0-2-0.5-2.9-1.9l-2.2-3.3h-0.7v5h-2.5V83.3h3.9c3,0,4.7,1.5,4.7,3.8c0,2.1-1.7,3.3-2.8,3.9
			l2,2.9c0.3,0.5,0.7,0.8,1.1,0.8c0.4,0,0.7-0.3,0.9-0.6l0.9,0.9C81.9,95.3,81.2,96.6,79.6,96.6z M75.2,85.5h-1.4v3.9h1.1
			c1.4,0,2.5-0.9,2.5-2C77.5,86.1,76.7,85.5,75.2,85.5z"/>
		<path class="st3" d="M89.7,96.7c-3.9,0-7.4-2.9-7.4-6.9s3.5-6.9,7.4-6.9c2.6,0,4.2,0.7,4.7,0.9v2.5c-1.4-0.7-2.8-1.2-4.4-1.2
			c-2.6,0-5,2-5,4.7c0,2.7,2.2,4.7,4.8,4.7c0.7,0,1.4-0.1,2.1-0.3v-4.2h2.5v5.7C94,96,92.5,96.7,89.7,96.7z"/>
		<path class="st3" d="M105.9,96.6c-1.4,0-2-0.5-2.9-1.9l-2.2-3.3h-0.7v5h-2.5V83.3h3.9c3,0,4.7,1.5,4.7,3.8c0,2.1-1.7,3.3-2.8,3.9
			l2,2.9c0.3,0.5,0.7,0.8,1.1,0.8c0.4,0,0.7-0.3,0.9-0.6l0.9,0.9C108.2,95.3,107.4,96.6,105.9,96.6z M101.5,85.5h-1.4v3.9h1.1
			c1.4,0,2.5-0.9,2.5-2C103.7,86.1,102.9,85.5,101.5,85.5z"/>
		<path class="st3" d="M117.9,96.3l-1.3-3.7h-4.4l-1.3,3.7h-2.6l5.1-13.1h2.1l5.1,13.1H117.9z M114.4,86.4l-1.5,4.3h3.1L114.4,86.4z
			"/>
		<path class="st3" d="M126.9,96.3h-4.4V83.3h4.3c3.8,0,7.6,2.3,7.6,6.6C134.4,94.1,130.7,96.3,126.9,96.3z M126.8,85.5H125v8.6h1.9
			c2.9,0,4.9-1.6,4.9-4.3C131.8,87.2,129.7,85.5,126.8,85.5z"/>
		<path class="st3" d="M145.4,96.3v-1.3c-0.6,0.5-1.6,1.5-4.1,1.5c-2.5,0-4.4-1.8-4.4-4.8v-8.5h2.5v8.2c0,1.9,1,3,2.6,3
			c1.8,0,3-1.4,3.4-1.9v-9.2h2.5v13.1H145.4z"/>
		<path class="st3" d="M159.5,96.3l-1.3-3.7h-4.4l-1.3,3.7h-2.6l5.1-13.1h2.1l5.1,13.1H159.5z M156,86.4l-1.5,4.3h3.1L156,86.4z"/>
		<path class="st3" d="M168.5,85.4v10.9H166V85.4h-4.6v-2.2h11.7v2.2H168.5z"/>
		<path class="st3" d="M175.1,96.3V83.3h7.9v2.2h-5.4v3.2h4v2.2h-4v3.3h5.7v2.2H175.1z"/>
	</g>
	<g class="st1">
		<path class="st3" d="M29.8,127.5c-0.3,0.4-1.2,1.2-2.3,1.2c-1.3,0-1.9-0.7-2.3-1.2c-1,0.8-2.2,1.2-3.7,1.2c-3.1,0-5-1.8-5-4.4
			c0-2.1,1.6-3.5,3.4-4.4L17,116v-0.7h9.7v2.2h-5.9l4.6,6.6c0.4-0.8,0.7-1.8,0.9-2.6h2c-0.2,0.8-0.3,1.3-0.5,1.9
			c-0.3,0.9-0.7,1.8-1.2,2.5l0.3,0.4c0.2,0.3,0.5,0.6,0.9,0.6c0.5,0,0.8-0.4,1.1-0.7l1.1,1.1L29.8,127.5z M20.8,121.5
			c-1.1,0.6-2.1,1.3-2.1,2.7c0,1.4,1.1,2.5,2.8,2.5c1,0,1.8-0.3,2.4-0.8L20.8,121.5z"/>
		<path class="st3" d="M42.5,128.7c-3.9,0-7.4-2.9-7.4-6.9s3.5-6.9,7.4-6.9c2.6,0,4.2,0.7,4.7,0.9v2.5c-1.4-0.7-2.8-1.2-4.4-1.2
			c-2.6,0-5,2-5,4.7c0,2.7,2.2,4.7,4.8,4.7c0.7,0,1.4-0.1,2.1-0.3v-4.2h2.5v5.7C46.7,128,45.2,128.7,42.5,128.7z"/>
		<path class="st3" d="M58.6,128.6c-1.4,0-2-0.5-2.9-1.9l-2.2-3.3h-0.7v5h-2.5v-13.1h3.9c3,0,4.7,1.5,4.7,3.8c0,2.1-1.7,3.3-2.8,3.9
			l2,2.9c0.3,0.5,0.7,0.8,1.1,0.8c0.4,0,0.7-0.3,0.9-0.6l0.9,0.9C60.9,127.3,60.2,128.6,58.6,128.6z M54.2,117.5h-1.4v3.9h1.1
			c1.4,0,2.5-0.9,2.5-2C56.4,118.1,55.7,117.5,54.2,117.5z"/>
		<path class="st3" d="M70.7,128.3l-1.3-3.7H65l-1.3,3.7h-2.6l5.1-13.1h2.1l5.1,13.1H70.7z M67.2,118.4l-1.5,4.3h3.1L67.2,118.4z"/>
		<path class="st3" d="M79.6,128.3h-4.4v-13.1h4.3c3.8,0,7.6,2.3,7.6,6.6C87.1,126.1,83.5,128.3,79.6,128.3z M79.6,117.5h-1.8v8.6
			h1.9c2.9,0,4.9-1.6,4.9-4.3C84.6,119.2,82.4,117.5,79.6,117.5z"/>
		<path class="st3" d="M98.2,128.3v-1.3c-0.6,0.5-1.6,1.5-4.1,1.5c-2.5,0-4.4-1.8-4.4-4.8v-8.5h2.5v8.2c0,1.9,1,3,2.6,3
			c1.8,0,3-1.4,3.4-1.9v-9.2h2.5v13.1H98.2z"/>
		<path class="st3" d="M112.2,128.3l-1.3-3.7h-4.4l-1.3,3.7h-2.6l5.1-13.1h2.1l5.1,13.1H112.2z M108.7,118.4l-1.5,4.3h3.1
			L108.7,118.4z"/>
		<path class="st3" d="M121.3,117.4v10.9h-2.5v-10.9h-4.6v-2.2h11.7v2.2H121.3z"/>
		<path class="st3" d="M127.8,128.3v-13.1h7.9v2.2h-5.4v3.2h4v2.2h-4v3.3h5.7v2.2H127.8z"/>
	</g>
	<g class="st1">
		<path class="st2" d="M153.3,129c-3.2,0-5.3-0.9-6.6-1.4v-5.2c0.9,0.4,4.1,1.9,6.4,1.9c1.7,0,2.6-0.6,2.6-1.5c0-0.6-0.5-1.2-2.1-2
			c-3-1.5-7.1-3.2-7.1-7.2c0-4.2,3.5-6.4,7.5-6.4c2.8,0,5.5,1,6.4,1.5v4.8c-1-0.5-3.7-1.6-6.1-1.6c-1.6,0-2.5,0.6-2.5,1.4
			c0,0.8,0.6,1.2,2,1.9c3.4,1.6,7.2,3.2,7.2,7.4C161.2,126.9,157.3,129,153.3,129z"/>
		<path class="st2" d="M174.3,129c-3.9,0-7.4-2.1-7.4-9v-7.3h-3.8l1-4.8h2.8v-8.1h5.8v8.1h6.6l-1,4.8h-5.6v7.4c0,3,1.4,4,3.7,4
			c1.1,0,2.1-0.3,3-0.7v4.6C178.5,128.3,176.6,129,174.3,129z"/>
		<path class="st2" d="M197.7,128.3l-0.3-1.3c-0.5,0.4-2.5,2-6.3,2c-3.8,0-7.2-2.7-7.2-8.8v-12.4h5.8v12.5c0,2.4,1.5,3.6,3.5,3.6
			c1.7,0,3.7-1.4,4.1-1.7v-14.4h5.8v20.5H197.7z"/>
		<path class="st2" d="M223.9,128.3l-0.4-1.6l-5,2.3c-2.4-0.7-10.6-3-10.6-11.6c0-5.6,4.4-10.2,10.3-10.2c3.2,0,4.7,1.1,5.6,1.6
			V95.4h5.8v32.9H223.9z M219,112.2c-3.1,0-5.3,2.6-5.3,5.4c0,3.5,2.5,5.7,4.7,6.6l5.3-2.3V114C223.1,113.5,221.4,112.2,219,112.2z"
			/>
		<path class="st2" d="M240.3,119.6c0.6,2.4,3,4.7,6.2,4.7c3.7,0,6.4-1.4,7.2-1.7v4.6c-0.6,0.3-2.8,1.8-7.8,1.8
			c-5.7,0-11.4-4.1-11.4-10.8c0-6.1,4.8-10.9,10.4-10.9c5.3,0,9.1,4,9.1,9.7v2.7H240.3z M245,111.8c-2.4,0-4.1,1.9-4.5,4.2h8.4
			C248.8,114,247.5,111.8,245,111.8z"/>
		<path class="st2" d="M273.9,128.3v-12.5c0-2.4-1.5-3.6-3.5-3.6c-1.9,0-3.9,1.5-4.7,2.3v13.9h-5.8v-20.5h5.6l0.3,1.7
			c0.8-0.7,2.9-2.4,6.4-2.4c4.3,0,7.5,2.8,7.5,8.8v12.4H273.9z"/>
		<path class="st2" d="M294.1,129c-3.9,0-7.4-2.1-7.4-9v-7.3h-3.8l1-4.8h2.8v-8.1h5.8v8.1h6.6l-1,4.8h-5.6v7.4c0,3,1.4,4,3.7,4
			c1.1,0,2.1-0.3,3-0.7v4.6C298.2,128.3,296.3,129,294.1,129z"/>
		<path class="st2" d="M309.1,129c-3.2,0-5.3-0.9-6.6-1.4v-5.2c0.9,0.4,4.1,1.9,6.4,1.9c1.7,0,2.6-0.6,2.6-1.5c0-0.6-0.5-1.2-2.1-2
			c-3-1.5-7.1-3.2-7.1-7.2c0-4.2,3.5-6.4,7.5-6.4c2.8,0,5.5,1,6.4,1.5v4.8c-1-0.5-3.7-1.6-6.1-1.6c-1.6,0-2.5,0.6-2.5,1.4
			c0,0.8,0.6,1.2,2,1.9c3.4,1.6,7.2,3.2,7.2,7.4C316.9,126.9,313,129,309.1,129z"/>
	</g>
	<g>
		<g>
			<path class="st3" d="M274.7,81.3c-1.7-0.6-2.2-1.9-2.1-3.6c-0.3,0.2-0.6,0.4-0.9,0.6c0.1,0.1,0.3,0.1,0.5-0.1
				c-0.1,1.2,0.4,2.4,1.6,3.1l-4.4,3.7l-5.4-3.6c1.3-0.6,1.9-1.3,1.7-3.4c-0.3-0.2-0.4-0.3-0.4-0.3c0.2,2-0.1,2.8-2.1,3.5
				c-4,1.4-7.6,2-8.8,7.4c0.6,0.2,7.8,2.3,14.8,2.2c7.6-0.1,13.8-2.1,14.3-2.2C282.5,83.1,278.7,82.7,274.7,81.3z"/>
		</g>
		<g>
			<path class="st3" d="M276.3,70.7c0-0.1-0.1-0.2-0.1-0.3l-0.2,0.1l0.2-0.1c-0.1-0.2-0.2-0.3-0.3-0.4c-0.1-0.1-0.2-0.1-0.3-0.1
				c0-0.1,0-0.2,0-0.3c0-0.1,0-0.2,0-0.2c0-0.3,0-0.6,0-0.9l-0.1,0.1c-0.1,0.1-0.2,0.3-0.4,0.4c-1.2,1-3.5,1.6-6.2,1.6l0,0l0,0
				c-1.8,0-3.6-0.3-4.9-0.9c-0.5-0.2-1-0.5-1.3-0.8c-0.1-0.1-0.2-0.1-0.2-0.2c-0.1-0.1-0.2-0.2-0.3-0.3c0,0.1,0,0.3,0,0.5
				c0,0.4,0,0.7,0.1,1.1c-0.1,0-0.2,0.1-0.3,0.1c-0.1,0.1-0.2,0.2-0.3,0.4c-0.1,0.1-0.1,0.2-0.1,0.3c0,0.1,0,0.2,0,0.3
				c0,0.3,0,0.6,0.1,0.9c0.1,0.5,0.3,1,0.5,1.4c0.1,0.2,0.2,0.4,0.3,0.6c0.1,0.1,0.1,0.1,0.2,0.2s0.1,0.1,0.2,0.1s0.2,0.1,0.3,0.1
				h0.1l0,0c0.4,1.3,1,2.5,1.9,3.4s2.1,1.5,3.5,1.7c0.2,0,0.4,0,0.7,0c0.7,0,1.4-0.2,2-0.4c0.9-0.4,1.6-1.1,2.2-2
				c0.6-0.8,1-1.7,1.3-2.7c0.1,0,0.2,0,0.3-0.1c0.1,0,0.2-0.1,0.3-0.2c0.1-0.2,0.3-0.4,0.4-0.6c0.2-0.4,0.3-0.8,0.5-1.2
				c0.1-0.4,0.2-0.9,0.2-1.2C276.3,70.9,276.3,70.8,276.3,70.7z M275.7,71.8c-0.1,0.4-0.3,0.9-0.4,1.3c-0.1,0.2-0.2,0.4-0.3,0.5
				c0,0.1-0.1,0.1-0.1,0.1h-0.1c-0.1,0-0.1,0-0.1,0s0,0-0.1,0l-0.2-0.1l-0.1,0.2c-0.4,1.3-1,2.6-1.9,3.5c-0.4,0.5-0.9,0.8-1.4,1.1
				c-0.5,0.3-1.1,0.4-1.8,0.4c-0.2,0-0.4,0-0.6,0c-1.3-0.1-2.3-0.7-3.2-1.5c-0.8-0.8-1.5-1.9-1.8-3.2c0-0.1-0.1-0.2-0.1-0.3
				l-0.1-0.3l-0.3,0.2H263h-0.1c0,0,0,0-0.1-0.1s-0.2-0.3-0.3-0.5c-0.2-0.3-0.3-0.7-0.4-1.1s-0.2-0.8-0.2-1.1c0-0.1,0-0.1,0-0.2
				v-0.1c0.1-0.1,0.2-0.2,0.2-0.2c0.1,0,0.1,0,0.1,0s0,0,0.1,0l0.3,0.2c0.2,0.6,0.5,1.2,0.9,1.5c-0.2-0.8,0-1.6,0.9-2.2
				c1.7,2.3,6.2,3,8.6,1.6c0.4-0.2,0.8-0.6,1.2-0.9c0.2,0.5,0.2,1.1,0.1,1.6c0.4-0.5,0.6-1,0.8-1.6l0.2-0.1h0.1h0.1
				c0.1,0,0.1,0.1,0.2,0.2c0,0,0,0,0,0.1s0,0.1,0,0.2C275.8,71.2,275.8,71.5,275.7,71.8z"/>
		</g>
		<g>
			<g>
				<path class="st3" d="M268.9,66.3c-0.6,0-1.2-0.1-1.7-0.3l-5.1-2.2c0,1.5,0,3.4,0,3.5c0,1.6,3,2.9,6.7,2.9s6.7-1.3,6.7-2.8
					c0-0.1,0-1.9,0-3.4l-4.9,2.1C270.1,66.2,269.6,66.3,268.9,66.3z"/>
			</g>
			<path class="st3" d="M267.5,65.6l-9.3-4.1c-0.8-0.3-0.8-0.8,0.1-1.1l9.2-2.9c0.8-0.3,2.2-0.3,3,0l9.2,2.9
				c0.8,0.3,0.9,0.7,0.1,1.1l-9.3,4C269.6,66,268.3,66,267.5,65.6z"/>
			<g>
				<g>
					<polygon class="st3" points="280,61.3 279.5,67.8 279.3,61.5 					"/>
				</g>
				<polygon class="st3" points="279.5,67.8 279.6,68 279.6,67.8 279.6,68 280,69.2 280.3,69.2 279.5,66.3 278.7,69.2 279.7,69.2 
					279.6,68 				"/>
			</g>
		</g>
	</g>
	<g>
		<g>
			<g>
				<path class="st3" d="M309.5,70.7c0-0.1-0.1-0.2-0.1-0.3l-0.2,0.1l0.2-0.1c-0.1-0.2-0.2-0.3-0.4-0.4c-0.1-0.1-0.2-0.1-0.4-0.1
					c0-0.1,0-0.2,0-0.3c0-0.1,0-0.2,0-0.2c0-0.3,0-0.6,0-0.9l-0.1,0.1c-0.1,0.1-0.3,0.3-0.4,0.4c-1.3,1-3.6,1.6-6.5,1.6l0,0l0,0
					c-1.9,0-3.8-0.3-5.1-0.9c-0.5-0.2-1-0.5-1.4-0.8c-0.1-0.1-0.2-0.1-0.3-0.2c-0.1-0.1-0.2-0.2-0.3-0.3c0,0.1,0,0.3,0,0.5
					c0,0.4,0,0.7,0.1,1.1c-0.1,0-0.2,0.1-0.4,0.1c-0.1,0.1-0.3,0.2-0.4,0.4c-0.1,0.1-0.1,0.2-0.1,0.3c0,0.1,0,0.2,0,0.3
					c0,0.3,0.1,0.6,0.1,0.9c0.1,0.5,0.3,1,0.5,1.4c0.1,0.2,0.2,0.4,0.3,0.6c0.1,0.1,0.1,0.1,0.2,0.2s0.1,0.1,0.2,0.1
					s0.2,0.1,0.3,0.1h0.1l0,0c0.4,1.3,1.1,2.5,2,3.4c1,0.9,2.2,1.5,3.6,1.7c0.2,0,0.5,0,0.7,0c0.8,0,1.5-0.2,2.1-0.4
					c1-0.4,1.7-1.1,2.3-2c0.6-0.8,1-1.7,1.4-2.7c0.1,0,0.2,0,0.3-0.1c0.1,0,0.2-0.1,0.3-0.2c0.1-0.2,0.3-0.4,0.4-0.6
					c0.2-0.4,0.4-0.8,0.5-1.2c0.1-0.4,0.2-0.9,0.2-1.2C309.5,70.9,309.5,70.8,309.5,70.7z M308.8,71.8c-0.1,0.4-0.3,0.9-0.5,1.3
					c-0.1,0.2-0.2,0.4-0.3,0.5c0,0.1-0.1,0.1-0.1,0.1h-0.1c-0.1,0-0.1,0-0.1,0s0,0-0.1,0l-0.3-0.1l-0.1,0.2c-0.4,1.3-1.1,2.6-2,3.5
					c-0.4,0.5-0.9,0.8-1.5,1.1c-0.6,0.3-1.2,0.4-1.9,0.4c-0.2,0-0.4,0-0.6,0c-1.3-0.1-2.4-0.7-3.3-1.5s-1.5-1.9-1.9-3.2
					c0-0.1-0.1-0.2-0.1-0.3l-0.1-0.3l-0.3,0.2h-0.1h-0.1c0,0,0,0-0.1-0.1s-0.2-0.3-0.3-0.5c-0.2-0.3-0.3-0.7-0.5-1.1
					c-0.1-0.4-0.2-0.8-0.2-1.1c0-0.1,0-0.1,0-0.2v-0.1c0.1-0.1,0.2-0.2,0.2-0.2c0.1,0,0.1,0,0.1,0h0.1l0.3,0.2
					c0.2,0.6,0.5,1.2,1,1.5c-0.2-0.8,0-1.6,1-2.2c1.8,2.3,6.5,3,9,1.6c0.5-0.2,0.8-0.6,1.2-0.9c0.2,0.5,0.2,1.1,0.1,1.6
					c0.4-0.5,0.7-1,0.9-1.6l0.2-0.1h0.1h0.1c0.1,0,0.1,0.1,0.2,0.2c0,0,0,0,0,0.1s0,0.1,0,0.2C308.9,71.2,308.9,71.5,308.8,71.8z"/>
			</g>
			<g>
				<g>
					<path class="st3" d="M301.7,66.3c-0.6,0-1.2-0.1-1.7-0.3l-5.1-2.2c0,1.5,0,3.4,0,3.5c0,1.6,3,2.9,6.7,2.9s6.7-1.3,6.7-2.8
						c0-0.1,0-1.9,0-3.4l-4.9,2.1C302.9,66.2,302.4,66.3,301.7,66.3z"/>
				</g>
				<path class="st3" d="M300.3,65.6l-9.3-4.1c-0.8-0.3-0.8-0.8,0.1-1.1l9.2-2.9c0.8-0.3,2.2-0.3,3,0l9.2,2.9
					c0.8,0.3,0.9,0.7,0.1,1.1l-9.3,4C302.4,66,301.1,66,300.3,65.6z"/>
				<g>
					<g>
						<polygon class="st3" points="312.8,61.3 312.3,67.8 312.1,61.5 						"/>
					</g>
					<polygon class="st3" points="312.3,67.8 312.4,68 312.4,67.8 312.4,68 312.8,69.2 313.1,69.2 312.3,66.3 311.5,69.2 
						312.5,69.2 312.4,68 					"/>
				</g>
			</g>
		</g>
		<g>
			<path class="st0" d="M298.1,78.9l-3.2,1.3l-3.6,1.7l0.2,0.2c1.2-0.8,2.6-1.3,4.2-1.9C297.1,79.8,297.9,79.7,298.1,78.9z"/>
			<path class="st0" d="M312.1,81.9l-1.4-0.6c0.4,0.2,0.8,0.4,1.2,0.7L312.1,81.9z"/>
			<path class="st3" d="M309,80.6l1.7,0.7C310.2,81.1,309.6,80.8,309,80.6z"/>
			<path class="st3" d="M311.4,82.5c-0.4-0.2-0.2-1-0.7-1.2l-1.7-0.7c-0.4-0.2-0.9-0.3-1.3-0.5c-1.7-0.6-2.3-0.7-2.3-2.4
				c-0.3,0.2-0.6,0.4-0.9,0.6c0.1,0.1,0.3,0.1,0.5-0.1c-0.1,1.2,0.4,2.4,1.6,3.1l-4.4,3.7l-5.4-3.6c1.3-0.6,1.9-1.3,1.7-3.4
				c-0.3-0.2-0.4-0.3-0.4-0.3c0.1,0.5,0.1,0.9,0,1.2l0,0l0,0c-0.2,0.8-1,0.8-2.4,1.3c-1.5,0.5-2.4,1.5-3.6,2.3l10.5,6.8L311.4,82.5z
				"/>
			<path class="st3" d="M312.1,83.1l-9.5,7.8l-11.2-7.8c-2,1.3-3.3,2.7-4.1,6.1c0.6,0.2,7.8,2.3,14.8,2.2c7.6-0.1,13.8-2.1,14.3-2.2
				C315.7,85.8,314.2,84.4,312.1,83.1z"/>
		</g>
	</g>
	<g>
		<g>
			<path class="st3" d="M209.1,81.3c-1.7-0.6-2.2-1.9-2.1-3.6c-0.3,0.2-0.6,0.4-0.9,0.6c0.1,0.1,0.3,0.1,0.5-0.1
				c-0.1,1.2,0.4,2.4,1.6,3.1l-4.4,3.7l-5.4-3.6c1.3-0.6,1.9-1.3,1.7-3.4c-0.3-0.2-0.4-0.3-0.4-0.3c0.2,2-0.1,2.8-2.1,3.5
				c-4,1.4-7.6,2-8.8,7.4c0.6,0.2,7.8,2.3,14.8,2.2c7.6-0.1,13.8-2.1,14.3-2.2C216.9,83.1,213.1,82.7,209.1,81.3z"/>
		</g>
		<g>
			<path class="st3" d="M210.7,70.7c0-0.1-0.1-0.2-0.1-0.3l-0.2,0.1l0.2-0.1c-0.1-0.2-0.2-0.3-0.3-0.4s-0.2-0.1-0.3-0.1
				c0-0.1,0-0.2,0-0.3c0-0.1,0-0.2,0-0.2c0-0.3,0-0.6,0-0.9l-0.1,0.1c-0.1,0.1-0.2,0.3-0.4,0.4c-1.2,1-3.5,1.6-6.2,1.6l0,0l0,0
				c-1.8,0-3.6-0.3-4.9-0.9c-0.5-0.2-1-0.5-1.3-0.8c-0.1-0.1-0.2-0.1-0.2-0.2c-0.1-0.1-0.2-0.2-0.3-0.3c0,0.1,0,0.3,0,0.5
				c0,0.4,0,0.7,0.1,1.1c-0.1,0-0.2,0.1-0.3,0.1c-0.1,0.1-0.2,0.2-0.3,0.4c-0.1,0.1-0.1,0.2-0.1,0.3c0,0.1,0,0.2,0,0.3
				c0,0.3,0,0.6,0.1,0.9c0.1,0.5,0.3,1,0.5,1.4c0.1,0.2,0.2,0.4,0.3,0.6c0.1,0.1,0.1,0.1,0.2,0.2c0.1,0.1,0.1,0.1,0.2,0.1
				c0.1,0,0.2,0.1,0.3,0.1h0.1l0,0c0.4,1.3,1,2.5,1.9,3.4s2.1,1.5,3.5,1.7c0.2,0,0.4,0,0.7,0c0.7,0,1.4-0.2,2-0.4
				c0.9-0.4,1.6-1.1,2.2-2c0.6-0.8,1-1.7,1.3-2.7c0.1,0,0.2,0,0.3-0.1c0.1,0,0.2-0.1,0.3-0.2c0.1-0.2,0.3-0.4,0.4-0.6
				c0.2-0.4,0.3-0.8,0.5-1.2c0.1-0.4,0.2-0.9,0.2-1.2C210.7,70.9,210.7,70.8,210.7,70.7z M210.1,71.8c-0.1,0.4-0.3,0.9-0.4,1.3
				c-0.1,0.2-0.2,0.4-0.3,0.5c0,0.1-0.1,0.1-0.1,0.1h-0.1c-0.1,0-0.1,0-0.1,0s0,0-0.1,0l-0.2-0.1l-0.1,0.2c-0.4,1.3-1,2.6-1.9,3.5
				c-0.4,0.5-0.9,0.8-1.4,1.1c-0.5,0.3-1.1,0.4-1.8,0.4c-0.2,0-0.4,0-0.6,0c-1.3-0.1-2.3-0.7-3.2-1.5c-0.8-0.8-1.5-1.9-1.8-3.2
				c0-0.1-0.1-0.2-0.1-0.3l-0.1-0.3l-0.3,0.2h-0.1h-0.1c0,0,0,0-0.1-0.1s-0.2-0.3-0.3-0.5c-0.2-0.3-0.3-0.7-0.4-1.1
				c-0.1-0.4-0.2-0.8-0.2-1.1c0-0.1,0-0.1,0-0.2v-0.1c0.1-0.1,0.2-0.2,0.2-0.2c0.1,0,0.1,0,0.1,0s0,0,0.1,0l0.3,0.2
				c0.2,0.6,0.5,1.2,0.9,1.5c-0.2-0.8,0-1.6,0.9-2.2c1.7,2.3,6.2,3,8.6,1.6c0.4-0.2,0.8-0.6,1.2-0.9c0.2,0.5,0.2,1.1,0.1,1.6
				c0.4-0.5,0.6-1,0.8-1.6l0.2-0.1h0.1h0.1c0.1,0,0.1,0.1,0.2,0.2c0,0,0,0,0,0.1s0,0.1,0,0.2C210.2,71.2,210.2,71.5,210.1,71.8z"/>
		</g>
		<g>
			<g>
				<path class="st3" d="M203.3,66.3c-0.6,0-1.2-0.1-1.7-0.3l-5.1-2.2c0,1.5,0,3.4,0,3.5c0,1.6,3,2.9,6.7,2.9s6.7-1.3,6.7-2.8
					c0-0.1,0-1.9,0-3.4l-4.9,2C204.5,66.2,204,66.3,203.3,66.3z"/>
			</g>
			<path class="st3" d="M201.9,65.6l-9.3-4.1c-0.8-0.3-0.8-0.8,0.1-1.1l9.2-2.9c0.8-0.3,2.2-0.3,3,0l9.2,2.9
				c0.8,0.3,0.9,0.7,0.1,1.1l-9.3,4C204,66,202.7,66,201.9,65.6z"/>
			<g>
				<g>
					<polygon class="st3" points="214.4,61.3 213.9,67.8 213.7,61.5 					"/>
				</g>
				<polygon class="st3" points="213.9,67.8 214,68 214,67.8 214,68 214.3,69.2 214.6,69.2 213.9,66.3 213.1,69.2 214.1,69.2 
					214,68 				"/>
			</g>
		</g>
	</g>
	<g>
		<g>
			<g>
				<path class="st3" d="M243.9,70.7c0-0.1-0.1-0.2-0.1-0.3l-0.2,0.1l0.2-0.1c-0.1-0.2-0.2-0.3-0.4-0.4c-0.1-0.1-0.2-0.1-0.4-0.1
					c0-0.1,0-0.2,0-0.3c0-0.1,0-0.2,0-0.2c0-0.3,0-0.6,0-0.9l-0.1,0.1c-0.1,0.1-0.3,0.3-0.4,0.4c-1.3,1-3.6,1.6-6.5,1.6l0,0l0,0
					c-1.9,0-3.8-0.3-5.1-0.9c-0.5-0.2-1-0.5-1.4-0.8c-0.1-0.1-0.2-0.1-0.3-0.2s-0.2-0.2-0.3-0.3c0,0.1,0,0.3,0,0.5
					c0,0.4,0,0.7,0.1,1.1c-0.1,0-0.2,0.1-0.4,0.1c-0.1,0.1-0.3,0.2-0.4,0.4c-0.1,0.1-0.1,0.2-0.1,0.3c0,0.1,0,0.2,0,0.3
					c0,0.3,0.1,0.6,0.1,0.9c0.1,0.5,0.3,1,0.5,1.4c0.1,0.2,0.2,0.4,0.3,0.6c0.1,0.1,0.1,0.1,0.2,0.2c0.1,0.1,0.1,0.1,0.2,0.1
					c0.1,0,0.2,0.1,0.3,0.1h0.1l0,0c0.4,1.3,1.1,2.5,2,3.4c1,0.9,2.2,1.5,3.6,1.7c0.2,0,0.5,0,0.7,0c0.8,0,1.5-0.2,2.1-0.4
					c1-0.4,1.7-1.1,2.3-2c0.6-0.8,1-1.7,1.4-2.7c0.1,0,0.2,0,0.3-0.1c0.1,0,0.2-0.1,0.3-0.2c0.1-0.2,0.3-0.4,0.4-0.6
					c0.2-0.4,0.4-0.8,0.5-1.2c0.1-0.4,0.2-0.9,0.2-1.2C243.9,70.9,243.9,70.8,243.9,70.7z M243.2,71.8c-0.1,0.4-0.3,0.9-0.5,1.3
					c-0.1,0.2-0.2,0.4-0.3,0.5c0,0.1-0.1,0.1-0.1,0.1h-0.1c-0.1,0-0.1,0-0.1,0s0,0-0.1,0l-0.3-0.1l-0.1,0.2c-0.4,1.3-1.1,2.6-2,3.5
					c-0.4,0.5-0.9,0.8-1.5,1.1c-0.6,0.3-1.2,0.4-1.9,0.4c-0.2,0-0.4,0-0.6,0c-1.3-0.1-2.4-0.7-3.3-1.5c-0.9-0.8-1.5-1.9-1.9-3.2
					c0-0.1-0.1-0.2-0.1-0.3l-0.1-0.3l-0.3,0.2h-0.1h-0.1c0,0,0,0-0.1-0.1s-0.2-0.3-0.3-0.5c-0.2-0.3-0.3-0.7-0.5-1.1
					c-0.1-0.4-0.2-0.8-0.2-1.1c0-0.1,0-0.1,0-0.2v-0.1c0.1-0.1,0.2-0.2,0.2-0.2c0.1,0,0.1,0,0.1,0h0.1l0.3,0.2
					c0.2,0.6,0.5,1.2,1,1.5c-0.2-0.8,0-1.6,1-2.2c1.8,2.3,6.5,3,9,1.6c0.5-0.2,0.8-0.6,1.2-0.9c0.2,0.5,0.2,1.1,0.1,1.6
					c0.4-0.5,0.7-1,0.9-1.6l0.2-0.1h0.1h0.1c0.1,0,0.1,0.1,0.2,0.2c0,0,0,0,0,0.1s0,0.1,0,0.2C243.3,71.2,243.3,71.5,243.2,71.8z"/>
			</g>
			<g>
				<g>
					<path class="st3" d="M236.1,66.3c-0.6,0-1.2-0.1-1.7-0.3l-5.1-2.2c0,1.5,0,3.4,0,3.5c0,1.6,3,2.9,6.7,2.9s6.7-1.3,6.7-2.8
						c0-0.1,0-1.9,0-3.4l-4.9,2.1C237.3,66.2,236.8,66.3,236.1,66.3z"/>
				</g>
				<path class="st3" d="M234.7,65.6l-9.3-4.1c-0.8-0.3-0.8-0.8,0.1-1.1l9.2-2.9c0.8-0.3,2.2-0.3,3,0l9.2,2.9
					c0.8,0.3,0.9,0.7,0.1,1.1l-9.3,4C236.8,66,235.5,66,234.7,65.6z"/>
				<g>
					<g>
						<polygon class="st3" points="247.2,61.3 246.7,67.8 246.5,61.5 						"/>
					</g>
					<polygon class="st3" points="246.7,67.8 246.8,68 246.8,67.8 246.8,68 247.2,69.2 247.5,69.2 246.7,66.3 245.9,69.2 
						246.9,69.2 246.8,68 					"/>
				</g>
			</g>
		</g>
		<g>
			<path class="st0" d="M232.5,78.9l-3.2,1.3l-3.6,1.7l0.2,0.2c1.2-0.8,2.6-1.3,4.2-1.9C231.5,79.8,232.3,79.7,232.5,78.9z"/>
			<path class="st0" d="M246.5,81.9l-1.4-0.6c0.4,0.2,0.8,0.4,1.2,0.7L246.5,81.9z"/>
			<path class="st3" d="M243.4,80.6l1.7,0.7C244.6,81.1,244,80.8,243.4,80.6z"/>
			<path class="st3" d="M245.8,82.5c-0.4-0.2-0.2-1-0.7-1.2l-1.7-0.7c-0.4-0.2-0.9-0.3-1.3-0.5c-1.7-0.6-2.3-0.7-2.3-2.4
				c-0.3,0.2-0.6,0.4-0.9,0.6c0.1,0.1,0.3,0.1,0.5-0.1c-0.1,1.2,0.4,2.4,1.6,3.1l-4.4,3.7l-5.4-3.6c1.3-0.6,1.9-1.3,1.7-3.4
				c-0.3-0.2-0.4-0.3-0.4-0.3c0.1,0.5,0.1,0.9,0,1.2l0,0l0,0c-0.2,0.8-1,0.8-2.4,1.3c-1.5,0.5-2.4,1.5-3.6,2.3l10.5,6.8L245.8,82.5z
				"/>
			<path class="st3" d="M246.5,83.1l-9.5,7.8l-11.2-7.8c-2,1.3-3.3,2.7-4.1,6.1c0.6,0.2,7.8,2.3,14.8,2.2c7.6-0.1,13.8-2.1,14.3-2.2
				C250.1,85.8,248.6,84.4,246.5,83.1z"/>
		</g>
	</g>
</g>
<rect id="_x3C_Slice_x3E__21_" x="15" y="-39.1" class="st0" width="317" height="197.7"/>
</svg>
