<?xml version="1.0" encoding="utf-8"?>
<!-- Generator: Adobe Illustrator 28.0.0, SVG Export Plug-In . SVG Version: 6.00 Build 0)  -->
<svg version="1.1" id="Layer_1" xmlns="http://www.w3.org/2000/svg" xmlns:xlink="http://www.w3.org/1999/xlink" x="0px" y="0px"
	 viewBox="0 0 344 189.7" style="enable-background:new 0 0 344 189.7;" xml:space="preserve">
<style type="text/css">
	.st0{fill:#76ACCD;}
	.st1{fill:#2A3F5E;}
	.st2{fill:#7088C4;}
	.st3{enable-background:new    ;}
	.st4{fill:#F2F2F2;}
	.st5{fill:none;}
</style>
<circle class="st0" cx="263.6" cy="112.5" r="54.2"/>
<g>
	<path class="st1" d="M293,85.4L293,85.4C293,85.3,293,85.4,293,85.4z M263.3,164.3c-1.9,0-3.8-0.1-5.7-0.3c0.2-0.1,0.1-0.2,0-0.3
		c0.1-0.1,0.2-0.2,0.4-0.1c-0.2,0-0.4-0.1-0.6-0.1c0.3,0,0.6,0,0.9,0c-0.2-0.2-0.4-0.2-0.6-0.1c0.1,0,0.1,0,0.2,0
		c-0.1,0-0.2,0-0.3,0l0,0c-0.3,0-0.6-0.2-0.8-0.4c0.8,0.2,1.7,0.2,1.7-0.3c0.1-0.1-0.1-0.2-0.3-0.3c1.9,0.1,3.7,0.1,2.9-1.1
		c-0.1-0.3-0.6-0.5-1.1-0.5c0.1,0,0-0.1,0-0.1c5.7,1.8,6.1-5.3,9.8-6.5l0,0c4.1-0.1,4-5.5,4.9-8.2c1.1-3.3,3.4-3.1,0-5
		c-2.2-1.2-4.9-0.9-7.1-0.3c0-0.8-0.5-0.4-0.9-0.7c-1.5-0.9-2.9-0.5-3.6,1.1c-0.1-0.1-0.1-0.3-0.1-0.5c-0.6,0.2-1.3,0.2-1.9,0.3
		c0.4,0-0.2,0.2-0.1,0.1c0.9-0.4,0.2-0.6,0.5-1.1c0.2-0.9-0.1-4.7-3.9-4.9c-2.9,0.1-4.2-1.8-6.7-2.2c-1.1-0.8-1.5-1.2-1.1-1.9
		c-0.6,0.1-1.3-0.1-2,0l0.4,0.1c-2.1,0.5-4.1-0.1-5.4-1.6c-0.6,0.3-0.2,0.3,0.1,0.6c-0.5,0.9-1.9,0.1-1.1,2
		c-0.3-0.8-0.7-2.8-0.7-2.8c-0.1,0-0.1,0-0.2,0c-1.9,0.5-3.3,1.4-3.7,3.2c-2.1-2.8-3.6-0.2-5.5-3.4c-1.8-3.1,0.8-4.7-3.8-5.4l0,0
		c0-0.2,0.2-0.4,0.4-0.6l0,0c0.1-0.7,0.2-1.4,0.2-1.9c0.1,0.2,0.1,0.5,0.1,0.8c0.2-0.4,0.3-0.8,0.2-1.2c0.1-0.1,0.2-0.2,0-0.3
		c0.6-0.7,0.9-1.3,0-1.6c-1.3-0.7-2.1,0-2.5,1.4c-0.5,0.3-1.6,0.1-2.4-0.5l0,0c-1.4-1.8-1.4-4.5-0.6-6.6c0.2,0.2,0.3,0,0.3-0.2
		c0,0.1,0-1.1,0-1.5c0.1,0,0.1,0,0.1,0.1c0.1-0.1,0.2-0.3,0.1-0.5c0.1,0,0.2,0,0.2-0.1h-0.1c0.3-0.1,0.4-0.2,0.5-0.5l0.1,0.1v-0.1
		c0,0.1,0.1,0.1,0.1,0v0.1c0.1,0,0.2,0,0.2,0c-0.1,0-0.2,0.1-0.3,0.1c0.4-0.2,1.2-1,1.1-0.7c0,0.1-0.1,0.1-0.1,0.1
		c1.4,0.3,2.4,0.8,3.1,1.5c-0.3-0.7,0.3-0.9-0.4-1.4c0.7,0.5,1.2-0.1,1.6-0.1c-0.1,0.7,0.3,0.7,0.5,0.6c0.2,0,0.5,0,0.5,0.1
		c1.4,0.4,2.1,1.3,2.1,2.9v-0.1c-0.1,0.4,0,0.8,0.3,1.1v0.3c0.1,0.7,0.4,1.4,1.1,1.5c0.4-2.2-0.7-4.4,0.4-6.4
		c0.7-0.6,2.8-1.9,3.3-2.2c0-0.1,0.1-0.2,0.2-0.3c0-0.1-0.1-0.2-0.2-0.2c0.1,0.1,0.2,0,0.2,0c0.3,0.3,0.5,0.1,0.5-0.3
		c-0.1,0.2-0.2,0.3-0.2,0c-0.4,0.1-0.5,0-0.3-0.4c0,0.3,0.1,0.3,0.4,0.2v-0.1c0.1,0,0.2,0.1,0.2,0.2c-0.1-0.5-0.2-0.9-0.2-1
		c-0.1-0.1-0.1-0.2,0-0.2c-0.1-0.5-0.2-0.9-0.4-1.2c0,0.2,0.2,0.4,0.5,0.5c0-0.1,0-0.2-0.1-0.3h0.1c0-0.2,0-0.5,0.1-0.7
		c0.5-0.3,0.3,0.5,0.4,1.2c0,1.7,0.2-0.8,0.3-1.5c0.1,0.2,0.2,0.3,0.4,0.4c0,0.1,0,0.1,0,0.2c0.3-0.3,0.5-0.5,0.6-0.9
		c0.7-0.9,1.9-1.5,3-1.6l-0.1,0.2c-0.7-0.3-0.2-0.7-0.3-0.8c0.6-1.1,1.4-1.7,2.5-2c0.1-0.1,0.1-0.2,0.1-0.3c0.6,0.1,1.2-0.1,1.6-0.6
		c0,0.1,0,0.1,0.1,0.1c-0.2,0.1-0.3,0.3-0.3,0.4c0.3-0.1,0.6-0.1,0.9-0.1c-0.6,0.1-1.2,0.4-1.8,0.9c0.1,0,0.1-0.1,0.2-0.1
		c-0.3,0.7-0.1,1,0.5,0.8c0.3-0.2,0.5-0.5,0.7-0.8v0.1l0.1-0.2c0.1,0.2,0.2,0.2,0.2-0.1c0.5-0.1,1.1-0.3,1.7-0.6
		c-0.1-0.1-0.1-0.1-0.2,0c0-0.1,0-0.1,0.1-0.1c-0.1-0.1-0.2-0.2-0.4-0.1c0-0.1,0-0.1,0-0.2c-0.4,0.2-0.8,0.2-1.2,0
		c0-0.1,0-0.1,0.1-0.1c-0.1-0.1-0.3-0.2-0.5-0.2c-0.1-0.2-0.2-0.5-0.1-0.7c-0.1,0-0.2,0-0.3,0c0.3-0.2,0.4-0.5,0.2-0.7
		c-0.3,0.1-0.5,0-0.9-0.2c0.7,0,1.3-0.2,1.5-0.7c-1.5-0.6-3.2,0.3-4.3,1.6c0.5-0.3,0.8-0.7,1-1.1c0.3-0.2,0.7-0.5,1-0.8
		c0.5-0.2,0.9-0.4,1.2-0.8c1.1,0,2.6-0.1,3.6-0.3c0.4-0.2,1.8-1.1,2.6-1.6c-0.1-0.1-0.1-0.1-0.2-0.2c0.1,0,0.1,0,0.2,0
		c0-0.1-0.1-0.2-0.2-0.1c0-0.1,0.1-0.1,0.1-0.1c0-0.2-0.1-0.3-0.3-0.5c0.4,0.1,0.4,0,0.2-0.3c0.1-0.1,0-0.2-0.3-0.2l0,0
		c-0.2,0-0.4,0.1-0.4,0.3c0.2-0.6,0-0.8-0.6-0.6c0.1,0,0.3,0,0.4,0c-0.5,0.1-1,0.4-1.4,0.8c0-0.3-0.1-0.4-0.4-0.4
		c0.5,0.1,0.8,0,1.3-0.3c-0.1,0.1-0.3,0.1-0.5,0.1c0.6-0.1,1.2-0.3,0.9-0.7c0-0.1,0-0.1,0-0.2c-0.2,0.2-0.4,0.2-0.5-0.1l-0.1,0.1
		v-0.1c-0.1,0.1-0.2,0.2-0.3,0.3l0.1-0.3c-0.1,0-0.1,0-0.1-0.1c-0.2,0.1-0.2,0.1-0.4,0.1c0.1-0.1,0.1-0.2,0.1-0.4
		c-0.1,0-0.1,0-0.2,0c0-0.2-0.1-0.2-0.3-0.2h0.1c-0.1-0.1-0.1-0.1-0.1-0.2h-0.3c0-0.1,0-0.1,0.1-0.1c-0.1-0.1-0.2-0.2,0-0.2
		c-0.2,0-0.4-0.1-0.6-0.1c0.1,0,0.3-0.1,0.4-0.1h-0.1l0,0c0.1,0.1,0.2,0.1,0.3,0.1c0.2-0.2,0.2-0.4,0-0.5c0.1-0.2,0-0.2-0.3-0.1
		c0.3-0.2,0.3-0.3,0-0.4c0-0.1,0.1-0.1,0.1-0.1l-0.1-0.1c-0.1,0-0.2,0.1-0.3,0.1c0.1-0.1,0.2-0.1,0.3-0.2l0,0c0.1,0,0.1-0.1,0.1-0.2
		c-0.5,0-0.5,0-0.1-0.1c-0.1,0-0.1-0.1,0-0.1h-0.1v-0.1l0,0v-0.1c-0.2,0-0.4,0-0.5,0.1c0.2-0.1,0.5-0.1,0.4-0.2v-0.1
		c0,0-0.1,0-0.1,0.1c0-0.1,0-0.1-0.1-0.1c0.1,0,0.1-0.1,0.1-0.1c-0.1,0-0.1,0-0.2,0v-0.1H249c0.1-0.2,0-0.2-0.1-0.2
		c0.1-0.1,0.1-0.2,0.1-0.3h-0.1c-0.2-0.1-0.4,0.2-0.4,0.6c-0.1,0.1-0.1,0.1-0.2,0.2v-0.1c0,0.1,0,0.2-0.1,0.3
		c-0.1,0.1-0.1,0.1-0.2,0c0.1,0.1,0.1,0.3,0,0.4c0.1-0.2,0.1-0.3-0.1-0.3c-0.2,0.3-0.4,0.4-0.7,0.6c0-0.1,0-0.2,0-0.3l-0.1,0.1
		c0-0.1,0.1-0.1,0.1-0.2c-0.1,0.3-0.4,0.5-0.8,0.6c0.7-0.5,0.8-0.9-0.1-0.7c-0.1-0.1-0.1-0.1-0.2-0.1c0.2,0,0.2,0,0.2-0.2
		c0.1,0,0.1,0,0.1,0.1c0.1,0,0.1-0.1,0.2-0.1c0.1,0,0.1,0,0-0.1c0-0.1,0.1-0.1,0.1-0.1c0.1-0.3-0.1-0.5-0.7-0.7
		c0.3,0.1,0.6,0.1,0.8,0c0-0.1,0-0.2-0.1-0.3c0.1-0.2,0.2-0.3,0.2-0.5c-0.1,0.1-0.2,0.1-0.3,0.1c0-0.1,0-0.1,0-0.2
		c-0.1,0-0.2,0-0.3,0c0-0.1-0.1-0.2-0.2-0.1v-0.1c0-0.2,0.1-0.4-0.2-0.3c0.1-0.1,0.1-0.2,0.1-0.3c-0.1,0-0.2,0-0.2,0.1
		c0.2-0.5-0.2-0.6-0.7-0.4H245c0,0-0.2-0.2-0.1-0.1c-0.2-0.1-0.4-0.2-0.7-0.3v-0.1c-0.4,0.2-0.6,0.5-0.2,0.7
		c-0.4,0.3-0.6,0.6-0.3,0.8c-0.1,0-0.2,0-0.1,0.1c0,0.2-0.1,0.4-0.2,0.4v0.1c0.1,0.1,0.2,0.1,0.2,0c-0.2,0.1-0.2,0.2-0.1,0.3
		c-0.7,0.1-1.1,0.3-0.6,1c0,0.6-0.1,1.2-0.2,1.7c0.1-0.1,0.1-0.1,0.2-0.2c0,0.1,0,0.2,0,0.3c-0.3,0-0.6,0.2-0.9,0.6l0.1-0.1
		c-0.4,0.3-0.9,0.5-1.4,0.6c-0.1,0.7,0,1.7,0.2,2.1c-0.2,0.1-0.5,0.2-0.7,0.3c0.1,0.2,0.1,0.4-0.1,0.5c0-0.2,0-0.2,0-0.4
		c-0.2,0-0.4,0.2-0.4,0.5c-0.2-0.3-0.4-0.4-0.6-0.1c0.5-0.5,0.5-0.9-0.2-1c0.2-0.5,0.6-1.6,0.9-2.6c-0.1,0-0.2,0-0.2-0.1
		c-0.4-0.3-0.9-0.3-1.3,0c0.4-0.5,0.2-0.9-0.4-1.1c-0.1-0.9-0.6-1.4-1.5-1.4v-0.1h-0.2c0.5-0.7,1-1.5,0.2-1.5
		c0.1-0.1,0.1-0.1,0.1-0.2c-0.1,0-0.1-0.2-0.1-0.3c0.5-0.5,1-1.2,1.3-1.7c0.3,0,0.5-0.1,0.6-0.3c0.1,0,0.2-0.1,0.3-0.2v0.2
		c0.1-0.3,0.3-0.4,0.5-0.4H239c0-0.1,0-0.1,0.1-0.2c0.4,0.2,0.7,0.1,0.8-0.3h-0.1c0-0.2-0.1-0.3-0.3-0.2c0.1-0.1,0.1-0.1,0-0.1
		c0-0.1,0-0.2-0.1-0.2c-0.2,0.1-0.1,0,0-0.1c0.1,0.2,0.2,0.3,0.3,0.4c0,0.1,0.1,0.1,0.1,0v0.1l0,0c0.1,0.1,0.1,0.2,0.1,0.3h0.1
		c0.2,0,0.3-0.1,0.4-0.3c0.1,0.1,0.1,0,0.1-0.1c0,0,0,0,0,0.1l0,0v0.1c0,0,0,0,0-0.1l0.1,0.1c0.1,0,0.3,0,0.4-0.1l0,0
		c0.3-0.2,0.6-0.4,0.8-0.7l0,0l0,0c-0.4-0.1-0.6-0.3-0.7-0.7c0.3,0,0.4,0.2,0.4,0.5c0.6-0.2,1.1-0.5,1.2-0.7l0,0
		c0.1-0.1,0.1-0.1,0.2,0l-0.1,0.2l0,0c0,0.1,0.1,0.1,0.2,0.1c0.1-0.2,0.2-0.1,0.2,0l0,0c0-0.2,0.1-0.3,0.1-0.4
		c0.6,0.3,1.1-0.1,1.2-1h-0.1c0,0,0,0,0.1-0.1l0,0l0,0c0-0.1,0-0.1,0-0.2l0.1,0.1c0,0,0,0,0.1,0v0.1c0.2-0.1,0.4-0.2,0.2-0.3
		c0.1,0,0.2-0.1,0.3-0.2c-0.1-0.1-0.1-0.1-0.2-0.1c0.1-0.1,0.1-0.1,0-0.2c0.1,0,0.1-0.1,0.1-0.2c-0.2-0.1-0.4-0.2-0.7-0.2
		c-0.2,0.2-0.3,0.4-0.1,0.6l0,0h-0.1l0,0c-0.1,0.1,0,0.1,0,0.1c-0.4,0.1-0.9,0.4-1.1,0.8l0,0l0,0l0,0c-0.1,0-0.1,0.1-0.2,0.1
		c-0.1-0.4,0-0.7,0.3-0.9c0.2,0.1,0.2-0.3,0.2-0.7c-0.3,0.1-0.6,0.3-0.8,0.6c0.1-0.2,0.2-0.4,0.3-0.6c-0.1,0-0.1-0.1,0-0.2
		c0,0,0,0,0.1,0v0.1c0.1,0,0.1-0.1,0.1-0.1l0,0l0,0l0,0v-0.1l0,0c0,0,0.1,0,0.1-0.1c-0.1,0.1-0.2,0.1-0.2-0.1h-0.1
		c0.2-0.1,0.3-0.2,0.3-0.3c0.1,0.1,0.2,0.1,0.2,0c0,0,0.1-0.1,0-0.1c0,0,0,0-0.1,0c0-0.1,0.1-0.2,0.1-0.3h-0.1l0.1-0.1l0,0l0,0l0,0
		c0.2-0.1,0.2-0.3,0.2-0.5c0-0.1,0.1-0.1,0.1-0.1h-0.1v-0.1h-0.1l0.1-0.1h-0.1c0.1-0.3-0.2-0.1-0.4,0.1c0,0.1-0.1,0.1-0.1,0.1v-0.1
		c-0.1,0-0.2,0.1-0.3,0.2l0,0c-0.1,0.1-0.2,0.2-0.2,0.3l0,0l-0.1,0.1c-0.2,0-0.3,0.2-0.4,0.4c-0.1,0.1,0,0.1,0.1,0.2
		c0,0.1,0,0.1,0,0.2c0,0,0.1,0,0.1-0.1c-0.1,0.2,0,0.2,0.2,0.2c0,0.1-0.1,0.2-0.2,0.2c0-0.1,0.1-0.1,0.2-0.2c-0.1,0-0.2,0-0.3,0.1
		l0,0c-0.1,0.1-0.2,0.1-0.3,0.2c0.1,0.1,0.2,0,0.3-0.1H242l0.1-0.1c0,0.1,0,0.2-0.1,0.3l0,0c-0.2,0.2-0.5,0.2-0.7,0.2
		c0,0,0-0.1-0.1-0.1c-0.1,0.2-0.4,0.8-0.4,0.5h-0.1l0,0h-0.1l0.1-0.1h-0.1c0.2-0.1,0.4-0.3,0.5-0.5c-0.1,0-0.2,0-0.2,0.1l0,0l0,0
		c0,0,0.1-0.1,0.2-0.2c-0.1,0-0.1,0-0.1,0h0.1v-0.1H241v0.1v-0.1c0,0,0,0-0.1,0c0,0.1,0,0.2-0.1,0.1l0,0h-0.1v-0.1
		c0,0.1,0,0.2-0.1,0.2l0,0c0,0.1-0.1,0.2-0.1,0.3c0.1-0.1,0.2-0.1,0.2,0h0.1c-0.3-0.1-0.3-0.2-0.4,0c-0.1,0-0.1,0-0.2,0l0,0
		c0,0,0,0-0.1,0v-0.1c-0.2,0-0.4-0.1-0.6-0.2l0,0l0,0l0,0c-0.1,0.1-0.1,0-0.1-0.1s0.1-0.3,0.1-0.4l-0.1,0.1l0,0l0,0l0,0
		c-0.1,0-0.1-0.1,0-0.2c0-0.1,0-0.2,0-0.2l0,0c0.1,0,0.2-0.1,0.2-0.2s0-0.1,0-0.2h-0.1c-0.3,0-0.6,0-0.8,0.2h0.1l0,0l0,0l0,0l0,0
		l0,0h0.1l0,0l0,0h0.1l0,0c0-0.1,0-0.1,0.1-0.1v0.1h0.1l0,0l0,0l0,0c0,0,0.1,0,0.1-0.1l0,0v-0.1h0.1c0-0.1,0.1-0.1,0.2,0l0,0l0,0
		l-0.1,0.1l0,0c-0.1,0-0.2,0.1-0.3,0.1v-0.1c0,0-0.1,0-0.1,0.1c-0.1,0-0.1,0-0.2,0l0,0c-0.1,0-0.2,0-0.2,0l0,0h-0.1
		c-0.1,0.2-0.3,0.3-0.4,0.5l0,0c-0.1,0-0.1,0.1-0.1,0.1H238c0-0.1-0.1-0.1-0.1,0c0-0.1,0-0.2,0.1-0.3l0,0h0.1c0.1,0,0.1-0.1,0.2-0.2
		l0,0l0.1-0.1h-0.1c0-0.1,0-0.1,0.1-0.1l0,0c0,0,0.1,0,0-0.1c0,0-0.1,0.1-0.2,0.1l0,0l0,0c0.1-0.1,0.1-0.2,0.2-0.2l-0.1-0.1l0,0V76
		l0,0l0.1-0.1l0,0c0,0,0-0.1,0.1-0.1c-0.1,0-0.3,0-0.4,0l0.1-0.1c-0.1,0-0.1,0-0.1,0l0,0l0,0c0,0,0,0,0-0.1H238l0,0l0,0
		c-0.1,0-0.1-0.1-0.2-0.1l0,0c-0.1-0.1-0.2-0.2-0.2-0.3h-0.1c0-0.1,0-0.1,0-0.2l0,0c0-0.1,0.1-0.1,0.2-0.2c0.1,0.1,0.1,0.1,0.1,0
		c0,0.1,0,0.1,0.1,0.1l0,0c0,0,0,0,0.1,0l0,0l0.1-0.1H238c0.1-0.1,0.2-0.2,0.2-0.3l0,0c0,0,0.1-0.1,0-0.1l0,0v-0.1l0,0
		c0,0,0-0.1-0.1-0.1c0,0.1,0,0.1-0.1,0.1c0-0.1,0-0.1,0-0.2l0,0c0-0.4,0-0.8,0.1-1.2v-0.1H238c-0.2,0.1-0.3,0.2-0.4,0.1
		c-0.1,0-0.1-0.1,0-0.1l0,0c0.1,0,0.2-0.1,0.3-0.1l0,0l0,0c0.1-0.1,0.2-0.2,0.3-0.2l0,0v0.1c0,0,0,0-0.1,0c0,0,0,0,0.1-0.1l0,0l0,0
		c0,0-0.1,0-0.1,0.1h0.1c-0.1,0-0.1,0.1-0.2,0.1l0,0c-0.1,0.1-0.2,0.1-0.2,0.2h-0.1c0.1,0,0.1,0.1,0,0.1c0,0,0,0-0.1,0
		c0-0.1,0-0.1,0-0.2c0.3-0.2,0.5-0.5,0.7-0.8h-0.1l0,0c-0.1,0-0.1,0.1-0.1,0.1c-0.2,0-0.3,0-0.5,0h0.1l0,0l0.1-0.1
		c-0.2-0.1-0.5-0.1-0.7,0c0.1,0,0.2-0.1,0.2-0.1h-0.1h0.1h-0.1c0,0,0.1,0,0.1-0.1c-0.1,0-0.3,0-0.4,0c0,0,0.1,0,0.2,0c0,0,0,0-0.1,0
		h0.1l0,0h0.1l0,0c0.1,0,0.2,0,0.2,0.1c0.2,0.1,0.4,0,0.6-0.1c-0.1,0-0.1,0-0.2,0c0,0,0,0,0-0.1c-0.1,0-0.2,0-0.2,0v-0.1
		c-0.1,0-0.2,0-0.2,0s0,0,0-0.1h-0.1l0,0c-0.1,0.1-0.2,0.1-0.3,0l0,0c-0.2,0-0.5,0.1-0.6,0.3c0.1-0.1,0.2-0.2,0.3-0.4
		c-0.1,0-0.1,0.1-0.2,0.2c0.1-0.1,0.1-0.2,0.2-0.4c0,0,0,0-0.1,0l0,0c0-0.2,0.1-0.3,0.3-0.4l0,0c0.2-0.2,0.4-0.4,0.4-0.7h-0.1
		c0.2-0.2,0.3-0.3,0.4-0.5l0,0h-0.1c0,0,0.1,0,0.1-0.1c0,0,0,0,0-0.1c-0.1,0-0.1,0,0-0.1l0,0c0.2-0.3,0.4-0.7,0.6-1l0,0l0,0
		c0.1-0.1,0.1-0.2,0.1-0.3c0.1,0,0.1-0.1,0.1-0.1V68c0.1-0.1,0.2-0.1,0.3-0.2h-0.1l0,0l0,0c0.1,0,0.2-0.1,0.1-0.2h0.1c0,0,0,0-0.1,0
		c0.1-0.1,0.2-0.2,0.3-0.2l0,0l0,0h-0.1l0,0c-0.1,0-0.2,0-0.3,0.1l0.1-0.1l0,0h0.1h-0.1l0.1-0.1l0,0h0.1c0.1,0.1,0.2,0,0.4-0.2h-0.1
		l0,0c0,0,0,0-0.1,0l0,0c-0.1,0-0.1,0-0.2-0.1v-0.1l0,0c0-0.1,0-0.1,0.1-0.1l0,0l0,0h-0.1c0-0.1,0.1-0.1,0.1-0.1l0,0
		c0-0.1,0-0.1-0.1-0.1l0,0c-0.1,0-0.1,0.1-0.2,0.1c0,0,0,0,0-0.1c-0.1,0-0.1,0-0.2,0h0.1l0,0c0.1,0,0.1,0,0.2-0.1c0,0,0-0.1-0.1,0
		l0,0c-0.1,0-0.1-0.1-0.1-0.2l0,0h0.1c-0.1,0-0.2,0-0.3,0.1c0.1-0.1,0.1-0.1,0.2-0.2c-0.1,0-0.2,0-0.2,0.1c0,0,0-0.1,0.1-0.1
		c0,0-0.1,0.1-0.2,0.1l0.1-0.1c-0.1,0-0.1,0-0.2,0h0.1c-0.3,0-0.3-0.1-0.1-0.3l0,0c0,0,0.1,0,0.1-0.1c-0.1,0-0.2,0.1-0.3,0.1l0,0
		l0,0l0,0l0,0c-0.4,0.2-1.1,0.7-1.6,1h0.1V67c0,0,0,0,0.1,0c-0.1,0.1-0.2,0.1-0.3,0.2l0,0c-0.1,0-0.2,0.1-0.3,0.2h0.1H236l0,0
		c-0.1,0.1-0.1,0.1-0.1,0.2l0,0c0,0,0,0.1-0.1,0.1v-0.1c0,0,0,0-0.1,0l0,0c-0.1,0.1-0.1,0.2-0.1,0l0,0c0.1-0.1,0.2-0.2,0.2-0.2
		c0.1-0.1,0.1-0.1,0.2-0.2c-0.1,0-0.2,0.1-0.3,0.1c0,0,0,0,0.1,0c-0.1,0.1-0.2,0.2-0.3,0.2c0.1,0,0.1-0.1,0.2-0.1
		c-0.1,0-0.1,0-0.2,0l0.1-0.1l0,0l0.1-0.1l0,0l0,0l0,0c0.1-0.1,0.2-0.2,0.3-0.3l0,0c0.1,0,0.2-0.1,0.2-0.1s0,0,0,0.1
		c0.1-0.1,0.1-0.1,0.1-0.2h-0.1c0.1-0.1,0-0.1-0.1,0c0.1-0.1,0.1-0.1,0.1-0.2l0,0l0,0c0,0,0,0-0.1,0c0,0,0-0.1,0.1-0.1
		c0,0,0,0-0.1,0c0-0.1,0-0.1,0.1-0.1l0,0c-0.2,0.1-0.4,0.2-0.5,0.3h0.1l-0.2,0.2l0,0l0,0l0.1-0.1c-0.5,0.2-0.9,0.5-1.2,1
		c0.1,0,0.1-0.1,0.2-0.1c-0.1,0.1-0.2,0.2-0.3,0.2c0.1,0,0.1,0,0.2,0v0.1l0,0c0,0-0.1,0-0.1,0.1l0,0c-0.1,0.1-0.2,0.1-0.3,0.1
		c0,0,0-0.1,0.1-0.1h-0.1l0,0c-0.3,0.2-0.6,0.5-0.6,0.1h0.1c-0.1,0-0.1,0-0.2,0l0.1-0.1v-0.1h-0.1l0.1-0.1c0,0,0,0-0.1,0
		c0,0,0,0,0-0.1h-0.1l0,0c-0.1,0-0.2,0-0.3,0.1c0,0,0,0,0-0.1c-0.8,0.6,1.9-1.3,1.5-1.1l-0.1,0.1c0.5-0.4,1.1-0.8,1.7-1.1
		c-0.1,0-0.1,0.1-0.2,0.1c0.1-0.1,0.2-0.1,0.3-0.2l0,0c0,0,0.1,0,0.1-0.1c0,0-0.1,0.1,0,0.1c-0.1,0-0.1,0-0.1,0.1
		c0.1,0,0.2-0.1,0.2-0.2l-0.1,0.1h0.1c0,0.1-0.1,0.1-0.2,0.2c0.1,0,0.2-0.1,0.3-0.1c-0.1,0.1-0.2,0.1-0.3,0.2c0.1,0,0.1,0,0.2,0
		c0,0,0,0,0,0.1c0,0,0,0-0.1,0.1c0.1,0,0.2-0.1,0.3-0.2l0,0l0,0l0,0c0.3-0.1,0.6-0.3,0.9-0.5c0,0.1-0.1,0.1-0.1,0.1
		c0.1-0.1,0.1-0.1,0.2-0.1h-0.1c0,0,0.1-0.1,0.2-0.1l0,0c0.1,0,0.1-0.1,0.2-0.1c0,0,0,0-0.1,0c0.1,0,0.1-0.1,0.2-0.1H238l0,0
		c0,0,0,0-0.1,0l0,0c-0.1,0.1-0.2,0.1-0.3,0.1l0,0c-0.1,0-0.1,0.1-0.2,0.1l0,0l0,0c0.3-0.1,0.6-0.3,0.9-0.3h-0.1
		c0.2-0.1,0.4-0.2,0.5-0.3c-0.1,0-0.2,0.1-0.3,0.1c0.1-0.1,0.3-0.1,0.4-0.2l0,0c0.1,0,0.2-0.1,0.3-0.2l0,0c0.2-0.1,0.4-0.2,0.6-0.3
		h-0.1c1.2-0.5,2.4-1.1,3.5-1.8H243h0.1c-0.2,0.1-0.3,0.1-0.5,0.1c0.3-0.2,0.7-0.4,1.1-0.4l0,0c0.7-0.4,1.5-0.7,2.3-1
		c0.8-0.2,1.7-0.5,2.5-0.8c-0.1,0-0.1,0-0.1,0.1c0.4-0.1,0.7-0.1,1.1-0.2c-0.1,0.1-0.2,0.1-0.2,0.1c0.9-0.1,1.8-0.3,2.7-0.5h-0.1
		c0.1-0.1,0.2-0.1,0.3-0.2l0,0l0,0h-0.1c0.5-0.1,1-0.2,1.5-0.3c0.3,0,0.6,0,0.8-0.2c0.2-0.1,0.4-0.1,0.5-0.1l0,0c0.1,0,0.1,0,0.2,0
		c0,0,0,0,0.1,0h0.1l0,0c0.1,0.1,0,0.1-0.1,0.1l0,0h-0.1l0,0l0,0l0,0c0,0,0,0-0.1,0h0.1c0,0,0,0-0.1,0l0,0c0,0,0,0-0.1,0l0,0l0,0
		c0,0,0,0-0.1,0l0,0h0.1l0,0h0.1c0,0,0,0,0.1,0l0,0c0.3,0,0.5,0,0.8,0c0.2,0.1,0.4,0,0.6-0.1l0,0c0,0,0,0,0-0.1
		c0.4-0.1,0.9-0.1,1.3,0c0,0.1-0.1,0.1-0.2,0.1c0.4,0,0.9,0,1.4,0c0-0.1,0.1-0.1,0.2-0.1h-0.1h0.1l0,0l0,0c-0.1,0-0.1,0-0.1,0.1
		c0,0,0,0,0,0.1c0.2-0.1,0.4-0.1,0.4,0l0,0h-0.1c0.1,0,0.1,0,0.2,0c0.2,0,0.3,0,0.3-0.1l0,0c-0.1,0-0.2,0-0.3,0c0.2,0,0.3,0,0.5,0
		l0,0l0,0c0.1,0,0.2,0,0.3,0c0.2,0,0.4,0,0.6,0h-0.1c0.3,0,0.5,0,0.8,0c-0.8,0.1-1.6,0.2-2.3,0.3l0,0c-0.1,0-0.2,0-0.3,0l0,0H259
		h0.1H259l0,0h-0.1l0,0c-0.1,0-0.2,0-0.3,0.1l0,0l0,0c0,0,0,0-0.1,0h0.1l0,0h0.1l0,0l0,0c-0.1,0-0.1,0-0.2-0.1h0.1
		c-0.1,0-0.1,0-0.2,0.1c0,0,0,0,0.1,0l0,0c0,0,0,0.1,0.1,0l0,0h0.1l0,0c0,0,0,0-0.1,0h0.1c0,0,0,0.1,0.1,0.1l0,0h0.1
		c0.2,0,0.4,0,0.6,0l0,0l0,0h0.1l0,0c0.1,0,0.3-0.1,0.4,0l0,0l0,0c-0.1,0-0.2,0-0.4,0.1l0,0l0,0l0,0h0.1c0,0,0.1,0,0.2,0
		c0,0,0,0-0.1,0c0.1,0,0.2,0,0.4,0c-0.2,0-0.3,0.1-0.5,0.1c0,0,0,0,0,0.1c0.1,0,0.1,0,0.1,0.1c0,0,0,0,0.1,0l0,0
		c0.3,0,0.7-0.1,1-0.2l0,0l0,0l0,0l0,0l0,0l0,0l0,0c0.2,0,0.3,0,0.5,0.1l0,0l0,0l0,0l0,0h-0.1c0.1,0,0.1,0,0.2,0l0,0h0.1l0,0h0.1
		l0,0c0.1,0,0.2,0,0.2,0l0,0h0.1h0.1l0,0c0.1,0,0.1,0,0.2,0h-0.1l0,0l0,0c0.1,0,0.1,0,0.2,0c0,0-0.1,0-0.2,0c0.1,0,0.2,0.1,0.3,0.1
		h0.1l0,0h0.1l0,0h0.1l0,0c0.1,0,0.1,0,0,0l0,0c0,0,0,0-0.1,0c0.2,0,0.4,0,0.5,0l0,0c0.1,0,0.2,0.1,0.4,0.1l0,0c0.1,0,0.2,0,0.3,0
		l0,0c0.1,0,0.3,0,0.4,0l0,0c0,0,0.1,0,0.2,0l-0.1-0.1h0.1l0,0c0.1,0,0.2,0,0.3,0l0,0l0,0l0,0c0.1,0,0.1,0,0.2,0
		c-0.1,0-0.1,0-0.1-0.1l0,0l0,0c0.1,0,0.3,0.1,0.2-0.1h0.1l0,0h0.1l0,0c0.2,0,0.3,0.1,0.5,0.1l0,0c0.3,0.1,0.7,0.2,1,0.3
		c0,0,0,0-0.1,0c0.1,0,0.1,0,0.2,0l0,0h0.1l0,0l0,0l0,0c0.2,0,0.5,0,0.3-0.2h0.1c0,0,0,0,0-0.1c0,0,0,0-0.1-0.1l0,0
		c0.5-0.2,0.9-0.2,1.4-0.1c-0.4,0.1-0.8,0.2-1.2,0.1c0.1,0,0.2,0.1,0.3,0.2l0,0l-0.1,0.1c0.1,0.2,0.3,0.3,0.6,0.3
		c-0.1-0.2,0.2-0.1,0.4,0c-0.1,0-0.1,0-0.1,0.1c0.1,0,0.2,0,0.3,0v-0.1l0,0l0,0h-0.1h0.1h-0.1c0.8,0.3,0,0.4-0.7,0.5
		c1,0,2,0,3.1-0.2c-0.3-0.1-0.4-0.2-0.6-0.4c0.1,0,0.2,0,0.3-0.1l0,0c0.2,0,0.4,0.1,0.6,0c-0.1,0-0.1-0.1-0.2-0.1
		c0.1,0,0.2,0.1,0.3,0.1c0,0,0,0-0.1,0l0,0c-0.1,0-0.3,0-0.4,0l0,0c-0.1,0-0.2,0-0.3,0l0,0l0,0c-0.1,0-0.1,0-0.2,0
		c0.3,0.2,0.6,0.2,0.9,0.2l0,0c1,0,2,0.3,2.1,0.5l0,0c-0.1,0-0.2,0-0.1-0.1c-0.1,0-0.2-0.1-0.3-0.1l0,0c-0.1-0.1-0.2-0.1-0.3-0.1
		l0.1,0.1c0,0,0,0-0.1,0c-1.4-0.2-3-0.1-4.5,0.2v0.1c0.1,0,0.2,0.1,0.2,0.2h-0.1c0.6,0,1.3,0.1,2,0.2h-0.1c0.1,0,0.3,0,0.4,0
		c-0.1,0-0.1,0-0.1-0.1c0.2,0,0.5,0,0.7,0l0,0c0.1,0,0.3,0,0.4,0c-0.1,0-0.1,0-0.1,0v-0.1c0,0,0,0-0.1,0c0.1,0,0.3,0,0.4-0.1h-0.1
		c0.2,0,0.5,0,0.7,0.1c-0.2,0-0.3,0.2-0.3,0.4h-0.1c0,0.1-0.1,0.3-0.1,0.4c0.1,0,0.1,0.1,0.1,0.2c0.1,0.2,0.4,0.2,0.6,0.1l0,0
		c0.3,0.1,0.6,0.1,0.8,0.2c-0.1,0-0.4,0-0.5,0c0.2,0.1,0.4,0.2,0.6,0.3c-0.1,0,0,0.1,0,0.1l0,0c0.2,0.1,0.4,0.2,0.6,0.2
		c0,0,0,0-0.1,0c0,0,0,0,0.1,0c-0.2,0-0.4,0-0.6,0c0,0,0,0,0.1,0c-0.1,0-0.2-0.1-0.2-0.1c0.1,0.2,0.3,0.2,0.5,0.3H274
		c0,0.1,0.1,0.1,0.2,0.1l0,0c0.1,0,0.2,0,0.2,0.1h-0.1c0.1,0.1,0.1,0.1,0.2,0.2l0,0c0.3,0.2,0.6,0.4,0.8,0.6l0,0
		c0.4,0.1,0.6,0.2,0.9,0.4c-0.1,0-0.1,0-0.2,0c-0.3,0.2-0.8,0.1-1.2-0.2l0,0c-0.3,0-0.4,0.2-0.4,0.4c0.9,0,1.6,0.1,2.5,0.3
		c-0.1,0-0.2,0-0.2,0s0,0.1,0.1,0.1c-0.2-0.1-0.3,0-0.4,0.1c0.5,0.5,1.1,0.8,1.9,0.7h-0.1c0,0,0,0.1-0.1,0.1c0.1,0.1,0,0.2-0.2,0.2
		c0.1,0.1,0.1,0.1,0.2,0.1c-0.1,0-0.2,0-0.2-0.1c-0.1,0.1-0.2,0.1-0.3,0.2c0.2,0.2,0.5,0.2,0.7,0.1l-0.1-0.1c0.2,0,0.3,0.1,0.5,0.1
		l-0.1,0.1c0,0.1,0.1,0.1,0.1,0.1c-0.2,0.2-0.3,0.2-0.6,0.3c0.1,0.1,0,0.1-0.2,0.1v0.1c-0.8-0.4-1.6-0.5-2.4-0.2
		c0-0.2,0.1-0.2,0.4-0.2c0,0,0,0-0.1,0c0.1,0,0.1,0,0.2,0l0,0l0,0l0,0c0,0,0.1,0,0.2,0c0-0.1,0-0.1,0.1-0.1c0.6-0.9,0-1.3-1.1-1.3
		l0,0c-0.1,0-0.2,0-0.3,0.1c0.1,0,0.1,0,0.1,0c-0.1,0-0.1,0.1-0.2,0.1l0,0c-0.1,0-0.1,0-0.2,0h0.1c-0.3,0.1-0.7,0.2-1,0.4
		c0.1,0,0,0.1-0.1,0.2c0,0,0,0.1,0.1,0.1c-0.1,0-0.1,0-0.2,0l0.1,0.1h-0.1l0,0c-0.1,0-0.1,0-0.1,0.1c-0.1,0-0.1,0-0.1,0l-0.2-0.1
		c0.1,0,0.1,0,0.2-0.1c-0.1-0.1-0.2-0.1-0.2,0c-0.1,0-0.1,0-0.2,0.1c0.1,0,0.2,0,0.1,0.1c0.2,0,0.2,0.1,0,0.1v0.1h0.1l0,0H273h0.1
		H273v0.1c-0.1-0.1-0.2-0.1-0.2,0c-0.1,0-0.2,0-0.3,0.1c0.2-0.3,0.1-0.5-0.3-0.3l0,0h-0.1c0,0,0,0,0.1,0.1c0,0,0,0-0.1,0v0.1
		c-0.1,0-0.1,0-0.2,0l0,0l0,0c0.1,0.1,0.3,0.2,0.4,0.2c0,0-0.1,0,0,0.1c0,0-0.1-0.1-0.2-0.1c0,0,0.1,0.1,0,0.1
		c0-0.1-0.1-0.1-0.2-0.1l0,0c0,0-0.1-0.1-0.2-0.1l0,0c-0.1,0-0.1,0-0.1,0.1h-0.1c0.1,0.1,0.3,0.1,0.4,0.2l0.1,0.1v0.1
		c-0.2-0.1-0.3-0.1-0.5-0.1c0.2,0.1,0.3,0.3,0.5,0.4l0,0c0.1,0,0.2,0.1,0.2,0.2c-0.2-0.1-0.5-0.2-0.7-0.3c0,0,0.1,0.1,0,0.1
		s-0.1,0-0.2,0h0.1c0,0,0,0-0.1,0h0.1l0,0c0.1,0,0.2,0,0.3,0.1c0,0.2,0.1,0.3,0.3,0.3h-0.1l0,0c-0.1-0.1-0.1-0.1-0.1,0
		c0.1,0.1,0,0-0.1,0l0,0h-0.1l0,0l0,0l0.1,0.1c-0.1,0-0.1,0-0.2,0c0.2,0,0.4,0,0.6,0.1c-0.1,0-0.2,0-0.3,0h0.1l0,0h0.1l0,0l0,0h-0.1
		c0.1,0.1,0.3,0.2,0.4,0.3c-0.1-0.1-0.3-0.2-0.5-0.2c0.1,0.1,0.2,0.2,0.3,0.3l-0.3-0.1c0,0.2,0.2,0.2,0.5,0.2c-0.1,0-0.3,0-0.4,0.1
		c0.1,0,0.2,0,0.2,0.1H272l0,0h-0.1l0,0h-0.1c0.2,0.1,0.3,0.2,0.4,0.3l0,0h0.1l0,0h0.1h-0.1h0.1l0,0l0,0c0,0.1,0,0.2,0.1,0.1h0.1
		v-0.1h0.1c0,0.1,0,0.1,0.1,0.1c-0.2,0.1-0.2,0.2,0,0.2l0,0c0.1,0,0.1,0,0.2,0l0,0h0.1l0,0l-0.2-0.1c0,0,0,0.1,0.1,0.1l0,0l0,0
		c0,0,0.1,0.1,0.2,0.1l0,0l0,0c0,0,0.1,0.1,0,0.1c0.1,0,0.1,0,0.1-0.1c0.1,0.1,0,0.2-0.1,0.2c0,0.1,0.1,0.2,0.2,0.2
		c0.1,0.1,0.1,0.1,0.2,0.2c0,0.1,0,0.2,0.1,0.2h0.1l0,0c0,0,0.1,0.1,0.1,0c0,0,0,0,0,0.1l0,0c0,0,0.1,0.1,0.2,0.1l0,0h0.1
		c0,0.1,0,0.2,0.1,0.3v-0.1c0,0,0.1,0,0.2,0h-0.1c0.1,0,0.1,0.1,0.2,0.1l0,0c0.1,0,0.2,0.1,0.3,0.1c-0.1,0-0.1,0-0.2,0
		c0.1,0.1,0.1,0.1,0.2,0.2v-0.1c0.1,0,0.1,0.1,0.2,0.1H275l0,0l0,0c0.1,0.1,0.1,0.2,0.2,0.3v-0.1l0,0c0.1,0.1,0.2,0.2,0,0.3
		c0.1,0.2,0.3,0.5,0.4,0.6v-0.1c0.1,0.1,0.1,0.1,0.2,0.1c0-0.1,0-0.3,0-0.4c0.1,0.4,0.1,0.5,0,0.7c-0.1,0-0.1,0-0.2-0.1
		c-0.1,0.1,0,0.2,0,0.2l0,0h0.1l0,0c0,0,0,0-0.1,0c0,0,0,0.1,0.1,0.1c-0.1,0.1,0,0.2,0.1,0.2c-0.1,0.1-0.1,0.1,0,0.1l0,0
		c0.1-0.1,0.2-0.1,0.3,0c-0.2,0.1-0.3,0.2-0.2,0.2c0,0,0,0,0,0.1c0,0,0,0,0-0.1c0,0.1,0.1,0.1,0.2,0.2l0,0c-0.1,0-0.1,0-0.2-0.1
		c0,0.1,0.1,0.2,0.2,0.2H276c0,0,0,0.1-0.1,0.1c0,0,0,0,0.1,0.1h-0.1c0.1,0.2,0.3,0.1,0.4-0.1v0.1l0.1-0.1c-0.1,0.1-0.2,0.2-0.2,0.3
		c0.2,0.3,0.4,0.4,0.7,0.1c0,0-0.1-0.1-0.1-0.2c0.1,0.1,0.2,0.1,0.3,0c-0.1-0.1-0.1-0.2-0.2-0.3c0.1,0.1,0.1,0.1,0.2,0.2
		c0,0,0-0.1,0.1-0.1c0,0.1,0,0.2,0.1,0.3v0.1c-0.3-0.1-0.4,0.1-0.6,0.3c0,0.1,0.1,0.2,0.2,0.1l0.1,0.1h-0.1l0,0l0,0
		c0.2,0.1,0.2,0.1,0.3-0.1c0,0.1,0,0.2,0.1,0.2c0,0.1,0.1,0.2,0.2,0.2v-0.1c0.1,0,0.1,0.1,0.2,0.1c-0.1,0.1,0,0.1,0.1,0.1
		c-0.1-0.2-0.2-0.4-0.2-0.6h0.1c0-0.1,0-0.1,0.1-0.1c0,0.1,0,0.1,0.1,0.2c0-0.1-0.1-0.1-0.1,0c0.1,0.3,0.2,0.5,0.4,0.4l0,0
		c0,0.1-0.1,0.1,0,0.2l-0.1,0.1c0,0.1,0.1,0.2,0.2,0.2v-0.1c0,0.1,0.1,0.1,0.1,0c0,0,0,0-0.1-0.1c0.1,0,0.1-0.1,0.1-0.2
		c0.1,0,0.1,0,0.1,0.1l0,0c0.1,0.1,0.2,0.2,0.2,0.3c0,0,0,0,0,0.1h-0.1c0.2,0.2,0.5,0.3,0.8,0.2l-0.1-0.1c0.1,0,0.1,0.1,0.2,0.2
		v-0.1h0.1v-0.1l0.1-0.1v0.1c0.2-0.1,0.2-0.2,0.1-0.3h0.1c0-0.3-0.1-0.6-0.3-0.8c0.2-0.2,0-0.4-0.3-0.5c0.1,0,0.1,0,0.2,0.1
		c0-0.1-0.1-0.1-0.2-0.2c0,0,0,0,0-0.1c0.1,0.1,0.3,0.2,0.5,0.3c0.2,0,0.6,0.1,0.9,0.3c0,0,0-0.1-0.1-0.1c0,0,0.1,0,0.1,0.1
		c0.1,0,0.1,0,0.1,0.1c0.1-0.1,0.2,0,0.3,0.1v-0.1c0.1,0.1,0.2,0.2,0.3,0.3c0.3,0,0.8,0.2,0.9,0.3c0,0.1,0.1,0.1,0.2,0.1h-0.1
		c0.3,0,0.6,0.2,0.7,0.4c0.1-0.1,0.2-0.2,0.3-0.3c-0.1-0.1-0.3-0.3-0.4-0.4h0.1c-0.1-0.2,0-0.3,0.2-0.4c-0.4-0.4-0.8-0.8-1.3-1.1
		h0.1c-0.1-0.1-0.3-0.2-0.5-0.2c0.1-0.2,0-0.1-0.2,0c0.1-0.1,0.1-0.2,0.1-0.3c0-0.1,0-0.2-0.1-0.3h0.1c0-0.1-0.1-0.2-0.2-0.3h0.1
		l-0.1-0.1c-0.1,0.2-0.1,0.3-0.1,0.4c-0.1,0-0.3,0-0.4,0.1v-0.1l0.1-0.1l0,0h0.1c0,0,0,0,0-0.1h0.1l0,0c0.2-0.3,0-0.4-0.5-0.5l0,0
		c-0.1,0-0.2,0-0.3,0c0,0.1-0.1,0.1-0.2,0.1c0.2,0.1,0.3,0.3,0.2,0.5c0-0.2-0.1-0.4-0.3-0.5c-0.3-0.1-0.6-0.3-0.8-0.5h0.1
		c-0.2-0.2-0.5-0.3-0.7-0.4h0.1c-0.1-0.1-0.2-0.2-0.4-0.2c0.1,0,0.2,0.1,0.1-0.1l0,0c0-0.1-0.1-0.1-0.1,0c0-0.1-0.1-0.2-0.2-0.3
		c0-0.1,0-0.2-0.1-0.3h0.1c0-0.1-0.1-0.1-0.1-0.2l0,0c-0.1-0.2-0.3-0.4-0.5-0.5h0.1c-0.4-0.1-0.8-0.4-1-0.6l0,0c-0.1,0-0.1,0-0.2,0
		h0.1c-0.1,0-0.2-0.1-0.2-0.1h0.1l-0.1-0.1c0.1,0,0.1,0,0.2,0c-0.1-0.1,0-0.2,0.1-0.2l-0.1-0.1c0.1,0,0.1,0,0.2,0l0,0
		c0.3,0,0.6,0,0.8,0.1l0,0c0,0,0.1,0.1,0.1,0c0.2,0.2,0.8,1.1,0.9,1.4c0.1,0,0.2,0.1,0.1,0.2c0.3,0.3,0.8,0.5,1.3,0.6
		c0,0.1,0.1,0.2,0.3,0.3l0,0c0.1,0,0.3,0.1,0.3,0.1c0.2-0.1,0.4-0.1,0.5-0.1v-0.1c0.2,0,0.3,0.1,0.4,0.2c0-0.1,0-0.2-0.1-0.2
		c0.2,0.1,0.1-0.1,0.1-0.2c0,0,0,0,0.1,0c-0.1-0.1-0.1-0.1,0-0.2c0-0.1,0-0.2-0.1-0.2h0.1c0-0.1,0-0.1-0.1-0.1
		c0.1-0.1,0.1-0.2,0-0.3c0.1,0,0.1-0.1,0.1-0.2c0.1-0.1,0.1-0.2,0-0.3c0.1,0,0.2,0.1,0.2,0.1h-0.1c0.4-0.2,0.7-0.3,0.7,0.2l0,0
		l0.1,0.1h-0.1c0.3,0.2,0.2,0.4-0.1,0.6h-0.1c0,0,0.1,0,0,0.1c0.1,0.1,0.1,0.1,0,0.2h0.1c-0.1,0.2,0,0.4,0.2,0.5c0.1,0,0.2,0,0.3,0
		c0.1,0.2,0.3,0.2,0.5,0.1c0,0,0-0.1-0.1-0.1c0.3,0.1,0.8,0.4,1.2,0.7h-0.1c0,0.2-0.1,0.2-0.3,0.1l0.1,0.1c-0.2,0-0.3-0.1-0.5-0.1
		c0.2,0.6,0.7,1.1,1.4,1.3l-0.1-0.1c0.1,0,0.3,0.1,0.4,0.2l0,0c0.1,0.1,0.2,0.1,0.3,0.2l-0.1,0.1c-0.1-0.1-0.2-0.2-0.3-0.3
		c0.2,0.3,0.4,0.7,0.4,1.1l0,0v0.1c-0.1,0-0.3-0.1-0.4-0.1h0.2c-0.4,0.3-0.5,0.9-0.4,1.5l0,0c0,0.1,0,0.1,0,0.2
		c0.1-0.1,0.1,0,0.2,0.1c-0.4,0-0.8,0-1,0.3c0-0.1-0.1-0.1-0.1-0.2c-0.1,0.1,0,0.3,0.1,0.4H284c-0.1,0.1-0.1,0.2,0,0.3
		c-0.1,0-0.1,0.1-0.1,0.2c-0.2-0.3-0.3-0.3-0.5-0.1v0.1h-0.1c-0.1-0.1-0.3-0.1-0.4-0.1v-0.1c0,0,0,0,0.1,0c-0.1,0-0.2,0-0.3-0.2l0,0
		c-0.1-0.1-0.2-0.2-0.3-0.3c0,0,0-0.1,0.1-0.1c-0.1-0.1-0.2-0.2-0.3-0.4h0.1V76l0,0c-0.1-0.2-0.1-0.3-0.3-0.1c-0.1,0-0.1,0-0.1,0.1
		c-0.1,0-0.1-0.1-0.1-0.1V76c-0.2-0.2-0.4-0.5-0.7-0.7c-0.1,0.8,0.2,1.4,1,1.8c0,0,0,0,0-0.1c0.4,0.1,0.8,0.3,1,0.6
		c0.1,0,0.2,0,0.2,0.1c0.1,0.2,0.2,0.2,0.5,0.5c-0.1,0-0.2-0.1-0.3-0.1l0.1,0.1l0,0c-0.5,0.1-0.5,0.2,0,0.3h-0.1
		c-0.6,0.3-0.6,0.7-0.1,1c0.3,0.4-0.2,0-0.4-0.2c0.1,0.6,0.3,1,0.8,0.8c-0.1,0.2-0.1,0.3-0.2,0.5c0.1,0,0.1-0.1,0.2-0.1
		c-0.4,0.8-0.4,1.8-0.1,2.3c-0.3,0.4-0.6,0.6-1.1,0.5c0.3,0.2,0.5,0.4,0.8,0.6c-0.6,0.2-1,0.6-1.2,1.2l0.1-0.1c0,0.1,0,0.2,0.2,0.1
		c0.1,0.1,0,0.2-0.1,0.2c0.2,0,0.3,0,0.4,0v-0.1c0.3,0,0.5-0.1,0.8-0.2v0.1c0.2,0,0.3,0,0.6-0.1c-0.1,0.1,0,0.2,0.1,0.3h-0.1
		c0.2,0.2,0.6,0.3,0.9,0.2c0.2,0.3,0.4,0.5,0.8,0.6c-0.1,0-0.2-0.1-0.3-0.1c0.1,0.2,0.3,0.5,0.4,0.7v-0.1c1,2.6-3.1,1.9-2.5,3.9v0.2
		c0.1,0,0.2,0,0.1,0.1l0.1-0.1c0.5,1,1.2,2.3,1.7,3.2c0-0.1,0.1-0.1,0.2-0.2c0.3,0.3,0.4,0.9,0.6,1.2c1.8-0.3,3.4-0.9,3.9-3.1
		c-1.1-1.7-1.2-4.8-0.9-6.1c0.3-1.4,1-2.4,2.8-1.5c0.6,0,1.5,0,2.2,0c0.2-0.1,0.4-0.1,0.7,0.1c0.4,0,1,0.6,1.4,1.3l0,0l0,0
		c-0.7-1.1-1.2-1.9-0.5-2.3c-0.8-0.3-1.8-0.4-2.2-0.2l0.1,0.1c-0.2,0-0.3,0-0.4-0.1c-1.1-0.2-2.2-0.7-2.8-1.4
		c0.3-0.3,0.8-0.5,0.6-0.5c0.3,0,0.7,0.1,1,0.3c0.1,0.2,0.4,0.3,0.7,0.3c0.2-0.3,0.5-0.3,0.8-0.2c-0.1,0-0.2,0-0.2,0.1
		c1-0.4,1.8-0.1,2.3,0.8l0,0c0.3,0.1,0.5,0.1,0.7,0.2l0,0c0.2,0.1,0.4,0.2,0.6,0.3l-0.1-0.1c0.2-0.1,0.2,0,0.1,0.2
		c0.2,0.1,0.3,0.1,0.5,0.2c0-0.2,0.2-0.4,0.3-0.5v-0.1c0.1,0.1,0.2,0.1,0.2,0c0.1,0.2-0.1,0.3-0.3,0.3c0,0.1,0,0.3-0.1,0.3
		c0.3,0.4,0.6,0.6,1,0.8c-0.1-0.1-0.1-0.2-0.1-0.2c0.2,0,0.3,0.1,0.5,0.3l0,0c-0.1-0.1-0.2-0.2-0.2-0.3c0.1,0.1,0.2,0.1,0.3,0.1
		c-0.2-0.2-0.5-0.4-0.8-0.6c0.1-0.1,0.2,0,0.2,0c-0.2-0.2-0.3-0.4-0.4-0.6c0.1,0.1,0.2,0.1,0.3,0c-0.2-0.3-0.4-0.4-0.7-0.3l-0.1-0.1
		c-0.1,0.1-0.2,0.1-0.3,0.1c0.1-0.2,0-0.3-0.2-0.4c0.1-0.1,0.1,0,0.2,0c-0.3-0.1-0.8-0.5-1-0.9c0.2,0.1,0.4,0.2,0.6,0.2
		c-0.2-0.1-0.3-0.2,0.1-0.2c-0.1-0.1-0.2-0.1-0.3-0.2c0.1-0.1,0.1-0.1,0.2-0.1c-0.4,0.1-0.5-0.1-0.5-0.5c0.2-0.2,0.4-0.5,0.6-0.7
		c0,0.2,0.1,0.4,0.3,0.6c-0.2-0.6-0.4-1.3-0.4-1.8c-1-0.1-2-1-2.7-2.1c0.1,0.1,0.3,0.2,0.4,0.3c-0.2-0.5-0.5-0.8-0.9-1
		c0.1,0,0.1,0.1,0.2,0.1c-0.1-0.3-0.2-0.4-0.5-0.5c0.1,0,0.1,0,0.2,0c-0.2-0.2-0.3-0.4-0.3-0.7l0.1,0.1c0-0.1,0-0.2-0.1-0.2
		c0.2,0,0.3,0,0.2,0.2c0.1-0.2,0.2-0.1,0.2,0.1c0.2-0.1,0.2-0.3,0.1-0.5h0.1l-0.1-0.1c0.1,0,0.1,0,0.2,0c0,0.3,0.2,0.5,0.3,0.7
		c0-0.1,0.1-0.1,0.2-0.1c0.3,0.2,0.8,0.4,0.4-0.3l0,0c0-0.4-0.1-0.7-0.4-1.1c0,0.1,0,0.2,0,0.2h-0.1c0,0.1,0,0.1,0.1,0.2h-0.1h0.1
		c-0.1,0-0.1,0.1,0,0.1c-0.1-0.1-0.2-0.1-0.3-0.1v0.1c0-0.1-0.1-0.1-0.1-0.1v0.1c-0.1,0-0.1,0-0.1-0.1c0,0,0,0.1-0.1,0.1
		c0,0,0.1,0,0.1,0.1c-0.1,0-0.1-0.1-0.2,0h-0.1c0.1-0.1,0.1-0.1-0.1-0.2c0.1,0,0.1,0,0.2,0.1v-0.1c0,0,0.1,0,0.1,0.1l-0.1-0.1
		c0.1,0,0.2,0.1,0.2,0.1c-0.1-0.1-0.3-0.3-0.4-0.4c0.1,0,0.2,0.1,0.3,0.2c-0.2-0.2-0.3-0.4-0.4-0.6l0,0c-0.1-0.1-0.1-0.1-0.1-0.2
		h0.1c-0.2-0.3-0.4-0.8-0.3-1c0.2,0.4,0.5,0.7,0.8,0.8c0.3,0.3,0.5,0.6,0.7,1c0.2,0,0.4,0,0.4-0.1c1.7-0.5,2.6,0.1,2.7,1.9
		c0,0,0,0.1,0.1,0.1c-0.2,0-0.3,0.1-0.3,0.2c-0.1-0.1-0.2-0.1-0.3-0.1c-0.1,0.5-0.3,1.9-0.2,2.8l0,0c0.2,0.2,0.3,0.3,0.4,0
		c0,0.1-0.1,0.4,0.1,0.4c0.1,0.1,0,0.3-0.1,0.5c0-0.1-0.1-0.1-0.1,0c0.2,0.1,0.2,0.2,0,0.2c0,0.4,0.1,0.7,0.5,1
		c0.1-0.1,0.1-0.2,0.1-0.3c0.2,0.3,0.5,0.5,0.8,0.6c0,0.2-0.1,0.2-0.3,0.1c0.1,0.2,0.2,0.4,0.3,0.2c0.2-0.1,0.4,0,0.5,0.2v-0.1
		c0,0.1,0.1,0.1,0.1,0.2c0.1,0,0.2,0.1,0.3,0.2c0-0.1,0.1-0.3,0.1-0.4c0.1,0.2,0.1,0.4,0.1,0.6v-0.3c0.1,0,0.1,0.1,0.1,0.1
		c0-0.3,0-0.4,0.1-0.4c0.6-0.4,0.8-1.5,0.6-2.8c1.5,1.4,2.7,2.9,3.4,4.8H304c0,0.1,0,0.2,0,0.3c-0.1,0-0.3,0-0.4-0.1
		c0,0.1,0,0.3-0.1,0.4c0.1,0.1,0.1,0.2,0,0.4c0-0.1-0.1-0.2-0.1-0.2c0,0.4,0.1,0.8,0.1,1.2c-0.7,0.7-1.4,1.1-2.1,1.4
		c-0.7,3.4-0.2,2.9-4.3,4c0,0-0.1,0.1,0,0.2c-0.1,0-0.1,0-0.1-0.1c-0.2,0.2-0.3,0.1-0.5-0.1l0.1-0.1c-0.4-1.2-1.1-2.1-1.4-2.1
		c-0.1,0-0.3-0.1-0.4-0.2c-0.2,0.5-0.6,0.9-1,1.2c0,0.2-0.1,0.3-0.4,0.3c-1.5,1.7-2.3,5.3-4.9,5c-0.1,5.5-1.8,10.6-1.4,16.4
		c0.2-0.1,0.4,0,0.5,0.1c0.9,1.5,1.6,3.8,0.9,5.5c0.3,0,0.7,0.2,1,0.7c-0.2,0.1-0.2,0.3-0.1,0.5l0,0l0.1,0.5l0,0l0,0l0,0
		c0.2,0.2,0.5,0.2,0.8,0.2c0.2,0.1,0.5-0.2,0.8-0.4c-0.4,0.4-0.4,0.7,0.1,0.8c0.1,0.2,0.2,0.2,0.4,0.2c0.4,0.3,0.9,0.6,1.4,0.8
		c0.2,0.8,0.8,1.2,1.7,1.1l0,0c4.5,2.9,7.3-4.9,10.5-6l0,0c0.1,0.1,0.2,0.2,0.3,0.2c0,0.4,0.2,0.7,0.6,0.5l0.1,0.1l0.1-0.3l0,0
		c0.3-0.6,0.7-1,1.1-1.2c0.7,0.2,1,1.1,0.8,2.4c0,0.2,0.2,0.5,0.4,0.6c-0.5,2,2,3.8,2.2,6.5c0.2,2.2-0.8,5.7-1,7.9
		c-0.2,1.2-0.3,2.8-0.7,3.9l0,0C300.4,154.4,281,164.3,263.3,164.3 M210.9,111.9c0-14.8,6.4-29.2,17.4-39c0,0,0,0.1-0.1,0.1
		c0,0,0,0,0.1,0l0,0l0,0l0,0c0.1,0,0.2-0.1,0.3-0.1l0,0h0.1V73h0.1c0,0,0,0.1-0.1,0.1h0.1l0,0h0.1v0.1l0,0c0,0,0,0,0,0.1
		c0,0,0.1,0,0.1-0.1l0,0c0,0,0.1,0,0.1-0.1l0,0h0.1v0.1c0.2-0.1,0.4-0.3,0.6-0.4v0.1c0.1,0,0.1,0,0.2-0.1l0,0l0,0c0,0,0,0.1-0.1,0.1
		c0,0,0.1,0,0.1-0.1c0,0,0,0,0,0.1c0.1,0,0.2-0.1,0.3-0.2l-0.1,0.1c0.1,0,0.3,0,0.4-0.1c0.2,0.1,0.6,0,0.9-0.2
		c-0.3,0.1-0.6,0.3-0.8,0.4c0.1,0,0.1,0,0.1,0.1c-0.2-0.1-0.4,0.1-0.5,0.3c0.3-0.7-0.2-0.4-0.7-0.1l0.1,0.1c0,0-0.1,0.1-0.2,0.1l0,0
		c0,0,0,0-0.1,0c0.1-0.1,0.1-0.1,0-0.1h0.1h-0.1l0,0c-0.1,0-0.1,0.1-0.1,0.2c0,0,0-0.1,0.1,0c0,0,0,0.1-0.1,0.1c0.1,0,0.1,0,0.2,0
		l0,0l0,0l-0.1,0.1c0.1,0,0.2-0.1,0.2,0l0,0c0.1,0,0.1-0.1,0.2-0.1c-0.1,0-0.1,0.1-0.2,0.1c0.1,0,0.2-0.1,0.3-0.1l-0.1,0.1
		c0,0,0,0.1-0.1,0.2l0,0h0.1c0,0,0.1,0,0.2-0.1l0,0c0,0,0.1,0,0.1-0.1H230c0,0,0-0.1,0.1-0.1c0,0.1,0.1,0.1,0.1,0l0,0l0.1-0.1l0,0
		c0.1,0,0.1-0.1,0.2-0.1c0,0-0.1,0-0.1,0.1h0.1c-0.1,0-0.2,0.1-0.3,0.2c0.1,0,0.1-0.1,0.2-0.1c-0.1,0.1-0.2,0.1-0.2,0.3
		c0.1,0,0.1,0,0,0.1v-0.1c-0.1,0-0.2,0.1-0.1,0.2H230v0.1h0.1c0,0-0.1,0.1-0.1,0c0,0.1-0.2,0.3-0.3,0.4h0.1
		c-0.1,0.1-0.2,0.2-0.2,0.3l0,0c-0.1,0.1-0.2,0.3-0.2,0.4l0,0v0.1l0,0c-0.1,0.1-0.1,0.2-0.1,0.3c-0.2,0.2-0.3,0.4,0,0.4
		c-0.1,0.1-0.1,0.1-0.2,0.2c-0.1,0-0.2,0-0.2,0.1c0.1-0.1,0.2-0.2,0.3-0.3c-0.3,0.1-0.5,0.3-0.6,0.6c0,0,0,0,0.1,0v0.1
		c0,0,0.1-0.1,0.2-0.1l0,0h0.1v0.1c0.1,0,0.1-0.1,0.1-0.1c-0.2,0.1-0.5,0.3-0.7,0.6c-0.1,0.1-0.2,0.4-0.3,0.5h0.1
		c0.1,0.1,0.1,0,0.2-0.1c0.1-0.1,0.2-0.2,0.2-0.3l0,0c0,0,0.1,0,0.1-0.1l-0.1,0.1c0,0,0,0,0.1,0c0,0.1-0.1,0.1-0.1,0.2h0.1
		c-0.1,0.1-0.2,0.2-0.2,0.3l0,0c-0.1,0-0.1,0.1-0.1,0.2l0.1-0.1c-0.1,0.1-0.1,0.2-0.2,0.2c0.2-0.2,0.5-0.4,0.7-0.6l0,0
		c0.1-0.1,0.1-0.1,0.2-0.1c-0.1,0.1-0.3,0.3-0.4,0.4l0,0c-0.2,0.1-0.3,0.3-0.4,0.5l0,0c0,0.1-0.1,0.1-0.2,0.2c0,0,0.1-0.1,0.1,0
		c0,0-0.1,0-0.1,0.1h0.1h-0.1l-0.1,0.1h0.1v0.1l0,0v-0.1c-0.1,0-0.1,0.1-0.2,0.2l0,0c0,0.1-0.1,0.1-0.1,0.2c0-0.1,0.1-0.2,0.1-0.2
		s-0.1,0-0.1,0.1l0,0c-0.1,0-0.2,0.1-0.2,0.2l0,0v-0.1l-0.1,0.1l0,0c0,0,0,0.1-0.1,0.1l0,0l-0.1,0.1l0.1-0.1
		c-0.2,0.3-0.3,0.6-0.5,0.9c-0.2,0-0.4,0.1-0.5,0.3c0,0,0.1,0,0.1-0.1l0,0c0.1-0.1,0.2-0.1,0.2-0.1v0.1c0,0,0.1,0,0.2,0l-0.1,0.1
		l0,0c-0.1,0.2-0.3,0.4-0.4,0.5l0,0c0,0.1-0.1,0.1-0.1,0.2c0,0,0,0-0.1,0l0,0l0,0l0,0c-0.1,0-0.2,0.1-0.2,0.2L226,81v0.1l0,0
		c0,0,0.1,0,0.2,0c0,0.1-0.1,0.2-0.3,0.3v-0.1c-0.3,0.3-0.6,0.6-0.8,1.1c0,0,0,0,0.1,0c-0.3,0.3-0.5,0.6-0.6,1c0,0,0,0,0.1,0
		c-0.3,0.3-0.4,0.5-0.4,0.6c-0.1,0.1-0.1,0.1-0.1,0.2l0,0c0-0.1,0-0.1-0.1-0.1v0.1c-0.2,0-0.2,0.2-0.2,0.4c0,0,0,0,0.1-0.1v0.1h0.1
		c0,0.1,0,0.2-0.1,0.1c0,0.1,0,0.2-0.1,0.2s-0.1,0-0.1-0.1c0,0.1,0,0.2,0,0.3c0,0,0,0,0.1,0v0.1l0,0v0.1c0,0,0.1,0.1,0.1,0.2
		c-0.2,0.2-0.4,0.4-0.2,0.5v0.1l0.1-0.1c-0.1,0.2-0.2,0.3-0.3,0.5c0.1,0,0.2-0.1,0.2-0.1c-0.2,0.2-0.3,0.4-0.2,0.6
		c0-0.1-0.1-0.1-0.1,0s-0.1,0.3-0.1,0.5l0,0c-0.2,0.2-0.4,0.4-0.5,0.7c0-0.2-0.2,0-0.3,0.1c0.4-0.3,0.5-0.7,0.3-1.2
		c-0.3,0.3-0.5,0.7-0.7,1.1h0.1c-0.1,0.2-0.2,0.3-0.3,0.5c0,0,0.1-0.1,0.1-0.2c-0.1,0.2-0.2,0.4-0.1,0.6c-1.6,1.2-3.4,4.1-3.9,6.5
		c0.1,0,0.1-0.1,0.1-0.2c0,0.1,0.1,0.1,0.1,0.2c-0.2,0-0.3,0.2-0.3,0.4c0-0.1,0-0.2,0-0.3c-0.4,1.1-0.7,2.4-0.8,3.6
		c0.1,0.2,0.1,0.4,0.1,0.7l0.1-0.1c0,1.3-0.1,2.7-0.4,4l0,0c0,0.9,0,1.8-0.1,2.6c-0.1,0-0.1,0.1-0.1,0.2c-0.1-0.1-0.1-0.2-0.3-0.3
		c0,0-0.1,0.1,0,0.1l0,0c0,0.5,0.1,0.9,0.3,1.3l0.1-0.1c0.1,0.7,0.1,1.5-0.2,2.2c0,0,0-0.1,0.1-0.1c0.2,0.7,0.4,1.6,0.5,2.4
		c0.4-0.3,0.4-0.8,0.1-1.3l-0.1,0.1c-0.1-0.4-0.1-0.7,0-1.1l0,0c0.1-0.5,0.1-1.1,0-1.7c0,0.1-0.1,0.2,0,0.3c0-0.8,0-1.6,0-2.4l0,0
		c0-0.1,0-0.1-0.1-0.2c-0.1-1,0-2,0.4-3c0,0.1,0.1,0.2,0.1,0.3l0,0c0.1,2.1,0.3,5.1,0.5,6.8c-0.1,0.2,0,0.5,0.2,0.6
		c0.4,1.6,0.7,3.4,0.6,5c0,4.1,7,9.6,10.3,11h-0.1c0.3,0.7,0.8,1.4,1.3,2c-0.1,0.5,0.1,1,0.6,1.4c0.1-0.2,0-0.3-0.1-0.4
		c0.5,0.4,1.1,1.1,1.5,1.7l-0.1-0.2c0.2,0.1,0.3,0.3,0.4,0.5c0.5,0.4,1.5,0.5,1.9,1.1c0.1,0,0.2-0.1,0.3-0.2
		c-0.3-1.7,0.6-0.6,1.6-0.5c0.2,0.9,0.9,3.1,1.3,3.8c-0.5,0.6-0.8,1.1-1.1,1.6c-1.3,0.8-1.5,2.3-0.5,3c-0.4,0.9-0.5,1.7-0.3,2.7
		c2.2,1.7,3.6,4.2,5.5,6.1c2.8,3.1,6.1,2.8,7.4,7.3c0,0.7,0.2,1.6,0.6,2.2h-0.1c0.4,0.5,0.8,1,1,1.5c-0.1,0.1-0.1,0.1,0,0.2
		c0,0.3,0,0.5,0.1,0.8c-0.1,0-0.1,0-0.2,0l0.2,0.2c-0.1,0-0.2,0-0.3,0c0.2,0.1,0.3,0.3,0.5,0.4l0,0c0.2,0.1,0.4,0.2,0.5,0.4h-0.1
		c0.2,0.4,0.6,0.6,1,0.6l0,0c0.2,0,0.3,0,0.5,0.1c-0.1,0-0.1,0-0.2,0c0.1,0,0.3,0.1,0.4,0.2c-0.1,0-0.1-0.1-0.2-0.1
		C228.7,158.4,210.9,136.2,210.9,111.9 M232.7,69.4L232.7,69.4L232.7,69.4z M239,99.8c0.2,0,0.5,0.1,0.6,0.2c0-0.1,0-0.2-0.1-0.2
		c0.1-0.1,0.2-0.1,0.2,0.1c0.3-0.1,0.6-0.2,0.8-0.3c-0.1,0.1-0.3,0.3-0.4,0.4c-0.3,0.6-1.2,0.7-2.2,0.4
		C238.1,100,238.5,99.8,239,99.8z M232.1,69.8c0,0.1-0.1,0.1-0.2,0.2C232,69.9,232,69.8,232.1,69.8 M232.3,69.6
		C232.3,69.7,232.3,69.7,232.3,69.6 M235.8,101.2c0.1,0,0.1,0,0.2,0.1c0.1-0.1,0.3-0.2,0.5-0.2c0.5-0.3,1.2-0.3,1.8-0.2
		c-0.9,0.7-2,0.9-2.9,0.5C235.5,101.2,235.6,101.1,235.8,101.2z M236.1,100.7C235.8,100.8,235.7,100.8,236.1,100.7
		C236.1,100.7,236.1,100.7,236.1,100.7z M236.1,96c0,0.2,0,0.4,0.1,0.7c-0.1,0-0.1,0.1-0.1,0.1l0,0c-0.4,0.1-1.4-0.2-2-0.5
		c0.1-0.2,0.3-0.4,0.6-0.5c-0.6,0.2-1.2,0.3-1.8,0.3c0.1-0.1,0.1-0.2,0.1-0.3c-1.5,0,0.9-0.8,1.6-1.1c0,0.1-0.1,0.1-0.1,0.2
		c0.1-0.1,0.3-0.2,0.4-0.3c-0.1,0.1-0.1,0.2-0.2,0.3c0.4-0.5,0.6-0.6,0.6,0.3l0.2-0.4c0.2,0.4,0.4,0.7,0.8,1
		C236.2,95.7,236.1,95.8,236.1,96z M231.3,70.5C231.3,70.5,231.3,70.4,231.3,70.5L231.3,70.5c0.2-0.1,0.4-0.2,0.4,0
		C231.3,70.5,230.2,71.2,231.3,70.5 M230.3,71.3h0.1c-0.1,0.1-0.3,0.1-0.4,0.3l0,0c-0.2,0.1-0.3,0.3-0.5,0.4
		c0.1-0.1,0.2-0.1,0.3-0.1c-0.3,0.3-0.2,0.3-0.4,0.4s-0.5,0.2-0.8,0.3l0,0C228.2,72.8,228.7,72.4,230.3,71.3
		C230.2,71.3,230.2,71.3,230.3,71.3z M237.5,97.7c0.4,0.1,0.6,0.3,0.7,0.7c0.1,0.2,0.2,0.6-0.1,0.4c-0.1,0.3-0.2,0.4-0.4,0
		c-0.1,0-0.1,0-0.1,0.1c0-0.1,0-0.1,0-0.2l0,0l0.1-0.2c-0.2,0-0.7,0.7-1.3,1.6c-0.4-0.4,0.3-1.3-0.7-0.7c0.4-0.4,0.4-0.8,0.7-1.2
		c-0.4-0.9-0.8-0.8-1.3-0.1c0-0.1,0-0.2,0-0.3c-0.4,0.9-1.3,2-1.8,2.9c-0.2-1.2,0.4-2.1,1.1-3.2c-0.2,0.2-0.4,0.4-0.7,0.5
		c0.3-0.4,0.7-0.8,1.1-1l-0.1,0.2c0.5-0.2,0.9-0.2,1.2-0.1c0.4,0.2,0.4-0.1,0.3-0.5c0,0.1,0.1,0.2,0,0.3c0.4,0.2,0.8,0.3,1.3,0.5
		C237.5,97.7,237.5,97.7,237.5,97.7z M232.9,69.2C232.9,69.3,232.9,69.3,232.9,69.2L232.9,69.2l-0.1,0.1
		C232.8,69.3,232.9,69.3,232.9,69.2L232.9,69.2z M238.7,65.6C238.7,65.7,238.6,65.7,238.7,65.6L238.7,65.6z M315.5,117.4
		c0-0.3,0-0.6,0-0.9l0,0c0-0.2,0-0.4,0-0.6C315.6,116.4,315.5,116.9,315.5,117.4 M306.3,107.3c-0.2-0.6,0-0.7,0.4-0.2
		c0.2-0.1,0.3-0.2,0.4-0.4C307.3,107.8,307.1,108.1,306.3,107.3z M304.3,79.2c0.1,0.2,0.2,0.3,0.3,0.5c0.4,0.4,1.4,1.8,1.9,2.9
		c-0.1,0-0.1,0-0.1-0.1c0,0.1,0,0.1,0.1,0.1c0-0.1-0.1-0.1-0.1-0.2l0,0c-0.2-0.3-0.5-0.7-0.7-1l0,0c0,0,0,0-0.1-0.1
		c0.2,0.4,0.5,0.7,0.8,1.1c-0.3-0.4-0.7-0.7-1-1l0,0c-0.1-0.1-0.2-0.2-0.3-0.2l0,0c-0.2-0.2-0.6-0.5-0.7-0.5
		c-0.2-0.2-0.4-0.5-0.4-0.6c-0.2-0.2-0.3-0.4-0.4-0.6c0.1,0.1,0.2,0.1,0.2,0.2l0,0l0,0c-0.1-0.1-0.1-0.2-0.2-0.3
		c0.5,0.4,1,0.7,1.2,0.7c0-0.1,0-0.1,0-0.1l0,0l0,0h0.1c0-0.1-0.1-0.2-0.1-0.2l0,0C304.6,79.8,304.3,79.2,304.3,79.2 M300,80.6
		L300,80.6L300,80.6z M302.5,82.6L302.5,82.6C302.5,82.7,302.5,82.7,302.5,82.6z M315.1,109.3c0,0.3,0,0.7,0,1.1
		c0.1,0,0.1-0.1,0.1-0.2c0,0.3,0,0.7,0,1v-0.3v0.1l-0.1-0.1c0,0.2,0,0.4,0,0.6c-0.2-0.9-0.3-1.8-0.2-2.7c0.1-0.1,0.1-0.3,0.1-0.4
		c0.1-0.1,0.1-0.2,0.1-0.3c0,0.1,0,0.3,0.1,0.4c0-0.1,0-0.3,0-0.4C315.1,108.5,315.1,108.9,315.1,109.3z M315.1,116.1L315.1,116.1
		L315.1,116.1c-0.2-0.7-0.3-1.4-0.3-2.1v0.1c0-0.3,0-0.5,0-0.8c0.2,0.7,0.2,1.4,0.3,2.2c0.1,0.3,0.2,0.9,0.2,1.3l0,0c0,0,0,0,0,0.1
		C315.1,116.6,315.1,116.3,315.1,116.1z M313.8,125.6c0.1-0.5,0.3-1.1,0.5-1.6c0,0.1-0.1,0.3-0.1,0.4l0,0c0,0.1-0.1,0.2-0.1,0.3l0,0
		C314,125,313.7,125.8,313.8,125.6z M314.3,108c0,0,0-0.1,0-0.2c0.1,0.4,0.1,0.9,0.1,1.3V109l0,0C314.3,108.7,314.3,108.3,314.3,108
		z M312.3,93.1c0.1,0.4,0.2,0.7,0.3,1.1l0,0c0,0.1,0,0.1,0,0.1l0,0c0.1,0.3,0.2,0.7,0.2,1c-0.1-0.1-0.2-0.2-0.3-0.3l0,0l0,0
		c0,0.1,0,0.2,0.1,0.3c-0.1-0.4-0.2-0.9-0.5-1.2v0.1l-0.1-0.1v0.1c0-0.1-0.1-0.1-0.1-0.2l0,0l-0.1-0.1V94l0,0l0,0
		c-0.1-0.1-0.2-0.2-0.3-0.3v0.1l0,0l0,0l-0.1-0.1c0,0.1,0,0.1,0,0.2c-0.1-0.1-0.1-0.2-0.2-0.3l0,0l0,0c0,0.1,0.1,0.2,0.1,0.3
		c0-0.1-0.1-0.2-0.1-0.2l0,0c-0.3-0.5-0.7-1-1-1.4l0,0l-0.1-0.1l0,0l0,0v0.1c0-0.1-0.1-0.1-0.1-0.1c-1.6-2.2-3.9-3.7-6.1-5.6
		c0.4,0.3,0.9,0.6,1.4,0.8c-0.2-0.5-0.5-1-0.8-1.5c0.3,0.3,0.5,0.7,0.7,1v-0.1l0,0v-0.1c0.7,0.5,1.8,1.2,2.2,1.5l0,0
		c0.6,0.5,1.5,1.3,1.9,1.8c1.3,1,2.2,2.4,2.9,4c-0.4-1.5-0.8-3-1.4-4.4C311.3,90.8,311.8,92,312.3,93.1 M295,73.3
		c-0.2-0.1-0.3-0.2-0.5-0.2v0.1c-0.5-0.4-1-0.8-1.5-1.1V72c0.1,0,0.2,0.1,0.3,0.1c-0.1-0.2-0.3-0.4-0.5-0.5h-0.1
		c-0.3-0.4-0.6-0.8-0.8-1.2h0.1c-0.1-0.1-0.2-0.2-0.2-0.3h0.1V70c0.1,0,0.1,0,0.2,0l0,0h0.1h-0.1c0.1,0,0.3,0.1,0.4,0.1V70
		c0.5,0.2,0.8,0.6,1,1.1h-0.1c0.3,0.3,0.7,0.6,0.8,0.7c0.3,0,0.5,0.1,0.7,0.3V72c0.1,0,0.2,0,0.1-0.1c0.3,0.3,0.7,0.5,1.1,0.6
		l-0.2-0.2l0,0c-0.2-0.1-0.4-0.3-0.5-0.5c0.3,0,0.6,0.2,0.8,0.4l0,0c0.1,0.1,0.1,0.3,0.2,0.4c-0.1,0-0.1,0-0.2-0.1
		c0.3,0.2,0.5,0.4,0.8,0.5c-0.1-0.1-0.2-0.2-0.2-0.3h0.1l0,0c0.1,0.1,0.2,0.2,0.2,0.1c0.1,0.1,0.2,0.2,0.2,0.3l0,0h0.1l0,0
		c0.6,0.4,1.1,0.8,1.5,1.3c0-0.1-0.1-0.1-0.1-0.2c0.4,0.4,0.8,0.9,0.2,1c0,0.1,0.1,0.2,0.1,0.3c-0.4-0.2-0.8-0.5-1.2-0.8h0.1
		c-0.4-0.3-0.8-0.6-1-1h0.1c0,0-0.1-0.1-0.2-0.1l0,0l0.1,0.1C296.3,73.8,294.8,73.2,295,73.3z M263.3,57.8
		c-49.6,0-72.6,64.1-34.5,95.7c37.9,31.5,96.2-2.5,87.8-50.9C312.2,77.1,289.3,57.8,263.3,57.8"/>
	<path class="st1" d="M35.1,62.4c0.2,0.9,0.3,1.6,0.1,2.3c0.1,0.9-0.2,4.1-2.4,4.9c-0.4-0.5-0.2-0.8,0.6-1.1c0,0-0.2,0.7-0.1,0.8
		c0.1-0.4,0.2-0.6,0.6-0.7l-0.2,0.3c0.5-0.3,0.8-0.7,0.3-1c0.2-0.2,0.3-0.3,0.2-0.7c0.5,0.1,0.6-0.2,0.4-0.6c-0.9,0.6-2,1.2-1.3,1.7
		c-0.3,0.2-0.6,0.2-0.7-0.1c0.5-0.4,0.9-0.9,1.3-1.4c0,0.1,0,0.3,0,0.4c0.4-0.7,1-1.7,0.1-1.1l-0.2-0.4l-0.3,0.1
		c0-0.2,0-0.3-0.1-0.5c-0.2,0-4.3-1.7-4-2c-0.3,0.3,0.4,5.8,0.1,5.8c0.3,0.1,1,0.1,0,0.2c0.2,1.1,0.5,0.9,0.1,1.8
		c-0.3,0.9-0.3-0.8-0.3-0.7L29,71.8c2.7,0.3,1.6,2.7,2.9,3.5c1,0.7,2.9,0.6,4,0.8c3.7,0.6,7.7,0.6,11.9,1.5
		c-0.3-2.8,2.8-8.1,1.8-10.6C48.5,64.3,38.7,63.4,35.1,62.4"/>
	<path class="st2" d="M175.2,93.6c-0.6,0.2-1.3,1-1.8,1.1c0,0,0.9-1.2,0.9-1.3c-0.1,0.2-5.2,3.3-4.6,3.4
		C171.1,97,173.2,94.3,175.2,93.6"/>
	<path class="st2" d="M176.8,85.3C176.8,85.5,176.8,85.5,176.8,85.3"/>
	<path class="st1" d="M184.7,74.5l-0.2,0.2l-0.2-0.2c-0.5-1.2-2-1.9-2.8-3.2c-3.1-5-1.6-3.9-5.6-4.8c-1.2,3.1-0.7,7-1.9,8.9
		c-0.6,0.5-1.2,1.4-1.4,2.2c-0.9,0.2-4.8,0.9-4.9,1.5c0-2.1-6.4,3.8-6.8,4.5c-1,1.9,0.4,2.7-1.7,4.3c-1.4,1.1-4.5,0.5-5.9,1.7
		c0.1-0.1,1,1.2,0.6,1.7c-1,1.4-2.6,2.8-4.1,3.6c-2.1,1.6-4.1,3-6.8,3.2c0.1-0.3,0.4-0.4,0.6-0.3c-0.5,0-1.5-0.4-2.2-0.6
		c0.8-2.9,4.1-6,0.6-9.1c-1.8-1.6-1.1,4-2.7,0.5c-0.3-0.6,1.1-3.1,0.3-4.6c-0.2-0.8-5.4-3.9-4.3-0.5c0,0-2.4,1.9-1.4,2.4
		c0.1-0.2,0.1-0.5,0-0.7c0.1,0.4-0.1,0.6-0.4,0.8c-0.2-0.1,0.2-1.4,0.2-1.6c-4.7,4.1,1.4,9.7-2.1,14l5.7-0.6c-2.6,0.3-5.5,1-7.6,1
		c-0.5-0.6-1.2-2.1-1.1-3c-0.1-0.7-0.4-11.1,0.6-11c0.2,0-1.8,3.2-1.9,3c-0.4-0.5,0.7-2.2,0.9-2.4l0,0c0.6-1.9,1.3-3,2.2-3.2
		c0.2,0.3,0.3,0.6,0.4,1c-1.5-0.3,6.8-2.9,5.3-1.5c-0.2-0.3-0.1-0.6,0.1-1c0.4,0.1,1.6,0.9,2,0.3c0.3-0.5-3.4-3-3.4-3.1
		c-2,0.5-3.8,1.7-5.7,1.8c-1.9,0.1-1.4-1.6-3.7-0.7c0,0.2-0.5-2.3,0-1.8s-6.3,2.9-6.7,3c0.2-0.4,0.3-0.8,0.4-1.2
		c-0.1-0.2-3.4,1.2-3.9,1.2c1.3-0.2,5-4.7,6.8-5.7c-2.6-0.3-5.5-0.5-7.4-0.4c-1.6,0.2-6.8-2.3-7.6-4.3v1.5
		c-7.8,0.2-15.6-0.2-23.4-0.6c-10.6-1-20.9-2.5-31.4-4.4c-0.2,1.2-0.5,2.5-0.8,3.7c-0.4-0.2,0.6-3,0.7-3.7l-2.3-0.4
		c-0.5,2.4-0.9,14.5-3.1,15.8c7-4.5-6.3-5-8.8-5.2c-0.9-0.1-3.3-0.4-4.1-0.8c-1.9-1-2.4-3.7-5-3.8c-0.2,0.8-0.8,2.3-0.8,2.5
		c-1.4,4.1-5.5,9.4-4.4,13.2c-1.6,5.6-3.5,9.8-0.5,15.9l-0.2-0.5c-0.1,0.3-0.2,0.5-0.3,0.8c0.4,0.1,1.1,0.6,1.5,1
		c0.2-1.3,1.3-1,2.5-0.5c0,0.2-0.1,0.3-0.3,0.3c0.4-0.2,0.8,0,0.9,0.4c-2.1-1.3-3.5-0.9-2.3,1.6c-0.3-0.6-1-1.2-1-1.6
		c-0.7,1.8,0,3.5,1.1,4.7h-0.2c-1.7,2.9,2.7,6,1.5,9.3c3,1,6.3,3.8,7.7,5.7c1,1.5,1.1,4.1,1.9,4.6c1.9,1.5,8.7-1,7.3,1.7
		c6.4,3.7,11,6.6,18.3,7.6v-0.1l2.8,0.4l0.3-1.5c5.2-0.4,7,3.8,9.6,7.3c1.1,1.4,1,3.5,3.3,4.1c3.4,0.9,1-1.3,3.8-2
		c6.8-1.7,9.3,9.2,11.7,13.3v0.2c1.1,0.6,5.9,1.3,6.2,2.3c-0.6-1.5-0.8-4.3-0.3-5.5c-0.1,0-1.6-0.5-1.2-0.8c0.2-0.2,1,1,0.9,0.6
		c0.2,0.4,0.1-2.2,0.1-2.3c0.6-0.3,0.8,0.3,1,0.2c0-0.2,0.5-0.8,0.6-1.1c-0.2,0.4-0.4,0.4-0.6,0.1c0.2-0.1,0.2-0.2,0.1-0.4
		c0.3-0.4,1.1,0.2,0.9,0.1c0.3-0.2,0.4-1.2,0.4-1.2s1.1,0,1.3,0c-0.1,0-1.2-0.6-0.9-1c1.2,0.4,0.2,0.4,0.7-0.1
		c-0.2,0.2,1.4,0.4,1.4,0.4c-0.1,0.1-1.1,0.9-0.3,0.4c0.4-0.3,0.8-0.5,1.2-0.6c-0.1,0,3-4.3,2.5-4.1c-0.2,0.1,1.1,0,1-0.2
		c0.5,0.7-0.1,1-0.1,1.6c2.1-0.4,3.9-1,5.8-1.4l-0.2-0.3c0.3-0.2,0.4-0.4,0.3-0.8c0.2,0.5,3.3,3.2,4.4,1.7c0.6-0.9,5.4,1.3,6.9,0.8
		l0.2-0.1c-0.2-0.3-0.4-0.8-0.6-1c0.5,0.2,1,0.4,1.5,0.6c0.3,0.3,1.1,0.8,1.7,0.7c0,0.2,0,0.4-0.2,0.6c-0.3,1,0.2-0.1,0.3-0.4
		l0.3,0.6c0,0.1-1.8-3.1-2.1-2.3c0,0,1.9-1.5,0.7-1.9c0.3,0.1-1.5,1.3-1.3,0.3c0.4-0.1,0.6-0.3,0.6-0.6c0,0-4.3,0.7-1.7-0.8
		c0.3-0.2,1.8,0.5,2.6,0.2c1.5-0.7,3.7,0,2.8-3c-0.2,1.3,0.1,2.3,1.3,2.5c0-0.6,0.1-1.1,0.3-1.6c0.4,0.9,0.5,1.5,0.2,2.2
		c1.4-0.5,2.5-1.2,2.9-2.2c-0.1,0.6,0.7,0.6-0.3,1c0.4-0.1,3.8-0.8,3.5-0.5c0.1-0.1-1.2,0-1.3,0c1,0.2,1.8,0.3,2.7,0.8
		c0.1-0.1-0.3-0.5-0.3-0.6c0.3,0.1,0.5,0,0.8-0.2c0,0-0.4,0.6-0.4,0.5c0,0.2,0.7,0.3,0.8,0.5c0.8,0.4-0.6-0.2-0.7-0.2
		c0.2,0.2,1.8,1,1.4,1.4c-0.3,0.3-0.5-0.6-0.4-0.6c1.1,0.8,2.7,0,3.1-0.9l0.3,0.1c4.6-3.6,6.6,7.6,6.7,7.7c0,0,0.2-0.8,0.2-0.9
		c-0.1,0.2,1,0.4,1,0.1c0.1,0.4-0.6,1.7-0.7,2l-0.2-0.2c0.7,1,1.5,1.9,2.5,2.5c-0.5-0.5-0.5-0.8,0.2-0.8c0,0.6,0.2,1.3,0.5,1.7
		c0.2-0.3,0.4-0.5,0.6-0.8c-0.2,0.3-0.4,0.6-0.5,1c1.1,1.4,4.8,4,3.8,4c0.4,0.7,1.4,0.6,2.4,0.1l-0.1-0.1l0.3,0.1
		c0-1.3,0.3-2.5,0.5-2.6c0.2-4.5-2.8-7.2-4.4-11c0.6,1.1,1.3,2.3,2,3.3c-1.1-2.2-5.8-12.4-7.3-11c-0.1,0.1,0.4,2.6-0.4,1.9
		c0.9,0.4,0.1-1.7,0.3-1.9c0.3-0.2,1.3,0.5,1.7,0.2c-0.4-2.1,1.3-7.1,1.3-7.1l0.1-0.5c-0.2,1,0.5,0.6,0.8,0.1c0,0-0.7-0.4-0.8-0.4
		c1.9-0.3,1.6-0.6,2.3-1.3c0.8,0.1,0.7-0.2,1.6-0.5c-0.1,0-0.1-0.1-0.1-0.2c0.5-0.6,1.2-0.3,0.5-1.6c0.1,0.2,0.4,0.5,0.4,0.8
		c0.3-1.4,1.1-1.6,1.9-2.6c1-0.6,2.1,0.3,1.6-1.4c0.2,0.3,0.4,0.9,0.2,1.2c0.2-1.3,0.3-2.1,1.4-3c-0.1-0.1-0.6-0.1-0.7-0.3
		c1-0.2,2.4-0.9,2.7-1l0.1-0.2l0.3,0.2c0.4-0.6,1.1-1.5,0.1-0.9c1,0.1-2.3-0.1-1.9-0.4c-0.1,0.1,1,0.7,1.3,0.5
		c-0.4-1.6,0.7-0.9-1.6-1.9c0.2,0,1.3,0.3,1.4,0.2c0.1-0.2,0-0.4-0.1-0.6c1.9,0.9,2.6-0.4,2-2.2c0,0.2-0.3,1.4-0.5,1.4
		c-1.1-1-1.8-0.6-2.1-2.1c0.3,0.5,1.3,1.5,1.8,0.3c-0.1-0.3-0.3-0.5-0.6-0.5c0.6,0.3,0.6,0.1,1.1,0.5c-0.2-0.5-0.8-1.2-0.9-1.7
		c-0.4-0.9-1.1-1.7-1.6-0.9c0,0-3.1-1.6-3.3-1.1c0.4-1,2.6,0.9,2.8,0.8c0-0.3,0.1-0.3,0.3-0.2c-0.5-0.4-1-1-1.9-1.6
		c0.4,0.4,1.2,0.4,1.4,0.4c0.1-0.1,0-0.3,0.4-0.3c-0.8-0.7-2.1-1.9-3.3-2.5c0.7,0.5,1.9,1.1,2.7,1.6c0.5-2.6-4-1.2-2.9-4.1
		c0,0.1-0.4,1.3-0.2,1.4c-0.1,0,3.1,0.7,2.9,1c0.3-0.5-0.5-2.2-0.6-2c0.1-0.2,0.9,0.4,0.9,0.5c0.3-0.2-1-3.6-1-3.7
		c-0.1,0.1,1.7-1.6,1.5-1.7c0,0.2,0.1,0.2,0.2,0c-0.1-0.1-0.5,2-0.6,2.1c0.3-0.2,0,0.5-0.1,0.9c-0.6-0.2,1.3-0.3,0.5,0.1
		c-0.4,0.2-0.1,0.2-0.3,0.5c0.9-0.2,0.9-0.3,0.2,0.5c0.3,0,0.3,0.4,0.4,0.9l-0.1-0.2l0.7,0.4c-0.1-0.2-0.1-0.3,0-0.5l0.1,0.3
		l0.2-0.4l-0.1,0.5c0,0.2,0,0.6,0.7,0.5c-0.1,0.2-0.2,0.5-0.3,0.7c0.2-0.1,0.5-0.2,0.7-0.2c-0.3,1.1-0.1,2.5-0.3,3.4
		c0.2-1.4,0.8-2.3,1-3.8l-0.5,0.2c1.4-1.5,0.1-2.2,0.6-3.6c-0.2,0.6-2.1-1.7-2-2.2c0,0.6,2,1,2.1,1.9c-0.1-0.6,1.7-3.7,1.7-4.9
		c0.1,0.4,0.1,0.7,0.1,1.1c-0.1-0.3-0.1-3.8-1.2-2.6c0.9-0.9,0.2-2.1,0.3-3.1c0.1,0.5,0.2,1.3,0.4,1.9c0,0.1,0.6-1.9,0.5-1.6
		c1.4-0.3,2.8-1.1,3.8-2.1c-1.1,1.1,3.7-3.1,2.3-2.4c0.4-0.2,2.6,0.6,2.2,0.4c0.7-0.2,1.3-0.6,1.8-1.2c0.6,0.2-0.2-0.6-0.9-1.3
		c0.2,0.2,0.2,0.2,0.5,0.6v-0.2c-1.2,2.7-2.4-1-2.2-2c-0.1-0.1-0.1-0.2-0.1-0.3c-0.2-0.1-1.3-0.5-1.5-0.4c0,0,0.6-0.3,0.6-0.2
		c-0.1-1.5,0.7-4.1,1.6-4.2c0.1,0-0.1-1.1-0.1-1.3c0,0.4,0.1,0.8,0.3,1.1c0.2-0.3-0.2-1,0.4-0.3c-0.1-0.2-0.2-0.5-0.1-0.8
		c-0.2,0,0.3,0.7,0.3,0.6c0.2-0.5,1.7-2.7,1.1-3.3c0.4,0.4,0.1,0.7,0.2,0.9c0.6,0.8,0.8-0.9,0.7-0.9c0.6,0.1,0.4-0.4,1.2,0.2
		c0.4-0.5,1.2-1.1,1.5-1.9C184.8,75.5,185,75.1,184.7,74.5z"/>
</g>
<g class="st3">
	<path class="st4" d="M80.4,117.7c-5.6,0-9-2.3-11-4.4l3.9-4.9c0.8,0.6,3.2,3.1,6.8,3.1c3.1,0,6.3-2.2,6.3-6.3
		c0-3.5-2.8-5.4-5.7-5.4c-0.9,0-2,0.3-3.9,1.1l-2.7-3.7c4.4-2.4,8.8-5.3,11.1-10.2H71v-6.2h21.6v3.5c-0.8,5.5-3.7,9.1-5.9,11.1
		c2.9,1.3,6.6,4.2,6.6,9.8C93.3,112.8,87.2,117.7,80.4,117.7z"/>
	<path class="st4" d="M109.5,117.7c-6.5,0-11.8-4.5-11.8-10.3c0-3.7,2-6.9,6.2-9.6c-3.9-2.5-5.7-5.4-5.7-8.7c0-5.4,5.1-9.4,11.3-9.4
		c6.1,0,11.3,3.9,11.3,9.4c0,3.3-1.8,6.1-5.6,8.6c4.2,2.7,6.1,5.9,6.1,9.7C121.3,113.2,116.1,117.7,109.5,117.7z M109.3,100.2
		c-2.7,1.7-5,3.7-5,6.6c0,2.5,2,4.9,5.2,4.9c3.2,0,5.2-2.3,5.2-4.8S112.3,101.9,109.3,100.2z M109.5,85.6c-3.2,0-4.7,2-4.7,3.7
		c0,2.6,3,4.6,4.9,5.7c1.8-1.2,4.5-3.2,4.5-5.5C114.2,87.6,112.7,85.6,109.5,85.6z"/>
</g>
<g class="st3">
	<path class="st4" d="M72.1,135.7c-1.5,0-2.4-0.4-3-0.6v-2.3c0.4,0.2,1.9,0.8,2.9,0.8c0.8,0,1.2-0.3,1.2-0.7c0-0.3-0.2-0.5-0.9-0.9
		c-1.3-0.7-3.2-1.5-3.2-3.3c0-1.9,1.6-2.9,3.4-2.9c1.3,0,2.5,0.5,2.9,0.7v2.2c-0.4-0.2-1.7-0.7-2.8-0.7c-0.7,0-1.1,0.3-1.1,0.6
		c0,0.3,0.3,0.6,0.9,0.8c1.5,0.7,3.3,1.5,3.3,3.4C75.7,134.7,73.9,135.7,72.1,135.7z"/>
	<path class="st4" d="M81.7,135.7c-1.8,0-3.3-1-3.3-4.1v-3.3h-1.7l0.4-2.2h1.3v-3.7H81v3.7h3l-0.4,2.2H81v3.3c0,1.3,0.6,1.8,1.7,1.8
		c0.5,0,0.9-0.1,1.4-0.3v2.1C83.6,135.4,82.7,135.7,81.7,135.7z"/>
	<path class="st4" d="M91.1,135.4l-0.1-0.7c-0.4,0.4-1.2,0.9-2.5,0.9c-1.7,0-3.1-1.3-3.1-3c0-2.1,1.9-3,3.9-3.2l1.5-0.1v-1.3H86
		l0.4-2h7v9.3H91.1z M90.8,131.1l-1.3,0.1c-0.9,0.1-1.5,0.7-1.5,1.3s0.7,1.1,1.2,1.1c0.7,0,1.4-0.4,1.6-0.6V131.1z"/>
	<path class="st4" d="M99.9,135.7c-1.8,0-3.3-1-3.3-4.1v-3.3h-1.7l0.4-2.2h1.3v-3.7h2.6v3.7h3l-0.4,2.2h-2.5v3.3
		c0,1.3,0.6,1.8,1.7,1.8c0.5,0,0.9-0.1,1.4-0.3v2.1C101.8,135.4,100.9,135.7,99.9,135.7z"/>
	<path class="st4" d="M106.2,131.4c0.3,1.1,1.3,2.1,2.8,2.1c1.7,0,2.9-0.6,3.3-0.8v2.1c-0.3,0.2-1.3,0.8-3.6,0.8
		c-2.6,0-5.2-1.8-5.2-4.9c0-2.8,2.2-5,4.7-5c2.4,0,4.1,1.8,4.1,4.4v1.2H106.2z M108.3,127.9c-1.1,0-1.9,0.9-2.1,1.9h3.8
		C110,128.9,109.4,127.9,108.3,127.9z"/>
	<path class="st4" d="M117.6,135.7c-1.5,0-2.4-0.4-3-0.6v-2.3c0.4,0.2,1.9,0.8,2.9,0.8c0.8,0,1.2-0.3,1.2-0.7c0-0.3-0.2-0.5-0.9-0.9
		c-1.3-0.7-3.2-1.5-3.2-3.3c0-1.9,1.6-2.9,3.4-2.9c1.3,0,2.5,0.5,2.9,0.7v2.2c-0.4-0.2-1.7-0.7-2.8-0.7c-0.7,0-1.1,0.3-1.1,0.6
		c0,0.3,0.3,0.6,0.9,0.8c1.5,0.7,3.3,1.5,3.3,3.4C121.2,134.7,119.4,135.7,117.6,135.7z"/>
</g>
<g class="st3">
	<path class="st4" d="M244.3,118.5v-2.9l11.8-12.8c3.2-3.4,5.6-6.6,5.6-9.7c0-3.4-2.3-5.6-5.6-5.6c-3.1,0-5.7,2.1-6.1,6.5h-6.2
		c0.4-7.7,5.8-12.5,12.3-12.5c7,0,12.3,4.6,12.3,11.6c0,5-3.8,9.8-6.8,13c-1.1,1.1-5.1,5.3-6.4,6.5h13.4v5.9H244.3z"/>
	<path class="st4" d="M275.1,118.5V83.2l6.8-2v37.3H275.1z"/>
</g>
<g class="st3">
	<path class="st4" d="M226.8,137.5c-2.9,0-5.2-2-5.2-4.9c0-2.8,2.2-5,5.2-5c1.6,0,2.9,0.7,3.3,0.9v2.2c-0.4-0.2-1.5-0.8-2.9-0.8
		c-1.8,0-3,1.1-3,2.6c0,1.5,1.2,2.6,3,2.6c1.3,0,2.5-0.7,2.9-0.9v2.3C229.8,136.8,228.7,137.5,226.8,137.5z"/>
	<path class="st4" d="M237.2,137.5c-2.9,0-5.2-2.1-5.2-4.9s2.3-5,5.2-5c2.9,0,5.2,2.2,5.2,5S240,137.5,237.2,137.5z M237.2,129.8
		c-1.4,0-2.6,1.2-2.6,2.8s1.2,2.7,2.6,2.7c1.4,0,2.6-1.2,2.6-2.7S238.6,129.8,237.2,129.8z"/>
	<path class="st4" d="M250.9,137.2l-0.2-0.6c-0.2,0.2-1.1,0.9-2.8,0.9c-1.7,0-3.3-1.2-3.3-4v-5.6h2.6v5.7c0,1.1,0.7,1.6,1.6,1.6
		c0.8,0,1.7-0.6,1.9-0.8v-6.5h2.6v9.3H250.9z"/>
	<path class="st4" d="M262.6,137.2v-5.7c0-1.1-0.7-1.6-1.6-1.6c-0.8,0-1.8,0.7-2.1,1v6.3h-2.6v-9.3h2.5l0.1,0.8
		c0.3-0.3,1.3-1.1,2.9-1.1c2,0,3.4,1.3,3.4,4v5.6H262.6z"/>
	<path class="st4" d="M271.7,137.5c-1.8,0-3.3-1-3.3-4.1V130h-1.7l0.4-2.2h1.3v-3.7h2.6v3.7h3l-0.4,2.2H271v3.3
		c0,1.3,0.6,1.8,1.7,1.8c0.5,0,0.9-0.1,1.4-0.3v2.1C273.6,137.2,272.8,137.5,271.7,137.5z"/>
	<path class="st4" d="M280.7,129.9c-1.1,0-1.7,0.6-2,0.9v6.4H276v-9.3h2.5l0.1,1c0.2-0.2,0.8-1.3,2.3-1.3c0.6,0,1,0.1,1.1,0.1v2.4
		C282,130,281.4,129.9,280.7,129.9z"/>
	<path class="st4" d="M285.2,126.1l-1.7-1.7l1.7-1.7l1.7,1.7L285.2,126.1z M283.9,137.2v-9.3h2.6v9.3H283.9z"/>
	<path class="st4" d="M291.7,133.2c0.3,1.1,1.3,2.1,2.8,2.1c1.7,0,2.9-0.6,3.3-0.8v2.1c-0.3,0.2-1.3,0.8-3.6,0.8
		c-2.6,0-5.2-1.8-5.2-4.9c0-2.8,2.2-5,4.7-5c2.4,0,4.1,1.8,4.1,4.4v1.2H291.7z M293.8,129.6c-1.1,0-1.9,0.9-2.1,1.9h3.8
		C295.5,130.7,294.9,129.6,293.8,129.6z"/>
	<path class="st4" d="M303.1,137.5c-1.5,0-2.4-0.4-3-0.6v-2.3c0.4,0.2,1.9,0.8,2.9,0.8c0.8,0,1.2-0.3,1.2-0.7c0-0.3-0.2-0.5-0.9-0.9
		c-1.3-0.7-3.2-1.5-3.2-3.3c0-1.9,1.6-2.9,3.4-2.9c1.3,0,2.5,0.5,2.9,0.7v2.2c-0.4-0.2-1.7-0.7-2.8-0.7c-0.7,0-1.1,0.3-1.1,0.6
		c0,0.3,0.3,0.6,0.9,0.8c1.5,0.7,3.3,1.5,3.3,3.4C306.7,136.5,304.9,137.5,303.1,137.5z"/>
</g>
<rect x="30.5" y="19.1" class="st5" width="279" height="48"/>
<g class="st3">
	<path class="st1" d="M39.3,32.4c-2.5,0-4.6-1.9-4.6-4.3s2-4.3,4.6-4.3c2.5,0,4.6,1.9,4.6,4.3S41.8,32.4,39.3,32.4z M39.3,25.7
		c-1.2,0-2.3,1-2.3,2.4s1,2.4,2.3,2.4c1.2,0,2.3-1,2.3-2.4S40.5,25.7,39.3,25.7z"/>
	<path class="st1" d="M51.3,32.1l-0.1-0.5c-0.2,0.2-1,0.8-2.5,0.8c-1.5,0-2.9-1.1-2.9-3.5V24h2.3v5c0,1,0.6,1.4,1.4,1.4
		c0.7,0,1.4-0.6,1.6-0.7V24h2.3v8.1H51.3z"/>
	<path class="st1" d="M60,25.8c-0.9,0-1.5,0.6-1.7,0.8v5.6H56V24h2.2l0.1,0.9c0.1-0.2,0.7-1.1,2-1.1c0.5,0,0.9,0.1,1,0.1V26
		C61.1,25.9,60.7,25.8,60,25.8z"/>
	<path class="st1" d="M72.2,32.1l-0.1-0.5c-0.2,0.2-1,0.8-2.5,0.8c-1.5,0-2.9-1.1-2.9-3.5V24H69v5c0,1,0.6,1.4,1.4,1.4
		c0.7,0,1.4-0.6,1.6-0.7V24h2.3v8.1H72.2z"/>
	<path class="st1" d="M82.4,32.1v-5c0-1-0.6-1.4-1.4-1.4c-0.7,0-1.5,0.6-1.9,0.9v5.5h-2.3V24h2.2l0.1,0.7c0.3-0.3,1.1-0.9,2.5-0.9
		c1.7,0,3,1.1,3,3.5v4.9H82.4z"/>
	<path class="st1" d="M93,32.1l-0.2-0.6l-2,0.9c-0.9-0.3-4.2-1.2-4.2-4.6c0-2.2,1.7-4,4.1-4c1.3,0,1.9,0.4,2.2,0.6v-5.3h2.3v13.1H93
		z M91,25.7c-1.2,0-2.1,1-2.1,2.1c0,1.4,1,2.3,1.9,2.6l2.1-0.9v-3.1C92.7,26.3,92,25.7,91,25.7z"/>
	<path class="st1" d="M99.5,28.7c0.3,1,1.2,1.9,2.5,1.9c1.5,0,2.5-0.6,2.9-0.7v1.8c-0.3,0.1-1.1,0.7-3.1,0.7c-2.3,0-4.5-1.6-4.5-4.3
		c0-2.4,1.9-4.3,4.1-4.3c2.1,0,3.6,1.6,3.6,3.8v1.1H99.5z M101.3,25.6c-1,0-1.6,0.8-1.8,1.7h3.3C102.9,26.5,102.3,25.6,101.3,25.6z"
		/>
	<path class="st1" d="M111.3,25.8c-0.9,0-1.5,0.6-1.7,0.8v5.6h-2.3V24h2.2l0.1,0.9c0.1-0.2,0.7-1.1,2-1.1c0.5,0,0.9,0.1,1,0.1V26
		C112.4,25.9,112,25.8,111.3,25.8z"/>
	<path class="st1" d="M120.5,25.8c0.2,0.5,0.4,1,0.4,1.6c0,2.1-1.7,3.6-3.8,3.6c-0.2,0-0.5,0-0.7,0l-0.5,0.7l2.8,0.8
		c1.4,0.4,2.4,1.4,2.4,2.8c0,1.5-1.6,3-4.2,3c-2.1,0-3.9-1.2-3.9-3c0-1,0.6-1.7,1.1-2.1l-1.2-0.4l1.8-2.4c-0.9-0.6-1.5-1.7-1.5-2.9
		c0-2.1,1.7-3.6,3.8-3.6c0.9,0,1.8,0.3,2.5,0.9L120,24h2v1.8H120.5z M118.3,34.3l-2.3-0.7c-0.3,0.2-0.9,0.7-0.9,1.4
		c0,0.9,1,1.5,2,1.5c1.2,0,2-0.6,2-1.2C119,34.8,118.8,34.4,118.3,34.3z M117.1,25.7c-0.9,0-1.7,0.7-1.7,1.7c0,1,0.8,1.7,1.7,1.7
		c0.9,0,1.7-0.7,1.7-1.7C118.7,26.4,118,25.7,117.1,25.7z"/>
	<path class="st1" d="M127.3,25.8c-0.9,0-1.5,0.6-1.7,0.8v5.6h-2.3V24h2.2l0.1,0.9c0.1-0.2,0.7-1.1,2-1.1c0.5,0,0.9,0.1,1,0.1V26
		C128.4,25.9,127.9,25.8,127.3,25.8z"/>
	<path class="st1" d="M134.3,32.1l-0.1-0.6c-0.4,0.4-1.1,0.8-2.1,0.8c-1.5,0-2.7-1.1-2.7-2.6c0-1.8,1.6-2.6,3.4-2.8l1.3-0.1v-1.2
		h-4.2l0.3-1.7h6.1v8.1H134.3z M134.1,28.4l-1.2,0.1c-0.8,0.1-1.3,0.6-1.3,1.2c0,0.6,0.6,0.9,1.1,0.9c0.6,0,1.2-0.4,1.4-0.6V28.4z"
		/>
	<path class="st1" d="M144.6,32.1l-0.2-0.6l-2,0.9c-0.9-0.3-4.2-1.2-4.2-4.6c0-2.2,1.7-4,4.1-4c1.3,0,1.9,0.4,2.2,0.6v-5.3h2.3v13.1
		H144.6z M142.7,25.7c-1.2,0-2.1,1-2.1,2.1c0,1.4,1,2.3,1.9,2.6l2.1-0.9v-3.1C144.3,26.3,143.6,25.7,142.7,25.7z"/>
	<path class="st1" d="M155.7,32.4c-1.3,0-2.1-0.4-2.6-0.6v-2c0.4,0.2,1.6,0.7,2.6,0.7c0.7,0,1-0.2,1-0.6c0-0.3-0.2-0.5-0.8-0.8
		c-1.2-0.6-2.8-1.3-2.8-2.9c0-1.7,1.4-2.5,3-2.5c1.1,0,2.2,0.4,2.5,0.6v1.9c-0.4-0.2-1.4-0.6-2.4-0.6c-0.6,0-1,0.2-1,0.6
		c0,0.3,0.3,0.5,0.8,0.7c1.3,0.6,2.9,1.3,2.9,2.9C158.8,31.6,157.3,32.4,155.7,32.4z"/>
	<path class="st1" d="M164.1,32.4c-1.6,0-2.9-0.9-2.9-3.6v-2.9h-1.5L160,24h1.1v-3.2h2.3V24h2.6l-0.4,1.9h-2.2v2.9
		c0,1.2,0.6,1.6,1.4,1.6c0.4,0,0.8-0.1,1.2-0.3V32C165.7,32.1,165,32.4,164.1,32.4z"/>
	<path class="st1" d="M173.3,32.1l-0.1-0.5c-0.2,0.2-1,0.8-2.5,0.8c-1.5,0-2.9-1.1-2.9-3.5V24h2.3v5c0,1,0.6,1.4,1.4,1.4
		c0.7,0,1.4-0.6,1.6-0.7V24h2.3v8.1H173.3z"/>
	<path class="st1" d="M183.7,32.1l-0.2-0.6l-2,0.9c-0.9-0.3-4.2-1.2-4.2-4.6c0-2.2,1.7-4,4.1-4c1.3,0,1.9,0.4,2.2,0.6v-5.3h2.3v13.1
		H183.7z M181.8,25.7c-1.2,0-2.1,1-2.1,2.1c0,1.4,1,2.3,1.9,2.6l2.1-0.9v-3.1C183.4,26.3,182.7,25.7,181.8,25.7z"/>
	<path class="st1" d="M190.2,28.7c0.3,1,1.2,1.9,2.5,1.9c1.5,0,2.5-0.6,2.9-0.7v1.8c-0.3,0.1-1.1,0.7-3.1,0.7
		c-2.3,0-4.5-1.6-4.5-4.3c0-2.4,1.9-4.3,4.1-4.3c2.1,0,3.6,1.6,3.6,3.8v1.1H190.2z M192.1,25.6c-1,0-1.6,0.8-1.8,1.7h3.3
		C193.6,26.5,193.1,25.6,192.1,25.6z"/>
	<path class="st1" d="M203.5,32.1v-5c0-1-0.6-1.4-1.4-1.4c-0.7,0-1.5,0.6-1.9,0.9v5.5H198V24h2.2l0.1,0.7c0.3-0.3,1.1-0.9,2.5-0.9
		c1.7,0,3,1.1,3,3.5v4.9H203.5z"/>
	<path class="st1" d="M211.5,32.4c-1.6,0-2.9-0.9-2.9-3.6v-2.9h-1.5l0.4-1.9h1.1v-3.2h2.3V24h2.6l-0.4,1.9h-2.2v2.9
		c0,1.2,0.6,1.6,1.4,1.6c0.4,0,0.8-0.1,1.2-0.3V32C213.2,32.1,212.4,32.4,211.5,32.4z"/>
	<path class="st1" d="M217.5,32.4c-1.3,0-2.1-0.4-2.6-0.6v-2c0.4,0.2,1.6,0.7,2.6,0.7c0.7,0,1-0.2,1-0.6c0-0.3-0.2-0.5-0.8-0.8
		c-1.2-0.6-2.8-1.3-2.8-2.9c0-1.7,1.4-2.5,3-2.5c1.1,0,2.2,0.4,2.5,0.6v1.9c-0.4-0.2-1.4-0.6-2.4-0.6c-0.6,0-1,0.2-1,0.6
		c0,0.3,0.3,0.5,0.8,0.7c1.3,0.6,2.9,1.3,2.9,2.9C220.6,31.6,219,32.4,217.5,32.4z"/>
</g>
<g class="st3">
	<path class="st1" d="M127.8,54.1l-0.1-0.6c-0.4,0.4-1.1,0.8-2.1,0.8c-1.5,0-2.7-1.1-2.7-2.6c0-1.8,1.6-2.6,3.4-2.8l1.3-0.1v-1.2
		h-4.2l0.3-1.7h6.1v8.1H127.8z M127.5,50.4l-1.2,0.1c-0.8,0.1-1.3,0.6-1.3,1.2c0,0.6,0.6,0.9,1.1,0.9c0.6,0,1.2-0.4,1.4-0.6V50.4z"
		/>
	<path class="st1" d="M136.3,47.8c-0.9,0-1.5,0.6-1.7,0.8v5.6h-2.3V46h2.2l0.1,0.9c0.1-0.2,0.7-1.1,2-1.1c0.5,0,0.9,0.1,1,0.1V48
		C137.5,47.9,137,47.8,136.3,47.8z"/>
	<path class="st1" d="M140.6,50.7c0.3,1,1.2,1.9,2.5,1.9c1.5,0,2.5-0.6,2.9-0.7v1.8c-0.3,0.1-1.1,0.7-3.1,0.7
		c-2.3,0-4.5-1.6-4.5-4.3c0-2.4,1.9-4.3,4.1-4.3c2.1,0,3.6,1.6,3.6,3.8v1.1H140.6z M142.5,47.6c-1,0-1.6,0.8-1.8,1.7h3.3
		C144,48.5,143.5,47.6,142.5,47.6z"/>
	<path class="st1" d="M157.6,43.3c-0.2-0.3-0.5-0.6-1.1-0.6c-0.8,0-1.4,0.6-1.4,1.6V46h2.8l-0.4,1.9H155v6.2h-2.3v-6.2h-1.4l0.4-1.9
		h1.1v-1.7c0-2.4,1.7-3.7,3.5-3.7c1.5,0,2.4,0.9,2.7,1.2L157.6,43.3z"/>
	<path class="st1" d="M162.8,47.8c-0.9,0-1.5,0.6-1.7,0.8v5.6h-2.3V46h2.2l0.1,0.9c0.1-0.2,0.7-1.1,2-1.1c0.5,0,0.9,0.1,1,0.1V48
		C163.9,47.9,163.4,47.8,162.8,47.8z"/>
	<path class="st1" d="M169.3,54.4c-2.5,0-4.6-1.9-4.6-4.3s2-4.3,4.6-4.3c2.5,0,4.6,1.9,4.6,4.3S171.8,54.4,169.3,54.4z M169.3,47.7
		c-1.2,0-2.3,1-2.3,2.4s1,2.4,2.3,2.4c1.2,0,2.3-1,2.3-2.4S170.5,47.7,169.3,47.7z"/>
	<path class="st1" d="M186.3,54.1v-5.1c0-0.9-0.5-1.3-1.2-1.3c-0.6,0-1.3,0.4-1.7,0.8v5.6h-2.3v-5.1c0-0.9-0.5-1.3-1.2-1.3
		c-0.6,0-1.3,0.4-1.7,0.8v5.6h-2.3V46h2.2l0.1,0.6c0.3-0.3,1.1-0.9,2.4-0.9c1,0,1.9,0.4,2.4,1.4l0.5-0.5c0.3-0.3,1.1-0.9,2.4-0.9
		c1.6,0,2.8,1.1,2.8,3.3v5.1H186.3z"/>
</g>
<rect id="_x3C_Slice_x3E__18_" x="10.9" y="186.1" class="st5" width="327" height="50"/>
<rect id="_x3C_Slice_x3E__23_" x="10.9" y="-11.6" class="st5" width="327" height="197.7"/>
</svg>
